<?xml version="1.0" encoding="UTF-8"?>
<!DOCTYPE svg PUBLIC "-//W3C//DTD SVG 1.1//EN" "http://www.w3.org/Graphics/SVG/1.1/DTD/svg11.dtd">
<!-- Creator: CorelDRAW -->
<svg xmlns="http://www.w3.org/2000/svg" xml:space="preserve" width="354px" height="354px" version="1.1" shape-rendering="geometricPrecision" text-rendering="geometricPrecision" image-rendering="optimizeQuality" fill-rule="evenodd" clip-rule="evenodd"
viewBox="0 0 354 354"
 xmlns:xlink="http://www.w3.org/1999/xlink"
 xmlns:xodm="http://www.corel.com/coreldraw/odm/2003">
 <defs>
    <linearGradient id="id0" gradientUnits="userSpaceOnUse" x1="27.3" y1="69.04" x2="321.4" y2="348.72">
     <stop offset="0" stop-opacity="0.6" stop-color="white"/>
     <stop offset="1" stop-opacity="0.301961" stop-color="white"/>
    </linearGradient>
    <linearGradient id="id1" gradientUnits="userSpaceOnUse" x1="27.3" y1="67.1" x2="321.4" y2="348.67">
     <stop offset="0" stop-opacity="0.6" stop-color="white"/>
     <stop offset="0.490196" stop-opacity="0" stop-color="white"/>
     <stop offset="1" stop-opacity="0.301961" stop-color="white"/>
    </linearGradient>
    <linearGradient id="id2" gradientUnits="userSpaceOnUse" x1="110.81" y1="225.48" x2="237.89" y2="348.67">
     <stop offset="0" stop-opacity="0.701961" stop-color="white"/>
     <stop offset="0.521569" stop-opacity="0.45098" stop-color="white"/>
     <stop offset="1" stop-opacity="0.54902" stop-color="white"/>
    </linearGradient>
 </defs>
 <g id="Слой_x0020_1">
  <metadata id="CorelCorpID_0Corel-Layer"/>
  <g id="_2620937939968">
   <path fill="url(#id0)" fill-rule="nonzero" d="M294.17 354.83l-236.01 0c-32.58,0 -58.99,-25.6 -58.99,-57.19l0 -176.07c0,-20.78 11.62,-39.9 30.34,-49.99l118 -63.54c17.82,-9.59 39.49,-9.59 57.31,0l118 63.54c18.72,10.09 30.35,29.23 30.35,49.99l0 176.07c0,31.59 -26.42,57.19 -59,57.19z"/>
   <path fill="url(#id1)" fill-rule="nonzero" d="M176.17 10.37c8.33,0 16.59,2.07 23.87,6l118 63.55c15.6,8.39 25.29,24.36 25.29,41.65l0 176.07c0,26.27 -22.06,47.66 -49.16,47.66l-236.01 0c-27.12,0 -49.16,-21.39 -49.16,-47.66l0 -176.07c0,-17.29 9.69,-33.26 25.29,-41.65l118 -63.55c7.28,-3.93 15.54,-6 23.88,-6zm0 -9.54c-9.88,0 -19.75,2.41 -28.66,7.21l-118 63.54c-18.72,10.09 -30.34,29.23 -30.34,49.99l0 176.07c0,31.59 26.41,57.19 58.99,57.19l236.01 0c32.58,0 59,-25.6 59,-57.19l0 -176.07c0,-20.78 -11.63,-39.9 -30.35,-49.99l-118 -63.54c-8.91,-4.8 -18.78,-7.21 -28.65,-7.21z"/>
   <path fill="url(#id2)" fill-rule="nonzero" d="M235.17 354.83l-118 0 0 -114.39c0,-21.06 17.6,-38.13 39.33,-38.13l39.33 0c21.73,0 39.34,17.07 39.34,38.13l0 114.39z"/>
  </g>
 </g>
</svg>
