<?xml version="1.0" encoding="UTF-8"?>
<!DOCTYPE svg PUBLIC "-//W3C//DTD SVG 1.1//EN" "http://www.w3.org/Graphics/SVG/1.1/DTD/svg11.dtd">
<!-- Creator: CorelDRAW -->
<svg xmlns="http://www.w3.org/2000/svg" xml:space="preserve" width="2523px" height="822px" version="1.1" shape-rendering="geometricPrecision" text-rendering="geometricPrecision" image-rendering="optimizeQuality" fill-rule="evenodd" clip-rule="evenodd"
viewBox="0 0 2523 822.101"
 xmlns:xlink="http://www.w3.org/1999/xlink"
 xmlns:xodm="http://www.corel.com/coreldraw/odm/2003">
 <defs>
   <clipPath id="id0">
    <path d="M0 666.531c0,-34.851 0,-52.276 6.782,-65.588 5.966,-11.709 15.486,-21.229 27.195,-27.194 13.311,-6.783 30.737,-6.783 65.588,-6.783l56.005 0c34.851,0 52.276,0 65.588,6.783 11.709,5.965 21.228,15.485 27.194,27.194 6.783,13.312 6.783,30.737 6.783,65.588l0 56.005c0,34.851 0,52.277 -6.783,65.589 -5.966,11.708 -15.485,21.228 -27.194,27.194 -13.312,6.782 -30.737,6.782 -65.588,6.782l-56.005 0c-34.851,0 -52.277,0 -65.588,-6.782 -11.709,-5.966 -21.229,-15.486 -27.195,-27.194 -6.782,-13.312 -6.782,-30.738 -6.782,-65.589l0 -56.005z"/>
   </clipPath>
     <linearGradient id="id1" gradientUnits="userSpaceOnUse" x1="127.568" y1="566.966" x2="127.568" y2="822.101">
      <stop offset="0" stop-opacity="0.25098" stop-color="#D9D9D9"/>
      <stop offset="1" stop-opacity="0.2" stop-color="#0A0A0A"/>
     </linearGradient>
   <clipPath id="id2">
    <path d="M283.483 666.531c0,-34.851 0,-52.276 6.782,-65.588 5.966,-11.709 15.486,-21.229 27.195,-27.194 13.312,-6.783 30.737,-6.783 65.588,-6.783l56.005 0c34.851,0 52.277,0 65.588,6.783 11.709,5.965 21.228,15.485 27.195,27.194 6.782,13.312 6.782,30.737 6.782,65.588l0 56.005c0,34.851 0,52.277 -6.782,65.589 -5.967,11.708 -15.486,21.228 -27.195,27.194 -13.311,6.782 -30.737,6.782 -65.588,6.782l-56.005 0c-34.851,0 -52.276,0 -65.588,-6.782 -11.709,-5.966 -21.229,-15.486 -27.195,-27.194 -6.782,-13.312 -6.782,-30.738 -6.782,-65.589l0 -56.005z"/>
   </clipPath>
     <linearGradient id="id3" gradientUnits="userSpaceOnUse" x1="411.051" y1="566.966" x2="411.051" y2="822.101">
      <stop offset="0" stop-opacity="0.25098" stop-color="#D9D9D9"/>
      <stop offset="1" stop-opacity="0.2" stop-color="#0A0A0A"/>
     </linearGradient>
   <clipPath id="id4">
    <path d="M566.966 666.531c0,-34.851 0,-52.276 6.783,-65.588 5.965,-11.709 15.485,-21.229 27.194,-27.194 13.312,-6.783 30.737,-6.783 65.588,-6.783l56.005 0c34.851,0 52.277,0 65.589,6.783 11.708,5.965 21.228,15.485 27.194,27.194 6.782,13.312 6.782,30.737 6.782,65.588l0 56.005c0,34.851 0,52.277 -6.782,65.589 -5.966,11.708 -15.486,21.228 -27.194,27.194 -13.312,6.782 -30.738,6.782 -65.589,6.782l-56.005 0c-34.851,0 -52.276,0 -65.588,-6.782 -11.709,-5.966 -21.229,-15.486 -27.194,-27.194 -6.783,-13.312 -6.783,-30.738 -6.783,-65.589l0 -56.005z"/>
   </clipPath>
     <linearGradient id="id5" gradientUnits="userSpaceOnUse" x1="694.534" y1="566.966" x2="694.534" y2="822.101">
      <stop offset="0" stop-opacity="0.25098" stop-color="#D9D9D9"/>
      <stop offset="1" stop-opacity="0.2" stop-color="#0A0A0A"/>
     </linearGradient>
   <clipPath id="id6">
    <path d="M850.449 666.531c0,-34.851 0,-52.276 6.783,-65.588 5.965,-11.709 15.486,-21.229 27.195,-27.194 13.311,-6.783 30.736,-6.783 65.587,-6.783l56.006 0c34.85,0 52.276,0 65.588,6.783 11.708,5.965 21.228,15.485 27.194,27.194 6.782,13.312 6.782,30.737 6.782,65.588l0 56.005c0,34.851 0,52.277 -6.782,65.589 -5.966,11.708 -15.486,21.228 -27.194,27.194 -13.312,6.782 -30.738,6.782 -65.588,6.782l-56.006 0c-34.851,0 -52.276,0 -65.587,-6.782 -11.709,-5.966 -21.23,-15.486 -27.195,-27.194 -6.783,-13.312 -6.783,-30.738 -6.783,-65.589l0 -56.005z"/>
   </clipPath>
     <linearGradient id="id7" gradientUnits="userSpaceOnUse" x1="978.017" y1="566.966" x2="978.017" y2="822.101">
      <stop offset="0" stop-opacity="0.25098" stop-color="#D9D9D9"/>
      <stop offset="1" stop-opacity="0.2" stop-color="#0A0A0A"/>
     </linearGradient>
   <clipPath id="id8">
    <path d="M1133.933 666.531c0,-34.851 0,-52.276 6.782,-65.588 5.966,-11.709 15.486,-21.229 27.195,-27.194 13.311,-6.783 30.736,-6.783 65.587,-6.783l56.006 0c34.851,0 52.276,0 65.588,6.783 11.708,5.965 21.228,15.485 27.194,27.194 6.782,13.312 6.782,30.737 6.782,65.588l0 56.005c0,34.851 0,52.277 -6.782,65.589 -5.966,11.708 -15.486,21.228 -27.194,27.194 -13.312,6.782 -30.737,6.782 -65.588,6.782l-56.006 0c-34.851,0 -52.276,0 -65.587,-6.782 -11.709,-5.966 -21.229,-15.486 -27.195,-27.194 -6.782,-13.312 -6.782,-30.738 -6.782,-65.589l0 -56.005z"/>
   </clipPath>
     <linearGradient id="id9" gradientUnits="userSpaceOnUse" x1="1261.501" y1="566.966" x2="1261.501" y2="822.101">
      <stop offset="0" stop-opacity="0.25098" stop-color="#D9D9D9"/>
      <stop offset="1" stop-opacity="0.2" stop-color="#0A0A0A"/>
     </linearGradient>
   <clipPath id="id10">
    <path d="M1417.416 666.531c0,-34.851 0,-52.276 6.782,-65.588 5.966,-11.709 15.486,-21.229 27.195,-27.194 13.311,-6.783 30.737,-6.783 65.587,-6.783l56.006 0c34.851,0 52.276,0 65.588,6.783 11.708,5.965 21.228,15.485 27.194,27.194 6.783,13.312 6.783,30.737 6.783,65.588l0 56.005c0,34.851 0,52.277 -6.783,65.589 -5.966,11.708 -15.486,21.228 -27.194,27.194 -13.312,6.782 -30.737,6.782 -65.588,6.782l-56.006 0c-34.85,0 -52.276,0 -65.587,-6.782 -11.709,-5.966 -21.229,-15.486 -27.195,-27.194 -6.782,-13.312 -6.782,-30.738 -6.782,-65.589l0 -56.005z"/>
   </clipPath>
     <linearGradient id="id11" gradientUnits="userSpaceOnUse" x1="1544.984" y1="566.966" x2="1544.984" y2="822.101">
      <stop offset="0" stop-opacity="0.25098" stop-color="#D9D9D9"/>
      <stop offset="1" stop-opacity="0.2" stop-color="#0A0A0A"/>
     </linearGradient>
   <clipPath id="id12">
    <path d="M1700.899 666.531c0,-34.851 0,-52.276 6.782,-65.588 5.966,-11.709 15.486,-21.229 27.195,-27.194 13.311,-6.783 30.737,-6.783 65.588,-6.783l56.005 0c34.851,0 52.276,0 65.588,6.783 11.709,5.965 21.228,15.485 27.194,27.194 6.783,13.312 6.783,30.737 6.783,65.588l0 56.005c0,34.851 0,52.277 -6.783,65.589 -5.966,11.708 -15.485,21.228 -27.194,27.194 -13.312,6.782 -30.737,6.782 -65.588,6.782l-56.005 0c-34.851,0 -52.277,0 -65.588,-6.782 -11.709,-5.966 -21.229,-15.486 -27.195,-27.194 -6.782,-13.312 -6.782,-30.738 -6.782,-65.589l0 -56.005z"/>
   </clipPath>
     <linearGradient id="id13" gradientUnits="userSpaceOnUse" x1="1828.467" y1="566.966" x2="1828.467" y2="822.101">
      <stop offset="0" stop-opacity="0.25098" stop-color="#D9D9D9"/>
      <stop offset="1" stop-opacity="0.2" stop-color="#0A0A0A"/>
     </linearGradient>
   <clipPath id="id14">
    <path d="M1984.382 666.531c0,-34.851 0,-52.276 6.782,-65.588 5.966,-11.709 15.486,-21.229 27.195,-27.194 13.311,-6.783 30.737,-6.783 65.588,-6.783l56.005 0c34.851,0 52.276,0 65.588,6.783 11.709,5.965 21.228,15.485 27.195,27.194 6.782,13.312 6.782,30.737 6.782,65.588l0 56.005c0,34.851 0,52.277 -6.782,65.589 -5.967,11.708 -15.486,21.228 -27.195,27.194 -13.312,6.782 -30.737,6.782 -65.588,6.782l-56.005 0c-34.851,0 -52.277,0 -65.588,-6.782 -11.709,-5.966 -21.229,-15.486 -27.195,-27.194 -6.782,-13.312 -6.782,-30.738 -6.782,-65.589l0 -56.005z"/>
   </clipPath>
     <linearGradient id="id15" gradientUnits="userSpaceOnUse" x1="2111.95" y1="566.966" x2="2111.95" y2="822.101">
      <stop offset="0" stop-opacity="0.25098" stop-color="#D9D9D9"/>
      <stop offset="1" stop-opacity="0.2" stop-color="#0A0A0A"/>
     </linearGradient>
   <clipPath id="id16">
    <path d="M2267.865 666.531c0,-34.851 0,-52.276 6.783,-65.588 5.965,-11.709 15.485,-21.229 27.194,-27.194 13.312,-6.783 30.737,-6.783 65.588,-6.783l56.005 0c34.851,0 52.277,0 65.588,6.783 11.709,5.965 21.228,15.485 27.195,27.194 6.782,13.312 6.782,30.737 6.782,65.588l0 56.005c0,34.851 0,52.277 -6.782,65.589 -5.967,11.708 -15.486,21.228 -27.195,27.194 -13.311,6.782 -30.737,6.782 -65.588,6.782l-56.005 0c-34.851,0 -52.276,0 -65.588,-6.782 -11.709,-5.966 -21.229,-15.486 -27.194,-27.194 -6.783,-13.312 -6.783,-30.738 -6.783,-65.589l0 -56.005z"/>
   </clipPath>
     <linearGradient id="id17" gradientUnits="userSpaceOnUse" x1="2395.433" y1="566.966" x2="2395.433" y2="822.101">
      <stop offset="0" stop-opacity="0.25098" stop-color="#D9D9D9"/>
      <stop offset="1" stop-opacity="0.2" stop-color="#0A0A0A"/>
     </linearGradient>
   <clipPath id="id18">
    <path d="M0 383.048c0,-34.851 0,-52.276 6.782,-65.588 5.966,-11.709 15.486,-21.229 27.195,-27.195 13.311,-6.782 30.737,-6.782 65.588,-6.782l56.005 0c34.851,0 52.276,0 65.588,6.782 11.709,5.966 21.228,15.486 27.194,27.195 6.783,13.312 6.783,30.737 6.783,65.588l0 56.005c0,34.851 0,52.277 -6.783,65.588 -5.966,11.709 -15.485,21.228 -27.194,27.195 -13.312,6.782 -30.737,6.782 -65.588,6.782l-56.005 0c-34.851,0 -52.277,0 -65.588,-6.782 -11.709,-5.967 -21.229,-15.486 -27.195,-27.195 -6.782,-13.311 -6.782,-30.737 -6.782,-65.588l0 -56.005z"/>
   </clipPath>
     <linearGradient id="id19" gradientUnits="userSpaceOnUse" x1="127.568" y1="283.483" x2="127.568" y2="538.618">
      <stop offset="0" stop-opacity="0.25098" stop-color="#D9D9D9"/>
      <stop offset="1" stop-opacity="0.2" stop-color="#0A0A0A"/>
     </linearGradient>
   <clipPath id="id20">
    <path d="M283.483 383.048c0,-34.851 0,-52.276 6.782,-65.588 5.966,-11.709 15.486,-21.229 27.195,-27.195 13.312,-6.782 30.737,-6.782 65.588,-6.782l56.005 0c34.851,0 52.277,0 65.588,6.782 11.709,5.966 21.228,15.486 27.195,27.195 6.782,13.312 6.782,30.737 6.782,65.588l0 56.005c0,34.851 0,52.277 -6.782,65.588 -5.967,11.709 -15.486,21.228 -27.195,27.195 -13.311,6.782 -30.737,6.782 -65.588,6.782l-56.005 0c-34.851,0 -52.276,0 -65.588,-6.782 -11.709,-5.967 -21.229,-15.486 -27.195,-27.195 -6.782,-13.311 -6.782,-30.737 -6.782,-65.588l0 -56.005z"/>
   </clipPath>
     <linearGradient id="id21" gradientUnits="userSpaceOnUse" x1="411.051" y1="283.483" x2="411.051" y2="538.618">
      <stop offset="0" stop-opacity="0.25098" stop-color="#D9D9D9"/>
      <stop offset="1" stop-opacity="0.2" stop-color="#0A0A0A"/>
     </linearGradient>
   <clipPath id="id22">
    <path d="M566.966 383.048c0,-34.851 0,-52.276 6.783,-65.588 5.965,-11.709 15.485,-21.229 27.194,-27.195 13.312,-6.782 30.737,-6.782 65.588,-6.782l56.005 0c34.851,0 52.277,0 65.589,6.782 11.708,5.966 21.228,15.486 27.194,27.195 6.782,13.312 6.782,30.737 6.782,65.588l0 56.005c0,34.851 0,52.277 -6.782,65.588 -5.966,11.709 -15.486,21.228 -27.194,27.195 -13.312,6.782 -30.738,6.782 -65.589,6.782l-56.005 0c-34.851,0 -52.276,0 -65.588,-6.782 -11.709,-5.967 -21.229,-15.486 -27.194,-27.195 -6.783,-13.311 -6.783,-30.737 -6.783,-65.588l0 -56.005z"/>
   </clipPath>
     <linearGradient id="id23" gradientUnits="userSpaceOnUse" x1="694.534" y1="283.483" x2="694.534" y2="538.618">
      <stop offset="0" stop-opacity="0.25098" stop-color="#D9D9D9"/>
      <stop offset="1" stop-opacity="0.2" stop-color="#0A0A0A"/>
     </linearGradient>
   <clipPath id="id24">
    <path d="M850.449 383.048c0,-34.851 0,-52.276 6.783,-65.588 5.965,-11.709 15.486,-21.229 27.195,-27.195 13.311,-6.782 30.736,-6.782 65.587,-6.782l56.006 0c34.85,0 52.276,0 65.588,6.782 11.708,5.966 21.228,15.486 27.194,27.195 6.782,13.312 6.782,30.737 6.782,65.588l0 56.005c0,34.851 0,52.277 -6.782,65.588 -5.966,11.709 -15.486,21.228 -27.194,27.195 -13.312,6.782 -30.738,6.782 -65.588,6.782l-56.006 0c-34.851,0 -52.276,0 -65.587,-6.782 -11.709,-5.967 -21.23,-15.486 -27.195,-27.195 -6.783,-13.311 -6.783,-30.737 -6.783,-65.588l0 -56.005z"/>
   </clipPath>
     <linearGradient id="id25" gradientUnits="userSpaceOnUse" x1="978.017" y1="283.483" x2="978.017" y2="538.618">
      <stop offset="0" stop-opacity="0.25098" stop-color="#D9D9D9"/>
      <stop offset="1" stop-opacity="0.2" stop-color="#0A0A0A"/>
     </linearGradient>
   <clipPath id="id26">
    <path d="M1133.933 383.048c0,-34.851 0,-52.276 6.782,-65.588 5.966,-11.709 15.486,-21.229 27.195,-27.195 13.311,-6.782 30.736,-6.782 65.587,-6.782l56.006 0c34.851,0 52.276,0 65.588,6.782 11.708,5.966 21.228,15.486 27.194,27.195 6.782,13.312 6.782,30.737 6.782,65.588l0 56.005c0,34.851 0,52.277 -6.782,65.588 -5.966,11.709 -15.486,21.228 -27.194,27.195 -13.312,6.782 -30.737,6.782 -65.588,6.782l-56.006 0c-34.851,0 -52.276,0 -65.587,-6.782 -11.709,-5.967 -21.229,-15.486 -27.195,-27.195 -6.782,-13.311 -6.782,-30.737 -6.782,-65.588l0 -56.005z"/>
   </clipPath>
     <linearGradient id="id27" gradientUnits="userSpaceOnUse" x1="1261.501" y1="283.483" x2="1261.501" y2="538.618">
      <stop offset="0" stop-opacity="0.25098" stop-color="#D9D9D9"/>
      <stop offset="1" stop-opacity="0.2" stop-color="#0A0A0A"/>
     </linearGradient>
   <clipPath id="id28">
    <path d="M1417.416 383.048c0,-34.851 0,-52.276 6.782,-65.588 5.966,-11.709 15.486,-21.229 27.195,-27.195 13.311,-6.782 30.737,-6.782 65.587,-6.782l56.006 0c34.851,0 52.276,0 65.588,6.782 11.708,5.966 21.228,15.486 27.194,27.195 6.783,13.312 6.783,30.737 6.783,65.588l0 56.005c0,34.851 0,52.277 -6.783,65.588 -5.966,11.709 -15.486,21.228 -27.194,27.195 -13.312,6.782 -30.737,6.782 -65.588,6.782l-56.006 0c-34.85,0 -52.276,0 -65.587,-6.782 -11.709,-5.967 -21.229,-15.486 -27.195,-27.195 -6.782,-13.311 -6.782,-30.737 -6.782,-65.588l0 -56.005z"/>
   </clipPath>
     <linearGradient id="id29" gradientUnits="userSpaceOnUse" x1="1544.984" y1="283.483" x2="1544.984" y2="538.618">
      <stop offset="0" stop-opacity="0.25098" stop-color="#D9D9D9"/>
      <stop offset="1" stop-opacity="0.2" stop-color="#0A0A0A"/>
     </linearGradient>
   <clipPath id="id30">
    <path d="M1700.899 383.048c0,-34.851 0,-52.276 6.782,-65.588 5.966,-11.709 15.486,-21.229 27.195,-27.195 13.311,-6.782 30.737,-6.782 65.588,-6.782l56.005 0c34.851,0 52.276,0 65.588,6.782 11.709,5.966 21.228,15.486 27.194,27.195 6.783,13.312 6.783,30.737 6.783,65.588l0 56.005c0,34.851 0,52.277 -6.783,65.588 -5.966,11.709 -15.485,21.228 -27.194,27.195 -13.312,6.782 -30.737,6.782 -65.588,6.782l-56.005 0c-34.851,0 -52.277,0 -65.588,-6.782 -11.709,-5.967 -21.229,-15.486 -27.195,-27.195 -6.782,-13.311 -6.782,-30.737 -6.782,-65.588l0 -56.005z"/>
   </clipPath>
     <linearGradient id="id31" gradientUnits="userSpaceOnUse" x1="1828.467" y1="283.483" x2="1828.467" y2="538.618">
      <stop offset="0" stop-opacity="0.25098" stop-color="#D9D9D9"/>
      <stop offset="1" stop-opacity="0.2" stop-color="#0A0A0A"/>
     </linearGradient>
   <clipPath id="id32">
    <path d="M1984.382 383.048c0,-34.851 0,-52.276 6.782,-65.588 5.966,-11.709 15.486,-21.229 27.195,-27.195 13.311,-6.782 30.737,-6.782 65.588,-6.782l56.005 0c34.851,0 52.276,0 65.588,6.782 11.709,5.966 21.228,15.486 27.195,27.195 6.782,13.312 6.782,30.737 6.782,65.588l0 56.005c0,34.851 0,52.277 -6.782,65.588 -5.967,11.709 -15.486,21.228 -27.195,27.195 -13.312,6.782 -30.737,6.782 -65.588,6.782l-56.005 0c-34.851,0 -52.277,0 -65.588,-6.782 -11.709,-5.967 -21.229,-15.486 -27.195,-27.195 -6.782,-13.311 -6.782,-30.737 -6.782,-65.588l0 -56.005z"/>
   </clipPath>
     <linearGradient id="id33" gradientUnits="userSpaceOnUse" x1="2111.95" y1="283.483" x2="2111.95" y2="538.618">
      <stop offset="0" stop-opacity="0.25098" stop-color="#D9D9D9"/>
      <stop offset="1" stop-opacity="0.2" stop-color="#0A0A0A"/>
     </linearGradient>
   <clipPath id="id34">
    <path d="M2267.865 383.048c0,-34.851 0,-52.276 6.783,-65.588 5.965,-11.709 15.485,-21.229 27.194,-27.195 13.312,-6.782 30.737,-6.782 65.588,-6.782l56.005 0c34.851,0 52.277,0 65.588,6.782 11.709,5.966 21.228,15.486 27.195,27.195 6.782,13.312 6.782,30.737 6.782,65.588l0 56.005c0,34.851 0,52.277 -6.782,65.588 -5.967,11.709 -15.486,21.228 -27.195,27.195 -13.311,6.782 -30.737,6.782 -65.588,6.782l-56.005 0c-34.851,0 -52.276,0 -65.588,-6.782 -11.709,-5.967 -21.229,-15.486 -27.194,-27.195 -6.783,-13.311 -6.783,-30.737 -6.783,-65.588l0 -56.005z"/>
   </clipPath>
     <linearGradient id="id35" gradientUnits="userSpaceOnUse" x1="2395.433" y1="283.483" x2="2395.433" y2="538.618">
      <stop offset="0" stop-opacity="0.25098" stop-color="#D9D9D9"/>
      <stop offset="1" stop-opacity="0.2" stop-color="#0A0A0A"/>
     </linearGradient>
   <clipPath id="id36">
    <path d="M0 99.565c0,-34.851 0,-52.277 6.782,-65.588 5.966,-11.709 15.486,-21.229 27.195,-27.195 13.311,-6.782 30.737,-6.782 65.588,-6.782l56.005 0c34.851,0 52.276,0 65.588,6.782 11.709,5.966 21.228,15.486 27.194,27.195 6.783,13.311 6.783,30.737 6.783,65.588l0 56.005c0,34.851 0,52.276 -6.783,65.588 -5.966,11.709 -15.485,21.228 -27.194,27.194 -13.312,6.783 -30.737,6.783 -65.588,6.783l-56.005 0c-34.851,0 -52.277,0 -65.588,-6.783 -11.709,-5.966 -21.229,-15.485 -27.195,-27.194 -6.782,-13.312 -6.782,-30.737 -6.782,-65.588l0 -56.005z"/>
   </clipPath>
     <linearGradient id="id37" gradientUnits="userSpaceOnUse" x1="127.568" y1="0" x2="127.568" y2="255.135">
      <stop offset="0" stop-opacity="0.25098" stop-color="#D9D9D9"/>
      <stop offset="1" stop-opacity="0.2" stop-color="#0A0A0A"/>
     </linearGradient>
   <clipPath id="id38">
    <path d="M283.483 99.565c0,-34.851 0,-52.277 6.782,-65.588 5.966,-11.709 15.486,-21.229 27.195,-27.195 13.312,-6.782 30.737,-6.782 65.588,-6.782l56.005 0c34.851,0 52.277,0 65.588,6.782 11.709,5.966 21.228,15.486 27.195,27.195 6.782,13.311 6.782,30.737 6.782,65.588l0 56.005c0,34.851 0,52.276 -6.782,65.588 -5.967,11.709 -15.486,21.228 -27.195,27.194 -13.311,6.783 -30.737,6.783 -65.588,6.783l-56.005 0c-34.851,0 -52.276,0 -65.588,-6.783 -11.709,-5.966 -21.229,-15.485 -27.195,-27.194 -6.782,-13.312 -6.782,-30.737 -6.782,-65.588l0 -56.005z"/>
   </clipPath>
     <linearGradient id="id39" gradientUnits="userSpaceOnUse" x1="411.051" y1="0" x2="411.051" y2="255.135">
      <stop offset="0" stop-opacity="0.25098" stop-color="#D9D9D9"/>
      <stop offset="1" stop-opacity="0.2" stop-color="#0A0A0A"/>
     </linearGradient>
   <clipPath id="id40">
    <path d="M566.966 99.565c0,-34.851 0,-52.277 6.783,-65.588 5.965,-11.709 15.485,-21.229 27.194,-27.195 13.312,-6.782 30.737,-6.782 65.588,-6.782l56.005 0c34.851,0 52.277,0 65.589,6.782 11.708,5.966 21.228,15.486 27.194,27.195 6.782,13.311 6.782,30.737 6.782,65.588l0 56.005c0,34.851 0,52.276 -6.782,65.588 -5.966,11.709 -15.486,21.228 -27.194,27.194 -13.312,6.783 -30.738,6.783 -65.589,6.783l-56.005 0c-34.851,0 -52.276,0 -65.588,-6.783 -11.709,-5.966 -21.229,-15.485 -27.194,-27.194 -6.783,-13.312 -6.783,-30.737 -6.783,-65.588l0 -56.005z"/>
   </clipPath>
     <linearGradient id="id41" gradientUnits="userSpaceOnUse" x1="694.534" y1="0" x2="694.534" y2="255.135">
      <stop offset="0" stop-opacity="0.25098" stop-color="#D9D9D9"/>
      <stop offset="1" stop-opacity="0.2" stop-color="#0A0A0A"/>
     </linearGradient>
   <clipPath id="id42">
    <path d="M850.449 99.565c0,-34.851 0,-52.277 6.783,-65.588 5.965,-11.709 15.486,-21.229 27.195,-27.195 13.311,-6.782 30.736,-6.782 65.587,-6.782l56.006 0c34.85,0 52.276,0 65.588,6.782 11.708,5.966 21.228,15.486 27.194,27.195 6.782,13.311 6.782,30.737 6.782,65.588l0 56.005c0,34.851 0,52.276 -6.782,65.588 -5.966,11.709 -15.486,21.228 -27.194,27.194 -13.312,6.783 -30.738,6.783 -65.588,6.783l-56.006 0c-34.851,0 -52.276,0 -65.587,-6.783 -11.709,-5.966 -21.23,-15.485 -27.195,-27.194 -6.783,-13.312 -6.783,-30.737 -6.783,-65.588l0 -56.005z"/>
   </clipPath>
     <linearGradient id="id43" gradientUnits="userSpaceOnUse" x1="978.017" y1="0" x2="978.017" y2="255.135">
      <stop offset="0" stop-opacity="0.25098" stop-color="#D9D9D9"/>
      <stop offset="1" stop-opacity="0.2" stop-color="#0A0A0A"/>
     </linearGradient>
   <clipPath id="id44">
    <path d="M1133.933 99.565c0,-34.851 0,-52.277 6.782,-65.588 5.966,-11.709 15.486,-21.229 27.195,-27.195 13.311,-6.782 30.736,-6.782 65.587,-6.782l56.006 0c34.851,0 52.276,0 65.588,6.782 11.708,5.966 21.228,15.486 27.194,27.195 6.782,13.311 6.782,30.737 6.782,65.588l0 56.005c0,34.851 0,52.276 -6.782,65.588 -5.966,11.709 -15.486,21.228 -27.194,27.194 -13.312,6.783 -30.737,6.783 -65.588,6.783l-56.006 0c-34.851,0 -52.276,0 -65.587,-6.783 -11.709,-5.966 -21.229,-15.485 -27.195,-27.194 -6.782,-13.312 -6.782,-30.737 -6.782,-65.588l0 -56.005z"/>
   </clipPath>
     <linearGradient id="id45" gradientUnits="userSpaceOnUse" x1="1261.501" y1="0" x2="1261.501" y2="255.135">
      <stop offset="0" stop-opacity="0.25098" stop-color="#D9D9D9"/>
      <stop offset="1" stop-opacity="0.2" stop-color="#0A0A0A"/>
     </linearGradient>
   <clipPath id="id46">
    <path d="M1417.416 99.565c0,-34.851 0,-52.277 6.782,-65.588 5.966,-11.709 15.486,-21.229 27.195,-27.195 13.311,-6.782 30.737,-6.782 65.587,-6.782l56.006 0c34.851,0 52.276,0 65.588,6.782 11.708,5.966 21.228,15.486 27.194,27.195 6.783,13.311 6.783,30.737 6.783,65.588l0 56.005c0,34.851 0,52.276 -6.783,65.588 -5.966,11.709 -15.486,21.228 -27.194,27.194 -13.312,6.783 -30.737,6.783 -65.588,6.783l-56.006 0c-34.85,0 -52.276,0 -65.587,-6.783 -11.709,-5.966 -21.229,-15.485 -27.195,-27.194 -6.782,-13.312 -6.782,-30.737 -6.782,-65.588l0 -56.005z"/>
   </clipPath>
     <linearGradient id="id47" gradientUnits="userSpaceOnUse" x1="1544.984" y1="0" x2="1544.984" y2="255.135">
      <stop offset="0" stop-opacity="0.25098" stop-color="#D9D9D9"/>
      <stop offset="1" stop-opacity="0.2" stop-color="#0A0A0A"/>
     </linearGradient>
   <clipPath id="id48">
    <path d="M1700.899 99.565c0,-34.851 0,-52.277 6.782,-65.588 5.966,-11.709 15.486,-21.229 27.195,-27.195 13.311,-6.782 30.737,-6.782 65.588,-6.782l56.005 0c34.851,0 52.276,0 65.588,6.782 11.709,5.966 21.228,15.486 27.194,27.195 6.783,13.311 6.783,30.737 6.783,65.588l0 56.005c0,34.851 0,52.276 -6.783,65.588 -5.966,11.709 -15.485,21.228 -27.194,27.194 -13.312,6.783 -30.737,6.783 -65.588,6.783l-56.005 0c-34.851,0 -52.277,0 -65.588,-6.783 -11.709,-5.966 -21.229,-15.485 -27.195,-27.194 -6.782,-13.312 -6.782,-30.737 -6.782,-65.588l0 -56.005z"/>
   </clipPath>
     <linearGradient id="id49" gradientUnits="userSpaceOnUse" x1="1828.467" y1="0" x2="1828.467" y2="255.135">
      <stop offset="0" stop-opacity="0.25098" stop-color="#D9D9D9"/>
      <stop offset="1" stop-opacity="0.2" stop-color="#0A0A0A"/>
     </linearGradient>
   <clipPath id="id50">
    <path d="M1984.382 99.565c0,-34.851 0,-52.277 6.782,-65.588 5.966,-11.709 15.486,-21.229 27.195,-27.195 13.311,-6.782 30.737,-6.782 65.588,-6.782l56.005 0c34.851,0 52.276,0 65.588,6.782 11.709,5.966 21.228,15.486 27.195,27.195 6.782,13.311 6.782,30.737 6.782,65.588l0 56.005c0,34.851 0,52.276 -6.782,65.588 -5.967,11.709 -15.486,21.228 -27.195,27.194 -13.312,6.783 -30.737,6.783 -65.588,6.783l-56.005 0c-34.851,0 -52.277,0 -65.588,-6.783 -11.709,-5.966 -21.229,-15.485 -27.195,-27.194 -6.782,-13.312 -6.782,-30.737 -6.782,-65.588l0 -56.005z"/>
   </clipPath>
     <linearGradient id="id51" gradientUnits="userSpaceOnUse" x1="2111.95" y1="0" x2="2111.95" y2="255.135">
      <stop offset="0" stop-opacity="0.25098" stop-color="#D9D9D9"/>
      <stop offset="1" stop-opacity="0.2" stop-color="#0A0A0A"/>
     </linearGradient>
   <clipPath id="id52">
    <path d="M2267.865 99.565c0,-34.851 0,-52.277 6.783,-65.588 5.965,-11.709 15.485,-21.229 27.194,-27.195 13.312,-6.782 30.737,-6.782 65.588,-6.782l56.005 0c34.851,0 52.277,0 65.588,6.782 11.709,5.966 21.228,15.486 27.195,27.195 6.782,13.311 6.782,30.737 6.782,65.588l0 56.005c0,34.851 0,52.276 -6.782,65.588 -5.967,11.709 -15.486,21.228 -27.195,27.194 -13.311,6.783 -30.737,6.783 -65.588,6.783l-56.005 0c-34.851,0 -52.276,0 -65.588,-6.783 -11.709,-5.966 -21.229,-15.485 -27.194,-27.194 -6.783,-13.312 -6.783,-30.737 -6.783,-65.588l0 -56.005z"/>
   </clipPath>
     <linearGradient id="id53" gradientUnits="userSpaceOnUse" x1="2395.433" y1="0" x2="2395.433" y2="255.135">
      <stop offset="0" stop-opacity="0.25098" stop-color="#D9D9D9"/>
      <stop offset="1" stop-opacity="0.2" stop-color="#0A0A0A"/>
     </linearGradient>
 </defs>
 <g id="Слой_x0020_1">
  <metadata id="CorelCorpID_0Corel-Layer"/>
  <g>
  </g>
  <g clip-path="url(#id0)">
   <g id="_2159780477920">
    <path fill="url(#id1)" fill-rule="nonzero" d="M62.228 566.966l130.679 0c34.362,0 62.228,27.866 62.228,62.228l0 130.679c0,34.361 -27.866,62.228 -62.228,62.228l-130.679 0c-34.361,0 -62.227,-27.867 -62.227,-62.228l-0.001 -130.679c0.001,-34.362 27.867,-62.228 62.229,-62.228z" filter="url(#filter0_g_35_722)" data-figma-bg-blur-radius="20"/>
    <path fill="none" fill-rule="nonzero" fill-opacity="0.250980" stroke="black" stroke-width="2.25" stroke-miterlimit="22.9256" stroke-opacity="0.250980" d="M63.784 566.966l129.123 0c34.362,0 62.228,27.866 62.228,62.228l0 127.568c0,34.361 -27.866,62.227 -62.228,62.227l-129.123 0.001c-34.361,-0.001 -62.228,-27.867 -62.228,-62.229l0 -127.567c0,-34.362 27.867,-62.228 62.228,-62.228z" filter="url(#filter4_f_35_722)"/>
   </g>
  </g>
  <path fill="none" d="M0 666.531c0,-34.851 0,-52.276 6.782,-65.588 5.966,-11.709 15.486,-21.229 27.195,-27.194 13.311,-6.783 30.737,-6.783 65.588,-6.783l56.005 0c34.851,0 52.276,0 65.588,6.783 11.709,5.965 21.228,15.485 27.194,27.194 6.783,13.312 6.783,30.737 6.783,65.588l0 56.005c0,34.851 0,52.277 -6.783,65.589 -5.966,11.708 -15.485,21.228 -27.194,27.194 -13.312,6.782 -30.737,6.782 -65.588,6.782l-56.005 0c-34.851,0 -52.277,0 -65.588,-6.782 -11.709,-5.966 -21.229,-15.486 -27.195,-27.194 -6.782,-13.312 -6.782,-30.738 -6.782,-65.589l0 -56.005z"/>
  <g>
  </g>
  <g clip-path="url(#id2)">
   <g id="_2159780478304">
    <path fill="url(#id3)" fill-rule="nonzero" d="M345.711 566.966l130.679 0c34.362,0 62.228,27.866 62.228,62.228l0 130.679c0,34.361 -27.866,62.228 -62.228,62.228l-130.679 0c-34.361,0 -62.227,-27.867 -62.227,-62.228l-0.001 -130.679c0.001,-34.362 27.867,-62.228 62.229,-62.228z" filter="url(#filter0_g_35_722)" data-figma-bg-blur-radius="20"/>
    <path fill="none" fill-rule="nonzero" fill-opacity="0.250980" stroke="black" stroke-width="2.25" stroke-miterlimit="22.9256" stroke-opacity="0.250980" d="M347.267 566.966l129.123 0c34.362,0 62.228,27.866 62.228,62.228l0 127.568c0,34.361 -27.866,62.227 -62.228,62.227l-129.123 0.001c-34.361,-0.001 -62.228,-27.867 -62.228,-62.229l0 -127.567c0,-34.362 27.867,-62.228 62.228,-62.228z" filter="url(#filter4_f_35_722)"/>
   </g>
  </g>
  <path fill="none" d="M283.483 666.531c0,-34.851 0,-52.276 6.782,-65.588 5.966,-11.709 15.486,-21.229 27.195,-27.194 13.312,-6.783 30.737,-6.783 65.588,-6.783l56.005 0c34.851,0 52.277,0 65.588,6.783 11.709,5.965 21.228,15.485 27.195,27.194 6.782,13.312 6.782,30.737 6.782,65.588l0 56.005c0,34.851 0,52.277 -6.782,65.589 -5.967,11.708 -15.486,21.228 -27.195,27.194 -13.311,6.782 -30.737,6.782 -65.588,6.782l-56.005 0c-34.851,0 -52.276,0 -65.588,-6.782 -11.709,-5.966 -21.229,-15.486 -27.195,-27.194 -6.782,-13.312 -6.782,-30.738 -6.782,-65.589l0 -56.005z"/>
  <g>
  </g>
  <g clip-path="url(#id4)">
   <g id="_2159780474080">
    <path fill="url(#id5)" fill-rule="nonzero" d="M629.194 566.966l130.679 0c34.362,0 62.228,27.866 62.228,62.228l0 130.679c0,34.361 -27.866,62.228 -62.228,62.228l-130.679 0c-34.361,0 -62.227,-27.867 -62.227,-62.228l-0.001 -130.679c0.001,-34.362 27.867,-62.228 62.229,-62.228z" filter="url(#filter0_g_35_722)" data-figma-bg-blur-radius="20"/>
    <path fill="none" fill-rule="nonzero" fill-opacity="0.250980" stroke="black" stroke-width="2.25" stroke-miterlimit="22.9256" stroke-opacity="0.250980" d="M630.75 566.966l129.123 0c34.362,0 62.228,27.866 62.228,62.228l0 127.568c0,34.361 -27.866,62.227 -62.228,62.227l-129.123 0.001c-34.361,-0.001 -62.227,-27.867 -62.227,-62.229l-0.001 -127.567c0.001,-34.362 27.867,-62.228 62.229,-62.228z" filter="url(#filter4_f_35_722)"/>
   </g>
  </g>
  <path fill="none" d="M566.966 666.531c0,-34.851 0,-52.276 6.783,-65.588 5.965,-11.709 15.485,-21.229 27.194,-27.194 13.312,-6.783 30.737,-6.783 65.588,-6.783l56.005 0c34.851,0 52.277,0 65.589,6.783 11.708,5.965 21.228,15.485 27.194,27.194 6.782,13.312 6.782,30.737 6.782,65.588l0 56.005c0,34.851 0,52.277 -6.782,65.589 -5.966,11.708 -15.486,21.228 -27.194,27.194 -13.312,6.782 -30.738,6.782 -65.589,6.782l-56.005 0c-34.851,0 -52.276,0 -65.588,-6.782 -11.709,-5.966 -21.229,-15.486 -27.194,-27.194 -6.783,-13.312 -6.783,-30.738 -6.783,-65.589l0 -56.005z"/>
  <g>
  </g>
  <g clip-path="url(#id6)">
   <g id="_2159780475328">
    <path fill="url(#id7)" fill-rule="nonzero" d="M912.677 566.966l130.679 0c34.362,0 62.228,27.866 62.228,62.228l0 130.679c0,34.361 -27.866,62.228 -62.228,62.228l-130.679 0c-34.361,0 -62.227,-27.867 -62.227,-62.228l-0.001 -130.679c0.001,-34.362 27.867,-62.228 62.229,-62.228z" filter="url(#filter0_g_35_722)" data-figma-bg-blur-radius="20"/>
    <path fill="none" fill-rule="nonzero" fill-opacity="0.250980" stroke="black" stroke-width="2.25" stroke-miterlimit="22.9256" stroke-opacity="0.250980" d="M914.233 566.966l129.123 0c34.362,0 62.228,27.866 62.228,62.228l0 127.568c0,34.361 -27.866,62.227 -62.228,62.227l-129.123 0.001c-34.361,-0.001 -62.227,-27.867 -62.227,-62.229l-0.001 -127.567c0.001,-34.362 27.867,-62.228 62.229,-62.228z" filter="url(#filter4_f_35_722)"/>
   </g>
  </g>
  <path fill="none" d="M850.449 666.531c0,-34.851 0,-52.276 6.783,-65.588 5.965,-11.709 15.486,-21.229 27.195,-27.194 13.311,-6.783 30.736,-6.783 65.587,-6.783l56.006 0c34.85,0 52.276,0 65.588,6.783 11.708,5.965 21.228,15.485 27.194,27.194 6.782,13.312 6.782,30.737 6.782,65.588l0 56.005c0,34.851 0,52.277 -6.782,65.589 -5.966,11.708 -15.486,21.228 -27.194,27.194 -13.312,6.782 -30.738,6.782 -65.588,6.782l-56.006 0c-34.851,0 -52.276,0 -65.587,-6.782 -11.709,-5.966 -21.23,-15.486 -27.195,-27.194 -6.783,-13.312 -6.783,-30.738 -6.783,-65.589l0 -56.005z"/>
  <g>
  </g>
  <g clip-path="url(#id8)">
   <g id="_2159786182576">
    <path fill="url(#id9)" fill-rule="nonzero" d="M1196.161 566.966l130.678 0c34.362,0 62.228,27.866 62.228,62.228l0 130.679c0,34.361 -27.866,62.228 -62.228,62.228l-130.678 0c-34.361,0 -62.228,-27.867 -62.228,-62.228l0 -130.679c0,-34.362 27.867,-62.228 62.228,-62.228z" filter="url(#filter0_g_35_722)" data-figma-bg-blur-radius="20"/>
    <path fill="none" fill-rule="nonzero" fill-opacity="0.250980" stroke="black" stroke-width="2.25" stroke-miterlimit="22.9256" stroke-opacity="0.250980" d="M1197.716 566.966l129.123 0c34.362,0 62.228,27.866 62.228,62.228l0 127.568c0,34.361 -27.866,62.227 -62.228,62.227l-129.123 0.001c-34.361,-0.001 -62.227,-27.867 -62.227,-62.229l-0.001 -127.567c0.001,-34.362 27.867,-62.228 62.229,-62.228z" filter="url(#filter4_f_35_722)"/>
   </g>
  </g>
  <path fill="none" d="M1133.933 666.531c0,-34.851 0,-52.276 6.782,-65.588 5.966,-11.709 15.486,-21.229 27.195,-27.194 13.311,-6.783 30.736,-6.783 65.587,-6.783l56.006 0c34.851,0 52.276,0 65.588,6.783 11.708,5.965 21.228,15.485 27.194,27.194 6.782,13.312 6.782,30.737 6.782,65.588l0 56.005c0,34.851 0,52.277 -6.782,65.589 -5.966,11.708 -15.486,21.228 -27.194,27.194 -13.312,6.782 -30.737,6.782 -65.588,6.782l-56.006 0c-34.851,0 -52.276,0 -65.587,-6.782 -11.709,-5.966 -21.229,-15.486 -27.195,-27.194 -6.782,-13.312 -6.782,-30.738 -6.782,-65.589l0 -56.005z"/>
  <g>
  </g>
  <g clip-path="url(#id10)">
   <g id="_2159786244832">
    <path fill="url(#id11)" fill-rule="nonzero" d="M1479.644 566.966l130.679 0c34.361,0 62.228,27.866 62.228,62.228l0 130.679c0,34.361 -27.867,62.228 -62.228,62.228l-130.679 0c-34.361,0 -62.228,-27.867 -62.228,-62.228l0 -130.679c0,-34.362 27.867,-62.228 62.228,-62.228z" filter="url(#filter0_g_35_722)" data-figma-bg-blur-radius="20"/>
    <path fill="none" fill-rule="nonzero" fill-opacity="0.250980" stroke="black" stroke-width="2.25" stroke-miterlimit="22.9256" stroke-opacity="0.250980" d="M1481.199 566.966l129.124 0c34.361,0 62.228,27.866 62.228,62.228l0 127.568c0,34.361 -27.867,62.227 -62.228,62.227l-129.124 0.001c-34.361,-0.001 -62.227,-27.867 -62.227,-62.229l-0.001 -127.567c0.001,-34.362 27.867,-62.228 62.229,-62.228z" filter="url(#filter4_f_35_722)"/>
   </g>
  </g>
  <path fill="none" d="M1417.416 666.531c0,-34.851 0,-52.276 6.782,-65.588 5.966,-11.709 15.486,-21.229 27.195,-27.194 13.311,-6.783 30.737,-6.783 65.587,-6.783l56.006 0c34.851,0 52.276,0 65.588,6.783 11.708,5.965 21.228,15.485 27.194,27.194 6.783,13.312 6.783,30.737 6.783,65.588l0 56.005c0,34.851 0,52.277 -6.783,65.589 -5.966,11.708 -15.486,21.228 -27.194,27.194 -13.312,6.782 -30.737,6.782 -65.588,6.782l-56.006 0c-34.85,0 -52.276,0 -65.587,-6.782 -11.709,-5.966 -21.229,-15.486 -27.195,-27.194 -6.782,-13.312 -6.782,-30.738 -6.782,-65.589l0 -56.005z"/>
  <g>
  </g>
  <g clip-path="url(#id12)">
   <g id="_2159786235136">
    <path fill="url(#id13)" fill-rule="nonzero" d="M1763.127 566.966l130.679 0c34.362,0 62.228,27.866 62.228,62.228l0 130.679c0,34.361 -27.866,62.228 -62.228,62.228l-130.679 0c-34.361,0 -62.228,-27.867 -62.228,-62.228l0 -130.679c0,-34.362 27.867,-62.228 62.228,-62.228z" filter="url(#filter0_g_35_722)" data-figma-bg-blur-radius="20"/>
    <path fill="none" fill-rule="nonzero" fill-opacity="0.250980" stroke="black" stroke-width="2.25" stroke-miterlimit="22.9256" stroke-opacity="0.250980" d="M1764.683 566.966l129.123 0c34.362,0 62.228,27.866 62.228,62.228l0 127.568c0,34.361 -27.866,62.227 -62.228,62.227l-129.123 0.001c-34.361,-0.001 -62.228,-27.867 -62.228,-62.229l0 -127.567c0,-34.362 27.867,-62.228 62.228,-62.228z" filter="url(#filter4_f_35_722)"/>
   </g>
  </g>
  <path fill="none" d="M1700.899 666.531c0,-34.851 0,-52.276 6.782,-65.588 5.966,-11.709 15.486,-21.229 27.195,-27.194 13.311,-6.783 30.737,-6.783 65.588,-6.783l56.005 0c34.851,0 52.276,0 65.588,6.783 11.709,5.965 21.228,15.485 27.194,27.194 6.783,13.312 6.783,30.737 6.783,65.588l0 56.005c0,34.851 0,52.277 -6.783,65.589 -5.966,11.708 -15.485,21.228 -27.194,27.194 -13.312,6.782 -30.737,6.782 -65.588,6.782l-56.005 0c-34.851,0 -52.277,0 -65.588,-6.782 -11.709,-5.966 -21.229,-15.486 -27.195,-27.194 -6.782,-13.312 -6.782,-30.738 -6.782,-65.589l0 -56.005z"/>
  <g>
  </g>
  <g clip-path="url(#id14)">
   <g id="_2159786233648">
    <path fill="url(#id15)" fill-rule="nonzero" d="M2046.61 566.966l130.679 0c34.362,0 62.228,27.866 62.228,62.228l0 130.679c0,34.361 -27.866,62.228 -62.228,62.228l-130.679 0c-34.361,0 -62.227,-27.867 -62.227,-62.228l-0.001 -130.679c0.001,-34.362 27.867,-62.228 62.229,-62.228z" filter="url(#filter0_g_35_722)" data-figma-bg-blur-radius="20"/>
    <path fill="none" fill-rule="nonzero" fill-opacity="0.250980" stroke="black" stroke-width="2.25" stroke-miterlimit="22.9256" stroke-opacity="0.250980" d="M2048.166 566.966l129.123 0c34.362,0 62.228,27.866 62.228,62.228l0 127.568c0,34.361 -27.866,62.227 -62.228,62.227l-129.123 0.001c-34.361,-0.001 -62.228,-27.867 -62.228,-62.229l0 -127.567c0,-34.362 27.867,-62.228 62.228,-62.228z" filter="url(#filter4_f_35_722)"/>
   </g>
  </g>
  <path fill="none" d="M1984.382 666.531c0,-34.851 0,-52.276 6.782,-65.588 5.966,-11.709 15.486,-21.229 27.195,-27.194 13.311,-6.783 30.737,-6.783 65.588,-6.783l56.005 0c34.851,0 52.276,0 65.588,6.783 11.709,5.965 21.228,15.485 27.195,27.194 6.782,13.312 6.782,30.737 6.782,65.588l0 56.005c0,34.851 0,52.277 -6.782,65.589 -5.967,11.708 -15.486,21.228 -27.195,27.194 -13.312,6.782 -30.737,6.782 -65.588,6.782l-56.005 0c-34.851,0 -52.277,0 -65.588,-6.782 -11.709,-5.966 -21.229,-15.486 -27.195,-27.194 -6.782,-13.312 -6.782,-30.738 -6.782,-65.589l0 -56.005z"/>
  <g>
  </g>
  <g clip-path="url(#id16)">
   <g id="_2159786230672">
    <path fill="url(#id17)" fill-rule="nonzero" d="M2330.093 566.966l130.679 0c34.362,0 62.228,27.866 62.228,62.228l0 130.679c0,34.361 -27.866,62.228 -62.228,62.228l-130.679 0c-34.361,0 -62.227,-27.867 -62.227,-62.228l-0.001 -130.679c0.001,-34.362 27.867,-62.228 62.229,-62.228z" filter="url(#filter0_g_35_722)" data-figma-bg-blur-radius="20"/>
    <path fill="none" fill-rule="nonzero" fill-opacity="0.250980" stroke="black" stroke-width="2.25" stroke-miterlimit="22.9256" stroke-opacity="0.250980" d="M2331.649 566.966l129.123 0c34.362,0 62.228,27.866 62.228,62.228l0 127.568c0,34.361 -27.866,62.227 -62.228,62.227l-129.123 0.001c-34.361,-0.001 -62.228,-27.867 -62.228,-62.229l0 -127.567c0,-34.362 27.867,-62.228 62.228,-62.228z" filter="url(#filter4_f_35_722)"/>
   </g>
  </g>
  <path fill="none" d="M2267.865 666.531c0,-34.851 0,-52.276 6.783,-65.588 5.965,-11.709 15.485,-21.229 27.194,-27.194 13.312,-6.783 30.737,-6.783 65.588,-6.783l56.005 0c34.851,0 52.277,0 65.588,6.783 11.709,5.965 21.228,15.485 27.195,27.194 6.782,13.312 6.782,30.737 6.782,65.588l0 56.005c0,34.851 0,52.277 -6.782,65.589 -5.967,11.708 -15.486,21.228 -27.195,27.194 -13.311,6.782 -30.737,6.782 -65.588,6.782l-56.005 0c-34.851,0 -52.276,0 -65.588,-6.782 -11.709,-5.966 -21.229,-15.486 -27.194,-27.194 -6.783,-13.312 -6.783,-30.738 -6.783,-65.589l0 -56.005z"/>
  <g>
  </g>
  <g clip-path="url(#id18)">
   <g id="_2159786228560">
    <path fill="url(#id19)" fill-rule="nonzero" d="M62.228 283.483l130.679 0c34.362,0 62.228,27.866 62.228,62.228l0 130.679c0,34.361 -27.866,62.227 -62.228,62.227l-130.679 0.001c-34.361,-0.001 -62.227,-27.867 -62.227,-62.229l-0.001 -130.678c0.001,-34.362 27.867,-62.228 62.229,-62.228z" filter="url(#filter0_g_35_722)" data-figma-bg-blur-radius="20"/>
    <path fill="none" fill-rule="nonzero" fill-opacity="0.250980" stroke="black" stroke-width="2.25" stroke-miterlimit="22.9256" stroke-opacity="0.250980" d="M63.784 283.483l129.123 0c34.362,0 62.228,27.866 62.228,62.228l0 127.568c0,34.361 -27.866,62.227 -62.228,62.227l-129.123 0.001c-34.361,-0.001 -62.228,-27.867 -62.228,-62.229l0 -127.567c0,-34.362 27.867,-62.228 62.228,-62.228z" filter="url(#filter4_f_35_722)"/>
   </g>
  </g>
  <path fill="none" d="M0 383.048c0,-34.851 0,-52.276 6.782,-65.588 5.966,-11.709 15.486,-21.229 27.195,-27.195 13.311,-6.782 30.737,-6.782 65.588,-6.782l56.005 0c34.851,0 52.276,0 65.588,6.782 11.709,5.966 21.228,15.486 27.194,27.195 6.783,13.312 6.783,30.737 6.783,65.588l0 56.005c0,34.851 0,52.277 -6.783,65.588 -5.966,11.709 -15.485,21.228 -27.194,27.195 -13.312,6.782 -30.737,6.782 -65.588,6.782l-56.005 0c-34.851,0 -52.277,0 -65.588,-6.782 -11.709,-5.967 -21.229,-15.486 -27.195,-27.195 -6.782,-13.311 -6.782,-30.737 -6.782,-65.588l0 -56.005z"/>
  <g>
  </g>
  <g clip-path="url(#id20)">
   <g id="_2159786229904">
    <path fill="url(#id21)" fill-rule="nonzero" d="M345.711 283.483l130.679 0c34.362,0 62.228,27.866 62.228,62.228l0 130.679c0,34.361 -27.866,62.227 -62.228,62.227l-130.679 0.001c-34.361,-0.001 -62.227,-27.867 -62.227,-62.229l-0.001 -130.678c0.001,-34.362 27.867,-62.228 62.229,-62.228z" filter="url(#filter0_g_35_722)" data-figma-bg-blur-radius="20"/>
    <path fill="none" fill-rule="nonzero" fill-opacity="0.250980" stroke="black" stroke-width="2.25" stroke-miterlimit="22.9256" stroke-opacity="0.250980" d="M347.267 283.483l129.123 0c34.362,0 62.228,27.866 62.228,62.228l0 127.568c0,34.361 -27.866,62.227 -62.228,62.227l-129.123 0.001c-34.361,-0.001 -62.228,-27.867 -62.228,-62.229l0 -127.567c0,-34.362 27.867,-62.228 62.228,-62.228z" filter="url(#filter4_f_35_722)"/>
   </g>
  </g>
  <path fill="none" d="M283.483 383.048c0,-34.851 0,-52.276 6.782,-65.588 5.966,-11.709 15.486,-21.229 27.195,-27.195 13.312,-6.782 30.737,-6.782 65.588,-6.782l56.005 0c34.851,0 52.277,0 65.588,6.782 11.709,5.966 21.228,15.486 27.195,27.195 6.782,13.312 6.782,30.737 6.782,65.588l0 56.005c0,34.851 0,52.277 -6.782,65.588 -5.967,11.709 -15.486,21.228 -27.195,27.195 -13.311,6.782 -30.737,6.782 -65.588,6.782l-56.005 0c-34.851,0 -52.276,0 -65.588,-6.782 -11.709,-5.967 -21.229,-15.486 -27.195,-27.195 -6.782,-13.311 -6.782,-30.737 -6.782,-65.588l0 -56.005z"/>
  <g>
  </g>
  <g clip-path="url(#id22)">
   <g id="_2159786191504">
    <path fill="url(#id23)" fill-rule="nonzero" d="M629.194 283.483l130.679 0c34.362,0 62.228,27.866 62.228,62.228l0 130.679c0,34.361 -27.866,62.227 -62.228,62.227l-130.679 0.001c-34.361,-0.001 -62.227,-27.867 -62.227,-62.229l-0.001 -130.678c0.001,-34.362 27.867,-62.228 62.229,-62.228z" filter="url(#filter0_g_35_722)" data-figma-bg-blur-radius="20"/>
    <path fill="none" fill-rule="nonzero" fill-opacity="0.250980" stroke="black" stroke-width="2.25" stroke-miterlimit="22.9256" stroke-opacity="0.250980" d="M630.75 283.483l129.123 0c34.362,0 62.228,27.866 62.228,62.228l0 127.568c0,34.361 -27.866,62.227 -62.228,62.227l-129.123 0.001c-34.361,-0.001 -62.227,-27.867 -62.227,-62.229l-0.001 -127.567c0.001,-34.362 27.867,-62.228 62.229,-62.228z" filter="url(#filter4_f_35_722)"/>
   </g>
  </g>
  <path fill="none" d="M566.966 383.048c0,-34.851 0,-52.276 6.783,-65.588 5.965,-11.709 15.485,-21.229 27.194,-27.195 13.312,-6.782 30.737,-6.782 65.588,-6.782l56.005 0c34.851,0 52.277,0 65.589,6.782 11.708,5.966 21.228,15.486 27.194,27.195 6.782,13.312 6.782,30.737 6.782,65.588l0 56.005c0,34.851 0,52.277 -6.782,65.588 -5.966,11.709 -15.486,21.228 -27.194,27.195 -13.312,6.782 -30.738,6.782 -65.589,6.782l-56.005 0c-34.851,0 -52.276,0 -65.588,-6.782 -11.709,-5.967 -21.229,-15.486 -27.194,-27.195 -6.783,-13.311 -6.783,-30.737 -6.783,-65.588l0 -56.005z"/>
  <g>
  </g>
  <g clip-path="url(#id24)">
   <g id="_2158288538656">
    <path fill="url(#id25)" fill-rule="nonzero" d="M912.677 283.483l130.679 0c34.362,0 62.228,27.866 62.228,62.228l0 130.679c0,34.361 -27.866,62.227 -62.228,62.227l-130.679 0.001c-34.361,-0.001 -62.227,-27.867 -62.227,-62.229l-0.001 -130.678c0.001,-34.362 27.867,-62.228 62.229,-62.228z" filter="url(#filter0_g_35_722)" data-figma-bg-blur-radius="20"/>
    <path fill="none" fill-rule="nonzero" fill-opacity="0.250980" stroke="black" stroke-width="2.25" stroke-miterlimit="22.9256" stroke-opacity="0.250980" d="M914.233 283.483l129.123 0c34.362,0 62.228,27.866 62.228,62.228l0 127.568c0,34.361 -27.866,62.227 -62.228,62.227l-129.123 0.001c-34.361,-0.001 -62.227,-27.867 -62.227,-62.229l-0.001 -127.567c0.001,-34.362 27.867,-62.228 62.229,-62.228z" filter="url(#filter4_f_35_722)"/>
   </g>
  </g>
  <path fill="none" d="M850.449 383.048c0,-34.851 0,-52.276 6.783,-65.588 5.965,-11.709 15.486,-21.229 27.195,-27.195 13.311,-6.782 30.736,-6.782 65.587,-6.782l56.006 0c34.85,0 52.276,0 65.588,6.782 11.708,5.966 21.228,15.486 27.194,27.195 6.782,13.312 6.782,30.737 6.782,65.588l0 56.005c0,34.851 0,52.277 -6.782,65.588 -5.966,11.709 -15.486,21.228 -27.194,27.195 -13.312,6.782 -30.738,6.782 -65.588,6.782l-56.006 0c-34.851,0 -52.276,0 -65.587,-6.782 -11.709,-5.967 -21.23,-15.486 -27.195,-27.195 -6.783,-13.311 -6.783,-30.737 -6.783,-65.588l0 -56.005z"/>
  <g>
  </g>
  <g clip-path="url(#id26)">
   <g id="_2158288525024">
    <path fill="url(#id27)" fill-rule="nonzero" d="M1196.161 283.483l130.678 0c34.362,0 62.228,27.866 62.228,62.228l0 130.679c0,34.361 -27.866,62.227 -62.228,62.227l-130.678 0.001c-34.361,-0.001 -62.228,-27.867 -62.228,-62.229l0 -130.678c0,-34.362 27.867,-62.228 62.228,-62.228z" filter="url(#filter0_g_35_722)" data-figma-bg-blur-radius="20"/>
    <path fill="none" fill-rule="nonzero" fill-opacity="0.250980" stroke="black" stroke-width="2.25" stroke-miterlimit="22.9256" stroke-opacity="0.250980" d="M1197.716 283.483l129.123 0c34.362,0 62.228,27.866 62.228,62.228l0 127.568c0,34.361 -27.866,62.227 -62.228,62.227l-129.123 0.001c-34.361,-0.001 -62.227,-27.867 -62.227,-62.229l-0.001 -127.567c0.001,-34.362 27.867,-62.228 62.229,-62.228z" filter="url(#filter4_f_35_722)"/>
   </g>
  </g>
  <path fill="none" d="M1133.933 383.048c0,-34.851 0,-52.276 6.782,-65.588 5.966,-11.709 15.486,-21.229 27.195,-27.195 13.311,-6.782 30.736,-6.782 65.587,-6.782l56.006 0c34.851,0 52.276,0 65.588,6.782 11.708,5.966 21.228,15.486 27.194,27.195 6.782,13.312 6.782,30.737 6.782,65.588l0 56.005c0,34.851 0,52.277 -6.782,65.588 -5.966,11.709 -15.486,21.228 -27.194,27.195 -13.312,6.782 -30.737,6.782 -65.588,6.782l-56.006 0c-34.851,0 -52.276,0 -65.587,-6.782 -11.709,-5.967 -21.229,-15.486 -27.195,-27.195 -6.782,-13.311 -6.782,-30.737 -6.782,-65.588l0 -56.005z"/>
  <g>
  </g>
  <g clip-path="url(#id28)">
   <g id="_2158288510768">
    <path fill="url(#id29)" fill-rule="nonzero" d="M1479.644 283.483l130.679 0c34.361,0 62.228,27.866 62.228,62.228l0 130.679c0,34.361 -27.867,62.227 -62.228,62.227l-130.679 0.001c-34.361,-0.001 -62.228,-27.867 -62.228,-62.229l0 -130.678c0,-34.362 27.867,-62.228 62.228,-62.228z" filter="url(#filter0_g_35_722)" data-figma-bg-blur-radius="20"/>
    <path fill="none" fill-rule="nonzero" fill-opacity="0.250980" stroke="black" stroke-width="2.25" stroke-miterlimit="22.9256" stroke-opacity="0.250980" d="M1481.199 283.483l129.124 0c34.361,0 62.228,27.866 62.228,62.228l0 127.568c0,34.361 -27.867,62.227 -62.228,62.227l-129.124 0.001c-34.361,-0.001 -62.227,-27.867 -62.227,-62.229l-0.001 -127.567c0.001,-34.362 27.867,-62.228 62.229,-62.228z" filter="url(#filter4_f_35_722)"/>
   </g>
  </g>
  <path fill="none" d="M1417.416 383.048c0,-34.851 0,-52.276 6.782,-65.588 5.966,-11.709 15.486,-21.229 27.195,-27.195 13.311,-6.782 30.737,-6.782 65.587,-6.782l56.006 0c34.851,0 52.276,0 65.588,6.782 11.708,5.966 21.228,15.486 27.194,27.195 6.783,13.312 6.783,30.737 6.783,65.588l0 56.005c0,34.851 0,52.277 -6.783,65.588 -5.966,11.709 -15.486,21.228 -27.194,27.195 -13.312,6.782 -30.737,6.782 -65.588,6.782l-56.006 0c-34.85,0 -52.276,0 -65.587,-6.782 -11.709,-5.967 -21.229,-15.486 -27.195,-27.195 -6.782,-13.311 -6.782,-30.737 -6.782,-65.588l0 -56.005z"/>
  <g>
  </g>
  <g clip-path="url(#id30)">
   <g id="_2158288512208">
    <path fill="url(#id31)" fill-rule="nonzero" d="M1763.127 283.483l130.679 0c34.362,0 62.228,27.866 62.228,62.228l0 130.679c0,34.361 -27.866,62.227 -62.228,62.227l-130.679 0.001c-34.361,-0.001 -62.228,-27.867 -62.228,-62.229l0 -130.678c0,-34.362 27.867,-62.228 62.228,-62.228z" filter="url(#filter0_g_35_722)" data-figma-bg-blur-radius="20"/>
    <path fill="none" fill-rule="nonzero" fill-opacity="0.250980" stroke="black" stroke-width="2.25" stroke-miterlimit="22.9256" stroke-opacity="0.250980" d="M1764.683 283.483l129.123 0c34.362,0 62.228,27.866 62.228,62.228l0 127.568c0,34.361 -27.866,62.227 -62.228,62.227l-129.123 0.001c-34.361,-0.001 -62.228,-27.867 -62.228,-62.229l0 -127.567c0,-34.362 27.867,-62.228 62.228,-62.228z" filter="url(#filter4_f_35_722)"/>
   </g>
  </g>
  <path fill="none" d="M1700.899 383.048c0,-34.851 0,-52.276 6.782,-65.588 5.966,-11.709 15.486,-21.229 27.195,-27.195 13.311,-6.782 30.737,-6.782 65.588,-6.782l56.005 0c34.851,0 52.276,0 65.588,6.782 11.709,5.966 21.228,15.486 27.194,27.195 6.783,13.312 6.783,30.737 6.783,65.588l0 56.005c0,34.851 0,52.277 -6.783,65.588 -5.966,11.709 -15.485,21.228 -27.194,27.195 -13.312,6.782 -30.737,6.782 -65.588,6.782l-56.005 0c-34.851,0 -52.277,0 -65.588,-6.782 -11.709,-5.967 -21.229,-15.486 -27.195,-27.195 -6.782,-13.311 -6.782,-30.737 -6.782,-65.588l0 -56.005z"/>
  <g>
  </g>
  <g clip-path="url(#id32)">
   <g id="_2158288508176">
    <path fill="url(#id33)" fill-rule="nonzero" d="M2046.61 283.483l130.679 0c34.362,0 62.228,27.866 62.228,62.228l0 130.679c0,34.361 -27.866,62.227 -62.228,62.227l-130.679 0.001c-34.361,-0.001 -62.227,-27.867 -62.227,-62.229l-0.001 -130.678c0.001,-34.362 27.867,-62.228 62.229,-62.228z" filter="url(#filter0_g_35_722)" data-figma-bg-blur-radius="20"/>
    <path fill="none" fill-rule="nonzero" fill-opacity="0.250980" stroke="black" stroke-width="2.25" stroke-miterlimit="22.9256" stroke-opacity="0.250980" d="M2048.166 283.483l129.123 0c34.362,0 62.228,27.866 62.228,62.228l0 127.568c0,34.361 -27.866,62.227 -62.228,62.227l-129.123 0.001c-34.361,-0.001 -62.228,-27.867 -62.228,-62.229l0 -127.567c0,-34.362 27.867,-62.228 62.228,-62.228z" filter="url(#filter4_f_35_722)"/>
   </g>
  </g>
  <path fill="none" d="M1984.382 383.048c0,-34.851 0,-52.276 6.782,-65.588 5.966,-11.709 15.486,-21.229 27.195,-27.195 13.311,-6.782 30.737,-6.782 65.588,-6.782l56.005 0c34.851,0 52.276,0 65.588,6.782 11.709,5.966 21.228,15.486 27.195,27.195 6.782,13.312 6.782,30.737 6.782,65.588l0 56.005c0,34.851 0,52.277 -6.782,65.588 -5.967,11.709 -15.486,21.228 -27.195,27.195 -13.312,6.782 -30.737,6.782 -65.588,6.782l-56.005 0c-34.851,0 -52.277,0 -65.588,-6.782 -11.709,-5.967 -21.229,-15.486 -27.195,-27.195 -6.782,-13.311 -6.782,-30.737 -6.782,-65.588l0 -56.005z"/>
  <g>
  </g>
  <g clip-path="url(#id34)">
   <g id="_2158288508704">
    <path fill="url(#id35)" fill-rule="nonzero" d="M2330.093 283.483l130.679 0c34.362,0 62.228,27.866 62.228,62.228l0 130.679c0,34.361 -27.866,62.227 -62.228,62.227l-130.679 0.001c-34.361,-0.001 -62.227,-27.867 -62.227,-62.229l-0.001 -130.678c0.001,-34.362 27.867,-62.228 62.229,-62.228z" filter="url(#filter0_g_35_722)" data-figma-bg-blur-radius="20"/>
    <path fill="none" fill-rule="nonzero" fill-opacity="0.250980" stroke="black" stroke-width="2.25" stroke-miterlimit="22.9256" stroke-opacity="0.250980" d="M2331.649 283.483l129.123 0c34.362,0 62.228,27.866 62.228,62.228l0 127.568c0,34.361 -27.866,62.227 -62.228,62.227l-129.123 0.001c-34.361,-0.001 -62.228,-27.867 -62.228,-62.229l0 -127.567c0,-34.362 27.867,-62.228 62.228,-62.228z" filter="url(#filter4_f_35_722)"/>
   </g>
  </g>
  <path fill="none" d="M2267.865 383.048c0,-34.851 0,-52.276 6.783,-65.588 5.965,-11.709 15.485,-21.229 27.194,-27.195 13.312,-6.782 30.737,-6.782 65.588,-6.782l56.005 0c34.851,0 52.277,0 65.588,6.782 11.709,5.966 21.228,15.486 27.195,27.195 6.782,13.312 6.782,30.737 6.782,65.588l0 56.005c0,34.851 0,52.277 -6.782,65.588 -5.967,11.709 -15.486,21.228 -27.195,27.195 -13.311,6.782 -30.737,6.782 -65.588,6.782l-56.005 0c-34.851,0 -52.276,0 -65.588,-6.782 -11.709,-5.967 -21.229,-15.486 -27.194,-27.195 -6.783,-13.311 -6.783,-30.737 -6.783,-65.588l0 -56.005z"/>
  <g>
  </g>
  <g clip-path="url(#id36)">
   <g id="_2158288504192">
    <path fill="url(#id37)" fill-rule="nonzero" d="M62.228 0l130.679 0c34.362,0 62.228,27.866 62.228,62.228l0 130.679c0,34.361 -27.866,62.227 -62.228,62.227l-130.679 0.001c-34.361,-0.001 -62.227,-27.867 -62.227,-62.229l-0.001 -130.678c0.001,-34.362 27.867,-62.228 62.229,-62.228z" filter="url(#filter0_g_35_722)" data-figma-bg-blur-radius="20"/>
    <path fill="none" fill-rule="nonzero" fill-opacity="0.250980" stroke="black" stroke-width="2.25" stroke-miterlimit="22.9256" stroke-opacity="0.250980" d="M63.784 0l129.123 0c34.362,0 62.228,27.866 62.228,62.228l0 127.567c0,34.361 -27.866,62.228 -62.228,62.228l-129.123 0.001c-34.361,-0.001 -62.228,-27.868 -62.228,-62.229l0 -127.567c0,-34.362 27.867,-62.228 62.228,-62.228z" filter="url(#filter4_f_35_722)"/>
   </g>
  </g>
  <path fill="none" d="M0 99.565c0,-34.851 0,-52.277 6.782,-65.588 5.966,-11.709 15.486,-21.229 27.195,-27.195 13.311,-6.782 30.737,-6.782 65.588,-6.782l56.005 0c34.851,0 52.276,0 65.588,6.782 11.709,5.966 21.228,15.486 27.194,27.195 6.783,13.311 6.783,30.737 6.783,65.588l0 56.005c0,34.851 0,52.276 -6.783,65.588 -5.966,11.709 -15.485,21.228 -27.194,27.194 -13.312,6.783 -30.737,6.783 -65.588,6.783l-56.005 0c-34.851,0 -52.277,0 -65.588,-6.783 -11.709,-5.966 -21.229,-15.485 -27.195,-27.194 -6.782,-13.312 -6.782,-30.737 -6.782,-65.588l0 -56.005z"/>
  <g>
  </g>
  <g clip-path="url(#id38)">
   <g id="_2158288506592">
    <path fill="url(#id39)" fill-rule="nonzero" d="M345.711 0l130.679 0c34.362,0 62.228,27.866 62.228,62.228l0 130.679c0,34.361 -27.866,62.227 -62.228,62.227l-130.679 0.001c-34.361,-0.001 -62.227,-27.867 -62.227,-62.229l-0.001 -130.678c0.001,-34.362 27.867,-62.228 62.229,-62.228z" filter="url(#filter0_g_35_722)" data-figma-bg-blur-radius="20"/>
    <path fill="none" fill-rule="nonzero" fill-opacity="0.250980" stroke="black" stroke-width="2.25" stroke-miterlimit="22.9256" stroke-opacity="0.250980" d="M347.267 0l129.123 0c34.362,0 62.228,27.866 62.228,62.228l0 127.567c0,34.361 -27.866,62.228 -62.228,62.228l-129.123 0.001c-34.361,-0.001 -62.228,-27.868 -62.228,-62.229l0 -127.567c0,-34.362 27.867,-62.228 62.228,-62.228z" filter="url(#filter4_f_35_722)"/>
   </g>
  </g>
  <path fill="none" d="M283.483 99.565c0,-34.851 0,-52.277 6.782,-65.588 5.966,-11.709 15.486,-21.229 27.195,-27.195 13.312,-6.782 30.737,-6.782 65.588,-6.782l56.005 0c34.851,0 52.277,0 65.588,6.782 11.709,5.966 21.228,15.486 27.195,27.195 6.782,13.311 6.782,30.737 6.782,65.588l0 56.005c0,34.851 0,52.276 -6.782,65.588 -5.967,11.709 -15.486,21.228 -27.195,27.194 -13.311,6.783 -30.737,6.783 -65.588,6.783l-56.005 0c-34.851,0 -52.276,0 -65.588,-6.783 -11.709,-5.966 -21.229,-15.485 -27.195,-27.194 -6.782,-13.312 -6.782,-30.737 -6.782,-65.588l0 -56.005z"/>
  <g>
  </g>
  <g clip-path="url(#id40)">
   <g id="_2158286815632">
    <path fill="url(#id41)" fill-rule="nonzero" d="M629.194 0l130.679 0c34.362,0 62.228,27.866 62.228,62.228l0 130.679c0,34.361 -27.866,62.227 -62.228,62.227l-130.679 0.001c-34.361,-0.001 -62.227,-27.867 -62.227,-62.229l-0.001 -130.678c0.001,-34.362 27.867,-62.228 62.229,-62.228z" filter="url(#filter0_g_35_722)" data-figma-bg-blur-radius="20"/>
    <path fill="none" fill-rule="nonzero" fill-opacity="0.250980" stroke="black" stroke-width="2.25" stroke-miterlimit="22.9256" stroke-opacity="0.250980" d="M630.75 0l129.123 0c34.362,0 62.228,27.866 62.228,62.228l0 127.567c0,34.361 -27.866,62.228 -62.228,62.228l-129.123 0.001c-34.361,-0.001 -62.227,-27.868 -62.227,-62.229l-0.001 -127.567c0.001,-34.362 27.867,-62.228 62.229,-62.228z" filter="url(#filter4_f_35_722)"/>
   </g>
  </g>
  <path fill="none" d="M566.966 99.565c0,-34.851 0,-52.277 6.783,-65.588 5.965,-11.709 15.485,-21.229 27.194,-27.195 13.312,-6.782 30.737,-6.782 65.588,-6.782l56.005 0c34.851,0 52.277,0 65.589,6.782 11.708,5.966 21.228,15.486 27.194,27.195 6.782,13.311 6.782,30.737 6.782,65.588l0 56.005c0,34.851 0,52.276 -6.782,65.588 -5.966,11.709 -15.486,21.228 -27.194,27.194 -13.312,6.783 -30.738,6.783 -65.589,6.783l-56.005 0c-34.851,0 -52.276,0 -65.588,-6.783 -11.709,-5.966 -21.229,-15.485 -27.194,-27.194 -6.783,-13.312 -6.783,-30.737 -6.783,-65.588l0 -56.005z"/>
  <g>
  </g>
  <g clip-path="url(#id42)">
   <g id="_2158286812272">
    <path fill="url(#id43)" fill-rule="nonzero" d="M912.677 0l130.679 0c34.362,0 62.228,27.866 62.228,62.228l0 130.679c0,34.361 -27.866,62.227 -62.228,62.227l-130.679 0.001c-34.361,-0.001 -62.227,-27.867 -62.227,-62.229l-0.001 -130.678c0.001,-34.362 27.867,-62.228 62.229,-62.228z" filter="url(#filter0_g_35_722)" data-figma-bg-blur-radius="20"/>
    <path fill="none" fill-rule="nonzero" fill-opacity="0.250980" stroke="black" stroke-width="2.25" stroke-miterlimit="22.9256" stroke-opacity="0.250980" d="M914.233 0l129.123 0c34.362,0 62.228,27.866 62.228,62.228l0 127.567c0,34.361 -27.866,62.228 -62.228,62.228l-129.123 0.001c-34.361,-0.001 -62.227,-27.868 -62.227,-62.229l-0.001 -127.567c0.001,-34.362 27.867,-62.228 62.229,-62.228z" filter="url(#filter4_f_35_722)"/>
   </g>
  </g>
  <path fill="none" d="M850.449 99.565c0,-34.851 0,-52.277 6.783,-65.588 5.965,-11.709 15.486,-21.229 27.195,-27.195 13.311,-6.782 30.736,-6.782 65.587,-6.782l56.006 0c34.85,0 52.276,0 65.588,6.782 11.708,5.966 21.228,15.486 27.194,27.195 6.782,13.311 6.782,30.737 6.782,65.588l0 56.005c0,34.851 0,52.276 -6.782,65.588 -5.966,11.709 -15.486,21.228 -27.194,27.194 -13.312,6.783 -30.738,6.783 -65.588,6.783l-56.006 0c-34.851,0 -52.276,0 -65.587,-6.783 -11.709,-5.966 -21.23,-15.485 -27.195,-27.194 -6.783,-13.312 -6.783,-30.737 -6.783,-65.588l0 -56.005z"/>
  <g>
  </g>
  <g clip-path="url(#id44)">
   <g id="_2158286809392">
    <path fill="url(#id45)" fill-rule="nonzero" d="M1196.161 0l130.678 0c34.362,0 62.228,27.866 62.228,62.228l0 130.679c0,34.361 -27.866,62.227 -62.228,62.227l-130.678 0.001c-34.361,-0.001 -62.228,-27.867 -62.228,-62.229l0 -130.678c0,-34.362 27.867,-62.228 62.228,-62.228z" filter="url(#filter0_g_35_722)" data-figma-bg-blur-radius="20"/>
    <path fill="none" fill-rule="nonzero" fill-opacity="0.250980" stroke="black" stroke-width="2.25" stroke-miterlimit="22.9256" stroke-opacity="0.250980" d="M1197.716 0l129.123 0c34.362,0 62.228,27.866 62.228,62.228l0 127.567c0,34.361 -27.866,62.228 -62.228,62.228l-129.123 0.001c-34.361,-0.001 -62.227,-27.868 -62.227,-62.229l-0.001 -127.567c0.001,-34.362 27.867,-62.228 62.229,-62.228z" filter="url(#filter4_f_35_722)"/>
   </g>
  </g>
  <path fill="none" d="M1133.933 99.565c0,-34.851 0,-52.277 6.782,-65.588 5.966,-11.709 15.486,-21.229 27.195,-27.195 13.311,-6.782 30.736,-6.782 65.587,-6.782l56.006 0c34.851,0 52.276,0 65.588,6.782 11.708,5.966 21.228,15.486 27.194,27.195 6.782,13.311 6.782,30.737 6.782,65.588l0 56.005c0,34.851 0,52.276 -6.782,65.588 -5.966,11.709 -15.486,21.228 -27.194,27.194 -13.312,6.783 -30.737,6.783 -65.588,6.783l-56.006 0c-34.851,0 -52.276,0 -65.587,-6.783 -11.709,-5.966 -21.229,-15.485 -27.195,-27.194 -6.782,-13.312 -6.782,-30.737 -6.782,-65.588l0 -56.005z"/>
  <g>
  </g>
  <g clip-path="url(#id46)">
   <g id="_2158286809488">
    <path fill="url(#id47)" fill-rule="nonzero" d="M1479.644 0l130.679 0c34.361,0 62.228,27.866 62.228,62.228l0 130.679c0,34.361 -27.867,62.227 -62.228,62.227l-130.679 0.001c-34.361,-0.001 -62.228,-27.867 -62.228,-62.229l0 -130.678c0,-34.362 27.867,-62.228 62.228,-62.228z" filter="url(#filter0_g_35_722)" data-figma-bg-blur-radius="20"/>
    <path fill="none" fill-rule="nonzero" fill-opacity="0.250980" stroke="black" stroke-width="2.25" stroke-miterlimit="22.9256" stroke-opacity="0.250980" d="M1481.199 0l129.124 0c34.361,0 62.228,27.866 62.228,62.228l0 127.567c0,34.361 -27.867,62.228 -62.228,62.228l-129.124 0.001c-34.361,-0.001 -62.227,-27.868 -62.227,-62.229l-0.001 -127.567c0.001,-34.362 27.867,-62.228 62.229,-62.228z" filter="url(#filter4_f_35_722)"/>
   </g>
  </g>
  <path fill="none" d="M1417.416 99.565c0,-34.851 0,-52.277 6.782,-65.588 5.966,-11.709 15.486,-21.229 27.195,-27.195 13.311,-6.782 30.737,-6.782 65.587,-6.782l56.006 0c34.851,0 52.276,0 65.588,6.782 11.708,5.966 21.228,15.486 27.194,27.195 6.783,13.311 6.783,30.737 6.783,65.588l0 56.005c0,34.851 0,52.276 -6.783,65.588 -5.966,11.709 -15.486,21.228 -27.194,27.194 -13.312,6.783 -30.737,6.783 -65.588,6.783l-56.006 0c-34.85,0 -52.276,0 -65.587,-6.783 -11.709,-5.966 -21.229,-15.485 -27.195,-27.194 -6.782,-13.312 -6.782,-30.737 -6.782,-65.588l0 -56.005z"/>
  <g>
  </g>
  <g clip-path="url(#id48)">
   <g id="_2158286804304">
    <path fill="url(#id49)" fill-rule="nonzero" d="M1763.127 0l130.679 0c34.362,0 62.228,27.866 62.228,62.228l0 130.679c0,34.361 -27.866,62.227 -62.228,62.227l-130.679 0.001c-34.361,-0.001 -62.228,-27.867 -62.228,-62.229l0 -130.678c0,-34.362 27.867,-62.228 62.228,-62.228z" filter="url(#filter0_g_35_722)" data-figma-bg-blur-radius="20"/>
    <path fill="none" fill-rule="nonzero" fill-opacity="0.250980" stroke="black" stroke-width="2.25" stroke-miterlimit="22.9256" stroke-opacity="0.250980" d="M1764.683 0l129.123 0c34.362,0 62.228,27.866 62.228,62.228l0 127.567c0,34.361 -27.866,62.228 -62.228,62.228l-129.123 0.001c-34.361,-0.001 -62.228,-27.868 -62.228,-62.229l0 -127.567c0,-34.362 27.867,-62.228 62.228,-62.228z" filter="url(#filter4_f_35_722)"/>
   </g>
  </g>
  <path fill="none" d="M1700.899 99.565c0,-34.851 0,-52.277 6.782,-65.588 5.966,-11.709 15.486,-21.229 27.195,-27.195 13.311,-6.782 30.737,-6.782 65.588,-6.782l56.005 0c34.851,0 52.276,0 65.588,6.782 11.709,5.966 21.228,15.486 27.194,27.195 6.783,13.311 6.783,30.737 6.783,65.588l0 56.005c0,34.851 0,52.276 -6.783,65.588 -5.966,11.709 -15.485,21.228 -27.194,27.194 -13.312,6.783 -30.737,6.783 -65.588,6.783l-56.005 0c-34.851,0 -52.277,0 -65.588,-6.783 -11.709,-5.966 -21.229,-15.485 -27.195,-27.194 -6.782,-13.312 -6.782,-30.737 -6.782,-65.588l0 -56.005z"/>
  <g>
  </g>
  <g clip-path="url(#id50)">
   <g id="_2158286836752">
    <path fill="url(#id51)" fill-rule="nonzero" d="M2046.61 0l130.679 0c34.362,0 62.228,27.866 62.228,62.228l0 130.679c0,34.361 -27.866,62.227 -62.228,62.227l-130.679 0.001c-34.361,-0.001 -62.227,-27.867 -62.227,-62.229l-0.001 -130.678c0.001,-34.362 27.867,-62.228 62.229,-62.228z" filter="url(#filter0_g_35_722)" data-figma-bg-blur-radius="20"/>
    <path fill="none" fill-rule="nonzero" fill-opacity="0.250980" stroke="black" stroke-width="2.25" stroke-miterlimit="22.9256" stroke-opacity="0.250980" d="M2048.166 0l129.123 0c34.362,0 62.228,27.866 62.228,62.228l0 127.567c0,34.361 -27.866,62.228 -62.228,62.228l-129.123 0.001c-34.361,-0.001 -62.228,-27.868 -62.228,-62.229l0 -127.567c0,-34.362 27.867,-62.228 62.228,-62.228z" filter="url(#filter4_f_35_722)"/>
   </g>
  </g>
  <path fill="none" d="M1984.382 99.565c0,-34.851 0,-52.277 6.782,-65.588 5.966,-11.709 15.486,-21.229 27.195,-27.195 13.311,-6.782 30.737,-6.782 65.588,-6.782l56.005 0c34.851,0 52.276,0 65.588,6.782 11.709,5.966 21.228,15.486 27.195,27.195 6.782,13.311 6.782,30.737 6.782,65.588l0 56.005c0,34.851 0,52.276 -6.782,65.588 -5.967,11.709 -15.486,21.228 -27.195,27.194 -13.312,6.783 -30.737,6.783 -65.588,6.783l-56.005 0c-34.851,0 -52.277,0 -65.588,-6.783 -11.709,-5.966 -21.229,-15.485 -27.195,-27.194 -6.782,-13.312 -6.782,-30.737 -6.782,-65.588l0 -56.005z"/>
  <g>
  </g>
  <g clip-path="url(#id52)">
   <g id="_2158286829648">
    <path fill="url(#id53)" fill-rule="nonzero" d="M2330.093 0l130.679 0c34.362,0 62.228,27.866 62.228,62.228l0 130.679c0,34.361 -27.866,62.227 -62.228,62.227l-130.679 0.001c-34.361,-0.001 -62.227,-27.867 -62.227,-62.229l-0.001 -130.678c0.001,-34.362 27.867,-62.228 62.229,-62.228z" filter="url(#filter0_g_35_722)" data-figma-bg-blur-radius="20"/>
    <path fill="none" fill-rule="nonzero" fill-opacity="0.250980" stroke="black" stroke-width="2.25" stroke-miterlimit="22.9256" stroke-opacity="0.250980" d="M2331.649 0l129.123 0c34.362,0 62.228,27.866 62.228,62.228l0 127.567c0,34.361 -27.866,62.228 -62.228,62.228l-129.123 0.001c-34.361,-0.001 -62.228,-27.868 -62.228,-62.229l0 -127.567c0,-34.362 27.867,-62.228 62.228,-62.228z" filter="url(#filter4_f_35_722)"/>
   </g>
  </g>
  <path fill="none" d="M2267.865 99.565c0,-34.851 0,-52.277 6.783,-65.588 5.965,-11.709 15.485,-21.229 27.194,-27.195 13.312,-6.782 30.737,-6.782 65.588,-6.782l56.005 0c34.851,0 52.277,0 65.588,6.782 11.709,5.966 21.228,15.486 27.195,27.195 6.782,13.311 6.782,30.737 6.782,65.588l0 56.005c0,34.851 0,52.276 -6.782,65.588 -5.967,11.709 -15.486,21.228 -27.195,27.194 -13.311,6.783 -30.737,6.783 -65.588,6.783l-56.005 0c-34.851,0 -52.276,0 -65.588,-6.783 -11.709,-5.966 -21.229,-15.485 -27.194,-27.194 -6.783,-13.312 -6.783,-30.737 -6.783,-65.588l0 -56.005z"/>
 </g>
</svg>
