<?xml version="1.0" encoding="UTF-8"?>
<!DOCTYPE svg PUBLIC "-//W3C//DTD SVG 1.1//EN" "http://www.w3.org/Graphics/SVG/1.1/DTD/svg11.dtd">
<!-- Creator: CorelDRAW -->
<svg xmlns="http://www.w3.org/2000/svg" xml:space="preserve" width="354px" height="354px" version="1.1" shape-rendering="geometricPrecision" text-rendering="geometricPrecision" image-rendering="optimizeQuality" fill-rule="evenodd" clip-rule="evenodd"
viewBox="0 0 354 354"
 xmlns:xlink="http://www.w3.org/1999/xlink"
 xmlns:xodm="http://www.corel.com/coreldraw/odm/2003">
 <defs>
    <linearGradient id="id0" gradientUnits="userSpaceOnUse" x1="16.05" y1="-0.07" x2="333.01" y2="352.11">
     <stop offset="0" stop-opacity="0.6" stop-color="white"/>
     <stop offset="1" stop-opacity="0.301961" stop-color="white"/>
    </linearGradient>
    <linearGradient id="id1" gradientUnits="userSpaceOnUse" x1="16.05" y1="-0.07" x2="333.01" y2="352.11">
     <stop offset="0" stop-opacity="0.6" stop-color="white"/>
     <stop offset="0.490196" stop-opacity="0" stop-color="white"/>
     <stop offset="1" stop-opacity="0.301961" stop-color="white"/>
    </linearGradient>
 </defs>
 <g id="Слой_x0020_1">
  <metadata id="CorelCorpID_0Corel-Layer"/>
  <g id="_2621851586128">
   <path fill="url(#id0)" fill-rule="nonzero" d="M353.17 177.83c0,21.74 -15.85,39.34 -35.41,39.34l-283.19 0c-19.56,0 -35.4,-17.6 -35.4,-39.34 0,-21.73 15.84,-39.33 35.4,-39.33l283.19 0c19.56,0 35.41,17.6 35.41,39.33zm-318.6 -98.33l283.19 0c19.56,0 35.41,-17.6 35.41,-39.33 0,-21.73 -15.85,-39.34 -35.41,-39.34l-283.19 0c-19.56,0 -35.4,17.61 -35.4,39.34 0,21.73 15.84,39.33 35.4,39.33zm283.19 196.67l-283.19 0c-19.56,0 -35.4,17.6 -35.4,39.33 0,21.73 15.84,39.33 35.4,39.33l283.19 0c19.56,0 35.41,-17.6 35.41,-39.33 0,-21.73 -15.85,-39.33 -35.41,-39.33z"/>
   <path fill="url(#id1)" fill-rule="nonzero" d="M317.76 10.67c14.64,0 26.55,13.23 26.55,29.5 0,16.26 -11.91,29.5 -26.55,29.5l-283.19 0c-14.64,0 -26.55,-13.24 -26.55,-29.5 0,-16.27 11.91,-29.5 26.55,-29.5l283.19 0zm0 137.66c14.64,0 26.55,13.24 26.55,29.5 0,16.27 -11.91,29.5 -26.55,29.5l-283.19 0c-14.64,0 -26.55,-13.23 -26.55,-29.5 0,-16.26 11.91,-29.5 26.55,-29.5l283.19 0zm0 137.67c14.64,0 26.55,13.24 26.55,29.5 0,16.27 -11.91,29.5 -26.55,29.5l-283.19 0c-14.64,0 -26.55,-13.23 -26.55,-29.5 0,-16.26 11.91,-29.5 26.55,-29.5l283.19 0zm0 -285.17l-283.19 0c-19.56,0 -35.4,17.61 -35.4,39.34 0,21.73 15.84,39.33 35.4,39.33l283.19 0c19.56,0 35.41,-17.6 35.41,-39.33 0,-21.73 -15.85,-39.34 -35.41,-39.34zm0 137.67l-283.19 0c-19.56,0 -35.4,17.6 -35.4,39.33 0,21.74 15.84,39.34 35.4,39.34l283.19 0c19.56,0 35.41,-17.6 35.41,-39.34 0,-21.73 -15.85,-39.33 -35.41,-39.33zm0 137.67l-283.19 0c-19.56,0 -35.4,17.6 -35.4,39.33 0,21.73 15.84,39.33 35.4,39.33l283.19 0c19.56,0 35.41,-17.6 35.41,-39.33 0,-21.73 -15.85,-39.33 -35.41,-39.33z"/>
  </g>
 </g>
</svg>
