<?xml version="1.0" encoding="UTF-8"?>
<!DOCTYPE svg PUBLIC "-//W3C//DTD SVG 1.1//EN" "http://www.w3.org/Graphics/SVG/1.1/DTD/svg11.dtd">
<!-- Creator: CorelDRAW -->
<svg xmlns="http://www.w3.org/2000/svg" xml:space="preserve" width="354px" height="354px" version="1.1" shape-rendering="geometricPrecision" text-rendering="geometricPrecision" image-rendering="optimizeQuality" fill-rule="evenodd" clip-rule="evenodd"
viewBox="0 0 354 354"
 xmlns:xlink="http://www.w3.org/1999/xlink"
 xmlns:xodm="http://www.corel.com/coreldraw/odm/2003">
 <defs>
    <linearGradient id="id0" gradientUnits="userSpaceOnUse" x1="28.95" y1="72.58" x2="278.18" y2="321.82">
     <stop offset="0" stop-opacity="0.6" stop-color="white"/>
     <stop offset="1" stop-opacity="0.301961" stop-color="white"/>
    </linearGradient>
    <linearGradient id="id1" gradientUnits="userSpaceOnUse" x1="28.52" y1="73.27" x2="278.08" y2="324.87">
     <stop offset="0" stop-opacity="0.6" stop-color="white"/>
     <stop offset="0.490196" stop-opacity="0" stop-color="white"/>
     <stop offset="1" stop-opacity="0.301961" stop-color="white"/>
    </linearGradient>
    <linearGradient id="id2" gradientUnits="userSpaceOnUse" x1="140.23" y1="184.36" x2="208.84" y2="256.25">
     <stop offset="0" stop-opacity="0.701961" stop-color="white"/>
     <stop offset="0.521569" stop-opacity="0.45098" stop-color="white"/>
     <stop offset="1" stop-opacity="0.54902" stop-color="white"/>
    </linearGradient>
    <linearGradient id="id3" gradientUnits="userSpaceOnUse" x1="156.56" y1="76.53" x2="192.51" y2="115.75">
     <stop offset="0" stop-opacity="0.701961" stop-color="white"/>
     <stop offset="0.521569" stop-opacity="0.45098" stop-color="white"/>
     <stop offset="1" stop-opacity="0.54902" stop-color="white"/>
    </linearGradient>
 </defs>
 <g id="Слой_x0020_1">
  <metadata id="CorelCorpID_0Corel-Layer"/>
  <g id="_2657775961232">
   <path fill="url(#id0)" fill-rule="nonzero" d="M176.17 0.83c-97.75,0 -177,79.25 -177,177 0,28.18 6.77,54.71 18.47,78.36l-17.79 71.13c-4.06,16.19 10.62,30.88 26.83,26.83l71.13 -17.79c23.65,11.71 50.18,18.47 78.36,18.47 97.75,0 177,-79.25 177,-177 0,-97.75 -79.25,-177 -177,-177z"/>
   <path fill="url(#id1)" fill-rule="nonzero" d="M176.17 9.68c92.71,0 168.14,75.44 168.14,168.15 0,92.71 -75.43,168.14 -168.14,168.14 -25.88,0 -50.92,-5.91 -74.43,-17.54l-2.92 -1.45 -3.15 0.8 -71.13 17.79c-1.1,0.26 -2.21,0.4 -3.31,0.4 -4.06,0 -7.84,-1.87 -10.41,-5.16 -1.47,-1.9 -3.75,-5.88 -2.39,-11.35l17.79 -71.13 0.8 -3.15 -1.46 -2.92c-11.62,-23.51 -17.54,-48.55 -17.54,-74.43 0,-92.71 75.44,-168.15 168.15,-168.15zm0 -8.85c-97.75,0 -177,79.25 -177,177 0,28.18 6.77,54.71 18.47,78.36l-17.79 71.13c-3.58,14.35 7.52,27.51 21.38,27.51 1.79,0 3.61,-0.22 5.47,-0.68l71.13 -17.79c23.63,11.71 50.16,18.47 78.34,18.47 97.75,0 177,-79.25 177,-177 0,-97.75 -79.25,-177 -177,-177z"/>
   <path fill="url(#id2)" fill-rule="nonzero" d="M158.47 266.33l0 -88.5c0,-9.77 7.93,-17.7 17.7,-17.7 9.77,0 17.7,7.93 17.7,17.7l0 88.5c0,9.77 -7.93,17.7 -17.7,17.7 -9.77,0 -17.7,-7.93 -17.7,-17.7z"/>
   <path fill="url(#id3)" fill-rule="nonzero" d="M176.17 124.73c14.66,0 26.55,-11.89 26.55,-26.55 0,-14.66 -11.89,-26.55 -26.55,-26.55 -14.66,0 -26.55,11.89 -26.55,26.55 0,14.66 11.89,26.55 26.55,26.55z"/>
  </g>
 </g>
</svg>
