<?xml version="1.0" encoding="UTF-8"?>
<!DOCTYPE svg PUBLIC "-//W3C//DTD SVG 1.1//EN" "http://www.w3.org/Graphics/SVG/1.1/DTD/svg11.dtd">
<!-- Creator: CorelDRAW -->
<svg xmlns="http://www.w3.org/2000/svg" xml:space="preserve" width="128px" height="128px" version="1.1" shape-rendering="geometricPrecision" text-rendering="geometricPrecision" image-rendering="optimizeQuality" fill-rule="evenodd" clip-rule="evenodd"
viewBox="0 0 128 128"
 xmlns:xlink="http://www.w3.org/1999/xlink"
 xmlns:xodm="http://www.corel.com/coreldraw/odm/2003">
 <g id="Слой_x0020_1">
  <metadata id="CorelCorpID_0Corel-Layer"/>
  <path id="Машина" fill="white" d="M99.82 69.72c0.61,-1.18 1.18,-1.79 1.18,-3.63l0 -13.31 3.53 0 0 16.37c-2.07,0.48 -1.93,0.57 -4.71,0.57l0 0 0 0 0 0zm-14.11 -2.41c0,-4.29 -0.94,-13.3 1.18,-13.3 2.45,0 1.23,2.07 3.49,3.63 1.42,0.94 0.85,0 2.12,1.46 1.51,1.7 -0.23,1.32 2.6,1.56 0,6.75 -0.66,6.23 1.18,9.06 -2.5,0 -3.82,0.04 -6.09,-0.33 -2.26,-0.43 -4.48,0.47 -4.48,-2.08l0 0 0 0zm-27.74 24.82l-36.52 0c-2.08,0 -2.31,-0.42 -4.15,-0.61 0,-14.72 1.22,-8.92 2.35,-13.31 1.37,0.33 1.75,0.57 3.54,0.62 -0.09,-4.34 -0.99,-3.02 -3.54,-2.46 -0.47,-1.27 -0.28,-0.52 -0.94,-1.41 -0.66,-0.95 -0.47,-0.29 -0.8,-1.61 1.84,-0.47 3.87,-2.45 4.62,-4.29 3.12,-7.03 -2.31,-12.65 18.36,-12.65 4.9,0 21.51,0 23.92,5.1 0.23,0.57 0.85,3.3 0.8,3.91l-3.59 13.31c-0.94,3.02 -3.77,10.33 -4.05,13.4l0 0 0 0 0 0zm12.97 -66.58l-2.92 0 1.18 8.45c-1.47,0.61 -0.95,-1.23 -1.18,1.18 -0.24,2.03 -0.05,0.57 0.56,1.84 -3.3,0.09 -11.7,3.26 -17.74,4.2 -15.47,2.5 -17.69,4.76 -27.27,-0.94 -1.13,-0.66 -2.03,-1.37 -3.06,-2.27 -5.19,-4.48 -0.95,-2.83 -2.03,-7.6 -3.45,0 -2.65,-0.23 -4.72,1.18 0.52,1.94 3.02,3.87 -0.62,4.86l0 19.96c-2.83,1.98 -2.07,0.76 -2.31,3.02l-1.18 0c-0.7,-1.89 1.28,-0.85 -1.79,-1.23l0 5.48c3.07,-0.29 1.09,0.56 1.79,-1.23l1.18 0c0.57,2.31 1.14,1.79 2.31,3.63 0.95,3.07 -1.84,6.28 1.8,7.27l0 11.51c-1.42,-0.33 -1.75,-0.56 -3.54,-0.61l0 3.63c1.79,-0.05 2.12,-0.28 3.54,-0.61l0 4.24 -14.72 0.62c-0.95,3.58 -1.09,2.83 3.96,8.02 5.9,5.99 2.88,6.42 10.14,3.44 7.7,-3.07 12.6,0.66 13.03,0.66 3.25,0 0.61,-3.87 16.94,-0.52l10.19 1.7c1.27,0.05 2.45,-0.47 4.67,-0.61 6.23,-0.28 8.59,-2.41 17.69,-2.41 2.74,0 3.4,1.84 5.29,1.84 1.79,0 4.29,-3.77 13.07,-0.7 7.5,2.59 5.38,3.53 10.42,-3.07 2.03,-2.64 8.36,-8.4 0.71,-8.4 -1.93,0.05 -3.91,0.05 -5.9,0.05 -3.72,0 -7.45,0 -11.18,0 -0.47,-1.99 -0.85,-2.08 -1.56,-3.87 -0.61,-1.56 -1.03,-3.07 -1.41,-4.63l4.72 -3.02 0 -6.65c4.1,0 5.66,-0.61 9.43,-0.61 1.42,0 10.06,3.44 10.06,-0.62l0 -17.5c2.59,-0.24 1.41,-0.62 5.85,-0.62 2.12,0 4.2,1.75 6.51,1.75 5.05,0 8.21,-7.83 -1.18,-7.83 -0.05,0 -11.18,4.1 -11.18,-0.62l0 -3.63 -5.95 0 0 2.46 -3.54 0c0,-15.95 1.37,-15.15 -3.54,-17.56l-2.31 1.79 0 8.5c-3.63,0.09 -1.32,0.52 -4.53,2.59 -3.39,2.22 -0.37,1.75 -3.72,4.06l-1.18 -1.23c-1.98,-2.55 -2.13,-4.2 -6.7,-6.46 -2.31,-1.18 -2.03,-0.1 -3.35,-1.98l0 -8.5c1.55,-0.61 1.08,1.28 1.18,-2.4l-3.54 0c0.09,-0.1 0.28,-0.38 0.33,-0.29 0.04,0.15 0.38,-0.33 0.52,-0.66 0.47,-1.08 0.18,-0.33 0.33,-1.51l-4.11 0c0.1,1.42 0.14,1.56 0.57,2.46l0 0 0 0 -0.01 0z"/>
 </g>
</svg>
