<?xml version="1.0" encoding="UTF-8"?>
<!DOCTYPE svg PUBLIC "-//W3C//DTD SVG 1.1//EN" "http://www.w3.org/Graphics/SVG/1.1/DTD/svg11.dtd">
<!-- Creator: CorelDRAW -->
<svg xmlns="http://www.w3.org/2000/svg" xml:space="preserve" width="512px" height="512px" version="1.1" shape-rendering="geometricPrecision" text-rendering="geometricPrecision" image-rendering="optimizeQuality" fill-rule="evenodd" clip-rule="evenodd"
viewBox="0 0 512 512"
 xmlns:xlink="http://www.w3.org/1999/xlink"
 xmlns:xodm="http://www.corel.com/coreldraw/odm/2003">
 <g id="Слой_x0020_1">
  <metadata id="CorelCorpID_0Corel-Layer"/>
  <path fill="white" d="M402.41 369.6l0.15 -0.51c0.36,-1.27 0.73,-2.55 1.13,-3.81 0.28,-0.88 0.58,-1.74 0.89,-2.6 0.2,-0.57 0.41,-1.16 0.66,-1.68 0.14,-0.33 0.31,-0.69 0.51,-1.01 0.26,-0.39 0.57,-0.74 0.93,-1.04 0.45,-0.36 0.98,-0.58 1.52,-0.67 0.57,-0.11 1.17,-0.04 1.74,0.14 0.61,0.17 1.19,0.47 1.72,0.81 0.35,0.22 0.69,0.47 1.01,0.7 0.66,0.44 1.33,0.92 1.99,1.4 0.58,0.42 1.16,0.83 1.74,1.25 -0.14,-0.26 -0.27,-0.52 -0.4,-0.79 -0.94,-1.93 -1.78,-3.95 -2.33,-6.03 -0.44,-1.68 -0.72,-3.46 -0.62,-5.2 0.09,-1.48 0.43,-2.95 1.24,-4.21 0.57,-0.88 1.27,-1.64 2.17,-2.19 0.82,-0.49 1.69,-0.82 2.63,-0.97 0.91,-0.15 1.84,-0.16 2.76,-0.03 0.88,0.13 1.75,0.32 2.61,0.58l0.02 0.01c0.85,0.29 1.67,0.62 2.46,1.01 0.74,0.36 1.47,0.75 2.16,1.2 1.63,1.04 3.17,2.25 4.52,3.65 1.22,1.25 2.3,2.63 3.22,4.12 0.84,1.39 1.53,2.86 2,4.41 0.45,1.45 0.73,2.93 0.79,4.44 0.06,1.42 -0.08,2.85 -0.43,4.23 -0.34,1.34 -0.87,2.61 -1.61,3.78 -0.79,1.23 -1.78,2.28 -2.96,3.16 -0.47,0.35 -0.97,0.65 -1.48,0.91 2.02,1.42 4.04,2.84 6.07,4.25 3,2.11 6.05,4.16 9.13,6.15l1.09 0.7 -2.48 5.04 -1.19 1.61 -1.18 -0.89c-2.06,-1.55 -4.13,-3.11 -6.22,-4.64 -2.19,-1.6 -4.39,-3.2 -6.6,-4.79 -2.18,-1.57 -4.37,-3.12 -6.56,-4.67 -2.02,-1.43 -4.05,-2.85 -6.09,-4.26 -1.73,-1.19 -3.46,-2.38 -5.2,-3.56 -1.29,-0.87 -2.58,-1.73 -3.89,-2.57 -0.31,-0.2 -0.64,-0.39 -0.98,-0.55 -0.07,-0.03 -0.25,-0.11 -0.36,-0.12 -0.13,0.1 -0.28,0.31 -0.36,0.45 -0.28,0.43 -0.51,0.92 -0.72,1.39 -0.33,0.75 -0.62,1.53 -0.88,2.3l-0.3 0.88c0.46,0.32 0.91,0.67 1.33,1.04 0.75,0.64 1.46,1.33 2.16,2.02 0.79,0.77 1.55,1.55 2.33,2.33 0.82,0.84 1.65,1.67 2.49,2.5 0.84,0.82 1.7,1.62 2.59,2.39 0.81,0.69 1.99,1.56 3.09,1.64 0.7,0.05 1.22,-0.12 1.68,-0.66 0.6,-0.68 0.9,-1.72 1.05,-2.6l0.24 -1.35 3.6 0.41 0.07 1.22c0.09,1.36 -0.03,2.71 -0.43,4.02 -0.39,1.28 -1.03,2.43 -1.9,3.45l-0.02 0.03c-0.67,0.75 -1.42,1.37 -2.31,1.83 -0.89,0.46 -1.84,0.7 -2.84,0.73 -1.04,0.03 -2.08,-0.19 -3.04,-0.6 -0.25,-0.1 -0.5,-0.22 -0.74,-0.35 0.25,1.09 0.42,2.21 0.48,3.33 0.08,1.32 -0.02,2.64 -0.32,3.93 -0.3,1.32 -0.9,2.52 -1.79,3.55 -0.68,0.79 -1.5,1.45 -2.43,1.92 -0.89,0.44 -1.84,0.7 -2.83,0.75 -0.98,0.05 -1.93,-0.1 -2.86,-0.42 -0.97,-0.35 -1.86,-0.89 -2.64,-1.57 -0.98,-0.85 -1.79,-1.86 -2.34,-3.04 -0.53,-1.11 -0.82,-2.31 -0.9,-3.53 -0.08,-1.28 0.06,-2.54 0.35,-3.78 0.32,-1.29 0.76,-2.54 1.31,-3.74 0.59,-1.3 1.29,-2.54 2.08,-3.72 0.57,-0.86 1.19,-1.7 1.83,-2.5 -0.25,-0.26 -0.5,-0.53 -0.76,-0.78 -0.57,-0.59 -1.18,-1.15 -1.8,-1.68 -0.54,-0.48 -1.17,-0.89 -1.85,-1.1 -0.53,-0.15 -1.12,-0.24 -1.69,-0.16 -0.54,0.07 -1.03,0.25 -1.5,0.52 -0.48,0.28 -0.92,0.63 -1.28,1.04 -0.43,0.5 -0.84,1.05 -1.11,1.64 -0.14,0.33 -0.28,0.74 -0.29,1.13 0.01,0.25 0.05,0.52 0.17,0.75 0.17,0.31 0.39,0.57 0.65,0.79 0.36,0.32 0.8,0.56 1.24,0.73 0.53,0.2 1.1,0.31 1.67,0.36l0.78 0.06 0.76 1.4 -0.14 0.54c-0.24,1 -0.7,1.91 -1.38,2.68 -0.38,0.45 -0.83,0.83 -1.34,1.13 -0.53,0.3 -1.11,0.5 -1.7,0.55 -0.57,0.07 -1.15,0 -1.72,-0.16l-0.03 -0.01 -0.03 -0.01c-0.61,-0.2 -1.15,-0.53 -1.63,-0.95 -0.78,-0.67 -1.34,-1.49 -1.7,-2.45 -0.33,-0.91 -0.5,-1.85 -0.53,-2.81 -0.04,-1 0.08,-2.01 0.29,-2.99 0.21,-0.98 0.51,-1.94 0.87,-2.88 0.36,-0.92 0.78,-1.81 1.28,-2.66 0.46,-0.78 0.97,-1.53 1.57,-2.22 0.89,-1.03 1.94,-2 3.15,-2.65 1.07,-0.58 2.24,-0.92 3.46,-0.93 0.44,0 0.86,0.04 1.28,0.11zm-38.6 63.91c-0.14,-0.25 -0.28,-0.5 -0.42,-0.75 -0.76,-1.33 -1.51,-2.66 -2.27,-3.99 -0.76,-1.32 -1.54,-2.64 -2.31,-3.96 -0.71,-1.2 -1.42,-2.4 -2.14,-3.6 -0.58,-0.98 -1.16,-1.96 -1.75,-2.94 -0.38,-0.63 -0.77,-1.26 -1.16,-1.88 -0.17,-0.27 -0.35,-0.52 -0.56,-0.75l-0.02 -0.02 -0.01 -0.02c-0.09,-0.1 -0.18,-0.19 -0.26,-0.25l-0.03 0c-0.09,0.02 -0.27,0.12 -0.35,0.17 -0.35,0.22 -0.7,0.55 -1,0.83l-0.03 0.03c-0.55,0.5 -1.08,1.08 -1.59,1.64l-1.03 1.14 -3.01 -3.07 0.8 -1c1.21,-1.51 2.45,-3.03 3.76,-4.44 0.69,-0.74 1.62,-1.73 2.47,-2.28 0.4,-0.26 0.84,-0.45 1.3,-0.58 0.54,-0.15 1.09,-0.14 1.63,-0.02 0.58,0.12 1.11,0.4 1.57,0.76l0.02 0.02c0.49,0.4 0.9,0.92 1.24,1.45 0.26,0.4 0.49,0.83 0.71,1.24 0.37,0.67 0.75,1.36 1.12,2.05 0.46,0.85 0.92,1.71 1.39,2.56 0.15,0.28 0.3,0.55 0.45,0.83 1.52,-1.81 3.25,-3.5 5.21,-4.75 0.98,-0.63 2.04,-1.16 3.16,-1.48 1.05,-0.3 2.14,-0.39 3.22,-0.23 1.1,0.16 2.11,0.6 3.01,1.24 0.99,0.71 1.8,1.66 2.45,2.67 0.55,0.86 0.99,1.78 1.32,2.74 0.35,1.01 0.57,2.06 0.67,3.12 0.11,1.1 0.08,2.2 -0.07,3.29 -0.17,1.17 -0.5,2.28 -0.99,3.35 -0.52,1.13 -1.21,2.17 -2.01,3.12 -0.9,1.05 -1.99,1.93 -3.15,2.68 -1.45,0.93 -3.05,1.57 -4.73,1.96l-2.59 2.34 -1.71 0.99 -0.71 -1.32c-0.27,-0.49 -0.54,-0.98 -0.81,-1.48l-0.28 0.53c-0.42,0.79 -0.88,1.56 -1.4,2.3 -0.5,0.71 -1.04,1.4 -1.62,2.06 -0.54,0.6 -1.11,1.17 -1.72,1.7 -0.54,0.46 -1.13,0.88 -1.76,1.2 -0.67,0.35 -1.38,0.51 -2.14,0.48l-0.05 -0.01c-0.87,-0.06 -1.7,-0.45 -2.41,-0.91 -0.92,-0.57 -1.79,-1.39 -2.57,-2.16 -1.16,-1.17 -2.26,-2.41 -3.32,-3.67 -1.53,-1.81 -3.01,-3.67 -4.46,-5.54 -1.12,-1.43 -2.23,-2.87 -3.33,-4.32 0,0.09 0,0.19 0.01,0.28 0.04,1.53 0.09,3.05 0.17,4.57 0.08,1.48 0.17,2.95 0.28,4.43 0.1,1.31 0.23,2.62 0.41,3.93 0.14,1.08 0.33,2.16 0.59,3.22 0.18,0.72 0.42,1.49 0.75,2.15 0.25,0.48 0.54,0.96 0.89,1.37 0.19,0.22 0.38,0.37 0.67,0.43l0.83 0.18 0.56 1.82 -0.55 0.62c-0.3,0.33 -0.61,0.65 -0.95,0.93 -0.37,0.31 -0.76,0.58 -1.18,0.8 -0.44,0.22 -0.91,0.38 -1.39,0.48l-0.04 0.01c-0.53,0.09 -1.05,0.1 -1.58,-0.01l-0.03 -0.01 -0.04 -0.01c-0.56,-0.15 -1.07,-0.41 -1.51,-0.77 -0.5,-0.4 -0.88,-0.93 -1.18,-1.52 -0.54,-1.05 -0.77,-2.68 -0.92,-3.84 -0.26,-2.09 -0.39,-4.21 -0.5,-6.31 -0.14,-2.85 -0.2,-5.71 -0.23,-8.57 -0.04,-3.46 -0.03,-6.93 0.01,-10.4l0 -0.04 0.01 -0.04c0.03,-0.43 0.1,-0.87 0.27,-1.28 0.14,-0.36 0.33,-0.68 0.58,-0.98l0.02 -0.03c0.23,-0.26 0.48,-0.48 0.76,-0.67 0.21,-0.15 0.44,-0.29 0.68,-0.41 0.42,-0.21 0.85,-0.38 1.29,-0.52 0.5,-0.14 1,-0.21 1.51,-0.22l0.74 -0.02 0.45 0.58c2.02,2.62 4.05,5.23 6.08,7.83 1.46,1.85 2.93,3.71 4.45,5.52 1,1.2 2.03,2.4 3.12,3.51 0.61,0.62 1.31,1.27 2.03,1.73 0.21,0.14 0.68,0.41 0.94,0.42 0.25,0.01 0.48,-0.06 0.7,-0.17 0.18,-0.1 0.36,-0.2 0.54,-0.3 0.21,-0.14 0.41,-0.28 0.6,-0.44 0.26,-0.2 0.51,-0.43 0.75,-0.67 0.34,-0.33 0.66,-0.68 0.96,-1.05l0.96 -1.19 1.76 1.59zm-127.67 3.81c0.76,-0.24 1.52,-0.48 2.28,-0.69 0.82,-0.24 1.66,-0.47 2.5,-0.65 0.65,-0.15 1.33,-0.3 2,-0.4 0.49,-0.07 1.01,-0.15 1.5,-0.13 0.51,0.01 1.02,0.1 1.5,0.28 0.53,0.2 0.99,0.5 1.37,0.92 0.39,0.44 0.65,0.95 0.81,1.51 0.18,0.6 0.23,1.24 0.21,1.87 -0.01,0.71 -0.06,1.43 -0.12,2.14 -0.08,0.96 -0.16,1.91 -0.25,2.86 -0.11,1.16 -0.23,2.32 -0.34,3.47 -0.14,1.31 -0.26,2.62 -0.39,3.93 -0.09,0.97 -0.18,1.94 -0.28,2.9 1.47,-2.29 2.95,-4.56 4.46,-6.82 2.54,-3.81 5.13,-7.59 7.74,-11.35l0.39 -0.55 5.29 -0.52 1.91 0.21 -0.17 1.46c-0.09,0.85 -0.2,1.71 -0.3,2.57 -0.12,1 -0.22,2.01 -0.32,3.02 -0.11,1.08 -0.22,2.17 -0.31,3.25 -0.09,1.09 -0.19,2.18 -0.27,3.28 -0.08,1.02 -0.14,2.04 -0.2,3.06 -0.05,0.87 -0.1,1.74 -0.12,2.61 -0.03,1.29 -0.06,2.63 0.02,3.92 0.04,0.68 0.12,1.45 0.31,2.08 0.03,0.09 0.14,0.36 0.24,0.45 0.12,0.08 0.36,0.11 0.49,0.11 0.56,0.01 1.13,-0.08 1.65,-0.2 0.68,-0.18 1.36,-0.41 2.02,-0.69l1.39 -0.58 1.29 3.42 -0.84 0.66c-0.61,0.48 -1.29,0.9 -1.98,1.27 -0.76,0.41 -1.55,0.78 -2.35,1.1 -0.84,0.33 -1.69,0.61 -2.56,0.81 -0.82,0.19 -1.67,0.3 -2.51,0.28 -1.01,-0.02 -1.93,-0.37 -2.62,-1.1 -0.67,-0.65 -1.07,-1.55 -1.32,-2.47 -0.28,-1.04 -0.4,-2.15 -0.46,-3.23 -0.08,-1.35 -0.07,-2.71 -0.04,-4.06 0.02,-0.62 0.04,-1.24 0.08,-1.85 0.03,-0.79 0.09,-1.6 0.14,-2.4 0.06,-0.92 0.12,-1.85 0.19,-2.77 0.08,-0.97 0.17,-1.93 0.26,-2.89 -1.55,2.29 -3.08,4.6 -4.59,6.92 -2.56,3.93 -5.09,7.89 -7.58,11.87l-0.38 0.61 -5.11 0.48 -1.94 -0.13 0.14 -1.49c0.2,-2 0.37,-4 0.55,-6 0.17,-2.06 0.35,-4.12 0.52,-6.19 0.16,-1.95 0.29,-3.9 0.41,-5.86 0.11,-1.68 0.2,-3.37 0.24,-5.06 0.01,-0.32 0,-1.03 -0.16,-1.35 -0.09,-0.04 -0.27,-0.05 -0.35,-0.05 -0.43,-0.01 -0.9,0.05 -1.33,0.13l-0.03 0c-0.74,0.11 -1.5,0.29 -2.23,0.47l-1.5 0.37 -0.1 -0.56c-0.07,0.26 -0.13,0.51 -0.2,0.77 -0.27,1.05 -0.54,2.11 -0.8,3.17 -0.25,1.06 -0.51,2.13 -0.76,3.19 -0.23,1 -0.44,2 -0.66,3 -0.18,0.85 -0.35,1.7 -0.51,2.56 -0.23,1.28 -0.45,2.59 -0.57,3.89 -0.07,0.67 -0.11,1.44 -0.01,2.09 0.02,0.1 0.09,0.39 0.17,0.49 0.11,0.1 0.34,0.15 0.47,0.18 0.55,0.1 1.12,0.09 1.66,0.05 0.7,-0.07 1.41,-0.2 2.1,-0.38l1.47 -0.36 0.75 3.58 -0.93 0.52c-0.67,0.39 -1.41,0.69 -2.14,0.96 -0.82,0.29 -1.65,0.53 -2.5,0.73 -0.87,0.2 -1.76,0.34 -2.65,0.41 -0.84,0.07 -1.69,0.05 -2.52,-0.1 -1,-0.17 -1.86,-0.66 -2.43,-1.48 -0.56,-0.75 -0.82,-1.7 -0.93,-2.64 -0.12,-1.07 -0.07,-2.19 0.03,-3.26 0.13,-1.35 0.34,-2.69 0.58,-4.02 0.11,-0.61 0.22,-1.22 0.35,-1.82 0.16,-0.78 0.33,-1.56 0.5,-2.35 0.2,-0.91 0.4,-1.81 0.61,-2.71 0.23,-0.95 0.46,-1.88 0.7,-2.82 -1.88,2.03 -3.74,4.08 -5.59,6.15 -3.12,3.5 -6.22,7.03 -9.28,10.59l-0.47 0.54 -5.12 -0.29 -1.9 -0.42 0.37 -1.45c0.49,-1.95 0.96,-3.9 1.44,-5.85 0.49,-2.01 0.97,-4.03 1.45,-6.04 0.45,-1.91 0.88,-3.82 1.29,-5.73 0.36,-1.65 0.7,-3.31 1,-4.97 0.06,-0.32 0.15,-1.01 0.05,-1.36 -0.09,-0.05 -0.27,-0.09 -0.34,-0.1 -0.43,-0.08 -0.9,-0.08 -1.33,-0.08l-0.03 0c-0.61,0 -1.24,0.04 -1.85,0.09 -0.09,0.08 -0.19,0.14 -0.29,0.21l-0.02 0.02c-0.6,0.4 -1.23,0.74 -1.86,1.04 -0.85,0.42 -1.74,0.79 -2.62,1.16 -1.21,0.51 -2.44,0.99 -3.66,1.47 -1.2,0.47 -2.4,0.93 -3.61,1.38 0.45,1.46 0.91,2.92 1.37,4.38 0.42,1.32 0.85,2.65 1.31,3.96 0.3,0.85 0.61,1.71 0.98,2.53 0.21,0.45 0.45,0.96 0.73,1.38 0.13,0.18 0.28,0.36 0.46,0.49 0.2,0.13 0.43,0.23 0.66,0.3 0.44,0.15 0.89,0.25 1.35,0.28 0.6,0.05 1.2,0.06 1.8,0.04l1.48 -0.06 0.07 3.72 -1.07 0.31c-0.83,0.24 -1.69,0.44 -2.55,0.57 -0.78,0.12 -1.56,0.19 -2.35,0.23 -0.7,0.04 -1.42,0.04 -2.1,-0.04 -0.56,-0.05 -1.15,-0.13 -1.69,-0.32 -0.51,-0.17 -0.98,-0.44 -1.39,-0.78l-0.04 -0.04c-0.44,-0.39 -0.81,-0.89 -1.12,-1.4l-0.03 -0.04c-0.36,-0.64 -0.67,-1.32 -0.94,-2 -0.39,-0.96 -0.74,-1.93 -1.06,-2.9 -0.44,-1.35 -0.86,-2.7 -1.28,-4.05 -0.41,-1.32 -0.82,-2.63 -1.22,-3.95 -0.19,0.48 -0.38,0.97 -0.56,1.46 -0.45,1.18 -0.89,2.37 -1.33,3.55 -0.4,1.08 -0.77,2.17 -1.14,3.25l-0.76 2.24 -5.6 -1.18 -1.8 -0.7 0.59 -1.38c0.53,-1.26 1.05,-2.52 1.56,-3.78 0.56,-1.39 1.1,-2.78 1.65,-4.17 0.55,-1.4 1.1,-2.8 1.64,-4.21 0.5,-1.3 0.99,-2.61 1.48,-3.91 0.4,-1.09 0.8,-2.18 1.2,-3.27 0.28,-0.75 0.55,-1.5 0.81,-2.26 0.11,-0.31 0.19,-0.63 0.26,-0.95 0.02,-0.11 0.04,-0.24 0.02,-0.37 -0.07,-0.07 -0.25,-0.14 -0.36,-0.18 -0.12,0.54 -0.31,1.06 -0.57,1.56 -0.31,0.61 -0.71,1.16 -1.22,1.59 -0.46,0.41 -1,0.73 -1.61,0.92 -0.58,0.19 -1.18,0.24 -1.79,0.19l-0.03 0 -0.03 0c-0.62,-0.08 -1.22,-0.27 -1.77,-0.55 -0.35,-0.18 -0.67,-0.4 -0.98,-0.63 -0.33,-0.25 -0.62,-0.55 -0.9,-0.87l-0.43 -0.49 0.17 -1.51 0.53 -0.38c0.44,-0.32 0.82,-0.71 1.07,-1.19 0.15,-0.29 0.23,-0.59 0.27,-0.91 0.03,-0.27 0,-0.53 -0.09,-0.79l-0.02 -0.05c-0.1,-0.3 -0.28,-0.58 -0.49,-0.82 -0.31,-0.34 -0.71,-0.6 -1.12,-0.81 -0.67,-0.34 -1.38,-0.56 -2.14,-0.61 -0.7,-0.04 -1.38,0.05 -2.05,0.27 -0.74,0.24 -1.42,0.6 -2.06,1.04 -0.71,0.49 -1.36,1.05 -1.96,1.67 -0.64,0.67 -1.22,1.4 -1.75,2.16 -0.52,0.74 -0.98,1.53 -1.39,2.34 -0.65,1.26 -1.15,2.6 -1.38,4 -0.2,1.14 -0.25,2.33 -0.04,3.48 0.17,0.96 0.51,1.86 1.06,2.66 0.51,0.74 1.15,1.3 1.95,1.71 0.94,0.48 1.97,0.66 3.02,0.67 1.36,0 2.76,-0.41 4,-0.94l1.15 -0.49 0.66 1.06c0.05,0.08 0.11,0.16 0.16,0.24 0.12,0.18 0.21,0.36 0.3,0.55l0.03 0.05 0.02 0.05c0.07,0.19 0.13,0.37 0.17,0.57 0.11,0.44 0.08,0.88 -0.13,1.29 -0.13,0.27 -0.31,0.48 -0.55,0.64l-0.06 0.04 -0.06 0.03c-2.11,1.28 -4.43,2.12 -6.9,2.24 -2.35,0.12 -4.59,-0.39 -6.69,-1.46 -1.1,-0.57 -2.12,-1.28 -3,-2.16 -0.81,-0.83 -1.49,-1.75 -2.01,-2.78 -0.5,-1 -0.85,-2.06 -1.06,-3.16 -0.2,-1.09 -0.27,-2.21 -0.2,-3.32 0.07,-1.11 0.26,-2.21 0.56,-3.28 0.31,-1.08 0.71,-2.13 1.22,-3.13 0.69,-1.34 1.53,-2.59 2.48,-3.75 0.97,-1.18 2.05,-2.24 3.24,-3.19 1.18,-0.93 2.46,-1.73 3.81,-2.39 1.34,-0.66 2.76,-1.14 4.23,-1.42 1.48,-0.27 2.96,-0.31 4.45,-0.13 1.56,0.19 3.05,0.67 4.45,1.39 1.02,0.52 1.99,1.17 2.84,1.95 0.64,0.6 1.22,1.27 1.68,2.02 1.14,0.01 2.29,0.05 3.42,0.14 1.01,0.08 2.36,0.18 3.32,0.51 0.46,0.15 0.89,0.37 1.28,0.65 0.46,0.33 0.81,0.77 1.06,1.28 0.26,0.52 0.37,1.1 0.38,1.68 0.01,0.65 -0.14,1.31 -0.35,1.92 -0.12,0.36 -0.26,0.72 -0.4,1.06l-0.02 0.04c-0.26,0.63 -0.51,1.26 -0.76,1.89 -0.36,0.9 -0.73,1.79 -1.09,2.68 -0.36,0.87 -0.72,1.75 -1.07,2.63 0.83,-0.3 1.65,-0.61 2.47,-0.93 1.23,-0.47 2.46,-0.97 3.66,-1.51 0.85,-0.39 1.71,-0.8 2.52,-1.27 0.55,-0.32 1.11,-0.68 1.59,-1.09 0.31,-0.26 0.62,-0.57 0.84,-0.91 0.19,-0.3 0.36,-0.61 0.47,-0.95 0.16,-0.45 0.25,-0.92 0.3,-1.39l0.04 -0.4 0.82 -1.12 0.77 0.02c0.61,0.02 1.21,0.13 1.79,0.33 0.48,0.16 0.94,0.4 1.35,0.7 0.41,0.31 0.77,0.67 1.05,1.1 0.2,0.31 0.35,0.66 0.45,1.02 0.08,-0.01 0.17,-0.02 0.25,-0.03 0.85,-0.12 1.71,-0.22 2.57,-0.27 0.66,-0.05 1.35,-0.1 2.04,-0.09 0.49,0 1.02,0 1.5,0.09 0.5,0.09 0.99,0.25 1.44,0.5 0.49,0.28 0.9,0.65 1.21,1.12 0.32,0.5 0.51,1.04 0.58,1.62 0.08,0.62 0.04,1.26 -0.07,1.88 -0.13,0.7 -0.28,1.4 -0.45,2.1 -0.22,0.93 -0.44,1.86 -0.68,2.79 -0.28,1.13 -0.57,2.25 -0.86,3.38 -0.33,1.27 -0.65,2.55 -0.97,3.82 -0.24,0.94 -0.48,1.89 -0.72,2.83 1.8,-2.04 3.61,-4.07 5.44,-6.07 3.09,-3.39 6.21,-6.73 9.37,-10.05l0.46 -0.49 5.31 0.28 1.86 0.5 -0.39 1.41c-0.04,0.14 -0.07,0.28 -0.11,0.42zm-131.68 -47.9c0.28,-0.34 0.56,-0.66 0.86,-0.97 1.05,-1.11 2.23,-2.08 3.5,-2.94 1.26,-0.85 2.61,-1.57 4.02,-2.14 1.4,-0.56 2.85,-0.96 4.34,-1.19 1.47,-0.23 2.97,-0.27 4.45,-0.1 1.49,0.17 2.93,0.58 4.3,1.19 1.46,0.64 2.75,1.53 3.9,2.63 0.79,0.75 1.47,1.6 2,2.54 0.5,0.86 0.86,1.79 1.04,2.77 0.43,0.32 0.85,0.63 1.27,0.93 0.64,0.46 1.27,0.92 1.9,1.37l0.03 0.02c0.44,0.32 0.88,0.64 1.33,0.96 0.31,0.22 0.62,0.44 0.93,0.66l0.84 0.6c3.07,2.18 6.14,4.36 9.23,6.53 2.24,1.57 4.48,3.14 6.73,4.7 1.48,1.03 2.96,2.06 4.44,3.08 0.79,0.54 1.59,1.08 2.37,1.63 0.7,0.5 1.26,1.2 1.39,2.08l0 0.03c0.1,0.81 -0.17,1.58 -0.63,2.22 -0.23,0.33 -0.51,0.65 -0.77,0.96l-0.02 0.02c-0.42,0.49 -0.84,0.98 -1.26,1.47 -0.55,0.67 -1.11,1.33 -1.67,1.98 -0.64,0.75 -1.27,1.51 -1.89,2.27 -0.67,0.82 -1.33,1.65 -1.99,2.49 -0.65,0.84 -1.28,1.69 -1.89,2.55 -0.64,0.91 -1.28,1.82 -1.88,2.75 -0.4,0.64 -0.79,1.29 -1.13,1.94 -0.18,0.36 -0.38,0.8 -0.49,1.2l-0.01 0.05c-0.03,0.1 -0.07,0.28 -0.06,0.36 0,0 0.01,0.04 0.02,0.06 0.14,0.15 0.29,0.28 0.45,0.4 0.43,0.31 0.91,0.54 1.4,0.73 0.62,0.23 1.29,0.39 1.94,0.52l1.54 0.3 -0.97 3.57 -1.04 0.07c-0.79,0.04 -1.6,-0.01 -2.38,-0.1 -0.87,-0.1 -1.74,-0.25 -2.57,-0.45 -0.83,-0.18 -1.66,-0.41 -2.45,-0.72 -0.7,-0.25 -1.42,-0.58 -2.04,-1.02 -0.34,-0.24 -0.66,-0.51 -0.95,-0.81l-0.02 -0.02 -0.03 -0.02c-0.38,-0.44 -0.63,-0.94 -0.74,-1.49 -0.14,-0.58 -0.08,-1.21 0.05,-1.8 0.15,-0.71 0.45,-1.43 0.76,-2.08 0.43,-0.9 0.96,-1.79 1.49,-2.64 0.74,-1.19 1.55,-2.35 2.36,-3.49 0.94,-1.32 1.89,-2.64 2.86,-3.93 0.77,-1.01 1.53,-2.02 2.3,-3.02 0.58,-0.75 1.16,-1.49 1.74,-2.24 0.38,-0.49 0.77,-0.99 1.13,-1.5 0.19,-0.26 0.35,-0.53 0.52,-0.8 0.02,-0.06 0.06,-0.14 0.07,-0.18 -0.09,-0.14 -0.32,-0.32 -0.45,-0.42 -0.81,-0.57 -1.61,-1.13 -2.42,-1.69 -0.85,-0.61 -1.71,-1.21 -2.56,-1.81 -0.7,0.87 -1.39,1.74 -2.08,2.61 -1.15,1.45 -2.27,2.91 -3.39,4.38 -1.38,1.79 -2.74,3.58 -4.1,5.39 -1.68,2.23 -3.32,4.48 -4.97,6.74l-0.75 1.02 -4.91 -2.65 -1.53 -1.18 0.93 -1.16c1.28,-1.59 2.54,-3.18 3.8,-4.78 1.39,-1.77 2.77,-3.54 4.15,-5.31 1.39,-1.78 2.76,-3.57 4.12,-5.37 0.96,-1.27 1.91,-2.54 2.86,-3.82 -0.19,-0.13 -0.37,-0.26 -0.56,-0.39 -0.64,-0.46 -1.27,-0.91 -1.91,-1.36l-3.1 -2.2c-0.07,0.1 -0.14,0.2 -0.21,0.31 -0.55,0.76 -1.14,1.5 -1.7,2.25 -1.04,1.34 -2.06,2.69 -3.11,4.03 -1.44,1.86 -2.88,3.71 -4.32,5.57 -1.77,2.29 -3.56,4.57 -5.33,6.86l-0.75 0.98 -4.78 -2.57 -1.53 -1.19 0.96 -1.15c0.86,-1.05 1.73,-2.09 2.58,-3.15 0.9,-1.11 1.78,-2.23 2.66,-3.35 0.87,-1.1 1.74,-2.19 2.6,-3.3 0.78,-1.01 1.56,-2.03 2.33,-3.05 0.64,-0.84 1.28,-1.68 1.9,-2.53 0.43,-0.59 0.87,-1.18 1.3,-1.78 0.32,-0.45 0.64,-0.91 0.92,-1.38 0.14,-0.24 0.28,-0.51 0.34,-0.77l0.01 -0.05c0.02,-0.09 0.03,-0.18 0,-0.27 -0.05,-0.16 -0.17,-0.33 -0.27,-0.46 -0.21,0.28 -0.44,0.56 -0.68,0.82 -1.17,1.22 -2.62,1.93 -4.3,2.08 -1.69,0.15 -3.4,-0.18 -4.99,-0.73 -1.9,-0.66 -3.72,-1.61 -5.42,-2.68 -1.59,-1 -3.13,-2.08 -4.62,-3.23 -0.71,0.83 -1.34,1.73 -1.82,2.7 -0.52,1.05 -0.92,2.17 -1.05,3.34 -0.12,0.99 -0.05,1.95 0.26,2.9 0.28,0.87 0.75,1.62 1.41,2.26 0.77,0.73 1.7,1.22 2.7,1.55 1.33,0.44 2.82,0.53 4.2,0.47l1.16 -0.04 0.31 1.11c0.02,0.09 0.06,0.18 0.09,0.28l0.01 0.05 0.02 0.06c0.03,0.17 0.07,0.33 0.1,0.5 0.04,0.27 0.05,0.55 0.01,0.81 -0.04,0.41 -0.2,0.8 -0.5,1.11 -0.26,0.28 -0.59,0.45 -0.94,0.5 -1.27,0.25 -2.58,0.37 -3.89,0.32 -1.2,-0.04 -2.39,-0.2 -3.54,-0.5 -1.1,-0.29 -2.16,-0.69 -3.15,-1.25 -0.93,-0.52 -1.8,-1.15 -2.58,-1.89 -1.26,-1.2 -2.24,-2.62 -2.84,-4.26 -0.57,-1.56 -0.81,-3.19 -0.72,-4.84 0.1,-1.71 0.54,-3.35 1.24,-4.91 0.52,-1.16 1.18,-2.23 1.95,-3.22 -0.36,0.42 -0.77,0.81 -1.21,1.16 -0.92,0.72 -1.94,1.29 -3.06,1.62 -1.02,0.3 -2.08,0.43 -3.15,0.35 -1.04,-0.07 -2.05,-0.3 -3.03,-0.66 -0.99,-0.36 -1.93,-0.85 -2.81,-1.43 -0.9,-0.58 -1.75,-1.26 -2.53,-2 -0.77,-0.74 -1.49,-1.52 -2.15,-2.36 -0.6,-0.76 -1.14,-1.57 -1.61,-2.41 -0.39,-0.69 -0.75,-1.4 -1.06,-2.13l-2.52 -2.45 -1.13 -1.58 1.25 -0.84c1.85,-1.23 3.68,-2.48 5.5,-3.76 1.73,-1.21 3.46,-2.42 5.16,-3.66 1.55,-1.13 3.09,-2.27 4.62,-3.42 1.33,-1.01 2.65,-2.01 3.95,-3.04 0.17,-0.13 0.41,-0.33 0.52,-0.51l0.01 -0.03c0.02,-0.03 0.05,-0.08 0.06,-0.11 0,-0.04 -0.03,-0.11 -0.05,-0.14 -0.09,-0.2 -0.24,-0.4 -0.37,-0.58 -0.29,-0.36 -0.6,-0.7 -0.92,-1.02 -0.35,-0.36 -0.7,-0.71 -1.07,-1.05 -0.56,0.99 -1.25,1.9 -2.03,2.73 -1.15,1.23 -2.47,2.29 -3.94,3.14 -1.27,0.73 -2.61,1.31 -4,1.78 -1.41,0.47 -2.87,0.81 -4.35,0.98 -1.48,0.18 -2.98,0.19 -4.46,0.05 -1.48,-0.13 -2.93,-0.47 -4.32,-1 -1.41,-0.54 -2.71,-1.3 -3.87,-2.26 -1.24,-1.02 -2.25,-2.26 -3.05,-3.65 -0.91,-1.57 -1.47,-3.29 -1.5,-5.12 -0.03,-1.67 0.27,-3.31 0.93,-4.84 0.66,-1.53 1.6,-2.91 2.74,-4.12 1.16,-1.24 2.48,-2.3 3.95,-3.14 1.27,-0.73 2.61,-1.32 4,-1.78 1.41,-0.47 2.87,-0.8 4.34,-0.99 1.48,-0.18 2.97,-0.21 4.45,-0.07 1.49,0.14 2.94,0.47 4.33,1.01 1.4,0.55 2.7,1.3 3.86,2.25 1.25,1.02 2.26,2.27 3.06,3.66 0.9,1.58 1.46,3.28 1.5,5.11 0.01,0.79 -0.05,1.58 -0.19,2.35l0.44 -0.43 1.01 0.86c0.86,0.72 1.7,1.46 2.53,2.21 0.94,0.85 1.85,1.73 2.75,2.62 0.94,0.92 1.84,1.87 2.73,2.83 0.87,0.93 1.71,1.9 2.5,2.91 0.49,0.62 0.95,1.27 1.39,1.93 0.49,0.73 0.94,1.49 1.34,2.28 0.38,0.79 0.73,1.6 0.99,2.44 0.26,0.86 0.4,1.75 0.41,2.65l0 0.04c-0.01,0.93 -0.2,1.83 -0.58,2.67 -0.42,0.95 -1.09,1.73 -1.9,2.37 -1,0.78 -2.13,1.32 -3.39,1.52 -1.14,0.18 -2.28,0.14 -3.4,-0.11 -0.5,-0.11 -0.99,-0.26 -1.46,-0.43 0.19,0.66 0.33,1.35 0.4,2.04 0.12,1.22 -0.02,2.41 -0.44,3.55 -0.22,0.63 -0.54,1.2 -0.94,1.72zm-33.01 -44.43c-0.03,0.26 -0.09,0.51 -0.18,0.75 -0.09,0.25 -0.2,0.49 -0.35,0.72 -0.23,0.36 -0.55,0.65 -0.96,0.81 -0.42,0.16 -0.84,0.14 -1.27,0.03l-0.08 -0.02 -0.08 -0.03c-1.73,-0.67 -3.45,-1.47 -5.02,-2.46 -1.39,-0.88 -2.7,-1.89 -3.87,-3.04 -1.09,-1.07 -2.06,-2.25 -2.87,-3.54 -0.77,-1.22 -1.44,-2.51 -1.97,-3.86 -0.69,-1.74 -1.13,-3.56 -1.27,-5.43 -0.14,-1.81 -0.03,-3.61 0.36,-5.39 0.38,-1.78 1.02,-3.49 1.87,-5.1 0.89,-1.66 1.99,-3.19 3.27,-4.58 1.36,-1.47 2.89,-2.76 4.54,-3.88 1.78,-1.21 3.7,-2.2 5.7,-2.99 2.03,-0.8 4.14,-1.37 6.28,-1.76 2.16,-0.39 4.35,-0.56 6.53,-0.49 2.18,0.08 4.33,0.41 6.43,0.99 2.12,0.59 4.13,1.47 5.99,2.65 1.92,1.21 3.61,2.74 5.06,4.47 1.61,1.92 2.82,4.11 3.73,6.43 0.63,1.59 1.13,3.24 1.4,4.93 0.23,1.39 0.38,2.83 0.34,4.25 -0.03,1.1 -0.17,2.27 -0.54,3.32 -0.33,0.93 -0.88,1.87 -1.85,2.25 -1.12,0.44 -2.26,0.83 -3.39,1.22 -1.67,0.57 -3.33,1.14 -5,1.7l-1.36 0.45 -1.57 -4.39 1.45 -0.45c0.13,-0.04 0.27,-0.08 0.4,-0.13l0.05 -0.02 0.06 -0.02c0.12,-0.04 0.25,-0.09 0.37,-0.14 0.72,-0.29 1.4,-0.66 2.04,-1.1 0.57,-0.39 1.04,-0.89 1.43,-1.44 0.41,-0.64 0.75,-1.35 0.98,-2.1 0.24,-0.79 0.37,-1.6 0.41,-2.42 0.04,-0.87 -0.01,-1.74 -0.16,-2.6 -0.16,-0.9 -0.4,-1.79 -0.74,-2.64 -0.54,-1.36 -1.27,-2.65 -2.26,-3.73 -0.9,-1 -1.95,-1.82 -3.14,-2.45 -1.22,-0.65 -2.51,-1.09 -3.87,-1.34 -1.47,-0.28 -2.96,-0.39 -4.46,-0.33 -1.6,0.06 -3.18,0.27 -4.74,0.62 -1.63,0.36 -3.22,0.85 -4.77,1.46 -1.75,0.69 -3.43,1.52 -5.03,2.51 -1.4,0.88 -2.74,1.88 -3.93,3.03 -1.06,1.01 -2.01,2.14 -2.79,3.38 -0.7,1.11 -1.26,2.31 -1.63,3.58 -0.33,1.18 -0.47,2.39 -0.42,3.62 0.05,1.24 0.32,2.43 0.77,3.59 0.35,0.87 0.79,1.71 1.31,2.5 0.56,0.87 1.22,1.66 1.95,2.4 0.83,0.83 1.74,1.58 2.69,2.27 1.07,0.77 2.23,1.44 3.42,2.03l0.89 0.44 -0.09 0.99c-0.01,0.16 -0.03,0.32 -0.06,0.48zm174.92 80.44c0.41,-0.43 0.9,-0.74 1.45,-0.96 0.59,-0.24 1.22,-0.34 1.85,-0.33 0.12,0 0.23,0.02 0.34,0.02l0.09 0.01 0.09 0.01c0.16,0.02 0.31,0.05 0.47,0.08l1.05 0.24 0.08 1.08c0.04,0.52 0.15,1.06 0.37,1.53 0.16,0.32 0.38,0.65 0.66,0.9 0.25,0.21 0.53,0.38 0.85,0.48 0.36,0.12 0.73,0.19 1.12,0.2 0.88,0.02 1.74,-0.13 2.54,-0.52 0.82,-0.4 1.54,-0.92 2.17,-1.58 0.69,-0.71 1.26,-1.53 1.73,-2.39 0.52,-0.94 0.95,-1.92 1.29,-2.93l0.44 -1.31 4.27 1.18 -0.36 1.39c-0.28,1.04 -0.62,2.06 -1.03,3.05 -0.42,1.03 -0.93,2.02 -1.52,2.96 -0.59,0.93 -1.26,1.8 -2,2.61l-0.01 0.02c-0.77,0.82 -1.63,1.55 -2.57,2.15 -0.96,0.62 -1.99,1.09 -3.09,1.42 -1.18,0.35 -2.38,0.49 -3.61,0.46 -1.17,-0.03 -2.35,-0.21 -3.45,-0.63 -0.92,-0.35 -1.8,-0.83 -2.53,-1.51 -0.64,-0.6 -1.16,-1.29 -1.51,-2.1l-0.02 -0.04c-0.3,-0.75 -0.47,-1.54 -0.45,-2.34 0.02,-0.6 0.13,-1.18 0.36,-1.72 0.21,-0.53 0.51,-1.02 0.93,-1.43zm77.07 18.88c0.02,-0.39 0.03,-0.78 0.04,-1.16 0.08,-2.03 0.16,-4.06 0.26,-6.08 0.11,-2.02 0.21,-4.04 0.31,-6.06 0.09,-1.92 0.2,-3.84 0.3,-5.76l0 -0.04c0.04,-0.5 0.17,-0.99 0.42,-1.42 0.2,-0.37 0.46,-0.71 0.78,-0.99 0.28,-0.27 0.6,-0.49 0.93,-0.68l0.03 -0.02 0.04 -0.02c0.3,-0.15 0.61,-0.29 0.93,-0.4 0.54,-0.18 1.11,-0.28 1.68,-0.3 0.49,-0.02 0.98,0.01 1.47,0.07l1.6 0.19 -0.35 1.58c-0.27,1.18 -0.51,2.37 -0.71,3.56 -0.24,1.38 -0.44,2.77 -0.64,4.16 -0.21,1.52 -0.41,3.05 -0.58,4.58 -0.19,1.61 -0.34,3.22 -0.49,4.83 -0.16,1.64 -0.3,3.28 -0.42,4.92 -0.13,1.61 -0.24,3.23 -0.35,4.85 -0.11,1.56 -0.19,3.13 -0.25,4.7 -0.05,1.51 -0.11,3.03 -0.17,4.54 -0.06,1.41 -0.14,2.83 -0.22,4.24 -0.07,1.32 -0.17,2.64 -0.34,3.95 -0.15,1.14 -0.37,2.26 -0.65,3.37 -0.27,1.07 -0.65,2.11 -1.18,3.09 -0.51,0.95 -1.16,1.81 -1.95,2.54 -0.84,0.79 -1.85,1.35 -2.94,1.72 -0.69,0.23 -1.39,0.36 -2.12,0.37 -0.64,0.01 -1.3,-0.07 -1.91,-0.28 -0.6,-0.21 -1.13,-0.53 -1.59,-0.96 -0.46,-0.44 -0.8,-0.96 -1,-1.56 -0.24,-0.69 -0.25,-1.43 -0.12,-2.14 0.13,-0.76 0.45,-1.45 0.95,-2.03l0.58 -0.65 0.84 0.19c0.44,0.1 0.92,0.16 1.38,0.12l0.03 0c0.38,-0.03 0.79,-0.09 1.15,-0.21 0.71,-0.24 1.29,-0.63 1.73,-1.24 0.58,-0.78 0.93,-1.79 1.16,-2.73 0.36,-1.51 0.54,-3.11 0.66,-4.66 0.14,-1.97 0.24,-3.95 0.33,-5.92l-0.12 0.02 -0.54 -0.8c-0.75,-1.12 -1.51,-2.24 -2.28,-3.35 -0.82,-1.18 -1.63,-2.36 -2.45,-3.53 -0.81,-1.16 -1.63,-2.33 -2.45,-3.49 -0.76,-1.09 -1.55,-2.17 -2.33,-3.24 -0.69,-0.95 -1.37,-1.9 -2.08,-2.84 -0.55,-0.75 -1.12,-1.49 -1.69,-2.22 -0.38,-0.48 -0.78,-0.97 -1.23,-1.39 -0.21,-0.2 -0.5,-0.46 -0.76,-0.59 -0.11,-0.06 -0.26,-0.12 -0.36,-0.12 -0.17,0 -0.36,0.04 -0.54,0.1 -0.08,0.03 -0.17,0.06 -0.26,0.1 0.74,0.83 1.37,1.76 1.9,2.75 0.84,1.56 1.4,3.25 1.71,4.99 0.25,1.45 0.35,2.9 0.32,4.37 -0.03,1.48 -0.22,2.97 -0.54,4.42 -0.33,1.45 -0.81,2.86 -1.43,4.21 -0.62,1.34 -1.41,2.59 -2.37,3.72 -0.96,1.13 -2.09,2.09 -3.36,2.86 -1.35,0.83 -2.83,1.35 -4.39,1.63 -1.32,0.23 -2.68,0.27 -4.01,0.05 -1.24,-0.2 -2.42,-0.62 -3.51,-1.27 -1.07,-0.63 -2.01,-1.43 -2.83,-2.37 -0.85,-0.97 -1.57,-2.05 -2.18,-3.19 -0.66,-1.24 -1.18,-2.54 -1.6,-3.87 -0.46,-1.43 -0.8,-2.89 -1.07,-4.37 -0.25,-1.4 -0.44,-2.81 -0.57,-4.23 -0.14,-1.49 -0.23,-2.99 -0.27,-4.49 -0.03,-1.51 0,-3.02 0.08,-4.52 0.08,-1.47 0.23,-2.94 0.45,-4.39 0.21,-1.35 0.49,-2.69 0.87,-3.99 0.35,-1.18 0.8,-2.34 1.39,-3.42 0.49,-0.9 1.04,-1.76 1.67,-2.58 0.63,-0.82 1.35,-1.57 2.1,-2.28l0.02 -0.01c0.85,-0.76 1.73,-1.47 2.67,-2.12 1.1,-0.76 2.25,-1.47 3.4,-2.15 0.99,-0.59 1.97,-1.19 2.92,-1.84 0.74,-0.51 1.42,-1.1 1.97,-1.81 0.51,-0.63 0.84,-1.34 1.05,-2.12 0.25,-0.93 0.2,-1.98 0.06,-2.93l-0.23 -1.52 4.18 -0.4 0.35 1.14c0.05,0.15 0.08,0.29 0.11,0.45 0.01,0.06 0.02,0.11 0.03,0.17l0.05 0.29c0.25,1.39 0.43,2.82 0.42,4.23 -0.01,1.17 -0.13,2.36 -0.44,3.49 -0.29,1.02 -0.7,1.99 -1.28,2.88 -0.54,0.84 -1.21,1.6 -1.95,2.26 -0.75,0.68 -1.57,1.29 -2.41,1.84 -0.9,0.59 -1.83,1.15 -2.76,1.68 -1.11,0.64 -2.22,1.31 -3.28,2.03 -0.89,0.62 -1.75,1.31 -2.5,2.09 -0.72,0.74 -1.32,1.55 -1.83,2.44 -0.56,0.98 -0.94,2.05 -1.22,3.14 -0.35,1.37 -0.53,2.79 -0.61,4.2 0.5,-0.71 1.06,-1.38 1.69,-1.99 0.91,-0.88 1.95,-1.6 3.09,-2.16 1.1,-0.53 2.27,-0.91 3.48,-1.13 1.74,-0.31 3.49,-0.26 5.18,0.25 0.55,0.17 1.07,0.37 1.58,0.61 0.43,-0.33 0.85,-0.65 1.28,-0.97 0.61,-0.44 1.22,-0.87 1.84,-1.29l0.03 -0.02c0.52,-0.33 1.04,-0.66 1.58,-0.97 0.43,-0.23 0.87,-0.46 1.33,-0.61 0.49,-0.17 1,-0.25 1.51,-0.22 0.58,0.02 1.12,0.19 1.64,0.44 0.58,0.29 1.11,0.7 1.56,1.14 0.57,0.51 1.09,1.14 1.57,1.75 0.43,0.55 0.86,1.08 1.27,1.64 0.56,0.75 1.11,1.52 1.66,2.28 0.67,0.93 1.32,1.86 1.98,2.79 0.73,1.05 1.46,2.1 2.17,3.16 0.66,0.98 1.31,1.95 1.95,2.93zm68.76 -47.65c0.65,-0.23 1.33,-0.4 2.02,-0.5 1.2,-0.18 2.4,-0.09 3.57,0.27 1.3,0.4 2.39,1.21 3.28,2.23 0.76,0.88 1.37,1.87 1.76,2.97 0.35,1.01 0.53,2.06 0.5,3.13 -0.02,1.04 -0.2,2.07 -0.51,3.06 -0.32,1.01 -0.76,1.97 -1.3,2.88 -0.54,0.93 -1.17,1.81 -1.88,2.62 -0.7,0.81 -1.45,1.56 -2.26,2.26 -0.73,0.63 -1.5,1.21 -2.32,1.72 -0.67,0.42 -1.37,0.82 -2.08,1.16l-2.33 2.63 -1.52 1.22 -0.9 -1.22c-1.32,-1.79 -2.66,-3.56 -4.02,-5.32 -1.29,-1.66 -2.58,-3.33 -3.9,-4.97 -1.2,-1.5 -2.41,-2.98 -3.64,-4.46 -1.07,-1.27 -2.14,-2.54 -3.22,-3.8 -0.14,-0.15 -0.35,-0.38 -0.54,-0.48l-0.03 -0.02c-0.02,-0.02 -0.08,-0.04 -0.11,-0.05 -0.04,0 -0.11,0.04 -0.14,0.05 -0.2,0.11 -0.39,0.26 -0.55,0.41 -0.35,0.3 -0.68,0.62 -0.99,0.96 -0.39,0.43 -0.78,0.87 -1.15,1.31l-0.99 1.17 -3.28 -3.04 0.81 -1.05c0.68,-0.89 1.38,-1.77 2.09,-2.63 0.81,-0.98 1.64,-1.93 2.48,-2.88 0.88,-0.97 1.78,-1.92 2.7,-2.86 0.89,-0.91 1.82,-1.8 2.79,-2.63 0.6,-0.52 1.22,-1.01 1.86,-1.49 0.71,-0.52 1.45,-1.01 2.22,-1.44 0.77,-0.42 1.56,-0.8 2.39,-1.1 0.84,-0.31 1.72,-0.49 2.62,-0.54l0.04 0c0.93,-0.04 1.83,0.11 2.7,0.45 0.97,0.37 1.78,1 2.45,1.78 0.83,0.96 1.42,2.07 1.68,3.32 0.24,1.12 0.25,2.27 0.06,3.4 -0.09,0.5 -0.21,1 -0.36,1.48zm46.56 -83.44c-0.08,0.21 -0.16,0.41 -0.24,0.61 -0.33,0.82 -0.66,1.64 -0.99,2.46 -0.29,0.74 -0.59,1.48 -0.89,2.2 -0.27,0.68 -0.54,1.37 -0.82,2.06l-1.03 2.61c-0.32,0.82 -0.62,1.65 -0.9,2.47 -0.16,0.52 -0.3,1.09 -0.35,1.63 -0.02,0.32 0,0.66 0.11,0.97 0.1,0.28 0.3,0.54 0.52,0.76l0.02 0.02c0.4,0.41 0.91,0.76 1.39,1.06 0.78,0.48 1.6,0.92 2.43,1.33l1.23 0.61 -1.92 4.51 -3.38 -1.55c-1.05,-0.48 -2.1,-0.96 -3.15,-1.45 -0.82,-0.38 -1.63,-0.78 -2.41,-1.24 -0.61,-0.35 -1.22,-0.76 -1.75,-1.23 -0.52,-0.46 -0.94,-1.01 -1.19,-1.67 -0.24,-0.63 -0.31,-1.3 -0.23,-1.97 0.08,-0.67 0.28,-1.33 0.53,-1.95 0.19,-0.5 0.42,-0.98 0.65,-1.46 0.31,-0.67 0.62,-1.34 0.93,-2.01 0.4,-0.86 0.78,-1.72 1.16,-2.57 0.44,-0.99 0.87,-1.98 1.26,-2.98 0.4,-1.01 0.79,-2.02 1.18,-3.03 0.38,-0.97 0.74,-1.95 1.1,-2.92 0.36,-1 0.72,-2 1.05,-3.01 0.37,-1.1 0.71,-2.21 1.04,-3.31l0.26 -0.88 2.7 -0.45 0.54 0.65c4.53,5.49 9.33,10.77 14.28,15.89 5.6,5.78 11.42,11.34 17.37,16.75l0.68 0.62 -1.68 5.48 -1.66 1.44 -0.96 -1.02c-4.82,-5.12 -9.6,-10.27 -14.34,-15.46 -4.22,-4.62 -8.41,-9.27 -12.54,-13.97zm-358.6 36.68c-0.72,0.41 -1.41,0.89 -2.07,1.42 -0.64,0.51 -1.26,1.08 -1.8,1.7 -0.52,0.59 -0.99,1.22 -1.38,1.9 -0.35,0.6 -0.62,1.23 -0.78,1.9 -0.15,0.61 -0.18,1.24 -0.11,1.86 0.07,0.64 0.29,1.23 0.6,1.78 0.32,0.56 0.74,1.03 1.3,1.36 0.56,0.33 1.18,0.54 1.82,0.63 0.77,0.1 1.54,0.1 2.3,-0.01 0.87,-0.13 1.73,-0.34 2.57,-0.6 0.84,-0.25 1.67,-0.56 2.46,-0.93 0.73,-0.34 1.46,-0.71 2.16,-1.11 0.74,-0.42 1.43,-0.9 2.1,-1.42 0.65,-0.51 1.24,-1.08 1.79,-1.71 0.51,-0.58 0.98,-1.21 1.38,-1.88 0.34,-0.59 0.59,-1.22 0.75,-1.88 0.14,-0.62 0.17,-1.25 0.1,-1.88 -0.07,-0.63 -0.29,-1.22 -0.61,-1.76 -0.32,-0.56 -0.73,-1.05 -1.28,-1.38 -0.57,-0.35 -1.18,-0.54 -1.84,-0.64 -0.75,-0.11 -1.52,-0.08 -2.27,0.03 -0.86,0.12 -1.72,0.32 -2.56,0.58 -0.84,0.26 -1.66,0.58 -2.47,0.94 -0.73,0.34 -1.46,0.69 -2.16,1.1zm8.61 30.71c0.12,0.33 0.25,0.65 0.41,0.96 0.29,0.58 0.63,1.15 1.03,1.66 0.51,0.65 1.11,1.22 1.79,1.69 0.61,0.42 1.27,0.73 1.99,0.9 0.68,0.16 1.36,0.16 2.05,0.02 0.75,-0.15 1.42,-0.53 2.02,-0.99 0.55,-0.44 1.08,-1 1.31,-1.68 0.21,-0.65 0.23,-1.31 0.11,-1.98 -0.16,-0.84 -0.5,-1.64 -0.9,-2.38 -0.5,-0.9 -1.08,-1.76 -1.72,-2.57 -0.24,-0.31 -0.5,-0.61 -0.73,-0.89l-7.36 5.26zm17.86 -12.83c-0.18,0.13 -0.36,0.27 -0.54,0.4 -0.7,0.51 -1.4,1.02 -2.1,1.53 -0.85,0.61 -1.7,1.22 -2.55,1.83 -0.52,0.38 -1.05,0.75 -1.57,1.13 0.46,0.51 0.95,1 1.47,1.47 0.76,0.68 1.6,1.28 2.54,1.71 0.75,0.34 1.53,0.53 2.36,0.5 0.8,-0.03 1.51,-0.41 2.12,-0.89 0.44,-0.34 0.88,-0.8 1.06,-1.34 0.16,-0.5 0.19,-1.01 0.09,-1.53 -0.12,-0.63 -0.36,-1.24 -0.67,-1.8 -0.36,-0.65 -0.76,-1.26 -1.21,-1.84 -0.27,-0.34 -0.55,-0.68 -0.85,-1l-0.02 -0.02c-0.05,-0.05 -0.09,-0.1 -0.13,-0.15zm8.66 21.74c0.81,0.61 1.64,1.19 2.5,1.71 1.01,0.61 2.13,1.2 3.26,1.55 0.73,0.23 1.53,0.36 2.29,0.25 0.57,-0.09 1.03,-0.34 1.42,-0.76 0.27,-0.28 0.51,-0.6 0.65,-0.97l0.01 -0.03c0.14,-0.33 0.22,-0.68 0.22,-1.04l0.01 -0.03c0.01,-0.32 -0.06,-0.63 -0.19,-0.93l-0.02 -0.04c-0.13,-0.33 -0.33,-0.6 -0.59,-0.85 -0.42,-0.4 -0.92,-0.76 -1.48,-0.96 -0.56,-0.21 -1.13,-0.32 -1.73,-0.32 -0.65,0 -1.3,0.09 -1.93,0.26 -0.7,0.19 -1.39,0.45 -2.05,0.76 -0.69,0.33 -1.35,0.71 -1.98,1.13 -0.13,0.09 -0.26,0.18 -0.39,0.27zm175.09 59.83c0.15,0.84 0.37,1.67 0.66,2.47 0.28,0.8 0.63,1.57 1.04,2.31 0.39,0.68 0.84,1.34 1.36,1.94 0.47,0.54 1,1 1.6,1.39 0.54,0.35 1.12,0.59 1.74,0.73 0.64,0.15 1.29,0.15 1.93,0.03 0.65,-0.12 1.24,-0.35 1.75,-0.77 0.51,-0.42 0.91,-0.92 1.22,-1.5 0.35,-0.69 0.6,-1.42 0.76,-2.17 0.18,-0.86 0.29,-1.73 0.33,-2.61 0.04,-0.88 0.02,-1.77 -0.05,-2.65 -0.07,-0.8 -0.16,-1.61 -0.3,-2.4 -0.15,-0.83 -0.36,-1.64 -0.64,-2.44 -0.26,-0.78 -0.58,-1.55 -0.99,-2.28 -0.37,-0.68 -0.82,-1.32 -1.33,-1.92 -0.44,-0.52 -0.95,-0.98 -1.52,-1.35 -0.53,-0.34 -1.1,-0.59 -1.72,-0.73l-0.03 0c-0.61,-0.15 -1.27,-0.13 -1.88,-0.02 -0.56,0.1 -1.06,0.29 -1.52,0.61 -0.48,0.34 -0.87,0.76 -1.2,1.25 -0.39,0.58 -0.68,1.23 -0.9,1.88 -0.26,0.79 -0.43,1.6 -0.53,2.42 -0.11,0.93 -0.13,1.87 -0.1,2.81 0.05,1 0.14,2.01 0.32,3zm79.2 -20.12c0.43,-0.06 0.86,-0.15 1.27,-0.29 0.6,-0.2 1.19,-0.46 1.72,-0.81 0.72,-0.46 1.35,-1.03 1.81,-1.75 0.42,-0.65 0.7,-1.34 0.81,-2.1 0.12,-0.78 0.08,-1.56 -0.09,-2.33 -0.19,-0.82 -0.52,-1.57 -0.98,-2.28 -0.37,-0.59 -0.84,-1.17 -1.42,-1.57 -0.45,-0.3 -0.94,-0.51 -1.47,-0.58 -0.57,-0.07 -1.13,0 -1.67,0.16 -0.7,0.21 -1.37,0.53 -1.98,0.92 -1.04,0.67 -1.97,1.51 -2.79,2.44 0.78,1.36 1.56,2.73 2.34,4.09 0.8,1.38 1.61,2.75 2.45,4.1zm21.92 -15.85c0.32,-0.13 0.63,-0.28 0.93,-0.45 0.57,-0.32 1.12,-0.69 1.62,-1.12 0.62,-0.54 1.16,-1.16 1.59,-1.87 0.39,-0.62 0.68,-1.29 0.81,-2.02 0.13,-0.69 0.09,-1.37 -0.07,-2.05 -0.19,-0.74 -0.6,-1.4 -1.1,-1.97 -0.46,-0.53 -1.04,-1.04 -1.73,-1.23 -0.66,-0.18 -1.32,-0.17 -1.99,-0.02 -0.82,0.2 -1.61,0.58 -2.33,1.02 -0.88,0.54 -1.7,1.16 -2.48,1.84 -0.3,0.25 -0.59,0.52 -0.86,0.77l5.61 7.1zm-13.67 -17.23c0.14,0.17 0.28,0.35 0.42,0.52 0.54,0.67 1.09,1.35 1.63,2.03 0.65,0.81 1.3,1.63 1.95,2.45 0.4,0.51 0.8,1.01 1.21,1.52 0.49,-0.49 0.95,-1 1.39,-1.54 0.65,-0.79 1.21,-1.66 1.59,-2.62 0.3,-0.76 0.46,-1.56 0.39,-2.38 -0.07,-0.79 -0.48,-1.49 -1,-2.08 -0.36,-0.42 -0.83,-0.84 -1.38,-0.99 -0.51,-0.14 -1.02,-0.14 -1.53,-0.02 -0.63,0.16 -1.23,0.43 -1.77,0.76 -0.63,0.39 -1.23,0.82 -1.78,1.3 -0.33,0.29 -0.65,0.58 -0.96,0.89l-0.02 0.03c-0.05,0.04 -0.09,0.09 -0.14,0.13zm31 -12.07c-0.2,0.27 -0.39,0.55 -0.59,0.82 -0.49,0.71 -0.95,1.44 -1.34,2.21 -0.35,0.67 -0.63,1.37 -0.84,2.09 -0.17,0.59 -0.25,1.21 -0.23,1.81 0.03,0.54 0.16,1.06 0.4,1.57 0.27,0.56 0.68,1.03 1.15,1.44 0.29,0.25 0.61,0.47 0.96,0.65 0.24,0.12 0.5,0.22 0.76,0.25 0.2,0.02 0.37,0 0.56,-0.07l0.03 -0.02c0.19,-0.06 0.38,-0.26 0.51,-0.4 0.29,-0.33 0.47,-0.72 0.59,-1.13l0.01 -0.03c0.18,-0.57 0.26,-1.18 0.29,-1.78 0.03,-0.73 -0.03,-1.46 -0.14,-2.16 -0.15,-0.79 -0.35,-1.58 -0.63,-2.35 -0.29,-0.79 -0.65,-1.53 -1.08,-2.25 -0.13,-0.22 -0.26,-0.44 -0.41,-0.65zm19.75 -12.82c0.85,-0.31 1.68,-0.71 2.42,-1.23 0.8,-0.56 1.46,-1.25 1.99,-2.07 0.64,-1 1.07,-2.1 1.19,-3.3 0.13,-1.22 -0.09,-2.41 -0.53,-3.55 -0.55,-1.41 -1.45,-2.7 -2.45,-3.82 -1.33,-1.48 -2.97,-2.74 -4.64,-3.81 -0.72,-0.46 -1.47,-0.87 -2.25,-1.22 -0.71,-0.32 -1.46,-0.58 -2.22,-0.74 -0.54,-0.11 -1.11,-0.16 -1.65,-0.05 -0.29,0.06 -0.48,0.19 -0.64,0.44 -0.32,0.51 -0.48,1.09 -0.54,1.69 -0.08,0.82 0.01,1.65 0.16,2.46 0.18,0.98 0.48,1.94 0.85,2.87 0.42,1.06 0.9,2.1 1.43,3.11 0.55,1.04 1.14,2.06 1.79,3.04 0.63,0.96 1.28,1.9 1.99,2.8 0.62,0.79 1.27,1.56 1.96,2.28 0.36,0.38 0.74,0.75 1.14,1.1zm-141.2 130.13l-1.29 -12.03c-0.36,-2.21 -0.48,-3.24 -3.66,-2.17 -2.73,0.92 -1.96,0.84 -3.57,2.29 -0.21,0.18 -0.24,0.19 -0.43,0.43l0.13 0.73c0.76,0.04 1.79,-0.56 2.5,-0.28 0.79,0.32 0.99,3.6 1.15,4.83l0.63 5.36c0.02,0.39 0.09,0.91 0.13,1.33 0.05,0.4 0.1,1.07 0.16,1.43l0.59 5.53c0.35,0 2.25,-0.51 2.51,-0.74 2.7,-2.28 2.15,-3.02 3.7,-6.45 0.67,-1.49 1.4,-3.15 2.03,-4.69 0.14,-0.37 1.79,-4.33 2.1,-4.7 0.14,1.76 1.08,10.58 1.54,12.4 0.65,2.59 1.9,2.65 4.21,1.74 1.78,-0.7 2.28,-1.31 3.43,-2.55 0.16,-0.16 0.35,-0.29 0.5,-0.49l-0.38 -0.72c-1.27,0.24 -2.91,1.8 -3.63,-1.13 -0.25,-0.99 -1.2,-7.76 -1.25,-9.26l-0.37 -4.28c-0.03,-0.46 0.04,-1.01 0,-1.47 -0.03,-0.44 -0.1,-0.95 -0.14,-1.44 -1.82,-0.19 -1.91,-0.21 -4.17,2.26 -0.49,0.54 -1.78,3.74 -2.2,4.64 -0.74,1.56 -1.45,3.15 -2.12,4.72l-1.56 3.58c-0.16,0.42 -0.28,0.82 -0.54,1.13zm40.56 -14.76c-0.31,0.19 -6.13,2.06 -6.84,2.17l-1.07 -4.18c-0.99,-3.98 -1.04,-5.31 -5.34,-2.93 -0.21,0.12 -0.67,0.37 -0.86,0.49 -0.19,0.13 -0.54,0.5 -0.69,0.66 -0.45,0.47 -0.88,0.93 -1.35,1.33l0.24 0.73c0.73,0 1.69,-0.82 2.54,-0.56 0.62,0.19 0.9,1.7 1.06,2.24l2.74 10.33c0.22,0.89 1.08,4.78 1.36,5.24 1.6,-0.19 3.14,-1.59 4.05,-2.81l-2.04 -8.04c0.65,-0.5 5.93,-1.76 6.89,-2.22 0.36,1.68 1.93,7.81 2.99,8.88 1.51,1.54 4.72,-1.03 5.76,-2.12l1.53 -1.49 -0.55 -0.75c-0.54,0.52 -2.42,1.66 -3.37,0.14 -0.88,-1.39 -2.43,-8.01 -2.96,-10.12l-1.37 -6.45c-0.18,-0.37 -0.44,-0.33 -0.83,-0.25 -1.29,0.24 -1.34,0.52 -2.42,1.61 -1.38,1.38 -1.02,0.96 -0.45,3.81 0.13,0.65 0.31,1.43 0.48,2.09 0.15,0.61 0.46,1.58 0.5,2.2zm-83 4.51l0.21 0.78c1.67,0.4 3,-1.29 2.99,1.91l0 7.21c0,1.6 -0.12,3.02 -0.12,4.64 0,0.8 0.04,1.67 0,2.45 -0.03,0.81 -0.22,0.83 -0.1,2.3 0.81,0.06 2.2,-0.02 2.74,-0.64 0.24,-0.28 0.58,-0.61 0.86,-0.85 0.18,-0.17 0.74,-0.69 0.78,-0.93 0,-1.39 0,-2.77 0,-4.16 0,-1.39 0.12,-2.6 0.12,-4.03 0,-1.39 0,-2.77 0,-4.16 0,-1.41 0.12,-2.61 0.12,-4.03 1.22,0 2.44,0 3.67,0 4.58,0 3.17,-1.02 3.17,7.58l0 5.62c0.03,0.71 0.12,0.36 0.12,1.83 0,0.79 0.28,2.52 0.68,3.11 1.01,1.53 5.04,-0.09 5.61,-0.61l1.39 -1.4c0.01,-0.01 0.03,-0.04 0.04,-0.05l0.06 -0.09c0.01,-0.01 0.02,-0.04 0.03,-0.05 0,0 0.23,-0.14 0.26,-0.16l-0.34 -0.91c-0.55,0.33 -1.74,0.56 -2.4,0.33 -0.78,-0.27 -0.84,-1.13 -0.98,-1.82 -0.1,-0.49 -0.03,-0.79 -0.1,-1.25 -0.08,-0.54 -0.09,-0.76 -0.09,-1.38l0 -5.62c0,-1.39 0.49,-7.5 0.29,-7.99 -0.42,-1.05 -2.48,-0.43 -3.47,-0.43l-6.96 0.12c-1.77,0 -3.53,0.2 -5.15,0.47 -0.91,0.15 -1.22,0 -1.64,0.44l-1.02 1.05c-0.23,0.21 -0.47,0.49 -0.77,0.72zm106.81 -17.1c-0.13,-0.72 0.16,-2.39 0.4,-3.02 0.26,-0.67 0.11,-0.62 0.78,-0.94 1.36,-0.65 2.74,-0.67 4.13,-0.13 2.35,0.94 3.84,3.22 4.95,5.43 1.14,2.26 2.24,6.19 1.27,8.47 -0.37,0.86 -0.82,1.15 -2.04,1.39 -3.68,0.71 -6.55,-2.82 -7.9,-5.82 -0.91,-2.02 -1.2,-3.28 -1.59,-5.38zm15.76 3.29l0 0.21c-0.03,3.66 -0.43,4.94 -3.02,7.53 -1.03,1.03 -1.61,1.69 -2.86,2.51 -2.33,1.53 -5.85,1.74 -8.36,0.22 -3.22,-1.95 -5.45,-7.11 -5.43,-10.46 0.02,-3.63 0.56,-5.03 3.09,-7.55 1.63,-1.63 2.47,-2.58 4.74,-3.31 1.51,-0.49 1.81,-0.29 2.19,-0.38 0.69,-0.16 1.55,-0.04 2.27,0.17 2,0.58 3.33,1.65 4.61,3.34 1.44,1.9 2.74,5.31 2.77,7.72zm-172.64 13.2c-0.07,0.39 -0.08,0.99 -0.17,1.42 -0.22,1.12 -0.75,2.86 -1.25,3.88 -1,2.02 -1.5,2.89 -3.96,2.89 -4.38,0 -5.87,-4.32 -5.28,-8.09 0.31,-2 0.65,-3.37 1.46,-5.27 0.2,-0.46 0.98,-1.88 1.3,-2.11 0.55,-0.39 2.02,-0.8 2.64,-0.77 0.23,0.01 1.11,0.17 1.35,0.23 2.25,0.58 3.56,2.41 3.91,4.65 0.17,1.09 0.2,2.11 0,3.17zm-4.89 -10.99c-0.28,0.06 -0.64,0.05 -1.05,0.17 -2.36,0.68 -3.71,2.33 -5.39,4.01 -1.98,1.98 -3.07,4.19 -3.73,6.91 -0.66,2.73 -0.52,6.28 1.53,8.43 2.03,2.14 4.89,3.08 7.77,2.7 4.46,-0.59 9.05,-6.37 10.13,-11.13 0.63,-2.74 0.62,-6.19 -1.47,-8.38 -0.89,-0.93 -1.95,-1.77 -3.19,-2.18 -1.6,-0.53 -2.97,-0.9 -4.6,-0.53zm-37.23 -9.8c0.75,0.53 1.46,0.25 2.38,1.15 0.39,0.81 -2.92,7.53 -3.43,8.73 -0.5,1.17 -3.71,7.89 -3.73,8.46 0.71,0.22 1.41,0.42 2.19,0.63l1.49 -1.45c0.87,-0.87 2.59,-4.93 3.05,-6.12 0.15,0.31 0.43,1.42 0.53,1.87 0.17,0.67 0.36,1.35 0.54,2.03 0.44,1.71 1.61,6.16 2.78,7.36 0.86,0.89 2.89,0.94 4.19,0.94 0.24,-0.03 2.16,-1.95 2.2,-2.2l-0.01 -0.59c-3.65,-0.28 -3.87,-3.86 -4.96,-7.51l-0.88 -3.36c2.5,-0.9 5.03,-1.45 7.48,-2.79 0.86,-0.47 1.95,-1.73 2.68,-2.45 0.48,-0.48 0.75,-1.19 0.4,-1.82 -0.42,-0.75 -0.98,-0.72 -1.62,-1 -0.28,0.35 -0.27,0.27 -0.56,0.56l-1.16 1.16c-0.79,0.72 0.28,1.2 -3.4,2.46l-6.09 1.98c-0.16,0.05 -0.26,0.09 -0.43,0.18 -0.38,0.23 0.11,0.09 -0.36,0.2l3.08 -6.77c0.52,-1.22 1.3,-2.44 -0.24,-3.26 -1.29,-0.69 -3.32,-0.75 -3.99,-1.03l-0.51 0.59c-0.01,0.01 -0.04,0.03 -0.04,0.04 -0.64,0.59 -1.47,1.1 -1.58,2.01zm61.55 37.9c0.29,-0.08 1.98,-1.77 2.22,-2.08 -1.28,-2.1 0.95,-5.59 2.01,-7.74 0.48,-0.97 3.49,-6.17 4.08,-6.55l0.36 6.11c0.15,2.07 0.84,8.98 1.81,10.53 1.58,2.55 5.51,0.58 5.52,0.58l1.73 -1.82 -0.13 -0.83c-3.95,1.18 -3.91,-4.58 -4.31,-7.34l-0.95 -11.03c0,-0.77 -0.11,-0.92 -0.88,-1.07 -0.52,-0.09 -1.04,-0.16 -1.52,0.14 -0.19,0.12 -1.85,1.79 -2.02,2.01 -1.74,2.21 -8.01,12.03 -9.27,14.57 -0.42,0.85 -1.1,1.99 -1.11,2.93 0,1.55 1.33,1.59 2.46,1.59zm241.92 -110.62l-0.48 0.67c-6.53,9.16 -13.67,17.85 -21.36,26.01 -7.74,8.21 -16.05,15.9 -24.86,22.98l-0.08 -0.09c8.95,-7.97 17.33,-16.57 25.08,-25.71 7.73,-9.12 14.83,-18.78 21.23,-28.93 0.2,-0.32 0.41,-0.64 0.61,-0.96 9.66,-15.46 17.72,-32.03 23.94,-49.47 6.08,-17.05 10.4,-34.93 12.75,-53.42l0.15 -1.17 0.14 -1.1 -110.76 0c-0.81,3.43 -1.77,6.81 -2.85,10.13 -1.09,3.34 -2.31,6.61 -3.65,9.83 -0.14,0.32 -0.27,0.64 -0.41,0.97 -10.09,23.57 -26.94,43.55 -48.11,57.52 -20.53,13.56 -45.14,21.45 -71.59,21.45 -26.45,0 -51.06,-7.89 -71.59,-21.45 -21.17,-13.97 -38.02,-33.95 -48.11,-57.52 -0.14,-0.32 -0.27,-0.65 -0.41,-0.97 -1.34,-3.22 -2.56,-6.49 -3.65,-9.83 -1.08,-3.32 -2.04,-6.7 -2.85,-10.13l-110.76 0 0.14 1.1 0.15 1.17c2.12,16.64 5.82,32.78 10.97,48.26 5.26,15.82 12.03,30.95 20.12,45.23 0.21,0.36 0.41,0.72 0.62,1.08 6.88,11.99 14.69,23.36 23.35,34.03 8.7,10.71 18.25,20.71 28.55,29.89l-0.08 0.09c-10.1,-8.13 -19.55,-17.04 -28.24,-26.64 -8.63,-9.53 -16.52,-19.75 -23.58,-30.55l-0.72 -1.11c-9.89,-15.32 -18.12,-31.81 -24.43,-49.22 -6.16,-16.98 -10.49,-34.84 -12.77,-53.33l-0.01 -0.05c-0.11,-0.95 -0.23,-1.91 -0.33,-2.87 -0.11,-0.96 -0.21,-1.92 -0.3,-2.88l-0.01 -0.07 122.06 0 0 0.05c0.2,0.97 0.4,1.93 0.61,2.88 0.22,0.94 0.44,1.88 0.67,2.82l0.01 0.04c0.86,3.46 1.87,6.85 3.01,10.18 1.15,3.36 2.44,6.64 3.86,9.86 0.13,0.29 0.27,0.59 0.4,0.88 9.9,21.92 25.96,40.45 45.99,53.39 19.4,12.53 42.52,19.8 67.33,19.8 24.81,0 47.93,-7.27 67.33,-19.8 20.03,-12.94 36.09,-31.47 45.99,-53.39 0.13,-0.29 0.27,-0.59 0.4,-0.88 1.42,-3.22 2.71,-6.5 3.86,-9.86 1.14,-3.33 2.15,-6.72 3.01,-10.18l0.01 -0.04c0.23,-0.94 0.45,-1.88 0.67,-2.82 0.21,-0.95 0.41,-1.91 0.61,-2.88l0 -0.05 122.06 0 -0.01 0.07c-0.09,0.96 -0.19,1.92 -0.3,2.88 -0.1,0.96 -0.22,1.92 -0.33,2.87l-0.01 0.05c-2.49,20.2 -7.43,39.63 -14.52,58 -7.27,18.85 -16.81,36.57 -28.27,52.83l-0.25 0.36zm-68.01 -148.15c-2.56,-0.45 -5.15,-0.91 -7.76,-1.37 -0.97,-0.17 -1.59,-1.26 -1.38,-2.43 0.2,-1.17 1.16,-1.99 2.13,-1.82 2.35,0.42 4.69,0.83 7.01,1.25 18.21,3.23 35.29,6.34 50.3,9.14 35.33,-5.85 59.22,-9.36 59.36,-8.57 0.11,0.65 -15.68,4.03 -40.69,8.84 25.53,0.4 41.71,0.99 41.71,1.64 0,0.66 -16.15,1.24 -41.64,1.64 25.03,4.82 40.84,8.2 40.72,8.84 -0.14,0.79 -24.07,-2.72 -59.47,-8.58 -15,2.81 -32.08,5.91 -50.29,9.15 -2.35,0.41 -4.73,0.83 -7.12,1.25 -0.97,0.18 -1.92,-0.64 -2.13,-1.81 -0.2,-1.17 0.42,-2.26 1.39,-2.43 2.64,-0.47 5.26,-0.93 7.86,-1.38 9.22,-1.62 18.16,-3.16 26.68,-4.62 -8.52,0.05 -17.46,0.08 -26.68,0.09 -2.73,0.01 -5.49,0.01 -8.28,0.01 -0.98,0 -1.78,-0.97 -1.78,-2.16 0,-1.19 0.8,-2.15 1.78,-2.15 2.79,0 5.55,0 8.28,0 9.25,0.01 18.2,0.04 26.75,0.09 -8.54,-1.46 -17.5,-3.01 -26.75,-4.62zm0 14.81l-5.13 0.9c-0.39,0.07 -0.65,0.45 -0.58,0.84 0.07,0.39 0.44,0.65 0.83,0.58l4.88 -0.86 6.45 -1.14c0.39,-0.07 0.65,-0.44 0.58,-0.83 -0.07,-0.39 -0.44,-0.65 -0.83,-0.58l-6.2 1.09zm0 -8.85l-5.75 0c-0.4,0 -0.72,0.32 -0.72,0.72 0,0.4 0.32,0.72 0.72,0.72l5.75 0 5.75 0c0.4,0 0.72,-0.32 0.72,-0.72 0,-0.4 -0.32,-0.72 -0.72,-0.72l-5.75 0zm0 -8.88l-4.77 -0.84c-0.39,-0.07 -0.77,0.19 -0.83,0.58 -0.07,0.39 0.19,0.77 0.58,0.83l5.02 0.89 6.3 1.11c0.39,0.07 0.77,-0.19 0.84,-0.58 0.06,-0.39 -0.2,-0.76 -0.59,-0.83l-6.55 -1.16zm-63.53 60.47l0.46 -0.61c2.28,-3.08 4.37,-6.32 6.26,-9.68 1.86,-3.34 3.53,-6.8 4.97,-10.38l0.01 -0.04c0.38,-0.93 0.74,-1.87 1.08,-2.82 0.34,-0.93 0.66,-1.86 0.97,-2.81l0.02 -0.08c1.45,-4.46 2.57,-9.07 3.31,-13.8 0.73,-4.63 1.11,-9.37 1.11,-14.21 0,-3.55 -0.2,-7.06 -0.6,-10.51 -0.41,-3.5 -1.01,-6.95 -1.81,-10.32l-0.01 -0.07c-0.23,-0.94 -0.46,-1.88 -0.72,-2.81 -0.26,-0.97 -0.53,-1.92 -0.82,-2.86l-0.03 -0.08c-1.13,-3.69 -2.49,-7.27 -4.07,-10.74 -1.61,-3.53 -3.43,-6.95 -5.46,-10.22l-0.06 -0.09c-1.6,-2.58 -3.33,-5.07 -5.17,-7.47 -1.88,-2.43 -3.87,-4.77 -5.98,-7l0.09 -0.08c2.33,2.2 4.54,4.52 6.62,6.96 2.08,2.43 4.03,4.97 5.85,7.61l0.06 0.1c2.21,3.22 4.22,6.59 6,10.09 1.78,3.5 3.35,7.13 4.67,10.88 0.34,0.95 0.66,1.9 0.96,2.86 0.3,0.95 0.59,1.92 0.86,2.89 1.1,3.93 1.94,7.96 2.5,12.09 0.55,4.04 0.84,8.17 0.84,12.36 0,4.2 -0.29,8.33 -0.84,12.37 -0.56,4.13 -1.4,8.16 -2.5,12.09 -0.27,0.97 -0.56,1.94 -0.86,2.89 -0.3,0.96 -0.62,1.91 -0.96,2.86 -1.26,3.56 -2.73,7.01 -4.4,10.35 -1.68,3.34 -3.55,6.56 -5.61,9.65 -0.22,0.32 -0.43,0.65 -0.66,0.97 -8.31,12.12 -19.49,22.13 -32.57,29.02 -12.61,6.66 -26.97,10.42 -42.22,10.42 -12.72,0 -24.83,-2.62 -35.82,-7.35 -11.41,-4.92 -21.61,-12.11 -30.03,-21.01l0.09 -0.09c8.26,7.81 17.99,14.08 28.73,18.36 10.34,4.11 21.63,6.38 33.44,6.38 14.44,0 28.09,-3.39 40.2,-9.4 12.57,-6.25 23.49,-15.33 31.9,-26.41l0.2 -0.26zm-16.54 -101.06c-0.36,-0.32 -0.73,-0.64 -1.1,-0.95l-0.01 -0.02c-6.45,-5.49 -13.88,-9.88 -21.98,-12.86 -7.81,-2.88 -16.25,-4.45 -25.06,-4.45 -8.8,0 -17.24,1.57 -25.05,4.45 -8.1,2.98 -15.53,7.37 -21.98,12.86l-0.01 0.02c-3.45,2.94 -6.61,6.19 -9.45,9.72 -2.83,3.51 -5.34,7.29 -7.49,11.3 -0.5,0.93 -0.98,1.88 -1.44,2.84 -0.45,0.93 -0.87,1.87 -1.28,2.82l-0.04 0.08c-1.88,4.43 -3.34,9.08 -4.33,13.9 -0.95,4.7 -1.45,9.56 -1.45,14.54 0,3.5 0.25,6.95 0.73,10.32 0.48,3.43 1.21,6.78 2.16,10.03l0.04 0.12c0.27,0.95 0.57,1.88 0.89,2.82 0.32,0.96 0.67,1.91 1.03,2.85 1.41,3.65 3.11,7.15 5.06,10.49 1.98,3.37 4.22,6.57 6.7,9.57 0.24,0.29 0.49,0.58 0.74,0.87 0.31,0.36 0.62,0.72 0.94,1.08 0.33,0.37 0.65,0.73 0.98,1.09l-0.09 0.08c-0.39,-0.36 -0.77,-0.72 -1.14,-1.08 -0.38,-0.36 -0.75,-0.73 -1.12,-1.1 -0.31,-0.32 -0.63,-0.64 -0.93,-0.96 -2.78,-2.91 -5.32,-6.05 -7.59,-9.38 -2.27,-3.34 -4.27,-6.88 -5.97,-10.58l-0.06 -0.12c-0.42,-0.92 -0.81,-1.84 -1.19,-2.77 -0.39,-0.94 -0.75,-1.9 -1.1,-2.86l-0.04 -0.12c-1.37,-3.84 -2.42,-7.83 -3.13,-11.94 -0.7,-4.04 -1.06,-8.2 -1.06,-12.44 0,-4.24 0.36,-8.39 1.06,-12.43 0.71,-4.11 1.76,-8.1 3.13,-11.94l0.04 -0.12c0.35,-0.96 0.71,-1.92 1.1,-2.86 0.38,-0.93 0.77,-1.86 1.19,-2.77l0.06 -0.12c1.79,-3.91 3.92,-7.64 6.35,-11.14 2.43,-3.5 5.16,-6.78 8.15,-9.79l0.13 -0.12c6.69,-6.72 14.7,-12.13 23.6,-15.83 8.57,-3.56 17.98,-5.53 27.84,-5.53 9.86,0 19.27,1.97 27.84,5.53 8.9,3.7 16.91,9.11 23.61,15.83l0.12 0.12c0.28,0.29 0.57,0.58 0.85,0.87 0.3,0.32 0.62,0.65 0.93,0.99l-0.09 0.08c-0.35,-0.32 -0.72,-0.66 -1.09,-0.99zm21.64 -42.84l0.14 0.03c0.2,0.04 0.4,0.07 0.59,0.13 0.23,0.06 0.46,0.15 0.69,0.24 0.13,0.05 0.25,0.1 0.37,0.15 0.55,0.2 1.18,0.54 1.79,0.93 0.67,0.43 1.31,0.93 1.78,1.37 0.5,0.47 0.99,1.05 1.4,1.68 0.39,0.58 0.7,1.21 0.91,1.83 0.25,0.76 0.45,1.76 0.49,2.74 0.03,0.79 -0.05,1.55 -0.3,2.16 -0.26,0.61 -0.66,1.19 -1.17,1.63 -0.47,0.41 -1.03,0.69 -1.64,0.79 -0.39,0.06 -0.79,0.1 -1.17,0.07 -0.38,-0.02 -0.76,-0.1 -1.13,-0.26 -0.08,-0.03 -0.2,-0.11 -0.32,-0.2 -0.15,-0.11 -0.29,-0.23 -0.36,-0.31 -0.11,-0.11 -0.2,-0.26 -0.29,-0.42 -0.1,-0.17 -0.2,-0.35 -0.35,-0.49l-0.27 -0.26 -0.37 0.06c-0.28,0.04 -0.57,0.25 -0.83,0.51 -0.33,0.33 -0.61,0.77 -0.75,1.09 -0.4,0.91 -0.38,1.94 -0.07,2.9 0.34,1.05 1.02,2.01 1.85,2.63 0.55,0.42 1.11,0.76 1.7,1 0.59,0.25 1.23,0.4 1.93,0.41 0.82,0.02 1.44,-0.01 2.04,-0.15 0.6,-0.14 1.17,-0.38 1.9,-0.76 0.84,-0.45 1.62,-1.13 2.27,-1.92 0.7,-0.84 1.26,-1.81 1.59,-2.75 0.05,-0.11 0.08,-0.23 0.12,-0.35 0.04,-0.15 0.09,-0.3 0.14,-0.44 0.46,-1.17 0.4,-2.58 0.34,-3.85l-0.03 -0.54c-0.02,-0.57 -0.13,-0.98 -0.26,-1.44 -0.05,-0.17 -0.1,-0.35 -0.14,-0.54 -0.12,-0.49 -0.32,-0.94 -0.52,-1.39l-0.13 -0.3c-0.96,-2.21 -2.57,-4.01 -4.51,-5.41 -2.26,-1.64 -4.96,-2.75 -7.57,-3.36 -0.84,-0.19 -1.75,-0.36 -2.66,-0.47 -0.82,-0.11 -1.65,-0.17 -2.42,-0.17 -1.6,0.01 -3.04,0.29 -4.57,0.6l-0.43 0.09c-0.4,0.07 -0.83,0.2 -1.24,0.33 -0.16,0.05 -0.31,0.1 -0.47,0.14l-0.41 0.13 0.07 -0.13c0.05,-0.08 0.08,-0.15 0.11,-0.2 0.47,-1.1 0.59,-2.16 0.38,-3.15 -0.21,-0.98 -0.77,-1.9 -1.65,-2.7 -0.61,-0.56 -1.3,-0.9 -2.02,-1 -0.73,-0.11 -1.49,0.02 -2.25,0.37 -0.34,0.16 -0.67,0.37 -0.95,0.64 -0.27,0.24 -0.49,0.53 -0.65,0.84 -0.22,0.44 -0.39,0.96 -0.38,1.46 0.01,0.41 0.12,0.8 0.42,1.13l0.19 0.21 0.27 0.03c0.31,0.05 0.54,-0.04 0.76,-0.14 0.13,-0.05 0.25,-0.1 0.39,-0.12 0.28,-0.05 0.52,-0.04 0.72,0 0.32,0.06 0.55,0.22 0.72,0.43 0.17,0.22 0.28,0.5 0.33,0.81 0.07,0.38 0.05,0.81 -0.04,1.23 -0.04,0.17 -0.13,0.35 -0.24,0.52 -0.15,0.23 -0.34,0.44 -0.51,0.61 -0.69,0.69 -1.81,1.18 -3.02,1.49 -1.46,0.37 -3.05,0.47 -4.19,0.33l-0.28 -0.03c-0.56,-0.06 -1.18,-0.13 -1.68,-0.32l-0.36 -0.13c-0.43,-0.15 -0.85,-0.3 -1.24,-0.54 -0.51,-0.32 -0.89,-0.61 -1.2,-0.97 -0.31,-0.35 -0.54,-0.77 -0.75,-1.33 -0.09,-0.22 -0.14,-0.51 -0.16,-0.81 -0.02,-0.37 0,-0.75 0.03,-1.05 0.03,-0.25 0.09,-0.47 0.18,-0.67 0.09,-0.21 0.21,-0.4 0.39,-0.57 0.25,-0.26 0.51,-0.44 0.81,-0.56 0.29,-0.11 0.61,-0.17 0.96,-0.18 0.18,0 0.42,0.03 0.66,0.06 0.37,0.04 0.77,0.09 1.01,0.02l0.26 -0.06 0.16 -0.21c0.31,-0.4 0.36,-0.93 0.27,-1.46 -0.12,-0.68 -0.49,-1.37 -0.84,-1.82 -0.29,-0.36 -0.62,-0.65 -1,-0.9 -0.37,-0.24 -0.77,-0.44 -1.18,-0.61 -0.51,-0.21 -1.05,-0.3 -1.59,-0.32 -0.53,-0.01 -1.08,0.05 -1.6,0.17 -1.31,0.28 -2.48,1.14 -3.32,2.27 -0.86,1.17 -1.37,2.62 -1.31,3.99 0.1,2.58 1.32,4.57 3.11,6.01 1.97,1.58 4.62,2.48 7.19,2.72 -0.14,0 -0.28,0 -0.42,0 -0.16,0.01 -0.32,0.01 -0.49,0.01 -1.24,-0.01 -2.51,-0.18 -3.76,-0.47 -1.34,-0.3 -2.65,-0.75 -3.86,-1.29 -0.59,-0.26 -1.2,-0.58 -1.79,-0.93 -0.62,-0.36 -1.22,-0.76 -1.75,-1.17 -1.48,-1.1 -2.82,-2.57 -3.84,-4.22 -0.94,-1.54 -1.61,-3.25 -1.82,-4.98 -0.18,-1.42 -0.25,-2.38 -0.18,-3.32 0.07,-0.95 0.27,-1.89 0.63,-3.28 0.18,-0.72 0.67,-1.58 1.06,-2.28l0.11 -0.21c0.18,-0.32 0.41,-0.64 0.66,-0.95 0.3,-0.37 0.64,-0.73 0.96,-1.04 0.65,-0.63 1.42,-1.2 2.25,-1.65 0.77,-0.41 1.59,-0.71 2.42,-0.85 1.02,-0.16 2.24,-0.23 3.37,-0.04 0.88,0.16 1.71,0.47 2.35,1.03 0.32,0.28 0.59,0.6 0.81,0.95 0.21,0.32 0.37,0.68 0.46,1.07 0.1,0.42 0.12,0.93 0.05,1.43 -0.06,0.46 -0.19,0.91 -0.4,1.27 -0.1,0.16 -0.2,0.31 -0.33,0.44 -0.12,0.13 -0.26,0.24 -0.41,0.35l-0.18 0.11c-0.3,0.19 -0.59,0.37 -0.69,0.77 -0.06,0.26 -0.02,0.49 0.09,0.69 0.1,0.2 0.26,0.38 0.43,0.54 0.29,0.28 0.62,0.51 0.98,0.7 0.35,0.17 0.72,0.3 1.12,0.37 1.27,0.21 2.49,-0.15 3.54,-0.84 1.2,-0.79 2.16,-2.02 2.7,-3.28 0.47,-1.13 0.62,-2.26 0.51,-3.38 -0.13,-1.21 -0.56,-2.41 -1.21,-3.54 -0.47,-0.81 -1.14,-1.55 -1.91,-2.19 -0.83,-0.7 -1.78,-1.27 -2.71,-1.67 -0.33,-0.14 -0.92,-0.35 -1.46,-0.52 -0.41,-0.12 -0.79,-0.22 -1.04,-0.23l-0.31 -0.03c-1.42,-0.09 -3.26,-0.22 -4.54,0.23 -0.11,0.04 -0.24,0.07 -0.36,0.09 -0.14,0.03 -0.29,0.06 -0.43,0.11l-0.37 0.14c-0.61,0.22 -1.19,0.44 -1.79,0.71 -0.46,0.2 -0.89,0.45 -1.31,0.72 -0.41,0.27 -0.81,0.57 -1.21,0.87 -1.28,0.95 -2.26,2.02 -3.08,3.2 -0.82,1.18 -1.49,2.48 -2.13,3.9 -0.35,0.78 -0.52,1.48 -0.69,2.23 -0.07,0.28 -0.14,0.58 -0.22,0.89 -0.33,1.25 -0.33,2.52 -0.33,3.81 0,0.33 0,0.66 0.01,0.99 0.02,0.33 0.04,0.65 0.09,0.98 0.07,0.49 0.17,0.98 0.27,1.46l0.05 0.24c0.38,1.81 1.22,3.66 2.32,5.33 1.17,1.79 2.64,3.4 4.19,4.59 0.76,0.6 1.7,1.23 2.66,1.79 0.84,0.48 1.69,0.9 2.48,1.19l0.48 0.17c0.85,0.3 1.69,0.61 2.58,0.81 1.93,0.44 3.68,0.65 5.43,0.65 1.75,-0.01 3.51,-0.22 5.44,-0.64 0.26,-0.06 0.52,-0.12 0.78,-0.19 0.26,-0.06 0.52,-0.13 0.78,-0.2l0.22 -0.06c0.47,-0.12 0.97,-0.26 1.41,-0.43 0.45,-0.17 0.92,-0.32 1.4,-0.47 0.51,-0.16 1.03,-0.32 1.53,-0.52 0.37,-0.15 1.33,-0.46 2.36,-0.75 0.79,-0.22 1.62,-0.44 2.26,-0.58l-0.08 0.14c-0.05,0.08 -0.1,0.16 -0.14,0.25 -0.24,0.47 -0.33,0.94 -0.29,1.4 0.03,0.48 0.21,0.94 0.51,1.39 0.7,1.03 1.59,1.32 2.38,1.22 0.31,-0.05 0.6,-0.15 0.85,-0.3 0.26,-0.14 0.48,-0.33 0.65,-0.54 0.35,-0.44 0.47,-0.97 0.21,-1.44 -0.07,-0.1 -0.04,-0.07 -0.13,-0.16 -0.25,-0.25 -0.49,-0.28 -0.73,-0.3 -0.12,-0.01 -0.25,-0.02 -0.37,-0.07 -0.13,-0.04 -0.13,-0.27 -0.13,-0.41 0,-0.29 0.01,-0.5 0.08,-0.66 0.07,-0.17 0.21,-0.3 0.46,-0.42 0.48,-0.24 1.13,-0.3 1.77,-0.23 0.71,0.08 1.4,0.31 1.87,0.63 0.56,0.38 0.98,1.03 1.15,1.73 0.16,0.65 0.11,1.35 -0.25,1.89 -0.07,0.11 -0.15,0.21 -0.24,0.3 -0.09,0.08 -0.2,0.16 -0.31,0.22 -0.36,0.21 -0.81,0.21 -1.24,0.22 -0.38,0 -0.74,0 -1.01,0.15l-0.19 0.11 -0.14 0.25c-0.31,0.61 -0.16,1.29 0.21,1.9 0.36,0.59 0.93,1.11 1.45,1.4l0.11 0.06c0.45,0.23 0.93,0.38 1.42,0.45 0.48,0.06 0.98,0.04 1.47,-0.06l0.06 -0.02c1.39,-0.31 2.48,-1.2 3.15,-2.34 0.67,-1.15 0.92,-2.56 0.63,-3.92l-0.02 -0.06c-0.23,-1.05 -0.79,-2 -1.54,-2.81 -0.7,-0.75 -1.56,-1.37 -2.48,-1.82zm-62.43 -7.22c0.09,0.04 0.18,0.08 0.26,0.1 0.03,0.04 0.05,0.07 0.07,0.11 0.07,0.1 0.13,0.19 0.2,0.29 0.49,0.68 1.09,1.37 1.69,1.96 0.44,0.41 1.29,1.14 1.85,1.32 0.22,0.07 1.01,0.04 1.28,0.04 0.32,0 0.57,-0.25 0.59,-0.55l0 -10.35 0 -10.35c-0.02,-0.3 -0.27,-0.55 -0.59,-0.55 -0.27,0 -1.06,-0.03 -1.28,0.04 -0.56,0.18 -1.41,0.91 -1.85,1.33 -0.6,0.58 -1.2,1.27 -1.69,1.95 -0.07,0.1 -0.13,0.19 -0.2,0.29 -0.04,0.07 -0.09,0.14 -0.13,0.21l-2.5 14.16c1.15,0.53 2.3,0 2.3,0zm-5.17 0l2.5 -14.16c1.15,-0.53 2.3,0 2.3,0l-2.5 14.16c0,0 -1.15,0.53 -2.3,0zm-2.87 0l2.5 -14.16c1.15,-0.53 2.3,0 2.3,0l-2.5 14.16c0,0 -1.15,0.53 -2.3,0zm-2.87 0l2.5 -14.16c1.15,-0.53 2.3,0 2.3,0l-2.5 14.16c0,0 -1.15,0.53 -2.3,0zm-2.87 0l2.5 -14.16c1.15,-0.53 2.3,0 2.3,0l-2.5 14.16c0,0 -1.15,0.53 -2.3,0zm-2.87 0l2.5 -14.16c1.15,-0.53 2.3,0 2.3,0l-2.5 14.16c0,0 -1.15,0.53 -2.3,0zm-2.87 0l2.5 -14.16c1.15,-0.53 2.3,0 2.3,0l-2.5 14.16c0,0 -1.15,0.53 -2.3,0zm-2.87 0l2.5 -14.16c1.15,-0.53 2.3,0 2.3,0l-2.5 14.16c0,0 -1.15,0.53 -2.3,0zm-0.37 -14.16c1.15,-0.53 2.3,0 2.3,0l-2.5 14.16c-0.04,0.07 -0.09,0.14 -0.13,0.21 -0.07,0.1 -0.13,0.19 -0.2,0.29 -0.49,0.68 -1.09,1.37 -1.69,1.96 -0.44,0.41 -1.29,1.14 -1.85,1.32 -0.22,0.07 -1.01,0.04 -1.28,0.04 -0.32,0 -0.57,-0.25 -0.59,-0.55l0 -10.35 0 -10.35c0.02,-0.3 0.27,-0.55 0.59,-0.55 0.27,0 1.06,-0.03 1.28,0.04 0.56,0.18 1.41,0.91 1.85,1.33 0.6,0.58 1.2,1.27 1.69,1.95 0.07,0.1 0.13,0.19 0.2,0.29 0.02,0.04 0.05,0.08 0.07,0.12 0.17,0.05 0.26,0.09 0.26,0.09zm-62.43 21.38l-0.14 0.03c-0.2,0.04 -0.4,0.07 -0.59,0.13 -0.23,0.06 -0.46,0.15 -0.69,0.24 -0.13,0.05 -0.25,0.1 -0.37,0.15 -0.55,0.2 -1.18,0.54 -1.79,0.93 -0.67,0.43 -1.31,0.93 -1.78,1.37 -0.5,0.47 -0.99,1.05 -1.4,1.68 -0.38,0.58 -0.7,1.21 -0.91,1.83 -0.25,0.76 -0.45,1.76 -0.49,2.74 -0.03,0.79 0.05,1.55 0.3,2.16 0.26,0.61 0.66,1.19 1.17,1.63 0.47,0.41 1.03,0.69 1.64,0.79 0.39,0.06 0.79,0.1 1.17,0.07 0.38,-0.02 0.76,-0.1 1.13,-0.26 0.08,-0.03 0.2,-0.11 0.32,-0.2 0.15,-0.11 0.29,-0.23 0.36,-0.31 0.11,-0.11 0.2,-0.26 0.29,-0.42 0.1,-0.17 0.2,-0.35 0.35,-0.49l0.27 -0.26 0.37 0.06c0.28,0.04 0.58,0.25 0.83,0.51 0.33,0.33 0.61,0.77 0.75,1.09 0.4,0.91 0.38,1.94 0.07,2.9 -0.34,1.05 -1.02,2.01 -1.85,2.63 -0.55,0.42 -1.11,0.76 -1.7,1 -0.59,0.25 -1.23,0.4 -1.93,0.41 -0.82,0.02 -1.44,-0.01 -2.04,-0.15 -0.6,-0.14 -1.17,-0.38 -1.9,-0.76 -0.84,-0.45 -1.62,-1.13 -2.27,-1.92 -0.7,-0.84 -1.26,-1.81 -1.59,-2.75 -0.05,-0.11 -0.08,-0.23 -0.12,-0.35 -0.04,-0.15 -0.09,-0.3 -0.14,-0.44 -0.46,-1.17 -0.4,-2.58 -0.34,-3.85l0.03 -0.54c0.02,-0.57 0.13,-0.98 0.26,-1.44 0.05,-0.17 0.1,-0.35 0.14,-0.54 0.12,-0.49 0.32,-0.94 0.52,-1.39l0.13 -0.3c0.96,-2.21 2.57,-4.01 4.51,-5.41 2.26,-1.64 4.96,-2.75 7.57,-3.36 0.84,-0.19 1.75,-0.36 2.66,-0.47 0.82,-0.11 1.65,-0.17 2.42,-0.17 1.6,0.01 3.04,0.29 4.57,0.6l0.43 0.09c0.4,0.07 0.83,0.2 1.24,0.33 0.16,0.05 0.31,0.1 0.47,0.14l0.41 0.13 -0.07 -0.13c-0.05,-0.08 -0.08,-0.15 -0.11,-0.2 -0.47,-1.1 -0.59,-2.16 -0.38,-3.15 0.21,-0.98 0.77,-1.9 1.65,-2.7 0.61,-0.56 1.3,-0.9 2.02,-1 0.73,-0.11 1.49,0.02 2.25,0.37 0.34,0.16 0.67,0.37 0.95,0.64 0.27,0.24 0.49,0.53 0.65,0.84 0.22,0.44 0.39,0.96 0.38,1.46 0,0.41 -0.12,0.8 -0.42,1.13l-0.19 0.21 -0.27 0.03c-0.31,0.05 -0.54,-0.04 -0.76,-0.14 -0.13,-0.05 -0.25,-0.1 -0.39,-0.12 -0.28,-0.05 -0.52,-0.04 -0.72,0 -0.31,0.06 -0.55,0.22 -0.72,0.43 -0.17,0.22 -0.28,0.5 -0.33,0.81 -0.07,0.38 -0.05,0.81 0.04,1.23 0.04,0.17 0.13,0.35 0.24,0.52 0.15,0.23 0.34,0.44 0.51,0.61 0.69,0.69 1.81,1.18 3.02,1.49 1.46,0.37 3.05,0.47 4.19,0.33l0.28 -0.03c0.56,-0.06 1.18,-0.13 1.68,-0.32l0.36 -0.13c0.43,-0.15 0.85,-0.3 1.24,-0.54 0.51,-0.32 0.89,-0.61 1.2,-0.97 0.31,-0.35 0.54,-0.77 0.75,-1.33 0.09,-0.22 0.14,-0.51 0.16,-0.81 0.02,-0.37 0,-0.75 -0.03,-1.05 -0.03,-0.25 -0.09,-0.47 -0.18,-0.67 -0.09,-0.21 -0.21,-0.4 -0.39,-0.57 -0.25,-0.26 -0.51,-0.44 -0.81,-0.56 -0.29,-0.11 -0.61,-0.17 -0.96,-0.18 -0.18,0 -0.42,0.03 -0.66,0.06 -0.37,0.04 -0.77,0.09 -1.01,0.02l-0.26 -0.06 -0.16 -0.21c-0.31,-0.4 -0.36,-0.93 -0.27,-1.46 0.12,-0.68 0.49,-1.37 0.84,-1.82 0.29,-0.36 0.62,-0.65 1,-0.9 0.37,-0.24 0.77,-0.44 1.18,-0.61 0.51,-0.21 1.05,-0.3 1.59,-0.32 0.53,-0.01 1.08,0.05 1.6,0.17 1.31,0.28 2.48,1.14 3.32,2.27 0.86,1.17 1.37,2.62 1.31,3.99 -0.1,2.58 -1.32,4.57 -3.11,6.01 -1.97,1.58 -4.62,2.48 -7.19,2.72 0.14,0 0.28,0 0.42,0 0.16,0.01 0.32,0.01 0.49,0.01 1.24,-0.01 2.51,-0.18 3.76,-0.47 1.34,-0.3 2.65,-0.75 3.86,-1.29 0.59,-0.26 1.2,-0.58 1.79,-0.93 0.62,-0.36 1.22,-0.76 1.75,-1.17 1.48,-1.1 2.82,-2.57 3.84,-4.22 0.95,-1.54 1.61,-3.25 1.82,-4.98 0.18,-1.42 0.25,-2.38 0.18,-3.32 -0.07,-0.95 -0.27,-1.89 -0.63,-3.28 -0.18,-0.72 -0.67,-1.58 -1.05,-2.28l-0.12 -0.21c-0.18,-0.32 -0.41,-0.64 -0.66,-0.95 -0.3,-0.37 -0.64,-0.73 -0.96,-1.04 -0.65,-0.63 -1.42,-1.2 -2.25,-1.65 -0.77,-0.41 -1.59,-0.71 -2.42,-0.85 -1.02,-0.16 -2.24,-0.23 -3.37,-0.04 -0.88,0.16 -1.71,0.47 -2.35,1.03 -0.32,0.28 -0.59,0.6 -0.81,0.95 -0.21,0.32 -0.36,0.68 -0.46,1.07 -0.1,0.42 -0.12,0.93 -0.05,1.43 0.06,0.46 0.19,0.91 0.4,1.27 0.1,0.16 0.2,0.31 0.33,0.44 0.12,0.13 0.26,0.24 0.41,0.35l0.18 0.11c0.3,0.19 0.59,0.37 0.69,0.77 0.06,0.26 0.02,0.49 -0.09,0.69 -0.1,0.2 -0.26,0.38 -0.43,0.54 -0.29,0.28 -0.62,0.51 -0.98,0.7 -0.35,0.17 -0.72,0.3 -1.12,0.37 -1.27,0.21 -2.49,-0.15 -3.54,-0.84 -1.2,-0.79 -2.16,-2.02 -2.7,-3.28 -0.47,-1.13 -0.62,-2.26 -0.51,-3.38 0.13,-1.21 0.56,-2.41 1.21,-3.54 0.47,-0.81 1.14,-1.55 1.91,-2.19 0.83,-0.7 1.78,-1.27 2.71,-1.67 0.33,-0.14 0.92,-0.35 1.46,-0.52 0.41,-0.12 0.79,-0.22 1.04,-0.23l0.31 -0.03c1.42,-0.09 3.26,-0.22 4.54,0.23 0.11,0.04 0.24,0.07 0.36,0.09 0.14,0.03 0.29,0.06 0.43,0.11l0.37 0.14c0.61,0.22 1.19,0.44 1.79,0.71 0.46,0.2 0.89,0.45 1.31,0.72 0.41,0.27 0.81,0.57 1.21,0.87 1.28,0.95 2.26,2.02 3.08,3.2 0.82,1.18 1.49,2.48 2.13,3.9 0.35,0.78 0.52,1.48 0.69,2.23 0.07,0.28 0.14,0.58 0.22,0.89 0.33,1.25 0.33,2.52 0.33,3.81 0,0.33 0,0.66 -0.01,0.99 -0.02,0.33 -0.04,0.65 -0.09,0.98 -0.07,0.49 -0.17,0.98 -0.27,1.46l-0.05 0.24c-0.38,1.81 -1.22,3.66 -2.32,5.33 -1.17,1.79 -2.64,3.4 -4.19,4.59 -0.76,0.6 -1.7,1.23 -2.66,1.79 -0.84,0.48 -1.69,0.9 -2.48,1.19l-0.48 0.17c-0.85,0.3 -1.69,0.61 -2.58,0.81 -1.93,0.44 -3.68,0.65 -5.43,0.65 -1.75,-0.01 -3.51,-0.22 -5.43,-0.64 -0.27,-0.06 -0.53,-0.12 -0.79,-0.19 -0.26,-0.06 -0.52,-0.13 -0.78,-0.2l-0.22 -0.06c-0.47,-0.12 -0.97,-0.26 -1.41,-0.43 -0.45,-0.17 -0.92,-0.32 -1.4,-0.47 -0.51,-0.16 -1.03,-0.32 -1.53,-0.52 -0.37,-0.15 -1.33,-0.46 -2.36,-0.75 -0.79,-0.22 -1.62,-0.44 -2.26,-0.58l0.08 0.14c0.05,0.08 0.1,0.16 0.14,0.25 0.24,0.47 0.33,0.94 0.29,1.4 -0.03,0.48 -0.21,0.94 -0.51,1.39 -0.7,1.03 -1.59,1.32 -2.38,1.22 -0.3,-0.05 -0.6,-0.15 -0.85,-0.3 -0.26,-0.14 -0.48,-0.33 -0.65,-0.54 -0.35,-0.44 -0.47,-0.97 -0.2,-1.44 0.06,-0.1 0.03,-0.07 0.12,-0.16 0.25,-0.25 0.49,-0.28 0.73,-0.3 0.12,-0.01 0.25,-0.02 0.37,-0.07 0.13,-0.04 0.13,-0.27 0.13,-0.41 0,-0.29 -0.01,-0.5 -0.08,-0.66 -0.07,-0.17 -0.21,-0.3 -0.46,-0.42 -0.48,-0.24 -1.13,-0.3 -1.77,-0.23 -0.71,0.08 -1.4,0.31 -1.87,0.63 -0.56,0.38 -0.97,1.03 -1.15,1.73 -0.16,0.65 -0.11,1.35 0.25,1.89 0.07,0.11 0.15,0.21 0.24,0.3 0.09,0.08 0.2,0.16 0.31,0.22 0.36,0.21 0.81,0.21 1.24,0.22 0.38,0 0.74,0 1.01,0.15l0.19 0.11 0.14 0.25c0.31,0.61 0.16,1.29 -0.21,1.9 -0.36,0.59 -0.93,1.11 -1.45,1.4l-0.11 0.06c-0.45,0.23 -0.93,0.38 -1.42,0.45 -0.48,0.06 -0.98,0.04 -1.47,-0.06l-0.06 -0.02c-1.39,-0.31 -2.48,-1.2 -3.15,-2.34 -0.67,-1.15 -0.92,-2.56 -0.63,-3.92l0.02 -0.06c0.23,-1.05 0.8,-2 1.54,-2.81 0.7,-0.75 1.56,-1.37 2.48,-1.82zm82.5 -63.25c0.83,0.98 6.51,1.85 8.04,2.11 3.38,0.56 6.11,0.2 9.24,-0.63 2.62,-0.69 4.48,-2.49 5.04,-5.1 1.76,-8.18 3.99,-16.7 5.87,-24.91l3.96 -16.5c1.23,-0.38 1.97,-0.17 3.19,0.21 1.55,0.48 8.95,1.98 9.37,2.42 0.57,0.6 -1.5,8.12 -1.79,9.29 -0.78,3.11 -1.45,6.27 -2.23,9.39 -0.77,3.12 -1.47,6.26 -2.23,9.39 -0.35,1.48 -1.73,8.48 -2.47,9.16 -1.34,0.39 -3.15,-1 -4.38,0.2 -0.34,0.33 -0.99,3.82 -1.17,4.55 -0.36,1.49 -0.75,3 -1.08,4.49 -0.41,1.89 -1,2.79 1.27,3.61l9.11 2.18c1.9,0.45 7.98,2.26 9.49,1.62 0.3,-0.23 3.1,-11.41 2.71,-12.16 -0.92,-1.16 -4.22,-0.57 -3.78,-2.77 0.37,-1.82 0.97,-3.71 1.37,-5.55 0.76,-3.6 1.68,-7.42 2.59,-10.99 0.23,-0.94 4.38,-18.96 4.67,-19.23 0.96,-0.86 4.31,1.55 4.93,-1.13l1.96 -8.35c0.64,-2.63 0.87,-3.28 -2.11,-3.84 -1.81,-0.34 -3.73,-0.91 -5.55,-1.32l-33.1 -7.84c-0.71,-0.18 -1.3,-0.34 -1.8,-0.45l-1.33 0c-0.52,0.22 -0.86,0.83 -1.17,2.13 -0.44,1.85 -0.86,3.72 -1.31,5.56 -0.3,1.23 -1.5,4.34 -0.36,5.11 1.62,1.08 4.01,0.03 3.12,3.06 -1.02,3.47 -1.74,7.54 -2.63,11.11 -1.81,7.33 -3.34,14.82 -5.23,22.11 -0.77,2.97 -6.02,0.91 -7.55,0.7 -0.79,-0.11 -1.97,0.43 -2.31,1.06 -0.21,0.42 -0.52,2.22 -0.66,2.78 -0.23,0.92 -0.49,1.81 -0.69,2.75 -0.35,1.63 -1.18,4.25 -1,5.78zm-72.3 -40.18c0.71,0.92 0.53,0.97 0.73,2.05 0.84,4.32 3.09,12.42 3.72,16.26 0.34,2.05 4.29,18.35 4.08,18.77 -1.28,1.13 -4.34,0.61 -3.84,3.24 0.38,2.02 0.88,4.03 1.35,6.03 1.68,7.22 -0.58,5.22 14.08,2.31l11.89 -2.68c3.03,-0.77 12.65,-2.67 14.77,-3.4 1.17,-0.4 0.88,-1.49 0.62,-2.56 -0.46,-1.93 -0.95,-3.94 -1.33,-5.87 -0.4,-2 -0.97,-3.98 -1.36,-6 -0.39,-1.95 -0.91,-3.94 -1.34,-5.86 -0.26,-1.17 -0.28,-1.6 -1.6,-2.01 -1.79,-0.54 -4.26,0.03 -5.66,1.33 -1.39,1.28 -0.43,2.85 0.13,5.67 0.2,0.98 0.61,2.13 0.66,3.14 -1,1.27 -2.16,1.09 -3.62,1.45 -2.64,0.67 -10.63,2.62 -12.93,2.62 -0.39,-0.59 -0.71,-2.93 -0.92,-3.83 -0.43,-1.88 -2.82,-11.52 -2.41,-12.1 0.61,-0.48 3.41,-1.11 4.19,-0.8 0.72,0.36 1.47,4.98 1.72,5.97 0.59,2.37 4.01,1.72 5.71,1.05 2.95,-1.18 2.28,-2.55 1.63,-5.11 -0.99,-3.91 -1.89,-8.88 -2.88,-12.84 -0.63,-2.53 -0.26,-4.28 -3.61,-4.26 -1.67,0.01 -4.98,0.8 -4.92,2.95 0.04,1.31 1.53,5.61 1.2,6.43 -0.5,0.81 -3.35,1.45 -4.31,0.96 -0.64,-0.34 -1.13,-3.58 -1.33,-4.4 -0.74,-3.06 -1.32,-6.18 -2.06,-9.24 -0.64,-2.62 -0.67,-2.22 4.32,-3.3 2.82,-0.61 9.65,-2.39 11.86,-2.39 1.36,2.95 0.82,7.83 3.12,8.66 1.67,0.61 3.18,0.32 4.74,-0.47 2.88,-1.48 1.6,-3.58 0.42,-8.61l-2.16 -9.63c-0.21,-1.07 -0.69,-3.96 -1.41,-4.64 -0.68,-0.31 -6.3,1.01 -7.34,1.27 -5.36,1.34 -12.02,2.71 -17.61,4l-7.1 1.58c-1.16,0.23 -2.42,0.58 -3.6,0.82 -5.12,1.01 -4.86,1.11 -4.2,3.68l1.59 7.09c0.78,5.11 1.88,2.32 5.01,2.67zm240.02 89.27c-0.69,0.91 -6.86,3.58 -8.28,4.31 -2.44,1.26 -25.19,12.67 -25.7,12.58 -1.16,-0.64 -1.13,-2.07 -2.03,-2.71 -1.42,-1.01 -2,-0.26 -3.38,0.43 -2.18,1.09 -4.33,2.12 -6.47,3.2 -2.87,1.45 -2.54,1.05 -0.19,5.75 1.07,2.15 2.14,4.29 3.22,6.44l9.58 19.39c1.09,2.15 1.98,4.47 3.35,6.47 1.56,0 2.65,-0.84 4.48,-1.75l12.72 -6.27c1.97,-0.99 2.97,-0.92 2.78,-3.44 -0.12,-1.63 -1.09,-3.06 -2.25,-4.13 -1.51,-1.38 -2.99,-0.12 -4.52,0.64 -5.63,2.82 -4.16,3.41 -8.57,-5.4 -0.64,-1.29 -1.31,-2.62 -1.87,-3.85 -0.97,-2.15 -1.62,-2.52 -1.41,-4.24l14.31 -6.89c1.14,0.69 2.04,2.74 2.2,4.08 -0.92,1.21 -3.96,2.2 -5.36,3 -1.15,0.65 -1.47,1.11 -1.12,2.95 0.22,1.11 0.64,2 1.34,2.92 1.95,2.58 3.17,1.47 5.52,0.19 1.68,-0.93 3.86,-1.87 5.71,-2.8 1.87,-0.93 3.71,-1.85 5.57,-2.78 2.6,-1.3 4.26,-1.21 3.49,-4.58 -0.35,-1.52 -2.25,-4.81 -4.18,-3.97 -1.44,0.64 -4.41,2.6 -5.91,2.6 -0.49,-0.09 -2.65,-3.32 -1.53,-4.47 0.38,-0.39 13.41,-6.76 13.99,-6.84 1.08,0.85 4.9,8.89 5.86,11.01 1.99,4.43 3.08,4.04 -2.39,6.41 -3.2,1.38 -4.39,1.98 -3.18,5.37 0.41,1.16 1.81,3.13 3.14,3.25 0.92,0.09 9.65,-4.5 10.91,-5.13 2.69,-1.34 6.25,-2.83 8.57,-4.36 0,-1.8 -1.25,-3.39 -1.95,-4.93 -0.68,-1.52 -1.48,-3.07 -2.26,-4.62l-11.4 -22.97c-0.47,-1.07 -1.67,-3.85 -2.57,-4.47 -0.82,-0.25 -11.05,5.16 -11.18,5.37 -0.64,1.02 1.29,2.62 0.96,4.24zm-356.4 11.01c3.17,0.77 18.68,6.43 19.98,6.55l-3.6 6.55c-0.47,-0.13 -16.06,-12.62 -16.38,-13.1zm-16.21 -2.1l0 -0.83c0.12,-0.36 0.36,-0.8 0.73,-1.42 1.41,-2.33 2.64,-4.9 4.01,-7.28 0.98,-1.69 2.54,-0.8 4.13,-0.33l13.07 3.62c5.87,1.53 11.73,3.41 17.59,4.84 1.76,0.43 17.24,4.88 17.57,4.76 0.97,-0.8 0.84,-2.53 2.49,-3.24 0.95,-0.4 3.04,0.98 3.91,1.53 2.41,1.49 4.93,2.5 7.24,4.22 0,1.31 -1.42,3.69 -2.13,4.91l-6.11 11.07c-0.49,0.93 -0.94,1.3 -1.42,2.02 -1.52,0 -2.49,-0.7 -4.09,-1.64 -0.96,-0.56 -6.81,-3.51 -6.99,-4.14 -0.56,-1.87 1.25,-3.01 1.21,-4.16 -0.25,-0.19 -4.31,-1.52 -5.09,-1.78 -1.45,-0.48 -3.69,-1.08 -5.04,-1.71l-4.52 8.24 8.42 6.8c0.73,-0.91 1.51,-3.43 2.98,-3.38 0.58,0.03 7.05,3.79 8.21,4.39 1.56,0.81 2.97,1.46 1.86,3.5 -1.33,2.42 -7.96,14.8 -9.11,15.93 -1.71,0.2 -2.62,-0.8 -4.11,-1.54 -1.08,-0.53 -6.67,-3.53 -7.1,-4.2 -0.67,-1.06 1.07,-2.97 1.34,-3.82 0.23,-0.73 -2.04,-2.37 -2.65,-2.88 -1.79,-1.49 -7.24,-6.86 -8.72,-7.97l-11.75 -10.68c-3.85,-3.63 -7.84,-7.11 -11.7,-10.73 -0.97,-0.9 -2.1,-1.75 -3.04,-2.69 -0.62,-0.64 -1.03,-1.02 -1.19,-1.41zm298.15 -34.88c0.96,-1.64 11.46,-14.3 11.81,-14.4 0.84,-0.22 7.01,5.12 7.93,6.47 2.33,3.41 -0.39,4.71 -3.6,8.98 -1.02,1.34 -2.24,2.61 -3.24,3.96 -2.73,3.64 -6.34,1.27 -9.23,-1.45 -1.44,-1.36 -2.63,-1.78 -3.67,-3.56zm-21.2 -0.75c-0.37,1.82 2.4,3.35 3.65,4.4 1.47,1.25 3,2.48 4.51,3.68 4.78,3.77 13.67,11.88 18.75,13.99 1.99,0.83 4.79,1.5 6.9,0.91 2.12,-0.6 3.27,-2.1 4.63,-3.72 1.64,-1.97 9.86,-12.24 11.07,-13.48 1.6,-1.64 2.43,-3.61 2.08,-5.93 -0.99,-6.59 -5.83,-10.13 -10.53,-14.02 -5.84,-4.84 -5.49,-2.55 -0.15,-9.27 0.68,-0.87 1.34,-1.68 2.05,-2.53 0.48,-0.58 1.67,-2.22 2.16,-2.59 2.88,0.78 2.88,3.94 5.65,0.24 6.04,-8.07 8.01,-6.9 3.74,-10.58l-10.34 -8.48c-2.96,-2.34 -2.9,-2.73 -5.44,0.49 -1.38,1.75 -2.91,3.44 -4.3,5.2 -0.74,0.94 -1.91,1.86 -0.72,2.97 0.51,0.47 2.17,1.89 2.03,2.58 -0.11,0.55 -18.05,21.98 -21.14,25.85 -0.7,0.88 -1.41,1.75 -2.11,2.63 -1.02,1.26 -2.14,0.08 -3.05,-0.6 -1.55,-1.15 -1.84,-0.7 -2.91,0.54l-5.31 6.47c-0.47,0.56 -0.84,0.8 -1.22,1.25zm-214.72 -22.33c0.23,-0.95 0.92,-1.65 1.73,-2.19 1.2,-0.81 1.35,-1.05 2.86,-1.09 1.87,2.39 3.71,5.02 5.58,7.51l4.2 5.62c0.48,0.72 1.04,1.3 1.48,1.97 0.82,1.24 1.89,2.57 2.79,3.76l5.65 7.6c3.16,4.24 3.5,3.52 1.06,5.43 -2.15,1.67 -0.87,2.49 1.71,5.88 0.9,1.19 1.89,2.43 2.74,3.64 1.16,1.67 1.8,2.74 3.96,1.02l11.07 -8.41c0.63,-0.47 1.24,-0.93 1.86,-1.41 1,-0.77 0.92,-1.17 0.97,-2.34 -1.61,-2 -3.1,-4.12 -4.65,-6.16 -0.69,-0.91 -1.56,-2.61 -2.74,-2.67 -1.76,-0.11 -2.04,1.63 -3.89,1.44 -0.85,-0.89 -2.04,-2.68 -2.82,-3.72 -0.92,-1.26 -1.89,-2.49 -2.78,-3.77 -1.75,-2.51 -3.92,-4.95 -5.6,-7.49l-2.8 -3.75c-0.95,-1.25 -1.87,-2.48 -2.8,-3.75 -0.79,-1.05 -5.33,-6.94 -5.5,-7.6 -0.11,-1.26 3.32,-3.81 4.54,-3.22 1.43,1.41 2.96,3.89 4.27,5.55 0.9,1.16 2.54,0.51 3.63,-0.03 1.09,-0.54 1.94,-1.35 2.56,-2.36 1.38,-2.26 -0.44,-2.87 -2.59,-6.12l-8.45 -11.35c-1.79,-2.25 -2.23,-1.24 -5.83,1.43 -8.33,6.19 -17.12,12.99 -25.38,18.99 -0.49,0.35 -0.99,0.8 -1.08,1.38 -0.14,0.9 0.22,1.12 0.7,1.75 1.44,1.89 2.86,3.79 4.28,5.7l6.32 8.42c0.87,1.24 1.37,2.03 3.09,1.45 1.15,-0.38 2.32,-0.97 3.06,-1.85 0.78,-0.92 1.73,-2.16 0.93,-3.41 -0.74,-1.14 -3.92,-4.97 -4.13,-5.85zm-10.57 131.04c-0.53,0.53 -1.26,0.86 -2.08,0.86l-97.32 0 0.01 -0.07c0.09,-0.96 0.19,-1.92 0.3,-2.88 0.1,-0.96 0.22,-1.92 0.33,-2.87l0.01 -0.05c2.62,-21.29 7.97,-41.74 15.69,-60.98 7.93,-19.76 18.35,-38.25 30.88,-55.07l0.11 -0.15c6.19,-8.29 12.89,-16.18 20.06,-23.62 7.21,-7.48 14.89,-14.51 23,-21.03 6.52,-5.25 13.31,-10.17 20.35,-14.73 6.93,-4.5 14.11,-8.65 21.5,-12.44l0.24 -0.13c16.96,-8.67 35.07,-15.43 54.04,-19.98 18.42,-4.42 37.65,-6.76 57.42,-6.76 19.77,0 39,2.34 57.42,6.76 18.97,4.55 37.08,11.31 54.04,19.98l0.24 0.13c7.39,3.79 14.57,7.94 21.5,12.44 7.04,4.56 13.83,9.48 20.35,14.73 9.84,7.92 19.06,16.58 27.57,25.9 8.44,9.25 16.19,19.16 23.15,29.63l0.11 0.17c10.37,15.62 19,32.5 25.61,50.36 6.44,17.42 10.96,35.76 13.3,54.79l0.01 0.05c0.11,0.95 0.23,1.91 0.33,2.87 0.11,0.96 0.21,1.92 0.3,2.88l0.01 0.07 -97.32 0c-0.82,0 -1.55,-0.33 -2.08,-0.86 -0.53,-0.53 -0.86,-1.27 -0.86,-2.08 0,-0.81 0.33,-1.54 0.86,-2.07 0.53,-0.53 1.26,-0.86 2.08,-0.86l90.75 0 -0.14 -1.1 -0.15 -1.17c-2.25,-16.51 -6.17,-32.49 -11.61,-47.75 -5.55,-15.6 -12.68,-30.45 -21.19,-44.37 -12.55,-20.52 -28.1,-39.01 -46.05,-54.85 -17.85,-15.75 -38.08,-28.88 -60.08,-38.79 -15.18,-6.84 -31.2,-12.14 -47.86,-15.7 -16.22,-3.47 -33.04,-5.29 -50.29,-5.29 -17.25,0 -34.07,1.82 -50.29,5.29 -16.66,3.56 -32.68,8.86 -47.86,15.7 -19.84,8.94 -38.23,20.49 -54.75,34.22 -16.62,13.83 -31.34,29.86 -43.71,47.66 -10.65,15.33 -19.55,31.95 -26.42,49.58 -6.71,17.22 -11.48,35.41 -14.05,54.3l-0.15 1.17 -0.14 1.1 90.75 0c0.82,0 1.55,0.33 2.08,0.86 0.53,0.53 0.86,1.26 0.86,2.07 0,0.81 -0.33,1.55 -0.86,2.08z"/>
 </g>
</svg>
