<?xml version="1.0" encoding="UTF-8"?>
<!DOCTYPE svg PUBLIC "-//W3C//DTD SVG 1.1//EN" "http://www.w3.org/Graphics/SVG/1.1/DTD/svg11.dtd">
<!-- Creator: CorelDRAW -->
<svg xmlns="http://www.w3.org/2000/svg" xml:space="preserve" width="165px" height="60px" version="1.1" shape-rendering="geometricPrecision" text-rendering="geometricPrecision" image-rendering="optimizeQuality" fill-rule="evenodd" clip-rule="evenodd"
viewBox="0 0 165 60"
 xmlns:xlink="http://www.w3.org/1999/xlink"
 xmlns:xodm="http://www.corel.com/coreldraw/odm/2003">
 <g id="Слой_x0020_1">
  <metadata id="CorelCorpID_0Corel-Layer"/>
  <path fill="white" d="M0.23 4.76l0.6 0.3c-0.03,0.82 -0.1,0.29 0.03,1.2l-0.48 0.28c0.17,0.61 0.27,0 0.42,0.79l-0.14 0.12c-0.24,0.08 -0.23,0.31 -0.37,0.8 -0.09,0.32 0.09,0.06 -0.13,0.4 -0.03,0.19 -0.11,-0.29 0.01,0.33l0.72 0.76c0.01,0.6 0.12,0.52 -0.16,0.71 -0.3,0.2 -0.58,-0.18 -0.74,0.95l0.77 0.24c0.13,0.2 0.12,-0.35 0.12,0.29l-0.17 0.09 -0.38 0.02 -0.22 0.29 0.14 0.31c0.03,0 0.44,-0.08 0.34,0.23 -0.07,0.19 -0.04,0.18 -0.16,0.33 -0.01,0 -0.16,0.08 -0.19,0.13l0.1 0.35c0.09,0.08 0.11,0.06 0.17,0.28 0.07,0.24 0.04,0.12 0.06,0.46 -0.2,0.49 -0.14,0.19 -0.36,0.48l0.22 0.27c-0.01,0.02 0.03,0.07 0.04,0.11 0.18,0.23 0.31,0.6 0.38,1.23 0.09,0.35 0.09,-0.48 0.08,0.52l-0.24 0.09c-0.25,0.04 -0.44,0.05 -0.59,0.41 0.2,0.19 0.66,0.51 0.75,1.06l-0.67 0.25 0 0.61c0.17,0.17 0.22,0.07 0.37,0.48 0.04,0.79 0.06,0.73 0.23,1.23l0.13 0.46 -0.22 0.19c-0.34,-0.1 -0.57,-0.01 -0.71,0.83 0.19,0.18 0.27,0.1 0.4,0.53 0.09,0.3 0.2,0.61 0.27,0.99l-0.18 0.39c-0.12,0.28 -0.09,-0.47 -0.09,0.36l0.39 0.08c0.09,1.69 -0.42,1.04 -0.72,1.68 0.09,0.63 0.08,0.7 0.38,0.68l0.3 0.2c-0.08,0.55 -0.12,0.41 -0.34,0.41 -0.49,-0.12 -0.43,0.26 -0.44,0.3 0.18,0.23 0.47,0.05 0.67,1.55l-0.51 0.19c-0.07,0.45 -0.05,0.28 -0.12,0.44l0.02 0.39c0.21,0.16 0.27,0.12 0.5,0.2 0.29,0.1 0.27,0.15 0.35,0.81l-0.58 0.17c-0.1,0.26 0.11,0.1 -0.11,0.3 0.21,0.05 0.05,-0.04 0.11,0.27l0.23 0.07c-0.07,0.54 -0.04,0.17 -0.12,0.72 0.08,1.68 0.08,0.86 0.5,1.43 -0.13,0.39 -0.18,0.38 -0.27,1.1l0.23 0.38c0.04,0.18 0.06,-0.25 0.09,0.69l-0.24 0.29c-0.26,0.77 -0.59,-0.14 -0.75,1.05 0.16,0.45 0.21,0.24 0.42,0.43 0.15,0.14 0.23,0.39 0.4,0.58l-0.08 0.68 -0.13 0.77c0.18,-0.06 0.16,-0.07 0.3,0.19 -0.04,0.3 0,0.39 -0.15,0.62 -0.06,0.09 -0.13,0.09 -0.2,0.12 -0.15,0.3 0.19,0.24 -0.18,0.25 0.2,0.22 0.02,-0.03 0.09,0.32l0.23 0.1c0.06,0.85 0.03,0.21 -0.07,0.43l-0.47 0.63c0.07,0.34 -0.17,0.14 0.37,0.46 -0.11,0.32 0.17,0.32 -0.41,0.42 -0.02,0.07 -0.05,0.33 -0.07,0.4l0.34 0.06 0.24 0.25c-0.08,0.43 0.03,0.18 -0.16,0.3l0.02 0.52 0.17 0.05c0.1,0.18 0.11,-0.26 0.09,0.25l-0.14 0.16 -0.12 -0.04c-0.14,0.24 0.19,0.16 -0.19,0.23 0.01,0.03 0.03,0.07 0.04,0.1l0.16 0.46 -0.48 0.89c0.11,1.17 0.21,0.71 0.54,1.23l-0.21 0.43c0.07,0.57 0.14,0.72 0.33,0.9l-0.03 0.34 -0.07 0.35c0.21,0.36 0.14,0.15 0.21,0.53 -0.14,0.4 -0.38,0.41 -0.61,0.46l-0.08 0.07c0.09,0.31 0.06,0.17 0.12,0.56 -0.17,0.26 -0.1,0.01 -0.17,0.5 0.15,0.32 0.57,1.11 0.74,1.14l0.17 0.34 -0.12 0.16c-1.14,0.48 -0.69,0.58 -0.48,1.93 0.25,1.62 1.1,3.05 2.98,2.68 0.78,-0.15 -0.04,-0.54 0.99,-0.23 0.23,0.14 0.33,0.25 0.43,0.49 1.56,-0.1 1.47,-0.15 2.18,-0.05l0.57 0.08c0.01,-0.02 0,-0.22 0,-0.22 0.21,-0.35 0.07,-0.09 0.29,-0.21l0.1 -0.23c0.04,0.01 0.12,0.01 0.14,0.03 0.02,0.02 0.1,0.02 0.13,0.03l0.58 0.23 0.28 0.06c0.12,-0.23 -0.03,-0.03 0.28,-0.11 0.09,-0.22 0.28,-0.22 0.75,-0.32l0.42 0.3c0.87,-0.01 1.01,-0.14 1.55,-0.26 0.31,0.13 0.23,0.11 0.3,0.28 0.07,0.16 0.04,0.19 0.23,0.32 0.53,-0.14 0.14,-0.14 0.53,-0.33 0.3,0.14 0.31,0.38 0.43,0.59 0.79,-0.07 0.21,-0.12 1.16,-0.27 0.28,0.13 0.28,0.07 0.18,0.22 0.65,-0.06 0.23,0.1 0.55,-0.16 0.17,-0.14 -0.24,-0.12 0.26,-0.2l0.01 -0.06 0.56 0.09 0.2 -0.08c0.18,-0.11 -0.31,-0.09 0.36,-0.08l0.26 0.22 -0.05 0.06c0.43,0.04 0.2,0.04 0.52,-0.01 0.21,-0.16 0.1,-0.12 0.68,-0.15 0.33,0.14 0.3,0.29 0.45,0.45 0.93,-0.04 0.76,-0.02 0.95,-0.31 0.93,0.12 0.01,0.1 0.94,0.11l-0.09 -0.24 0.17 -0.39c0.48,0.03 0.25,-0.01 0.42,0.11 0.1,0.33 0.21,0.21 0.34,0.24l0.31 -0.37c1.52,0.18 0.17,0.51 1.63,0.82 0.48,-0.21 0.2,-0.38 0.42,-0.5 0.2,-0.12 0.09,-0.06 0.46,-0.11 0.4,0.09 0.2,-0.06 0.39,0.18l0.62 0.1c-0.03,-0.18 0.23,-0.28 0.75,-0.38l0.61 0.15 0.05 0.33 0.53 0.17c-0.08,-0.13 -0.04,-0.54 0.41,-0.7l0.19 0.41 0.25 0.03 0.24 -0.22 0.13 -0.17c0.7,0.04 0.13,-0.01 0.42,0.11 0.39,-0.02 0.37,-0.05 0.7,-0.09l0.35 0.2c0.06,0 0.31,0.01 0.35,0.01 0.51,0.06 0.37,0.04 0.7,0.39 1.48,-0.05 0.25,-0.2 1.83,-0.21l0.23 -0.26c0.64,0.18 0.15,0.26 0.6,0.5 0.47,-0.21 0.14,-0.53 0.53,-0.73l0.21 0.2 0.32 0.22c0.22,-0.13 0.28,-0.1 0.37,-0.14 0.31,-0.16 0.52,-0.28 1.22,-0.37l0.71 0.21c0.47,0.02 0.25,0.03 0.6,-0.02 0.09,-0.07 -0.3,-0.06 0.28,-0.05l0.3 0.26c0.74,-0.16 0.1,-0.27 1.23,-0.26 0.09,0.21 0.06,0.53 0.41,0.7 0.39,-0.23 0.1,-0.58 0.53,-0.82 1.16,0.31 1.14,0.46 1.57,0.58 0.32,-0.19 0,-0.12 0.58,-0.21 0.22,0.24 -0.01,0.27 0.84,0.33 0.66,-0.19 -0.01,-0.17 1.14,-0.25 0.24,-0.24 0.11,-0.31 0.45,-0.45 0.28,0.16 0.32,0.49 0.34,0.68 0.63,-0.14 0.06,-0.21 0.72,-0.35l0.19 0.13c0.03,0.23 -0.02,0.23 0.33,0.35l0.29 -0.64c0.23,-0.07 -0.4,-0.11 0.36,-0.05l0.14 0.16c0.02,0.27 0.31,0.12 0.42,0.41 0.31,0.06 0.18,0.04 0.64,0.06l0.25 -0.04 0.31 -0.51c0.76,0.12 0.81,0.23 0.9,0.51l0.5 -0.05 0.33 -0.32 0.25 -0.14c0.8,0 0.12,-0.01 0.42,0.08 0.25,0.08 0.46,0.14 0.85,0.19 0.59,-0.35 -0.17,-0.16 0.88,-0.46 0.12,0.03 0.12,0.03 0.26,0.08 0.42,0.17 0.56,0.25 0.54,0.44l0.47 0.05 0.22 -0.42c0.22,0.01 0.44,-0.21 0.98,0.16 0.7,0 0.78,-0.09 0.88,0.2l0.28 0.12c0.05,-0.05 0.04,-0.06 0.09,-0.1 0.25,-0.16 0.05,-0.04 0.23,-0.11l0.06 -0.36c0.6,0.06 0.15,-0.02 0.58,0.21l0.89 -0.02c0.7,0.24 0.23,0.29 1.22,0.41 0.21,-0.09 0.13,-0.04 0.25,-0.15l0.28 -0.2 0.46 0.34c2.27,0.07 0.47,-0.6 2.19,-0.64l0.28 0.52c0.57,-0.07 0.13,0.02 0.6,-0.15l0.47 0.27c0.35,-0.15 0.33,-0.27 0.33,-0.44l0.18 -0.23c0.25,0.07 0.17,-0.07 0.35,0.14 0.05,0.06 0.07,0.18 0.09,0.23 0.3,0.11 0.46,0.1 0.35,0.29l0.57 -0.02c-0.04,-0.26 -0.08,-0.36 0.66,-0.39 0.55,0.21 0.2,0.38 0.53,0.62 0.18,-0.04 0.1,0.02 0.25,-0.07 0.31,-0.19 -0.16,-0.1 0.81,-0.4 0.01,0 0.16,0.01 0.25,0.12 0.08,0.09 0.04,0.12 0.05,0.19l0.33 0.01 0.22 -0.29c-0.04,-0.17 -0.14,-0.11 0.21,-0.25l0.42 0.22c0.34,0.13 0.27,0.15 0.43,0.36l0.44 -0.05c0.02,-0.08 -0.09,-0.02 0.05,-0.12 0.13,-0.1 0.12,-0.06 0.25,-0.1l0.29 0.32 0.41 -0.06c0.01,-0.2 0,-0.28 0.36,-0.41 0.37,0.25 0.63,0.42 1.41,0.54 0.09,-0.03 0.13,-0.03 0.23,-0.1 0.2,-0.16 -0.1,0.05 0.1,-0.13 0.2,-0.18 0.05,-0.14 0.72,-0.17l0.46 0.3c0.36,-0.14 0.33,-0.18 0.42,-0.36l0.29 0.01c0.35,0.07 0.2,-0.12 0.32,0.14 0.26,-0.23 0.13,-0.07 0.32,-0.15l0.19 -0.34c0.25,0.14 0.25,0.15 0.31,0.31 0.09,0.22 -0.03,0.21 0.34,0.31l0.32 -0.2c0.9,-0.05 0.83,-0.14 0.9,-0.26 0.18,-0.12 -0.28,-0.12 0.37,-0.08l0.23 0.3c-0.01,0.16 0.24,0.17 0.77,0.19l0.24 -0.51c0.17,-0.09 -0.34,-0.1 0.34,-0.06l0.35 0.7c0.11,-0.02 0.32,-0.07 0.54,-0.12l0.12 0.01 0.29 -0.49 0.32 0.46c0,0 0.27,0.05 0.3,0.06 0,-0.17 -0.07,0.01 0.2,-0.06 -0.04,-0.21 0,-0.45 0.36,-0.58 0.24,0.14 0.5,0.28 0.63,0.42 0.26,0.26 0.09,0.21 0.78,0.39l0.36 -0.06c0.18,-0.13 0.03,-0.09 0.42,-0.14 0.01,-0.21 0.45,-0.53 0.81,-0.64 0.34,0.21 0.08,0.49 0.53,0.68l0.25 -0.22c0,-0.1 -0.08,-0.08 0.28,-0.06l0.24 0.12c0.1,0.15 -0.13,0.06 0.33,0.12l0.28 -0.29c1.07,-0.04 0.98,-0.04 1.62,-0.26 1.1,0.39 0.29,0.73 1.58,0.76 0.51,-0.27 0.05,-0.32 0.58,-0.38 0.42,0.04 0.21,0.05 0.58,0 0.14,-0.2 0.05,-0.32 0.39,-0.47 0.08,0.05 0.59,0.37 0.66,0.43 0.37,0.31 0.02,0.19 0.79,0.41l0.28 -0.16c0.06,-0.1 0.08,-0.2 0.1,-0.29 0.14,-0.14 -0.26,-0.12 0.33,-0.1l0.26 0.23c0.26,0.12 -0.01,0.08 0.73,0.09l0.21 -0.24c-0.07,-0.27 0.37,0 0.44,0.06 -0.01,0.06 -0.04,0.12 0,0.19 0.09,0.14 0.12,0.11 0.3,0.18 0.62,-0.1 0.72,-0.15 0.73,-0.45l0.1 -0.23c0.55,0.11 0.48,0.14 0.49,0.35l0.03 0.28c0.5,-0.09 0.33,-0.04 0.42,-0.28 0.08,-0.22 -0.01,-0.19 0.31,-0.32l0.16 0.22 0.48 0.03c0.33,-0.12 -0.02,-0.04 0.4,-0.08l0.34 0.47c0.39,-0.06 0.19,-0.19 0.6,-0.4l0.53 0.2c0.57,-0.11 0.96,-0.13 1.41,-0.33 0.19,0.06 0.1,-0.09 0.33,0.17 0.11,0.12 0.04,0.13 0.2,0.25 0.36,-0.07 0.08,0.14 0.34,-0.16 0.1,-0.11 0.13,-0.18 0.24,-0.25 0.14,0.05 0.78,0.38 0.87,0.46 0.72,-0.01 0.34,-0.07 0.88,0 0.38,0.05 0.3,0.08 0.84,0.12 1.29,-0.21 1,-0.19 1.31,-0.65 0.22,-0.32 1.76,-0.22 1.37,0.2 0.04,0.02 0.11,0.01 0.13,0.04 0.02,0.02 0.09,0.02 0.12,0.03 0.05,0.02 0.26,0.08 0.29,0.08l0.1 -0.17 0.16 -0.15c0.9,-0.05 0,-0.02 0.36,0.07l0.74 0.06c0.44,-0.18 0.31,-0.29 1.07,-0.38l0.19 0.39 0.27 0.22c0.01,-0.02 0.05,-0.07 0.07,-0.08 0.22,-0.13 0.08,-0.05 0.23,-0.11 -0.01,-0.17 -0.04,-0.29 0.3,-0.4 0.55,0.41 -0.26,0.34 0.88,0.72l0.53 -0.07c0.54,0.09 0.1,0.05 0.72,0.1 0.18,-0.32 0.53,-0.34 0.63,-0.59 0.06,-0.2 -0.04,-0.07 0.24,-0.12l0.19 0.12c0.11,0.29 -0.02,0.4 0.87,0.47 0.26,-0.18 0.19,-0.34 0.28,-0.44 0.18,-0.2 0.07,-0.08 0.25,-0.14 0.22,0.16 0.16,0.4 0.28,0.51 0.23,0.24 0,0.03 0.25,0.11l0.25 -0.36c0.27,-0.11 -0.46,-0.12 0.43,-0.07 0.46,0.03 0.31,0.06 0.47,0.12l0.11 0.21 0.88 0 0.28 0.17c0.36,-0.09 0.65,-0.21 0.8,-0.36 0.12,-0.12 0.06,-0.21 0.51,-0.34 0.22,-0.06 0.07,-0.02 0.32,-0.06 0.46,0.24 0.69,0.48 0.86,0.77 0.42,-0.14 0.4,-0.24 0.48,-0.49 -0.02,-0.11 -0.11,-0.09 0.25,-0.08l0.23 0.13 0.62 0.17c0.35,-0.14 0.33,-0.15 0.34,-0.33 0.06,-0.08 -0.07,-0.06 0.15,-0.07 0.4,-0.02 0,-0.09 0.3,0.03 0.28,0.27 0.73,0.25 1.02,0.47 0.15,0.06 0.26,-0.01 0.34,0.13 0,-0.27 -0.11,0.01 0.26,-0.1l0.06 -0.25c0.2,-0.2 0.02,-0.03 0.21,-0.12l0.39 0.21c1.51,-0.09 0.21,-0.25 1.55,-0.26 0.69,0.29 -0.14,0.36 1.06,0.55 0.45,-0.18 0.64,-0.57 1.06,-0.76 0.7,0.07 0.8,0.18 1.41,0.38l0.73 -0.06c0.22,0.2 0.47,0.35 0.86,0.54l1.17 -0.23c0.27,-0.31 0.11,-0.4 0.95,-0.56 0.3,0.12 0.11,0.09 0.32,0.22 0.16,0.09 0.32,0.12 0.55,0.2 0.49,0.16 0.52,0.23 1.26,0.34l0.15 -0.38c0.1,-0.29 -0.08,-0.13 0.36,-0.2l0.18 0.22 -0.05 0.11c0.28,0.07 0.19,-0.11 0.24,0.14l0.36 -0.14 0.05 -0.18 0.72 -0.12 0.27 -0.16c0.34,0.04 0.24,-0.08 0.44,0.12 0.09,0.09 0.06,0.2 0.07,0.29l0.12 0.15c1.08,-0.12 0.7,-0.25 0.99,-0.61 0.92,0.06 0.8,0.26 1.01,0.53 0.2,-0.06 0.12,0.05 0.32,-0.13 0.29,-0.26 -0.22,-0.22 0.75,-0.41 0.71,0.1 0.56,0.1 1.06,0.24 0.29,-0.07 0.21,-0.1 0.65,-0.14 0.09,0.21 0.1,0.5 0.41,0.65l0.73 -0.48 0.11 -0.18c0.55,0.08 0.41,0.04 0.44,0.28l0.14 0.45c1.01,-0.08 0.35,-0.06 1.19,0.03 0.32,-0.28 0.43,-0.46 0.92,-0.68 0.2,0.05 0.43,0.13 0.6,0.24l0.24 0.24c0.25,0.2 0,0.02 0.22,0.12l0.34 -0.45c0.1,-0.12 0.06,-0.08 0.26,-0.19l0.46 -0.2c0.67,0.15 0.68,0.2 0.63,0.46 0.23,0.09 0.06,-0.04 0.24,0.14 0.04,0.05 0.09,0.15 0.14,0.21 0.03,-0.19 0.18,-0.14 0.27,-0.17l0.04 -0.29c0,-0.12 -0.11,-0.1 0.27,-0.09l0.19 0.14 0.12 0.15 0.63 -0.11c0.22,-0.21 0.1,-0.24 0.47,-0.39 0.3,0.07 0.1,0 0.27,0.14l0.17 0.69c0.21,-0.06 0.17,0.01 0.34,-0.15 0.04,-0.04 0.09,-0.16 0.12,-0.21 0.15,-0.12 -0.32,-0.09 0.33,-0.09l0.3 0.12c0.47,-0.02 0.02,-0.21 0.58,-0.43 0.21,0.13 0.15,0.15 0.22,0.31 0.01,0.01 0.06,0.13 0.06,0.13 0.15,0.17 0.12,0.1 0.25,0.17 1.08,-0.07 0.48,-0.13 0.77,-0.43 0.11,-0.12 0.15,-0.09 0.29,-0.14 0.62,0.39 1.33,0.86 2.1,0.52 0.37,-0.53 0.16,-0.66 0.78,-0.05 0.82,0.49 2.94,-0.88 2.35,-2.48 -0.23,-0.62 -0.19,-0.24 0.27,-0.71 0.17,-0.21 0.22,-0.5 0.29,-0.75 0.03,-0.12 0.05,-0.25 0.08,-0.37 -0.21,-0.41 -0.26,-0.09 -0.52,-0.71 -0.01,-0.04 -0.05,-0.13 -0.03,-0.15l-0.08 -0.26c0.3,-0.18 0.02,0.07 0.14,-0.33l0.05 -0.24 0.11 0.01c0.2,-0.17 0.1,0.05 0.18,-0.44l-0.2 -0.22 -0.44 -0.1c0.09,-1.48 0.63,-1.02 0.81,-1.7 -0.08,-0.24 0,-0.13 -0.13,-0.32 -0.03,-0.05 -0.12,-0.11 -0.14,-0.13l0.15 -0.38c0.08,-0.15 0.07,0.27 0.06,-0.29 -0.22,-0.1 -0.72,-0.39 -0.78,-1 0.26,-0.11 0.6,-0.06 0.81,-0.4l-0.69 -0.39 0.19 -1.27 0.24 -0.09 0.18 -0.19c-0.08,-0.53 0.06,-0.18 -0.17,-0.53 -0.07,-0.04 -0.05,0.23 -0.05,-0.22 0.19,-0.54 0.07,-0.51 0.2,-0.97 0.24,-0.2 0.14,0.04 0.22,-0.44l-0.17 -0.22c-0.42,0.05 -0.47,-0.15 -0.78,-0.66l0.05 -0.27 0.18 -0.23c0.03,-0.94 0.02,-0.13 -0.07,-0.48l0 -0.79c0.26,-0.34 0.17,-0.23 0.27,-1.06l0.48 -0.23c-0.1,-0.91 -0.34,-1.34 -0.64,-1.55 0.07,-1.15 0.12,-0.47 0.24,-1.21l-0.47 -0.33c0.06,-0.31 0.12,-0.38 0.2,-0.56 -0.01,-0.04 -0.04,-0.11 -0.02,-0.14l-0.07 -0.55 0.77 -0.32c-0.15,-1.34 -0.28,-0.43 -0.58,-1.1 0.18,-0.34 0.29,-0.17 0.47,-0.31 0.26,-0.23 0.04,0 0.13,-0.22 -0.23,-0.37 -0.51,-0.05 -0.7,-0.53l0.23 -0.17 0.33 -0.11c-0.07,-0.57 0.11,-0.21 -0.17,-0.5 -0.17,-0.1 -0.24,-0.28 -0.31,-0.82l0.47 -0.25c0.01,-0.07 0.01,-0.13 0.02,-0.15 0.02,-0.01 0.01,-0.09 0.01,-0.11 0.03,-1.45 0,-0.21 0.06,-1l-0.42 -0.3 -0.19 -0.8 -0.17 -0.31c0.24,-0.31 0.08,-0.07 0.16,-0.35l0.04 0.11c0.09,0 0.16,0.04 0.26,-0.02 0.19,-0.12 0.14,-0.2 0.18,-0.34l-0.23 -0.25c-0.15,-0.01 -0.01,0.13 -0.13,-0.03 -0.11,-0.14 -0.07,-0.12 -0.11,-0.25l0.31 -0.19c0.2,-0.11 0.08,0.19 0.18,-0.33l-0.17 -0.2 -0.32 -0.11c0.02,-1.27 0.15,-0.6 0.45,-1.11 -0.11,-0.29 -0.09,-0.26 -0.27,-0.27l-0.24 -1.09 -0.2 -0.1 0.15 -1.18 0.62 -0.41c-0.28,-0.51 -0.23,0.17 -0.78,-1 0.1,-0.85 0.33,-0.8 0.65,-0.98l0.14 -1.16c-0.3,-0.5 -0.62,0.02 -0.79,-1.06 0.42,-0.41 0.72,0.15 0.9,-1.03l-0.43 -0.4 -0.01 -0.63 0.32 -0.35c-0.19,-0.54 -0.3,-0.17 -0.54,-0.57 0.17,-0.44 0.38,-0.19 0.59,-0.53l-0.27 -0.6c-0.08,-0.23 0.05,-0.12 -0.16,-0.35 -0.09,-0.08 -0.16,-0.06 -0.25,-0.09l0.06 -0.73c0.04,-0.91 -0.09,-0.24 -0.03,-1.34l0.63 -0.4 -0.19 -0.54 0.15 -1.07c-0.3,-1.27 -0.55,-1.08 -0.72,-1.58l0.28 -0.37c-0.02,-0.44 -0.06,-0.44 -0.02,-0.75l0.1 -0.54 -0.2 -0.23c0.07,-1.22 0.46,-1.25 0.75,-1.59 -0.09,-1.37 -0.27,-0.41 -0.43,-1.06 -0.08,-0.75 0.22,0.08 -0.04,-0.83 -0.36,-1.23 -0.22,-2.34 -1.88,-2.79 -0.53,-0.14 -0.89,-0.09 -1.4,0.07 -0.09,0.03 -0.17,0.06 -0.25,0.09 -0.09,0.03 -0.18,0.06 -0.27,0.08 -0.38,-0.9 -0.13,-0.79 -0.87,-0.69 -0.03,-0.02 -0.1,0.01 -0.14,0.02 -0.18,-0.08 -0.24,-0.14 -0.56,-0.2l-0.32 0.47c-0.75,-0.12 -0.07,-0.17 -1.22,-0.24 -0.21,0.3 -0.64,0.54 -1.55,0.64l-0.23 -0.48c-0.83,-0.1 -0.72,-0.01 -1.06,-0.27l-0.79 0c-0.35,0.09 0.46,0.1 -0.48,0.07l-0.23 -0.18 -0.27 -0.05c-0.51,0.31 -0.71,0.36 -0.67,0.78l-0.21 0.17c-0.48,-0.08 -0.24,0.02 -0.44,-0.22 -0.46,-0.13 -0.43,-0.01 -0.97,-0.2 -0.45,0 -0.19,-0.02 -0.22,0.05 -0.35,0.23 0,0.09 -0.53,0.17l-0.19 -0.18 -0.09 -0.24 -1.28 -0.19 -0.38 0.69c-0.35,-0.21 -0.3,-0.55 -0.4,-0.81 -0.61,0.06 -0.9,0.56 -1,0.78 -0.57,0.01 -0.14,0.02 -0.29,-0.06l-0.39 -0.15c-0.01,0.02 -0.07,0.11 -0.12,0.14 -0.19,0.13 -0.09,0.05 -0.32,0.13 -0.68,-0.18 -0.22,-0.72 -1.7,-0.81l-0.1 0.44 -0.23 0.2c-0.49,-0.08 -0.26,0.02 -0.44,-0.18l0.02 -0.11 -0.24 -0.05c-0.4,-0.12 -0.15,0.16 -0.33,-0.14l-0.26 0.08c-0.02,-0.02 -0.11,0.02 -0.15,0.03 -0.63,0.26 -0.31,0.31 -0.71,0.52l-0.87 -0.22c-0.65,-0.19 -0.09,-0.41 -0.72,-0.61 -0.32,0.17 -0.14,0.45 -0.64,0.4 -0.58,0.03 -0.22,-0.03 -0.65,0.08l-0.65 0.4c-0.86,-0.23 -0.56,-0.53 -1.06,-0.85 -0.41,0.09 -0.21,-0.06 -0.34,0.19l-0.83 -0.01 -0.47 0.43 -0.15 -0.39c-0.26,-0.12 -0.13,0.14 -0.25,-0.15l-0.38 0c-0.23,0.15 -0.17,0.04 -0.34,0.18 -0.13,0.1 -0.15,0.2 -0.21,0.29 -0.33,-0.11 -0.31,-0.03 -0.39,-0.33l-0.52 -0.04c0.09,0.13 0.04,0.25 -0.01,0.4 -0.09,0.25 0.03,0.22 -0.52,0.31 -0.42,-0.1 -0.26,0.04 -0.42,-0.22 -0.21,-0.32 0.17,-0.45 -0.82,-0.6 -0.61,0.21 -0.93,0.43 -2.01,0.5l-0.46 -0.21c-0.56,0.08 -0.04,-0.06 -0.53,0.18 -0.69,-0.13 0.03,-0.07 -0.72,-0.19l-0.13 0.3c-0.28,0.1 0.48,0.14 -0.43,0.08l-0.14 -0.24 -0.16 -0.09c-0.59,0.05 -0.57,0.11 -1.13,0.13l-0.46 -0.13c-0.18,0.09 -0.22,0.04 -0.41,0.07 -0.4,-0.1 -0.32,-0.19 -0.51,-0.33 -0.32,0.12 -0.26,0.07 -0.33,0.29l-0.16 0.24c-0.87,0.05 -0.2,0.03 -0.47,-0.08 -0.52,-0.01 -0.24,-0.02 -0.62,0.06l-0.5 -0.13c-0.55,0.1 -0.11,0.05 -0.73,0.14 -0.28,-0.14 -1.16,-0.41 -2.01,-0.39l-0.17 0.52c-0.35,0.09 0.21,0.1 -0.38,0.07l-0.21 -0.15c-0.27,-0.28 -0.36,-0.42 -0.52,-0.71 -0.6,0.13 -0.16,0.02 -0.57,0.24l-1.2 0.01 -0.29 0.6c-0.82,-0.02 -0.29,-0.1 -1.2,0.04l-0.29 -0.49c-0.61,0.18 0.01,0.27 -0.79,0.42l-0.12 -0.14c-0.08,-0.24 -0.31,-0.23 -0.8,-0.37 -0.32,-0.09 -0.06,0.09 -0.4,-0.13 -0.19,-0.03 0.29,-0.11 -0.33,0.01l-0.76 0.72c-0.6,0.01 -0.52,0.12 -0.71,-0.16 -0.2,-0.29 0.18,-0.58 -0.95,-0.74l-0.24 0.77c-0.2,0.13 0.35,0.13 -0.29,0.12l-0.08 -0.17 -0.03 -0.38 -0.29 -0.22 -0.31 0.14c0,0.04 0.08,0.44 -0.23,0.34 -0.19,-0.07 -0.18,-0.04 -0.33,-0.16 0,0 -0.08,-0.15 -0.12,-0.19l-0.35 0.11c-0.09,0.09 -0.07,0.1 -0.29,0.16 -0.24,0.07 -0.11,0.04 -0.46,0.06 -0.49,-0.2 -0.19,-0.14 -0.48,-0.36l-0.27 0.22c-0.01,0 -0.07,0.03 -0.11,0.04 -0.23,0.18 -0.6,0.31 -1.23,0.39 -0.35,0.08 0.48,0.08 -0.52,0.07l-0.09 -0.24c-0.04,-0.24 -0.05,-0.44 -0.41,-0.59 -0.19,0.2 -0.51,0.66 -1.06,0.75l-0.25 -0.67 -0.61 0c-0.17,0.17 -0.07,0.22 -0.48,0.37 -0.79,0.04 -0.74,0.06 -1.23,0.23l-0.46 0.13 -0.19 -0.22c0.1,-0.34 0.01,-0.57 -0.83,-0.7 -0.18,0.18 -0.1,0.26 -0.53,0.39 -0.31,0.1 -0.61,0.2 -0.99,0.27l-0.39 -0.18c-0.28,-0.12 0.47,-0.09 -0.36,-0.09l-0.09 0.39c-1.68,0.09 -1.04,-0.42 -1.67,-0.72 -0.64,0.1 -0.7,0.09 -0.69,0.38l-0.2 0.3c-0.54,-0.08 -0.4,-0.11 -0.4,-0.34 0.12,-0.49 -0.27,-0.42 -0.3,-0.44 -0.23,0.19 -0.05,0.48 -1.56,0.67l-0.18 -0.51c-0.45,-0.07 -0.28,-0.05 -0.44,-0.12l-0.4 0.02c-0.15,0.21 -0.12,0.27 -0.2,0.5 -0.09,0.29 -0.14,0.27 -0.8,0.35l-0.17 -0.58c-0.26,-0.09 -0.1,0.11 -0.31,-0.11 -0.05,0.21 0.05,0.05 -0.26,0.11l-0.08 0.23c-0.54,-0.07 -0.17,-0.04 -0.72,-0.12 -1.68,0.09 -0.85,0.08 -1.43,0.5 -0.39,-0.13 -0.37,-0.18 -1.09,-0.26l-0.38 0.22c-0.18,0.04 0.25,0.07 -0.69,0.1l-0.3 -0.25c-0.76,-0.26 0.14,-0.58 -1.05,-0.74 -0.44,0.15 -0.23,0.2 -0.43,0.41 -0.13,0.15 -0.38,0.23 -0.57,0.4l-0.69 -0.07 -0.77 -0.14c0.06,0.18 0.07,0.16 -0.19,0.3 -0.3,-0.03 -0.39,0 -0.62,-0.15 -0.09,-0.06 -0.09,-0.13 -0.12,-0.2 -0.29,-0.15 -0.24,0.19 -0.25,-0.18 -0.22,0.2 0.03,0.02 -0.32,0.09l-0.1 0.23c-0.84,0.06 -0.2,0.03 -0.42,-0.06l-0.64 -0.48c-0.34,0.07 -0.14,-0.17 -0.46,0.37 -0.32,-0.11 -0.32,0.17 -0.42,-0.41 -0.07,-0.02 -0.33,-0.05 -0.4,-0.07l-0.06 0.34 -0.24 0.24c-0.44,-0.08 -0.19,0.03 -0.31,-0.15l-0.52 0.01 -0.04 0.17c-0.19,0.1 0.25,0.11 -0.26,0.1l-0.16 -0.15 0.05 -0.12c-0.25,-0.14 -0.16,0.19 -0.23,-0.19 -0.04,0.01 -0.08,0.03 -0.11,0.04l-0.46 0.16 -0.89 -0.48c-1.17,0.11 -0.71,0.22 -1.23,0.54l-0.43 -0.21c-0.57,0.07 -0.72,0.15 -0.9,0.33l-0.33 -0.03 -0.36 -0.07c-0.36,0.21 -0.15,0.14 -0.53,0.21 -0.4,-0.14 -0.41,-0.38 -0.46,-0.61l-0.07 -0.08c-0.3,0.09 -0.17,0.06 -0.56,0.12 -0.26,-0.16 -0.01,-0.1 -0.5,-0.17 -0.32,0.15 -1.11,0.57 -1.14,0.74l-0.34 0.17 -0.16 -0.12 -0.26 -0.81c-0.85,0.15 -0.63,0.15 -0.96,0.45 -0.72,-0.02 -1.15,-0.09 -1.28,0.2l-0.27 0.28c-0.52,-0.05 -0.17,0.07 -0.36,-0.13 -0.02,-0.06 -0.59,-0.71 -0.71,-0.83 -1.6,-0.02 -1.29,0.41 -1.49,0.88 -0.42,-0.02 -0.28,-0.05 -0.7,-0.11 -0.25,0.25 0.07,0.11 -0.44,0.21 -0.13,-0.06 -0.19,0.04 -0.21,-0.19l-0.14 -0.58c-0.11,-0.11 -0.1,-0.06 -0.24,-0.12 -0.08,0.1 -0.13,0.19 -0.18,0.31 -0.02,0.04 -0.04,0.12 -0.07,0.16 -0.09,0.11 -0.12,0.08 -0.22,0.12 -0.48,-0.32 0.09,-0.35 -0.6,-0.54l-0.25 0.27c-0.82,-0.15 0.01,-0.15 -1.09,-0.15 -0.38,0.18 -0.31,0.31 -0.49,0.61 -0.4,-0.09 -0.61,-0.18 -0.77,-0.31l-0.56 -0.24c-0.02,-0.01 -0.1,0.02 -0.14,0.04 -0.3,0.15 -0.19,0.04 -0.38,0.24 -0.17,0.18 0.03,0.1 -0.31,0.23 -0.39,-0.22 -0.47,-0.59 -1.09,-0.77l-0.15 0.43c0,0.44 -0.15,0.31 -0.41,0.37l-0.36 -0.62c-0.17,0.11 0.01,-0.01 -0.28,0.05l-0.12 0.29c-0.54,-0.11 -0.31,-0.13 -0.74,-0.18l-0.06 0.32 -0.32 0.24c-0.67,0 -0.17,0.02 -0.38,-0.1l-0.28 -0.01 -0.22 -0.36c-1.63,-0.02 -1.08,-0.02 -1.59,-0.44 -0.12,0.04 -0.27,-0.14 -0.22,0.16l-0.25 0.59c-0.38,-0.07 -0.3,0.04 -0.44,-0.23 -0.04,-0.1 -0.05,-0.19 -0.06,-0.28 -0.07,-0.34 -0.01,-0.12 -0.32,-0.21 -0.17,0.45 -0.44,0.44 -0.73,0.79 -0.82,-0.07 -1.22,-0.19 -1.37,-0.48 -0.04,-0.02 -0.09,-0.03 -0.13,-0.04l-0.31 -0.06c-0.03,-0.03 -0.12,-0.01 -0.18,-0.01l-0.06 0.27 -1.23 0.12 -0.3 -0.26 -0.57 -0.14c-0.37,0.03 -0.02,-0.05 -0.4,0.1 -0.06,0.03 -0.24,0.11 -0.29,0.14 -0.17,0.1 -0.2,0.26 -0.35,0.4l-0.74 -0.41c-0.13,-0.19 0,-0.32 -0.34,-0.48 -0.36,0.18 -0.3,0.52 -0.4,0.77l-1.15 0.15c-0.14,-0.07 -0.38,-0.18 -0.55,-0.27 -0.39,-0.2 0.05,-0.12 -0.6,-0.24l-0.1 0.18c-0.28,0.12 0.51,0.15 -0.46,0.09l-0.21 -0.4 -0.42 0.24 -0.14 0.31c-0.13,-0.05 -0.14,-0.02 -0.24,-0.12 -0.03,-0.02 -0.06,-0.07 -0.07,-0.09 -0.04,-0.07 -0.02,-0.13 -0.02,-0.2l-0.48 0.01c0.01,0.29 0.07,0.42 -0.81,0.45l-1.27 -0.68 -0.21 -0.06 -0.32 0.22 0.03 0.32 -0.17 0.26c-0.5,-0.09 -0.5,-0.25 -0.45,-0.44l0.07 -0.21c-0.28,-0.06 -0.19,0.07 -0.24,-0.06 -0.02,0.02 -0.14,0.11 -0.17,0.13l-0.17 0.07c0,0.24 -0.08,0.21 -0.7,0.3l-0.46 -0.31c-0.03,0.01 -0.08,0.02 -0.1,0.03 -0.02,0 -0.07,0.02 -0.1,0.02 -0.02,0.01 -0.06,0.03 -0.09,0.03l-1 0.04c-0.39,-0.04 -0.05,-0.06 -0.27,0l-0.38 0.34c-0.62,0 -0.18,0.03 -0.32,-0.09l-0.34 -0.28 -0.49 0.3c-0.26,0.08 0.43,0.11 -0.64,0.08l-0.12 -0.21 -0.24 -0.35 -0.49 0c-0.42,0.19 -0.19,0.3 -0.53,0.51 -0.7,-0.06 -0.62,-0.02 -0.75,-0.34 -0.06,-0.14 -0.09,-0.29 -0.15,-0.43 -0.16,0.07 -0.15,0.04 -0.38,0.09l-0.14 0.56 -1.31 0.06c-0.54,-0.22 -0.54,-0.15 -0.6,-0.5l-0.25 -0.15c-0.06,0.03 -0.24,0.05 -0.32,0.08l-0.16 0.1c-0.56,-0.13 -0.08,-0.09 -0.73,-0.17l-0.05 0.18c-0.1,0.05 -0.48,0.23 -0.45,0.03l0.02 -0.04c-0.23,-0.07 -0.07,0 -0.34,-0.13 -0.08,-0.04 -0.21,-0.13 -0.22,-0.13l-0.43 -0.07 -0.3 0.39 -0.82 -0.04 -0.39 -0.02c-0.04,0.25 0.03,0.06 -0.21,0.14 -0.09,0.17 -0.12,0.17 -0.75,0.2l-0.28 -0.34 -0.23 -0.05 -0.47 0.22c-0.42,0.09 -0.04,0.08 -0.53,0.29 -0.31,-0.1 -0.48,-0.21 -1.05,-0.28 -0.78,0.12 -0.45,0.14 -1.06,0.24 -1.41,-0.24 0,-0.6 -1.58,-0.62l-0.2 0.51 -0.21 0.15 -0.23 -0.11c0.02,-0.2 0.06,-0.21 -0.25,-0.35 -0.14,0.06 -0.19,0.02 -0.28,0.19 -0.06,0.11 -0.01,0.13 0,0.21 -0.26,0.14 0.15,0.08 -0.49,0.1l-0.17 -0.23c-0.09,-0.11 0.15,-0.04 -0.62,-0.25 -0.55,0.31 0.09,0.34 -0.91,0.4 -0.65,-0.29 -0.07,-0.47 -0.71,-0.69 -0.28,0.12 -0.53,0.21 -0.63,0.35 -0.26,0.34 0.12,0.2 -0.44,0.38 -0.65,-0.18 -0.45,-0.08 -0.67,-0.67 -0.82,0.09 -0.16,-0.04 -0.65,0.47 -0.11,-0.02 -0.02,0.17 -0.37,-0.19 -0.65,-0.11 -1.93,-0.02 -2.49,0.37 -1.01,0.7 -1.33,2.11 -1.25,3.27 0.02,0.23 0.03,0.44 0.04,0.66zm25.87 41.46c0.15,-0.1 0.31,-0.19 0.45,-0.3l0.21 -0.14 0.59 0.65 -0.24 0.2c-1.05,0.86 -2.26,1.24 -3.58,1.24 -1.27,0 -2.41,-0.47 -3.4,-1.25 -2.17,1.15 -3.98,1.94 -6.49,1.94 -0.83,0 -1.66,-0.11 -2.46,-0.38 -0.7,-0.24 -1.37,-0.59 -1.95,-1.05 -0.54,-0.44 -0.98,-0.98 -1.3,-1.6 -0.32,-0.64 -0.48,-1.31 -0.48,-2.02 0,-0.49 0.08,-0.96 0.23,-1.41 0.15,-0.47 0.38,-0.9 0.65,-1.3 0.27,-0.4 0.62,-0.75 1.02,-1.03 0.41,-0.3 0.88,-0.49 1.37,-0.58l0.32 -0.06 0.1 0.87 -0.29 0.05c-0.34,0.06 -0.65,0.19 -0.94,0.4 -0.31,0.21 -0.58,0.48 -0.8,0.8 -0.23,0.32 -0.41,0.69 -0.55,1.07 -0.13,0.4 -0.2,0.8 -0.2,1.22 0,0.53 0.12,1.02 0.36,1.5 0.24,0.51 0.59,0.94 1,1.31 0.49,0.41 1.04,0.71 1.63,0.92 0.71,0.26 1.46,0.35 2.2,0.35 2.04,0 4.11,-0.61 5.88,-1.64 -0.85,-0.98 -1.18,-2.3 -1.26,-3.59l-0.31 0c-0.58,0 -1.16,-0.08 -1.7,-0.27 -0.49,-0.16 -0.95,-0.42 -1.33,-0.76 -0.39,-0.35 -0.68,-0.75 -0.87,-1.22 -0.22,-0.49 -0.31,-1.04 -0.31,-1.58 0,-1.09 0.3,-2.17 0.73,-3.17 0.27,-0.54 0.56,-1.07 0.89,-1.56 0.36,-0.54 0.76,-1.04 1.19,-1.5 0.44,-0.5 0.91,-0.97 1.42,-1.39 0.53,-0.45 1.09,-0.85 1.67,-1.22 1.69,-1.08 3.49,-1.91 5.42,-2.45 2.04,-0.57 4.17,-0.8 6.3,-0.8 1,0 2.02,0.12 3.01,0.23 1.73,0.19 3.44,0.44 5.14,0.69 0.52,0.09 1.03,0.19 1.54,0.28 0.47,0.09 0.94,0.17 1.4,0.25l1.32 0.2c0.69,-0.44 1.43,-0.81 2.2,-1.04 0.73,-0.24 1.49,-0.37 2.25,-0.37 0.39,0 0.79,0.01 1.18,0.07 0.26,0.04 0.53,0.1 0.79,0.2 0.19,0.09 0.38,0.21 0.5,0.38 0.11,0.16 0.18,0.33 0.18,0.53 0,0.24 -0.08,0.46 -0.19,0.68 -0.16,0.26 -0.4,0.45 -0.67,0.59 -0.35,0.19 -0.76,0.29 -1.14,0.37 -0.59,0.11 -1.2,0.13 -1.8,0.13 -0.36,0.01 -0.74,-0.01 -1.11,-0.05 -0.37,-0.04 -0.75,-0.07 -1.13,-0.12 -0.37,-0.04 -0.74,-0.09 -1.1,-0.16 -0.39,0.25 -0.75,0.52 -1.11,0.81 -1.44,1.12 -2.73,2.46 -3.95,3.82 -1.67,1.87 -3.17,3.92 -4.59,6.01 -0.23,0.33 -0.47,0.65 -0.7,0.96 -0.3,0.4 -0.59,0.8 -0.87,1.21l-1.28 1.8c-0.27,0.37 -1.44,2.01 -1.44,2.41 0,0.01 -0.01,0.03 0,0.04 0.01,0.01 0.02,0 0.04,0 0.11,0 0.39,-0.18 0.48,-0.26 0.34,-0.24 0.67,-0.52 0.97,-0.82 0.44,-0.4 0.84,-0.83 1.25,-1.26 0.08,-0.09 0.15,-0.18 0.22,-0.26 0.05,-0.1 0.1,-0.19 0.15,-0.28 0.42,-0.78 0.98,-1.48 1.56,-2.12 0.91,-0.97 1.93,-1.82 3.01,-2.57 0.61,-0.43 1.77,-1.22 2.51,-1.22 0.39,0 0.69,0.16 0.84,0.48l0.22 -0.33 1.46 0 -0.28 0.47c-0.04,0.07 -0.1,0.13 -0.16,0.19l-0.44 0.61 -0.53 0.73 -0.36 0.5 -2.63 3.71c-0.22,0.32 -0.85,1.23 -0.85,1.61 0,0.02 0,0.1 0.01,0.11 0.01,0.01 0.04,0.01 0.05,0.01 0.31,0 0.89,-0.53 1.12,-0.73 1.09,-1.02 1.99,-2.25 3,-3.36l0.1 -0.11c0.61,-0.75 1.21,-1.51 1.88,-2.22 0.41,-0.41 0.86,-0.83 1.34,-1.16 0.32,-0.23 0.69,-0.42 1.09,-0.42 0.66,0 1,0.43 1,1.09 0,0.21 -0.04,0.43 -0.09,0.64 0.38,-0.39 0.81,-0.77 1.26,-1.08 0.42,-0.3 1.04,-0.68 1.58,-0.68 0.27,0 0.53,0.08 0.72,0.29 0.19,0.21 0.25,0.48 0.25,0.76 0,0.2 -0.04,0.4 -0.11,0.61 0.22,-0.21 0.46,-0.4 0.7,-0.58 0.38,-0.29 0.79,-0.55 1.24,-0.77 0.33,-0.15 0.72,-0.28 1.08,-0.28 0.3,0 0.59,0.09 0.81,0.3 0.24,0.23 0.34,0.52 0.34,0.85 0,0.5 -0.27,1.01 -0.54,1.42 -0.5,0.78 -1.2,1.51 -1.84,2.18 -0.72,0.75 -1.46,1.51 -2.07,2.34 -0.17,0.21 -0.5,0.67 -0.5,0.94 0,0.02 0,0.08 0.01,0.09 0.02,0.01 0.05,0.01 0.07,0.01 0.68,0 1.93,-1.19 2.41,-1.66 0.89,-0.89 1.73,-1.83 2.58,-2.75 0.3,-0.33 0.62,-0.67 0.95,-0.98 0.46,-0.45 0.92,-0.88 1.41,-1.3 0.33,-0.29 0.68,-0.59 1.03,-0.85 0.17,-0.11 0.4,-0.24 0.53,-0.38l0.09 -0.09 1.78 0.03 -0.7 0.63c-0.23,0.23 -0.43,0.49 -0.63,0.73 -0.34,0.41 -0.67,0.82 -1,1.25 0.05,-0.03 0.11,-0.04 0.16,-0.06 0.2,-0.07 0.41,-0.13 0.64,-0.13 0.29,0.05 0.52,0.18 0.68,0.42 0.16,0.22 0.22,0.49 0.22,0.76 0,0.65 -0.16,1.26 -0.48,1.81 0.35,-0.1 0.69,-0.27 0.96,-0.44 0.13,-0.1 0.25,-0.22 0.38,-0.35 0.12,-0.25 0.26,-0.5 0.44,-0.71 0.24,-0.27 0.6,-0.64 0.96,-0.73 0.27,-0.08 0.58,-0.06 0.73,0.23 0.13,0.23 0.07,0.51 -0.02,0.75 -0.12,0.28 -0.34,0.51 -0.58,0.67 -0.2,0.18 -0.39,0.4 -0.55,0.64 -0.16,0.24 -0.3,0.5 -0.42,0.78 -0.1,0.25 -0.19,0.5 -0.23,0.78 -0.04,0.19 -0.06,0.4 -0.03,0.61 0.02,0.11 0.06,0.23 0.14,0.31 0.09,0.06 0.19,0.07 0.27,0.05 0.13,-0.02 0.52,-0.36 0.63,-0.47 0.43,-0.39 0.84,-0.83 1.23,-1.28 0.22,-0.25 0.44,-0.48 0.68,-0.7 0.26,-0.24 0.52,-0.46 0.81,-0.63 0.15,-0.1 0.3,-0.19 0.45,-0.27 -0.09,-0.13 -0.16,-0.26 -0.2,-0.41 -0.09,-0.31 -0.11,-0.65 -0.07,-0.97 0.04,-0.38 0.13,-0.73 0.27,-1.08 0.14,-0.36 0.34,-0.71 0.58,-1.03 0.25,-0.34 0.54,-0.64 0.86,-0.89 0.34,-0.27 0.72,-0.47 1.12,-0.6 0.44,-0.15 0.91,-0.21 1.37,-0.15 0.22,0.01 0.4,0.1 0.55,0.26 0.07,0.08 0.13,0.18 0.16,0.28 0.05,-0.06 0.09,-0.13 0.13,-0.19l0.11 -0.14 1.64 0.07 -0.44 0.49c-0.11,0.11 -0.19,0.25 -0.28,0.38 -0.17,0.25 -0.36,0.51 -0.53,0.76 -0.23,0.34 -0.46,0.67 -0.69,0.99 -0.27,0.4 -0.56,0.79 -0.84,1.17 -0.72,0.94 -1.44,1.91 -2.06,2.92 -0.14,0.24 -0.63,1.04 -0.63,1.31 0,0.01 0,0.02 0,0.03 0.01,0.01 0.06,0 0.07,0 0.18,0 0.36,-0.07 0.51,-0.15 0.28,-0.15 0.53,-0.37 0.76,-0.57 0.38,-0.35 0.73,-0.73 1.08,-1.12 0.62,-0.69 1.16,-1.45 1.77,-2.16 0.7,-0.88 1.46,-1.74 2.28,-2.52 0.69,-0.65 1.8,-1.57 2.77,-1.57 0.31,0 0.61,0.08 0.85,0.27 0.23,0.21 0.34,0.48 0.35,0.77 0.1,0.53 -1.07,2.02 -1.65,2.72l0.57 0 1.22 0.05c0.36,-0.52 0.76,-1.02 1.15,-1.52 0.53,-0.65 1.03,-1.31 1.48,-2.01l0.09 -0.13 1.68 0 -0.52 0.52c-0.02,0.03 -0.06,0.08 -0.08,0.1l-0.01 0.03 -0.99 1.38 -1.26 1.65c-0.74,0.97 -1.51,1.95 -2.15,2.99 -0.2,0.31 -0.49,0.85 -0.49,1.24 0,0.02 0,0.07 0,0.1 0.3,-0.04 1.01,-0.67 1.22,-0.86 0.44,-0.41 0.86,-0.84 1.26,-1.3 0.36,-0.41 0.72,-0.82 1.07,-1.25l0.6 -0.71c0.95,-1.08 2.06,-2.01 3.22,-2.83 0.62,-0.42 1.78,-1.21 2.52,-1.21 0.39,0 0.69,0.16 0.84,0.48l0.22 -0.33 1.46 0 -0.28 0.47c-0.04,0.07 -0.1,0.13 -0.16,0.19l-0.44 0.61 -0.53 0.73 -0.36 0.49 -2.63 3.71c-0.22,0.33 -0.85,1.23 -0.85,1.62 0,0.02 0,0.1 0.01,0.11 0.01,0.01 0.04,0.01 0.05,0.01 0.3,0 0.89,-0.52 1.12,-0.73 1.08,-1.03 2.05,-2.18 2.99,-3.36l0.39 -0.43 0.66 0.57 -0.19 0.24c-0.75,0.89 -1.5,1.76 -2.27,2.63 -0.49,0.52 -1.01,1.07 -1.57,1.49 -0.33,0.26 -0.73,0.49 -1.16,0.49 -0.28,0 -0.53,-0.1 -0.72,-0.3 -0.2,-0.21 -0.28,-0.47 -0.28,-0.75 0,-0.24 0.05,-0.5 0.13,-0.74 -0.34,0.32 -0.69,0.63 -1.05,0.95 -0.49,0.38 -1.29,0.96 -1.93,0.96 -0.33,0 -0.61,-0.12 -0.82,-0.38 -0.22,-0.25 -0.3,-0.56 -0.3,-0.89 0,-0.08 0,-0.15 0.01,-0.22 -0.22,0.21 -0.45,0.41 -0.69,0.61 -0.38,0.33 -1,0.82 -1.53,0.82 -0.63,0 -0.97,-0.39 -0.97,-1.02 0,-0.84 0.45,-1.74 0.87,-2.43 0.18,-0.3 0.38,-0.59 0.57,-0.89l-0.47 0 -1.46 -0.01c-1.12,1.38 -2.27,2.75 -3.45,4.1 -0.05,0.05 -0.1,0.1 -0.14,0.15l-0.09 0.08 -1.47 0 3.83 -4.7c0.6,-0.72 1.21,-1.45 1.81,-2.18 0.24,-0.29 0.5,-0.57 0.71,-0.87 0.05,-0.09 0.08,-0.19 0.08,-0.29 0,-0.08 -0.13,-0.06 -0.19,-0.06 -0.71,0 -1.84,1.07 -2.32,1.56 -0.68,0.68 -1.32,1.39 -1.91,2.15 -0.71,0.92 -1.44,1.82 -2.25,2.65 -0.28,0.29 -0.58,0.59 -0.89,0.85 -0.27,0.23 -0.55,0.46 -0.85,0.64 -0.26,0.14 -0.54,0.24 -0.83,0.24 -0.63,0 -1,-0.38 -1,-1.02 0,-0.25 0.07,-0.5 0.15,-0.72 0.11,-0.3 0.24,-0.57 0.38,-0.84 0.15,-0.3 0.31,-0.58 0.48,-0.88 0.06,-0.09 0.12,-0.19 0.18,-0.29 -0.13,0.05 -0.26,0.1 -0.38,0.14 -0.25,0.09 -0.49,0.22 -0.73,0.34 -0.24,0.13 -0.45,0.3 -0.64,0.5 -0.41,0.47 -0.83,0.94 -1.25,1.39 -0.27,0.3 -0.54,0.58 -0.82,0.84 -0.17,0.17 -0.36,0.35 -0.56,0.45 -0.15,0.1 -0.33,0.15 -0.51,0.15 -0.37,0 -0.75,-0.08 -1.02,-0.35 -0.25,-0.23 -0.4,-0.51 -0.47,-0.83 -0.08,-0.34 -0.09,-0.69 -0.05,-1.03 0.03,-0.21 0.06,-0.41 0.11,-0.62 -0.26,0.14 -0.54,0.24 -0.82,0.29 -0.21,0.03 -0.43,0.05 -0.66,0.04 -0.28,0.34 -0.59,0.68 -0.92,0.98 -0.3,0.3 -0.63,0.58 -0.98,0.82 -0.27,0.18 -0.55,0.36 -0.83,0.49 -0.24,0.12 -0.48,0.21 -0.74,0.27 -0.19,0.03 -0.38,0.06 -0.57,0.06 -0.28,0 -0.52,-0.1 -0.71,-0.3 -0.21,-0.22 -0.28,-0.53 -0.28,-0.83 0,-0.45 0.17,-0.92 0.35,-1.33 0.3,-0.67 0.74,-1.3 1.16,-1.9 0.22,-0.33 0.45,-0.67 0.68,-0.98 0.07,-0.08 0.13,-0.16 0.19,-0.24 -0.09,0.09 -0.18,0.17 -0.26,0.26 -0.34,0.37 -0.69,0.73 -1.01,1.12 -0.67,0.79 -1.38,1.56 -2.14,2.28 -0.69,0.66 -2.03,1.86 -3.01,1.86 -0.7,0 -1.1,-0.42 -1.1,-1.14 0,-0.35 0.08,-0.69 0.23,-1 0.17,-0.35 0.41,-0.69 0.66,-0.99 0.54,-0.65 1.12,-1.27 1.7,-1.9 0.68,-0.73 1.41,-1.46 2,-2.26 0.11,-0.18 0.33,-0.55 0.33,-0.77 0,-0.01 0,-0.03 0,-0.04 -0.02,-0.02 -0.11,-0.02 -0.13,-0.02 -0.36,0 -0.81,0.25 -1.12,0.43 -0.52,0.32 -1,0.74 -1.45,1.16 -0.18,0.19 -0.35,0.37 -0.52,0.56 -0.25,0.24 -0.47,0.49 -0.69,0.74 -0.68,0.8 -1.38,1.61 -2.03,2.46 -0.67,0.82 -1.31,1.65 -1.87,2.54l-0.1 0.14 -1.63 0 0.47 -0.52c0.08,-0.09 0.14,-0.21 0.23,-0.29l1.51 -2.09 1.49 -2.09 1.17 -1.69c0.17,-0.25 0.73,-1.09 0.73,-1.38 0,0 0,0 -0.01,0 -0.27,0 -0.6,0.18 -0.83,0.32 -0.48,0.29 -0.93,0.7 -1.33,1.09 -0.62,0.63 -1.19,1.3 -1.76,1.98 -0.6,0.72 -1.21,1.44 -1.76,2.2l-0.82 1.09c-0.15,0.22 -0.29,0.44 -0.45,0.64 -0.1,0.15 -0.2,0.29 -0.31,0.44l-0.22 0.3 -1.67 0 0.4 -0.5c0.56,-0.7 1.11,-1.43 1.65,-2.14 0.81,-1.08 1.58,-2.16 2.33,-3.28 0.27,-0.38 1.09,-1.61 1.09,-2.05 0,-0.02 0,-0.04 0,-0.05 -0.02,-0.01 -0.07,-0.01 -0.09,-0.01 -0.75,0 -2.53,2.13 -3.02,2.73l-0.51 0.63c-0.75,0.88 -1.5,1.77 -2.27,2.63 -0.48,0.53 -1.01,1.07 -1.57,1.49 -0.33,0.26 -0.73,0.49 -1.16,0.49 -0.28,0 -0.53,-0.1 -0.72,-0.3 -0.2,-0.21 -0.28,-0.47 -0.28,-0.75 0,-0.24 0.05,-0.5 0.13,-0.74 -0.34,0.32 -0.69,0.63 -1.04,0.95 -0.5,0.38 -1.3,0.96 -1.94,0.96 -0.33,0 -0.61,-0.12 -0.82,-0.38 -0.18,-0.22 -0.28,-0.48 -0.3,-0.76 -0.66,0.69 -1.75,1.7 -2.52,1.7 -0.6,0 -0.92,-0.37 -0.92,-0.97 0,-0.31 0.11,-0.64 0.22,-0.93 0.15,-0.38 0.33,-0.76 0.53,-1.11 0.21,-0.41 0.44,-0.8 0.69,-1.19 0.23,-0.36 0.46,-0.74 0.72,-1.09 0.4,-0.58 0.82,-1.16 1.23,-1.74 0.29,-0.39 0.58,-0.77 0.87,-1.15l3.65 -4.52c1.15,-1.33 2.34,-2.62 3.61,-3.8 0.61,-0.58 1.25,-1.13 1.92,-1.64l-3.26 -0.54 -2.18 -0.33 -0.48 0.83c-0.14,0.25 -0.33,0.47 -0.52,0.67 -0.2,0.23 -0.41,0.43 -0.64,0.64 -0.22,0.21 -0.45,0.43 -0.69,0.63 -0.22,0.21 -0.43,0.42 -0.63,0.65 -0.26,0.26 -0.51,0.54 -0.74,0.81 -0.29,0.32 -0.55,0.65 -0.83,0.97 -0.27,0.34 -0.54,0.67 -0.81,1.03 -0.25,0.33 -0.5,0.69 -0.76,1.03l-1.76 2.41c-1.5,2.05 -3.12,4.12 -4.97,5.84 -0.7,0.66 -1.42,1.28 -2.2,1.84 -0.25,0.19 -0.51,0.36 -0.78,0.53 0.77,0.51 1.62,0.83 2.57,0.83 0.27,0 0.54,-0.01 0.83,-0.05 0.22,-0.02 0.43,-0.06 0.65,-0.14 0.01,0 0.02,0 0.02,0l-0.07 -1.17 0.09 -0.1c0.55,-0.61 1.05,-1.29 1.54,-1.96 0.82,-1.13 1.61,-2.28 2.38,-3.45l4.49 -6.21c0.64,-0.81 1.26,-1.61 1.83,-2.47l0.3 -0.45 0.53 1.22 -0.14 0.14c-0.19,0.2 -0.36,0.4 -0.51,0.62 -0.17,0.25 -0.35,0.49 -0.51,0.75l-1.86 2.62c-0.11,0.14 -0.22,0.31 -0.33,0.46 -0.17,0.26 -0.34,0.52 -0.51,0.79 -0.21,0.29 -0.4,0.6 -0.6,0.89 -0.2,0.27 -0.39,0.55 -0.59,0.81l-1.44 1.93c-0.09,0.1 -0.16,0.21 -0.24,0.32 -0.15,0.2 -0.29,0.4 -0.43,0.59 -0.16,0.23 -0.32,0.48 -0.48,0.71 -0.16,0.23 -0.32,0.47 -0.49,0.7 -0.13,0.19 -0.27,0.38 -0.4,0.58 -0.08,0.12 -0.16,0.24 -0.24,0.34 -0.35,0.47 -0.69,0.94 -1.02,1.42 -0.09,0.12 -0.17,0.24 -0.24,0.36zm30.79 -4.15c-0.39,0.53 -0.76,1.06 -1.11,1.62 -0.29,0.46 -0.57,0.92 -0.81,1.41 -0.1,0.21 -0.27,0.58 -0.27,0.86 0.19,0 0.5,-0.16 0.67,-0.24l0.88 -0.59c0.5,-0.4 0.95,-0.85 1.33,-1.37 -0.08,-0.07 -0.17,-0.15 -0.24,-0.23 -0.21,-0.25 -0.36,-0.54 -0.42,-0.86 -0.04,-0.21 -0.05,-0.4 -0.03,-0.6zm-20.35 -13.84l-1.52 -0.22c-1.56,-0.3 -3.15,-0.47 -4.73,-0.47 -3.71,0 -7.19,0.92 -10.32,2.97 -0.79,0.52 -1.54,1.11 -2.22,1.77 -0.64,0.62 -1.22,1.32 -1.73,2.07 -0.85,1.25 -1.47,2.67 -1.47,4.21 0,0.43 0.08,0.86 0.25,1.25 0.16,0.35 0.38,0.67 0.68,0.91 0.31,0.26 0.67,0.45 1.05,0.57 0.45,0.14 0.92,0.2 1.39,0.2l0.29 0c0.12,-1.27 0.47,-2.48 1.01,-3.63 0.62,-1.34 1.49,-2.53 2.48,-3.6 1.03,-1.09 2.17,-2.06 3.46,-2.8 0.95,-0.54 2.13,-1.07 3.23,-1.07 1.16,0 1.91,0.56 1.91,1.8 0,1.23 -0.85,2.59 -1.55,3.55 -0.53,0.7 -1.11,1.37 -1.73,1.99 -0.68,0.68 -1.42,1.31 -2.18,1.9 -0.62,0.48 -1.29,0.92 -1.98,1.3 -0.66,0.38 -1.36,0.69 -2.07,0.93 -0.35,0.12 -0.69,0.22 -1.04,0.3 -0.22,0.06 -0.44,0.1 -0.66,0.14 0.01,0.3 0.05,0.58 0.1,0.86 0.07,0.35 0.17,0.69 0.29,1.03 0.12,0.31 0.26,0.61 0.44,0.9 0.09,0.14 0.18,0.27 0.28,0.4 0.06,-0.04 0.12,-0.09 0.18,-0.13 0.47,-0.34 0.92,-0.72 1.35,-1.1 0.49,-0.44 0.95,-0.88 1.41,-1.36 0.46,-0.46 0.89,-0.94 1.31,-1.43 0.12,-0.17 0.26,-0.34 0.4,-0.52 0.3,-0.38 0.6,-0.77 0.9,-1.15 0.38,-0.49 0.76,-0.99 1.13,-1.48 0.38,-0.5 0.75,-1.01 1.15,-1.5 0.29,-0.4 0.59,-0.78 0.89,-1.19 0.14,-0.18 0.29,-0.36 0.42,-0.56 0.37,-0.45 0.74,-0.9 1.13,-1.34 0.35,-0.4 0.71,-0.81 1.07,-1.2 0.52,-0.54 1.04,-1.07 1.59,-1.58 0.37,-0.35 0.74,-0.7 1.13,-1.03 0.26,-0.21 0.52,-0.42 0.78,-0.62 0.17,-0.13 0.34,-0.25 0.51,-0.39l0.99 -0.68zm110.95 16.06c-0.26,0.09 -0.52,0.15 -0.81,0.15 -0.33,0 -0.63,-0.1 -0.87,-0.31 -0.05,0.04 -0.09,0.09 -0.13,0.13 -0.09,0.09 -0.17,0.18 -0.26,0.26 -0.19,0.21 -0.38,0.41 -0.58,0.61 -0.45,0.42 -0.9,0.81 -1.4,1.17 -0.33,0.19 -0.69,0.35 -1.06,0.35 -0.66,0 -1.01,-0.4 -1.01,-1.05 0,-0.4 0.18,-0.88 0.39,-1.29 -0.51,0.25 -1.04,0.4 -1.62,0.4 -0.17,0 -0.35,-0.01 -0.49,-0.03 -0.58,0.54 -1.22,1.15 -1.9,1.58 -0.38,0.24 -0.87,0.48 -1.34,0.48 -0.33,0 -0.64,-0.12 -0.87,-0.38 -0.25,-0.27 -0.34,-0.61 -0.34,-0.98 0,-0.12 0,-0.23 0.01,-0.34 -0.28,0.27 -0.57,0.54 -0.86,0.79 -0.4,0.33 -1.01,0.82 -1.55,0.82 -0.62,0 -0.96,-0.39 -0.96,-1.02 0,-0.84 0.44,-1.74 0.86,-2.43 0.2,-0.3 0.38,-0.59 0.57,-0.89l-0.47 0 -1.45 -0.01c-1.14,1.39 -2.3,2.77 -3.47,4.11 -0.01,0.02 -0.03,0.04 -0.05,0.06l-0.16 0.17 -1.46 0 3.82 -4.71c0.61,-0.72 1.21,-1.45 1.81,-2.18 0.24,-0.29 0.5,-0.57 0.7,-0.86 0.05,-0.1 0.09,-0.19 0.09,-0.3 0,-0.08 -0.14,-0.06 -0.2,-0.06 -0.71,0 -1.83,1.07 -2.32,1.56 -0.68,0.69 -1.33,1.43 -1.94,2.19 -0.66,0.79 -1.33,1.57 -2.01,2.33 -0.48,0.53 -1,1.07 -1.57,1.49 -0.33,0.26 -0.74,0.49 -1.16,0.49 -0.28,0 -0.52,-0.1 -0.72,-0.3 -0.19,-0.21 -0.29,-0.47 -0.29,-0.75 0,-0.24 0.07,-0.5 0.15,-0.74 -0.35,0.32 -0.69,0.64 -1.06,0.95 -0.5,0.38 -1.3,0.96 -1.92,0.96 -0.34,0 -0.62,-0.12 -0.83,-0.37 -0.22,-0.26 -0.3,-0.57 -0.3,-0.89 0,-0.19 0.02,-0.38 0.06,-0.56 -0.2,0.18 -0.41,0.35 -0.63,0.51 -0.76,0.58 -1.81,1.25 -2.78,1.25 -1.04,0 -1.49,-0.68 -1.49,-1.68 0,-0.89 0.38,-1.75 0.84,-2.5 0.61,-1 1.45,-1.88 2.31,-2.64 0.65,-0.61 1.35,-1.19 2.11,-1.64 0.44,-0.27 1.1,-0.62 1.62,-0.62 0.54,0 0.83,0.33 0.83,0.87 0,0.39 -0.17,0.73 -0.4,1.02 -0.2,0.28 -0.47,0.51 -0.82,0.51 -0.33,0 -0.57,-0.21 -0.57,-0.57 0,-0.29 0.18,-0.52 0.4,-0.68 0.04,-0.03 0.13,-0.1 0.21,-0.18 -0.3,0.14 -0.71,0.44 -0.87,0.56 -0.65,0.47 -1.23,1.01 -1.79,1.58 -0.5,0.51 -0.97,1.03 -1.41,1.59 -0.37,0.47 -0.74,0.97 -1.03,1.5 -0.21,0.41 -0.44,0.95 -0.44,1.41 0,0.15 0.04,0.28 0.14,0.4 0.1,0.1 0.21,0.15 0.36,0.15 0.78,0 1.74,-0.66 2.34,-1.13 1.01,-0.78 1.89,-1.71 2.71,-2.7 0.15,-0.17 0.3,-0.35 0.46,-0.51 0.89,-0.97 1.92,-1.82 3,-2.57 0.61,-0.43 1.76,-1.22 2.51,-1.22 0.39,0 0.69,0.16 0.84,0.48l0.23 -0.33 1.45 0 -0.28 0.47c-0.05,0.07 -0.11,0.13 -0.16,0.19l-0.44 0.61 -0.52 0.73 -0.37 0.5 -2.63 3.71c-0.22,0.32 -0.85,1.23 -0.85,1.61 0,0.02 0,0.1 0.02,0.11 0,0.01 0.03,0.01 0.04,0.01 0.31,0 0.9,-0.52 1.12,-0.73 1.07,-1 1.95,-2.18 2.93,-3.25 0.7,-0.9 1.45,-1.76 2.27,-2.54 0.69,-0.65 1.8,-1.57 2.78,-1.57 0.31,0 0.6,0.08 0.84,0.28 0.24,0.2 0.34,0.47 0.35,0.76 0.1,0.53 -1.07,2.02 -1.64,2.72l0.57 0 1.21 0.05c0.37,-0.52 0.77,-1.02 1.17,-1.52 0.51,-0.65 1.01,-1.31 1.47,-2.01l0.09 -0.13 1.67 0 -0.52 0.53c-0.01,0.02 -0.07,0.07 -0.08,0.09l-0.01 0.03 -0.99 1.38 -1.26 1.65c-0.74,0.97 -1.51,1.95 -2.15,2.99 -0.19,0.32 -0.48,0.85 -0.48,1.24 0,0.02 0,0.07 0,0.1 0.29,-0.03 1,-0.67 1.21,-0.86 0.44,-0.41 0.86,-0.84 1.26,-1.29 0.51,-0.58 1,-1.16 1.49,-1.75 0.5,-0.59 1.02,-1.14 1.59,-1.66 0.77,-0.69 1.6,-1.33 2.51,-1.84 0.54,-0.31 1.3,-0.7 1.94,-0.7 0.63,0 1.01,0.38 1.01,1.02 0,0.78 -0.73,1.88 -1.15,2.52 -0.62,0.91 -1.32,1.76 -2.07,2.57 1.06,-0.25 2.06,-1.24 2.72,-2.01l0.16 -0.25 0.52 -0.75 4.35 -6.07c0.64,-0.91 1.28,-1.81 1.95,-2.7 0.58,-0.78 1.18,-1.55 1.82,-2.28 0.6,-0.75 1.96,-2.37 2.97,-2.37 0.51,0 0.85,0.29 0.85,0.84 0,0.68 -0.64,1.66 -1.02,2.22 -0.78,1.17 -1.7,2.26 -2.64,3.31 -0.98,1.06 -1.99,2.1 -3.04,3.09 -0.79,0.74 -1.61,1.47 -2.49,2.1l-3.28 4.68c-0.3,0.42 -1.13,1.54 -1.13,2.05 0,0.02 0,0.08 0.01,0.1 0.02,0 0.04,0 0.07,0 0.34,0 1.23,-0.75 1.51,-0.99 0.48,-0.45 0.99,-0.92 1.41,-1.42 -0.02,-0.13 -0.03,-0.28 -0.03,-0.41 0,-1.11 0.62,-2.28 1.22,-3.18 0.47,-0.69 1.45,-2.1 2.35,-2.1 0.48,0 0.79,0.27 0.79,0.78 0,0.32 -0.13,0.65 -0.27,0.93 -0.26,0.52 -0.59,1.01 -0.91,1.48 -0.61,0.94 -1.29,1.82 -2.03,2.64 0.07,0.04 0.15,0.05 0.23,0.05 0.41,0 0.79,-0.21 1.12,-0.47 0.37,-0.27 0.72,-0.64 1.03,-0.98 0.18,-0.22 0.39,-0.45 0.58,-0.67 0.9,-0.97 1.93,-1.82 3.01,-2.57 0.61,-0.43 1.76,-1.22 2.5,-1.22 0.4,0 0.69,0.16 0.85,0.48l0.23 -0.33 1.45 0 -0.29 0.47c-0.04,0.07 -0.1,0.13 -0.15,0.19l-0.44 0.61 -0.52 0.73 -0.38 0.5 -2.62 3.71c-0.22,0.32 -0.85,1.23 -0.85,1.61 0,0.02 0,0.1 0.01,0.11 0.01,0.01 0.04,0.01 0.05,0.01 0.31,0 0.9,-0.52 1.12,-0.73 1.09,-1.02 2.05,-2.18 2.99,-3.35l0.4 -0.43 0.65 0.57 -0.19 0.23c-0.74,0.89 -1.5,1.76 -2.28,2.63 -0.48,0.52 -1,1.07 -1.56,1.49 -0.32,0.26 -0.74,0.49 -1.16,0.49 -0.28,0 -0.52,-0.1 -0.72,-0.3 -0.2,-0.21 -0.29,-0.47 -0.29,-0.75 0,-0.24 0.06,-0.49 0.14,-0.74 -0.34,0.32 -0.69,0.64 -1.05,0.95 -0.49,0.39 -1.3,0.96 -1.94,0.96 -0.31,0 -0.6,-0.12 -0.81,-0.37 -0.22,-0.26 -0.3,-0.57 -0.3,-0.89 0,-0.4 0.09,-0.79 0.23,-1.16zm-37.29 -0.22c-0.74,0.62 -1.52,1.21 -2.35,1.7 -0.67,0.39 -1.63,0.91 -2.43,0.91 -0.29,0 -0.56,-0.06 -0.77,-0.19 -1.11,0.72 -2.38,1.22 -3.71,1.22 -1.03,0 -1.99,-0.29 -2.69,-1.12 -0.7,-0.84 -0.93,-1.94 -0.93,-3.02l0 -0.32c-0.62,-0.11 -1.14,-0.41 -1.54,-0.93 -0.48,-0.64 -0.64,-1.44 -0.64,-2.24 0,-1.06 0.25,-2.1 0.65,-3.08 0.45,-1.11 1.08,-2.12 1.82,-3.05 0.81,-1.04 1.77,-1.95 2.81,-2.76 0.97,-0.77 2.01,-1.48 3.12,-2.05 1.05,-0.54 2.16,-1.01 3.29,-1.35 0.99,-0.29 2.01,-0.48 3.03,-0.48 0.99,0 2.05,0.18 2.84,0.83 0.74,0.61 1.02,1.5 1.02,2.45 0,1.1 -0.38,2.19 -0.86,3.15 -0.63,1.25 -1.49,2.38 -2.43,3.41l0.02 0.18c0,1.09 -0.29,2.16 -0.71,3.15 -0.48,1.16 -1.16,2.24 -1.95,3.21 -0.61,0.75 -1.29,1.43 -2.04,2.03 0.62,-0.13 1.4,-0.61 1.86,-0.91 1.15,-0.72 2.2,-1.6 3.22,-2.52l0.23 -0.18c0.01,-0.01 0.04,-0.03 0.06,-0.05 0.03,-0.03 0.06,-0.07 0.1,-0.1l0 -0.03c0.8,-1.63 1.69,-3.19 2.62,-4.73 0.55,-0.9 1.12,-1.78 1.72,-2.63 0.58,-0.84 1.19,-1.66 1.83,-2.44 0.45,-0.52 1.56,-1.82 2.27,-1.82 0.21,0 0.41,0.07 0.58,0.24 0.14,0.17 0.21,0.38 0.21,0.6 0,1 -1.2,2.75 -1.78,3.55 -0.62,0.95 -1.33,1.85 -2.04,2.74 -0.71,0.88 -1.44,1.73 -2.22,2.52l-1.07 1.09c-0.19,0.27 -0.46,0.5 -0.71,0.73 -0.21,0.23 -0.47,0.45 -0.66,0.68 -0.02,0.04 -0.04,0.09 -0.06,0.13 -0.04,0.07 -0.08,0.16 -0.12,0.25 -0.05,0.11 -0.11,0.21 -0.15,0.32 -0.07,0.21 -0.18,0.41 -0.29,0.59 -0.29,0.57 -0.57,1.17 -0.83,1.75 -0.36,0.8 -0.72,1.6 -1.09,2.38 -0.19,0.37 -0.41,0.74 -0.62,1.1 1.37,-0.02 3.27,-0.25 4.03,-1.57l0.13 -0.24 0.8 0.36 -0.13 0.3c-0.88,1.78 -3.22,2.07 -4.94,2.07l-0.46 0c-0.89,1.33 -2.01,2.5 -3.25,3.5 -1.32,1.06 -2.77,1.92 -4.33,2.55 -1.39,0.54 -2.87,0.93 -4.36,0.93 -0.8,0 -1.61,-0.11 -2.36,-0.39 -0.62,-0.22 -1.2,-0.56 -1.61,-1.1 -0.4,-0.51 -0.58,-1.1 -0.58,-1.73 0,-0.81 0.29,-1.52 0.77,-2.13 0.55,-0.72 1.29,-1.26 2.06,-1.69 0.94,-0.5 1.95,-0.85 2.99,-1.08 1.16,-0.26 2.36,-0.38 3.55,-0.38 0.2,0 0.4,0.01 0.59,0.02 0.28,0.01 0.54,0.03 0.82,0.06 0.4,0.03 0.8,0.06 1.19,0.08 0.12,0 0.25,0.02 0.37,0.03 0.1,0.02 0.21,0.02 0.32,0.03 0.06,0.02 0.11,0.03 0.17,0.03 0.07,0 0.14,0 0.21,0.01 0.08,0.01 0.16,0.02 0.24,0.03 0.28,0.03 0.58,0.08 0.87,0.08 0.16,0.02 0.31,0.03 0.46,0.05 0.08,0.01 0.16,0.02 0.23,0.03 0.05,0 0.11,0.01 0.17,0.01 0.07,0.01 0.16,0.01 0.21,0.03 0.07,0.01 0.15,0.01 0.24,0.01 0.03,0 0.07,0 0.11,0 0.58,-0.74 1.08,-1.55 1.55,-2.36 0.47,-0.8 0.9,-1.62 1.33,-2.45zm-77 1.48c0,0.13 -0.01,0.24 0.14,0.24 0.53,0 1.66,-0.98 2.06,-1.34 1.1,-0.98 2.1,-2.1 3,-3.27 0.36,-0.47 1.52,-2 1.52,-2.56 0,-0.02 0,-0.11 -0.01,-0.13 -0.01,0 -0.04,0 -0.05,0 -0.4,0 -1.27,0.66 -1.59,0.91 -0.9,0.69 -1.73,1.48 -2.51,2.31 -0.66,0.71 -1.3,1.46 -1.82,2.28 -0.26,0.39 -0.69,1.11 -0.74,1.56zm32.78 -3.43c0.85,-0.39 0.95,-0.47 1.63,-1.18 0.55,-0.61 1.19,-1.67 1.4,-2.47 0.02,-0.07 0.06,-0.25 0.03,-0.33 -0.21,0 -0.41,0.08 -0.6,0.18 -0.76,0.42 -1.14,0.71 -1.65,1.45 -0.21,0.31 -0.41,0.64 -0.57,0.98 -0.12,0.26 -0.23,0.54 -0.29,0.82 -0.02,0.1 -0.06,0.33 -0.03,0.44 0.01,0.04 0.04,0.07 0.06,0.09 0.01,0.01 0.02,0.01 0.02,0.02zm12.92 3.43c0.01,0.13 0,0.24 0.15,0.24 0.53,0 1.66,-0.98 2.06,-1.34 1.1,-0.98 2.09,-2.1 3,-3.27 0.36,-0.47 1.52,-2 1.52,-2.56 0,-0.02 0,-0.11 -0.02,-0.13 0,0 -0.03,0 -0.04,0 -0.4,0 -1.27,0.66 -1.6,0.91 -0.89,0.69 -1.72,1.48 -2.5,2.31 -0.66,0.71 -1.3,1.46 -1.82,2.28 -0.26,0.39 -0.69,1.11 -0.75,1.56zm-20.83 -2.48c0.34,-0.46 0.88,-1.28 0.88,-1.78 0,-0.04 -0.05,-0.12 -0.09,-0.18 -0.26,0.02 -0.5,0.1 -0.7,0.29 -0.16,0.16 -0.28,0.36 -0.34,0.6 -0.05,0.23 -0.05,0.45 0.01,0.68 0.04,0.16 0.12,0.29 0.24,0.39zm-12.81 -14.69c0.48,0.05 0.97,0.1 1.46,0.14 0.39,0.04 0.78,0.05 1.18,0.05 0.5,0 1.14,-0.02 1.63,-0.2 0.16,-0.06 0.39,-0.17 0.39,-0.37 0,-0.1 -0.21,-0.23 -0.28,-0.26 -0.32,-0.16 -0.85,-0.19 -1.22,-0.19 -0.89,0 -1.79,0.27 -2.61,0.59 -0.18,0.07 -0.37,0.15 -0.55,0.24zm-26.11 12.97c1.91,-0.36 3.67,-1.31 5.21,-2.51 0.94,-0.71 1.82,-1.52 2.62,-2.4 0.67,-0.73 1.31,-1.54 1.79,-2.42 0.28,-0.55 0.58,-1.23 0.58,-1.86 0,-0.23 -0.06,-0.45 -0.23,-0.62 -0.18,-0.2 -0.48,-0.23 -0.73,-0.23 -0.93,0 -2.01,0.53 -2.82,1 -0.58,0.34 -1.14,0.73 -1.66,1.15 -0.55,0.46 -1.05,0.94 -1.54,1.46 -0.48,0.52 -0.92,1.06 -1.32,1.62 -0.37,0.55 -0.71,1.13 -0.99,1.73 -0.27,0.56 -0.51,1.15 -0.67,1.76 -0.11,0.44 -0.19,0.88 -0.24,1.32zm129.08 4.2c0,0.13 -0.01,0.24 0.15,0.24 0.52,0 1.66,-0.98 2.05,-1.34 1.11,-0.98 2.1,-2.1 3.01,-3.27 0.36,-0.47 1.51,-2 1.51,-2.56 0,-0.02 0,-0.11 -0.01,-0.13 -0.01,0 -0.04,0 -0.05,0 -0.39,0 -1.26,0.66 -1.58,0.91 -0.9,0.69 -1.73,1.48 -2.51,2.31 -0.66,0.71 -1.3,1.46 -1.83,2.28 -0.25,0.39 -0.69,1.11 -0.74,1.56zm0.69 -9.71c0.44,-0.4 0.86,-0.83 1.28,-1.25 1.05,-1.08 2.05,-2.2 2.99,-3.38 0.48,-0.61 0.94,-1.24 1.34,-1.9 0.13,-0.23 0.46,-0.8 0.49,-1.06 -0.24,0.05 -0.48,0.23 -0.64,0.4 -0.54,0.48 -1.04,1.13 -1.48,1.72l-0.79 1.03 -0.55 0.74c-0.13,0.2 -0.26,0.39 -0.4,0.57l-2.24 3.13zm-2.6 6.34c0.52,-0.63 0.99,-1.28 1.44,-1.95 0.17,-0.26 0.87,-1.3 1.01,-1.65 -0.33,0.13 -1.04,1.05 -1.21,1.27 -0.47,0.64 -1.03,1.49 -1.24,2.33zm-6.89 1.42c0.52,-0.52 0.99,-1.09 1.43,-1.67 0.49,-0.65 0.95,-1.32 1.33,-2.04 0.16,-0.29 0.49,-0.93 0.49,-1.27 0,-0.01 0.01,-0.03 0.01,-0.04 -0.01,0 -0.03,0.01 -0.04,0.01 -0.34,0 -0.73,0.23 -1.01,0.43 -0.48,0.32 -0.9,0.74 -1.26,1.19 -0.36,0.45 -0.65,0.94 -0.87,1.46 -0.17,0.4 -0.32,0.86 -0.32,1.3 0,0.25 0.07,0.46 0.24,0.63zm-0.66 0.65c-0.13,-0.13 -0.24,-0.28 -0.32,-0.44 -0.13,-0.25 -0.17,-0.54 -0.17,-0.81 0,-0.45 0.12,-0.91 0.27,-1.34 -0.2,0.24 -0.39,0.48 -0.59,0.72 -0.52,0.67 -1.74,2.29 -1.74,3.16 0,0.09 0.03,0.16 0.08,0.23 0.03,0.04 0.06,0.05 0.11,0.05 0.4,0 1.33,-0.71 1.66,-0.96 0.2,-0.19 0.41,-0.37 0.61,-0.54 0.03,-0.03 0.07,-0.05 0.09,-0.07zm-19.34 1.3c0,0.13 -0.01,0.24 0.16,0.24 0.51,0 1.65,-0.98 2.04,-1.34 1.11,-0.98 2.1,-2.1 3.01,-3.27 0.36,-0.47 1.52,-2 1.52,-2.56 0,-0.02 0,-0.11 -0.01,-0.13 -0.01,0 -0.05,0 -0.06,0 -0.39,0 -1.26,0.66 -1.59,0.91 -0.89,0.69 -1.72,1.48 -2.49,2.31 -0.67,0.71 -1.31,1.46 -1.84,2.28 -0.25,0.39 -0.68,1.11 -0.74,1.56zm-15.51 0.3c-0.19,-0.34 -0.26,-0.74 -0.26,-1.13 0,-0.54 0.12,-1.08 0.31,-1.6 0.21,-0.57 0.5,-1.12 0.84,-1.63 0.19,-0.31 0.42,-0.62 0.64,-0.92 0.22,-0.29 0.47,-0.56 0.71,-0.83 0.55,-0.62 1.13,-1.22 1.72,-1.81l1.46 -1.5c0.01,-0.01 0.03,-0.03 0.04,-0.05 -0.13,-0.27 -0.32,-0.49 -0.57,-0.63l-0.04 0.06c-0.51,0.77 -1.1,1.47 -1.7,2.15 -0.62,0.71 -1.28,1.39 -2,1.99 -1.9,1.66 -4.3,3.24 -6.85,3.38l0 0.24c0,0.85 0.17,1.72 0.73,2.39 0.51,0.62 1.22,0.82 1.99,0.82 1.05,0 2.08,-0.4 2.98,-0.93zm6.1 -10.16c0.77,-0.84 1.62,-1.82 2.16,-2.82 0.38,-0.73 0.61,-1.51 0.61,-2.34 0,-0.66 -0.16,-1.28 -0.68,-1.71 -0.57,-0.48 -1.49,-0.58 -2.19,-0.58 -1.14,0 -2.25,0.22 -3.32,0.6 -1.23,0.43 -2.39,1.02 -3.49,1.74 -0.58,0.38 -1.15,0.8 -1.7,1.25 -0.53,0.44 -1.03,0.9 -1.51,1.39 -0.76,0.76 -1.45,1.58 -2.06,2.46 -0.5,0.76 -0.96,1.56 -1.31,2.42 -0.25,0.63 -0.45,1.34 -0.45,2.04 0,0.39 0.03,0.82 0.17,1.18 0.11,0.27 0.27,0.52 0.51,0.68 0.2,0.14 0.41,0.24 0.65,0.3 0.12,-0.77 0.36,-1.51 0.64,-2.23 0.36,-0.87 0.79,-1.71 1.3,-2.5 0.53,-0.84 1.14,-1.63 1.79,-2.37 0.74,-0.85 1.54,-1.63 2.42,-2.31 0.76,-0.58 1.59,-1.12 2.46,-1.51 0.71,-0.31 1.5,-0.56 2.27,-0.56 1.07,0 1.72,0.55 1.72,1.68 0,0.45 -0.1,0.91 -0.25,1.34 -0.13,0.39 -0.3,0.78 -0.49,1.14 0.3,0.18 0.55,0.42 0.75,0.71zm-0.51 2.47l-0.1 0.11 -0.7 0.75 -1.54 1.69c-0.51,0.55 -1.02,1.1 -1.46,1.7 -0.29,0.39 -0.54,0.79 -0.74,1.23 -0.16,0.32 -0.38,0.81 -0.38,1.18 0,0.19 0.03,0.36 0.11,0.53 0.87,-0.62 1.65,-1.37 2.34,-2.2 0.75,-0.9 1.39,-1.88 1.86,-2.96 0.29,-0.65 0.51,-1.34 0.61,-2.03zm-2.87 11.62c-0.28,-0.03 -0.57,-0.06 -0.85,-0.09 -0.82,-0.1 -1.64,-0.19 -2.45,-0.26 -0.76,-0.05 -1.52,-0.12 -2.28,-0.12 -1.45,0 -2.9,0.18 -4.3,0.61 -1.08,0.33 -2.2,0.84 -3.04,1.63 -0.61,0.56 -1.07,1.26 -1.07,2.14 0,0.43 0.13,0.81 0.42,1.14 0.33,0.4 0.77,0.65 1.25,0.81 0.63,0.23 1.32,0.31 1.98,0.31 2.46,0 4.66,-1.01 6.59,-2.51 0.81,-0.61 1.55,-1.3 2.27,-2.03 0.52,-0.52 1.03,-1.06 1.48,-1.63zm6.65 -9.88c0.19,-0.2 0.39,-0.41 0.57,-0.62 0.71,-0.78 1.39,-1.6 2.07,-2.41 0.51,-0.66 1.03,-1.32 1.54,-1.99 0.37,-0.54 0.74,-1.08 1.08,-1.64 0.29,-0.47 0.56,-0.92 0.8,-1.41 0.06,-0.13 0.22,-0.48 0.23,-0.63 -0.18,0.03 -0.54,0.39 -0.65,0.51 -1.23,1.29 -2.3,2.79 -3.3,4.29 -0.57,0.87 -1.13,1.76 -1.66,2.67 -0.22,0.41 -0.46,0.81 -0.68,1.23zm-4.91 -5.19c0.37,-0.64 0.71,-1.43 0.71,-2.18 0,-0.58 -0.23,-0.82 -0.8,-0.82 -0.68,0 -1.37,0.23 -1.99,0.52 -0.86,0.4 -1.66,0.94 -2.39,1.55 -0.85,0.71 -1.64,1.51 -2.36,2.36 -0.88,1 -1.64,2.11 -2.23,3.32 -0.43,0.91 -0.81,1.91 -0.97,2.92 1.02,-0.08 2.05,-0.48 2.95,-0.95 1.32,-0.69 2.53,-1.57 3.65,-2.59 1.07,-0.97 2.04,-2.06 2.88,-3.25 -0.76,0.06 -1.5,0.4 -2.15,0.8 -0.85,0.54 -1.55,1.24 -2.1,2.09l-0.17 0.27 -0.7 -0.51 0.13 -0.25c0.35,-0.63 0.84,-1.17 1.38,-1.64 0.58,-0.5 1.2,-0.9 1.89,-1.22 0.63,-0.26 1.29,-0.43 1.97,-0.43 0.1,0 0.2,0 0.3,0.01zm-18.2 -17.49c0.13,-0.26 0.25,-0.39 0.25,-0.78l0 -2.85 0.76 0 0 3.51c-0.44,0.1 -0.41,0.12 -1.01,0.12zm-3.02 -0.52c0,-0.92 -0.2,-2.85 0.25,-2.85 0.53,0 0.27,0.45 0.75,0.78 0.3,0.2 0.18,0 0.46,0.31 0.32,0.37 -0.05,0.29 0.55,0.34 0,1.44 -0.14,1.33 0.25,1.94 -0.53,0 -0.81,0.01 -1.3,-0.07 -0.48,-0.1 -0.96,0.1 -0.96,-0.45zm-5.94 5.31l-7.82 0c-0.44,0 -0.49,-0.09 -0.89,-0.13 0,-3.15 0.27,-1.91 0.51,-2.85 0.29,0.08 0.37,0.13 0.76,0.14 -0.02,-0.93 -0.21,-0.65 -0.76,-0.53 -0.1,-0.27 -0.06,-0.11 -0.2,-0.3 -0.14,-0.2 -0.1,-0.06 -0.17,-0.35 0.39,-0.1 0.82,-0.52 0.99,-0.92 0.66,-1.5 -0.5,-2.7 3.93,-2.7 1.05,0 4.6,0 5.12,1.09 0.05,0.12 0.18,0.71 0.17,0.84l-0.77 2.85c-0.2,0.64 -0.81,2.21 -0.87,2.86zm2.78 -14.25l-0.63 0 0.26 1.81c-0.32,0.13 -0.21,-0.26 -0.26,0.25 -0.05,0.44 -0.01,0.12 0.12,0.4 -0.7,0.02 -2.5,0.69 -3.79,0.9 -3.32,0.53 -3.79,1.01 -5.84,-0.21 -0.24,-0.14 -0.44,-0.29 -0.66,-0.48 -1.11,-0.96 -0.2,-0.61 -0.43,-1.63 -0.74,0 -0.57,-0.05 -1.01,0.25 0.11,0.42 0.64,0.83 -0.13,1.04l0 4.28c-0.61,0.42 -0.45,0.16 -0.5,0.64l-0.25 0c-0.15,-0.4 0.27,-0.18 -0.38,-0.26l0 1.17c0.65,-0.06 0.23,0.12 0.38,-0.26l0.25 0c0.12,0.49 0.24,0.38 0.5,0.78 0.2,0.65 -0.4,1.34 0.38,1.55l0 2.47c-0.3,-0.07 -0.37,-0.12 -0.76,-0.13l0 0.77c0.39,-0.01 0.46,-0.06 0.76,-0.13l0 0.91 -3.15 0.13c-0.2,0.77 -0.23,0.61 0.85,1.72 1.26,1.28 0.61,1.37 2.17,0.74 1.65,-0.66 2.7,0.14 2.79,0.14 0.69,0 0.13,-0.83 3.62,-0.11l2.19 0.36c0.27,0.01 0.52,-0.1 1,-0.13 1.33,-0.06 1.83,-0.51 3.78,-0.51 0.59,0 0.73,0.39 1.13,0.39 0.39,0 0.92,-0.81 2.8,-0.15 1.61,0.55 1.15,0.76 2.23,-0.66 0.44,-0.56 1.79,-1.8 0.16,-1.8 -0.42,0.01 -0.84,0.01 -1.27,0.01 -0.79,0 -1.59,0 -2.39,0 -0.1,-0.42 -0.18,-0.44 -0.33,-0.82 -0.14,-0.34 -0.23,-0.66 -0.31,-1l1.01 -0.64 0 -1.43c0.88,0 1.22,-0.13 2.02,-0.13 0.31,0 2.16,0.74 2.16,-0.13l0 -3.75c0.55,-0.05 0.3,-0.13 1.25,-0.13 0.45,0 0.9,0.38 1.39,0.38 1.08,0 1.76,-1.68 -0.25,-1.68 -0.01,0 -2.39,0.88 -2.39,-0.13l0 -0.78 -1.28 0 0 0.53 -0.75 0c0,-3.42 0.29,-3.25 -0.76,-3.76l-0.5 0.38 0 1.82c-0.77,0.02 -0.28,0.11 -0.97,0.56 -0.72,0.47 -0.08,0.37 -0.79,0.86l-0.26 -0.26c-0.42,-0.54 -0.45,-0.9 -1.43,-1.38 -0.5,-0.25 -0.44,-0.02 -0.72,-0.43l0 -1.81c0.33,-0.14 0.23,0.27 0.25,-0.52l-0.75 0c0.02,-0.02 0.06,-0.08 0.07,-0.06 0.01,0.03 0.08,-0.07 0.11,-0.14 0.1,-0.23 0.04,-0.07 0.07,-0.33l-0.88 0c0.02,0.31 0.03,0.34 0.12,0.53zm76.56 48.77c-0.12,0.09 -0.2,0.24 -0.2,0.4 0,0.27 0.23,0.5 0.5,0.5 0.28,0 0.5,-0.23 0.5,-0.5 0,-0.21 -0.12,-0.38 -0.3,-0.46 0.06,-0.92 0.1,-1.84 0.1,-2.77 0,-0.93 -0.04,-1.86 -0.1,-2.77 0.18,-0.08 0.3,-0.26 0.3,-0.46 0,-0.28 -0.22,-0.5 -0.5,-0.5 -0.27,0 -0.5,0.22 -0.5,0.5 0,0.16 0.08,0.3 0.2,0.39 -0.3,0.89 -0.46,1.85 -0.46,2.84 0,0.99 0.16,1.94 0.46,2.83zm0 -11.82c-0.12,0.09 -0.2,0.24 -0.2,0.4 0,0.27 0.23,0.5 0.5,0.5 0.28,0 0.5,-0.23 0.5,-0.5 0,-0.21 -0.12,-0.39 -0.3,-0.46 0.06,-0.92 0.1,-1.84 0.1,-2.77 0,-0.93 -0.04,-1.86 -0.1,-2.77 0.18,-0.08 0.3,-0.26 0.3,-0.46 0,-0.28 -0.22,-0.5 -0.5,-0.5 -0.27,0 -0.5,0.22 -0.5,0.5 0,0.16 0.08,0.3 0.2,0.39 -0.3,0.89 -0.46,1.85 -0.46,2.84 0,0.99 0.16,1.94 0.46,2.83zm0 -11.82c-0.12,0.09 -0.2,0.24 -0.2,0.4 0,0.27 0.23,0.5 0.5,0.5 0.28,0 0.5,-0.23 0.5,-0.5 0,-0.21 -0.12,-0.39 -0.3,-0.46 0.06,-0.92 0.1,-1.84 0.1,-2.77 0,-0.93 -0.04,-1.86 -0.1,-2.77 0.18,-0.08 0.3,-0.26 0.3,-0.46 0,-0.28 -0.22,-0.5 -0.5,-0.5 -0.27,0 -0.5,0.22 -0.5,0.5 0,0.16 0.08,0.3 0.2,0.39 -0.3,0.89 -0.46,1.85 -0.46,2.84 0,0.99 0.16,1.94 0.46,2.83zm0 -11.82c-0.12,0.09 -0.2,0.24 -0.2,0.4 0,0.27 0.23,0.5 0.5,0.5 0.28,0 0.5,-0.23 0.5,-0.5 0,-0.21 -0.12,-0.39 -0.3,-0.46 0.06,-0.92 0.1,-1.84 0.1,-2.77 0,-0.93 -0.04,-1.86 -0.1,-2.77 0.18,-0.08 0.3,-0.26 0.3,-0.46 0,-0.28 -0.22,-0.51 -0.5,-0.51 -0.27,0 -0.5,0.23 -0.5,0.51 0,0.16 0.08,0.3 0.2,0.39 -0.3,0.89 -0.46,1.85 -0.46,2.84 0,0.99 0.16,1.94 0.46,2.83zm0 -11.82c-0.12,0.09 -0.2,0.24 -0.2,0.4 0,0.27 0.23,0.5 0.5,0.5 0.28,0 0.5,-0.23 0.5,-0.5 0,-0.21 -0.12,-0.39 -0.3,-0.46 0.06,-0.92 0.1,-1.84 0.1,-2.77 0,-0.94 -0.04,-1.86 -0.1,-2.78 0.18,-0.07 0.3,-0.25 0.3,-0.45 -0.03,-0.32 -0.19,-0.48 -0.5,-0.51 -0.27,0 -0.5,0.23 -0.5,0.51 0,0.16 0.08,0.3 0.2,0.39 -0.3,0.89 -0.46,1.85 -0.46,2.84 0,0.99 0.16,1.94 0.46,2.83zm-156.22 47.28c0.12,0.09 0.19,0.24 0.19,0.4 0,0.27 -0.22,0.5 -0.5,0.5 -0.27,0 -0.5,-0.23 -0.5,-0.5 0,-0.21 0.13,-0.38 0.31,-0.46 -0.07,-0.92 -0.1,-1.84 -0.1,-2.77 0,-0.93 0.03,-1.86 0.1,-2.77 -0.18,-0.08 -0.31,-0.26 -0.31,-0.46 0,-0.28 0.23,-0.5 0.5,-0.5 0.28,0 0.5,0.22 0.5,0.5 0,0.16 -0.07,0.3 -0.19,0.39 0.3,0.89 0.46,1.85 0.46,2.84 0,0.99 -0.16,1.94 -0.46,2.83zm0 -11.82c0.12,0.09 0.19,0.24 0.19,0.4 0,0.27 -0.22,0.5 -0.5,0.5 -0.27,0 -0.5,-0.23 -0.5,-0.5 0,-0.21 0.13,-0.39 0.31,-0.46 -0.07,-0.92 -0.1,-1.84 -0.1,-2.77 0,-0.93 0.03,-1.86 0.1,-2.77 -0.18,-0.08 -0.31,-0.26 -0.31,-0.46 0,-0.28 0.23,-0.5 0.5,-0.5 0.28,0 0.5,0.22 0.5,0.5 0,0.16 -0.07,0.3 -0.19,0.39 0.3,0.89 0.46,1.85 0.46,2.84 0,0.99 -0.16,1.94 -0.46,2.83zm0 -11.82c0.12,0.09 0.19,0.24 0.19,0.4 0,0.27 -0.22,0.5 -0.5,0.5 -0.27,0 -0.5,-0.23 -0.5,-0.5 0,-0.21 0.13,-0.39 0.31,-0.46 -0.07,-0.92 -0.1,-1.84 -0.1,-2.77 0,-0.93 0.03,-1.86 0.1,-2.77 -0.18,-0.08 -0.31,-0.26 -0.31,-0.46 0,-0.28 0.23,-0.5 0.5,-0.5 0.28,0 0.5,0.22 0.5,0.5 0,0.16 -0.07,0.3 -0.19,0.39 0.3,0.89 0.46,1.85 0.46,2.84 0,0.99 -0.16,1.94 -0.46,2.83zm0 -11.82c0.12,0.09 0.19,0.24 0.19,0.4 0,0.27 -0.22,0.5 -0.5,0.5 -0.27,0 -0.5,-0.23 -0.5,-0.5 0,-0.21 0.13,-0.39 0.31,-0.46 -0.07,-0.92 -0.1,-1.84 -0.1,-2.77 0,-0.93 0.03,-1.86 0.1,-2.77 -0.18,-0.08 -0.31,-0.26 -0.31,-0.46 0,-0.28 0.23,-0.51 0.5,-0.51 0.28,0 0.5,0.23 0.5,0.51 0,0.16 -0.07,0.3 -0.19,0.39 0.3,0.89 0.46,1.85 0.46,2.84 0,0.99 -0.16,1.94 -0.46,2.83zm0 -11.82c0.12,0.09 0.19,0.24 0.19,0.4 0,0.27 -0.22,0.5 -0.5,0.5 -0.27,0 -0.5,-0.23 -0.5,-0.5 0,-0.21 0.13,-0.39 0.31,-0.46 -0.07,-0.92 -0.1,-1.84 -0.1,-2.77 0,-0.94 0.03,-1.86 0.1,-2.78 -0.18,-0.07 -0.31,-0.25 -0.31,-0.45 0,-0.28 0.23,-0.51 0.5,-0.51 0.28,0 0.5,0.23 0.5,0.51 0,0.16 -0.07,0.3 -0.19,0.39 0.3,0.89 0.46,1.85 0.46,2.84 0,0.99 -0.16,1.94 -0.46,2.83z"/>
 </g>
</svg>
