<?xml version="1.0" encoding="UTF-8"?>
<!DOCTYPE svg PUBLIC "-//W3C//DTD SVG 1.1//EN" "http://www.w3.org/Graphics/SVG/1.1/DTD/svg11.dtd">
<!-- Creator: CorelDRAW -->
<svg xmlns="http://www.w3.org/2000/svg" xml:space="preserve" width="11811px" height="11811px" version="1.1" shape-rendering="geometricPrecision" text-rendering="geometricPrecision" image-rendering="optimizeQuality" fill-rule="evenodd" clip-rule="evenodd"
viewBox="0 0 11811 11811"
 xmlns:xlink="http://www.w3.org/1999/xlink"
 xmlns:xodm="http://www.corel.com/coreldraw/odm/2003">
 <g id="Слой_x0020_1">
  <metadata id="CorelCorpID_0Corel-Layer"/>
  <path id="ВНЕШНИЙ_x0020_КРУГ" fill="white" fill-rule="nonzero" d="M5905.01 11554.85c-1559.89,0 -2972.11,-632.27 -3994.35,-1654.51 -1022.24,-1022.24 -1654.51,-2434.46 -1654.51,-3994.35 0,-1559.9 632.27,-2972.12 1654.51,-3994.35 1022.24,-1022.24 2434.46,-1654.51 3994.35,-1654.51 1559.9,0 2972.12,632.27 3994.35,1654.51 1022.24,1022.23 1654.51,2434.45 1654.51,3994.35 0,1559.89 -632.27,2972.11 -1654.51,3994.35 -1022.23,1022.24 -2434.45,1654.51 -3994.35,1654.51zm0 -11548.46c-1629.12,0 -3104.02,660.34 -4171.64,1727.96 -1067.62,1067.61 -1727.95,2542.52 -1727.95,4171.64 0,1629.12 660.33,3104.02 1727.95,4171.64 1067.62,1067.62 2542.52,1727.95 4171.64,1727.95 1629.12,0 3104.03,-660.33 4171.64,-1727.95 1067.62,-1067.62 1727.96,-2542.52 1727.96,-4171.64 0,-1629.12 -660.34,-3104.03 -1727.96,-4171.64 -1067.61,-1067.62 -2542.52,-1727.96 -4171.64,-1727.96z"/>
  <path id="ПОЛУКОЛЬЦО_x0020_НИЗ" fill="white" fill-rule="nonzero" d="M10021.44 8814.05l-9.78 13.78c-134.15,188.24 -280.92,366.88 -439.07,534.65 -159.21,168.9 -329.98,326.82 -511.02,472.48l-1.61 -1.91c183.87,-163.91 356.16,-340.54 515.47,-528.51 158.83,-187.4 304.77,-386.07 436.43,-594.61 4.16,-6.6 8.45,-13.24 12.5,-19.91 198.67,-317.81 364.34,-658.4 492.18,-1016.93 124.94,-350.37 213.77,-717.89 262,-1098.05l3.2 -24.03 2.91 -22.64 -2276.88 0c-16.78,70.51 -36.36,139.97 -58.62,208.23 -22.36,68.57 -47.42,135.94 -75.05,201.97 -2.79,6.69 -5.61,13.36 -8.47,20.02 -207.4,484.49 -553.72,895.37 -988.85,1182.55 -422.22,278.65 -928.06,440.84 -1471.77,440.84 -543.71,0 -1049.55,-162.19 -1471.76,-440.84 -435.14,-287.18 -781.45,-698.06 -988.85,-1182.55 -2.88,-6.65 -5.67,-13.34 -8.48,-20.02 -27.63,-66.03 -52.69,-133.4 -75.05,-201.97 -22.25,-68.26 -41.83,-137.72 -58.61,-208.23l-2276.89 0 2.91 22.64 3.21 24.02c43.39,342.05 119.64,673.84 225.47,992.09 108.15,325.19 247.19,636.28 413.65,929.79 4.22,7.4 8.42,14.82 12.67,22.21 141.31,246.37 302,480.2 479.97,699.41 178.84,220.29 375.15,425.84 586.81,614.52l-1.61 1.91c-207.64,-167.06 -401.77,-350.25 -580.47,-547.67 -177.38,-195.96 -339.57,-405.94 -484.7,-628.07l-14.81 -22.8c-203.3,-314.85 -372.45,-653.84 -502.23,-1011.7 -126.6,-349.11 -215.73,-716.18 -262.5,-1096.35l-0.14 -1.1c-2.4,-19.55 -4.7,-39.23 -6.9,-59.04 -2.17,-19.6 -4.24,-39.34 -6.21,-59.19l-0.13 -1.37 2509.09 0 0.2 1.01c3.97,19.92 8.15,39.67 12.53,59.23 4.35,19.4 8.93,38.73 13.71,57.95l0.24 0.96c17.69,70.95 38.37,140.76 61.87,209.26 23.63,68.87 50.12,136.42 79.33,202.49 2.69,6.1 5.43,12.17 8.15,18.25 203.45,450.56 533.77,831.54 945.41,1097.38 398.83,257.58 874.02,407.08 1384.12,407.08 510.11,0 985.3,-149.5 1384.13,-407.08 411.64,-265.84 741.96,-646.82 945.4,-1097.38 2.72,-6.08 5.46,-12.15 8.15,-18.25 29.21,-66.07 55.7,-133.62 79.34,-202.49 23.5,-68.5 44.17,-138.31 61.87,-209.26l0.23 -0.96c4.79,-19.22 9.36,-38.55 13.71,-57.95 4.38,-19.56 8.57,-39.31 12.54,-59.23l0.2 -1.01 2509.09 0 -0.14 1.37c-1.96,19.85 -4.03,39.59 -6.21,59.19 -2.19,19.81 -4.49,39.49 -6.9,59.04l-0.13 1.1c-51.09,415.18 -152.68,814.75 -298.44,1192.35 -149.52,387.37 -345.53,751.62 -581.17,1085.92l-5.24 7.41z"/>
  <path id="ПОЛУКОЛЬЦО_x0020_ВЕРХ" fill="white" fill-rule="nonzero" d="M2933.74 5387.85c-10.92,10.92 -26.01,17.68 -42.67,17.68l-2000.71 0 0.13 -1.38c1.97,-19.85 4.04,-39.58 6.21,-59.18 2.2,-19.81 4.5,-39.5 6.9,-59.04l0.14 -1.1c53.86,-437.71 163.85,-858.06 322.54,-1253.62 162.95,-406.15 377.25,-786.17 634.88,-1132.01l2.25 -3.03c127.19,-170.47 264.91,-332.63 412.19,-485.5 148.26,-153.88 306.2,-298.35 472.85,-432.43 134.01,-107.82 273.66,-208.93 418.44,-302.81 142.51,-92.42 290,-177.83 441.95,-255.75l4.89 -2.5c348.75,-178.35 721.03,-317.26 1110.95,-410.84 378.63,-90.87 773.87,-139 1180.33,-139 406.46,0 801.71,48.13 1180.34,139 389.91,93.58 762.19,232.49 1110.95,410.84l4.89 2.5c151.95,77.92 299.43,163.33 441.95,255.75 144.77,93.88 284.42,194.99 418.43,302.81 202.33,162.78 391.81,340.86 566.68,532.48 173.61,190.24 332.84,393.85 475.98,609.1l2.29 3.44c213.18,321.16 390.52,668.16 526.31,1035.29 132.42,358.04 225.34,735.23 273.46,1126.28l0.13 1.1c2.41,19.54 4.71,39.23 6.9,59.04 2.18,19.6 4.25,39.33 6.21,59.18l0.14 1.38 -2000.72 0c-16.65,0 -31.74,-6.76 -42.67,-17.68 -10.92,-10.93 -17.68,-26.02 -17.68,-42.67 0,-16.67 6.76,-31.75 17.68,-42.67 10.93,-10.92 26.02,-17.68 42.67,-17.68l1865.7 0 -2.91 -22.65 -3.2 -24.02c-46.11,-339.38 -126.85,-667.77 -238.53,-981.48 -114.16,-320.7 -260.67,-626.07 -435.6,-912.17 -257.96,-421.91 -577.72,-801.93 -946.68,-1127.46 -367.04,-323.83 -782.79,-593.75 -1234.97,-797.42 -312.15,-140.58 -641.49,-249.52 -984.04,-322.79 -333.29,-71.28 -679.12,-108.8 -1033.71,-108.8 -354.59,0 -700.41,37.52 -1033.7,108.8 -342.56,73.27 -671.89,182.21 -984.05,322.79 -407.73,183.65 -785.82,421.15 -1125.3,703.48 -341.71,284.18 -644.32,613.8 -898.55,979.56l-0.23 0.32c-218.81,314.86 -401.78,656.51 -542.98,1019.02 -137.88,353.97 -235.96,727.87 -288.71,1116.15l-3.21 24.02 -2.91 22.65 1865.7 0c16.66,0 31.75,6.76 42.67,17.67 10.93,10.93 17.68,26.01 17.68,42.68 0,16.66 -6.76,31.75 -17.68,42.67z"/>
  <path id="ДУГА_x0020_НИЗ" fill="white" fill-rule="nonzero" d="M7317.51 6951.58l9.34 -12.5c46.94,-63.35 89.97,-129.82 128.71,-199.03 38.38,-68.58 72.56,-139.84 102.15,-213.4l0.32 -0.79c7.69,-19.14 15.08,-38.46 22.14,-57.92 6.93,-19.08 13.58,-38.34 19.91,-57.77l0.54 -1.64c29.79,-91.63 52.68,-186.39 68.01,-283.64 15.01,-95.15 22.81,-192.74 22.81,-292.16 0,-73.09 -4.21,-145.17 -12.4,-216.02 -8.33,-72.04 -20.79,-142.85 -37.11,-212.15l-0.36 -1.54c-4.58,-19.37 -9.47,-38.64 -14.66,-57.8 -5.35,-19.76 -11.01,-39.36 -16.96,-58.77l-0.5 -1.62c-23.32,-75.77 -51.34,-149.47 -83.73,-220.76 -33,-72.64 -70.54,-142.79 -112.24,-210.06l-1.18 -1.91c-32.94,-53 -68.47,-104.22 -106.42,-153.49 -38.52,-50.02 -79.55,-98.04 -122.89,-143.87l1.8 -1.72c47.89,45.29 93.33,93.04 136.14,143.07 42.74,49.95 82.91,102.21 120.26,156.56l1.35 1.96c45.4,66.22 86.63,135.52 123.3,207.49 36.65,71.95 68.78,146.6 95.98,223.56 6.88,19.47 13.44,39.09 19.68,58.81 6.2,19.61 12.11,39.44 17.7,59.47 22.57,80.72 39.84,163.65 51.4,248.39 11.35,83.15 17.22,168.04 17.22,254.27 0,86.23 -5.87,171.12 -17.22,254.27 -11.56,84.73 -28.83,167.66 -51.4,248.38 -5.59,20.04 -11.5,39.87 -17.7,59.47 -6.24,19.73 -12.8,39.34 -19.68,58.81 -25.84,73.1 -56.13,144.15 -90.54,212.78 -34.4,68.62 -72.92,134.82 -115.21,198.26 -4.46,6.71 -8.99,13.37 -13.53,20.02 -170.87,249.25 -400.77,454.85 -669.55,596.65 -259.19,136.75 -554.55,214.16 -867.98,214.16 -261.5,0 -510.44,-53.89 -736.28,-151.17 -234.57,-101.04 -444.25,-248.9 -617.3,-431.85l1.72 -1.81c169.79,160.57 369.81,289.5 590.62,377.35 212.63,84.59 444.56,131.11 687.37,131.11 296.88,0 577.52,-69.55 826.51,-193.22 258.42,-128.37 482.76,-315.06 655.79,-542.85l4.07 -5.38z"/>
  <path id="ДУГА_x0020_ВЕРХ" fill="white" fill-rule="nonzero" d="M6977.4 4874.19c-7.39,-6.57 -14.89,-13.1 -22.49,-19.58l-0.36 -0.31c-132.55,-113.01 -285.16,-203.23 -451.73,-264.55 -160.52,-59.09 -334.03,-91.36 -515.07,-91.36 -181.05,0 -354.55,32.27 -515.07,91.36 -166.57,61.32 -319.18,151.54 -451.74,264.55l-0.35 0.31c-70.78,60.39 -135.85,127.28 -194.26,199.74 -58.2,72.21 -109.81,149.96 -153.9,232.32 -10.31,19.26 -20.2,38.75 -29.66,58.46 -9.13,19.02 -17.89,38.33 -26.26,57.89l-0.75 1.74c-38.79,90.94 -68.81,186.51 -88.99,285.66 -19.65,96.56 -29.97,196.52 -29.97,298.91 0,72.07 5.12,142.94 14.99,212.26 10.04,70.41 25,139.23 44.5,206.08l0.73 2.5c5.7,19.42 11.8,38.71 18.29,57.87 6.69,19.73 13.78,39.28 21.25,58.63 29,75.02 63.89,147.11 104.1,215.69 40.64,69.31 86.74,135.07 137.69,196.67 5,6.02 10.03,12 15.1,17.97 6.37,7.46 12.83,14.87 19.37,22.23 6.72,7.57 13.44,14.98 20.16,22.25l-1.76 1.75c-8,-7.4 -15.86,-14.82 -23.55,-22.25 -7.73,-7.46 -15.38,-15.01 -22.95,-22.64 -6.43,-6.59 -12.88,-13.12 -19.25,-19.77 -57.13,-59.76 -109.37,-124.24 -156.02,-192.81 -46.67,-68.58 -87.79,-141.27 -122.69,-217.39l-1.15 -2.51c-8.57,-18.8 -16.76,-37.76 -24.54,-56.88 -7.89,-19.42 -15.39,-39.03 -22.48,-58.81l-0.89 -2.5c-28.11,-78.94 -49.77,-160.96 -64.33,-245.4 -14.33,-83.08 -21.81,-168.51 -21.81,-255.67 0,-87.16 7.48,-172.59 21.81,-255.68 14.56,-84.44 36.22,-166.46 64.33,-245.39l0.89 -2.51c7.09,-19.78 14.59,-39.38 22.48,-58.8 7.78,-19.12 15.97,-38.09 24.54,-56.89l1.15 -2.5c36.86,-80.4 80.66,-156.96 130.61,-228.91 49.95,-71.96 106.08,-139.33 167.6,-201.31l2.49 -2.51c137.69,-138.09 302.27,-249.37 485.2,-325.34 176.27,-73.2 369.6,-113.61 572.35,-113.61 202.75,0 396.08,40.41 572.36,113.61 182.92,75.97 347.5,187.25 485.19,325.34l2.5 2.51c5.86,5.91 11.68,11.87 17.44,17.87 6.36,6.62 12.75,13.4 19.15,20.33l-1.76 1.75c-7.29,-6.74 -14.79,-13.54 -22.49,-20.37z"/>
  <path id="КОЛПИНО" fill="white" d="M6550.75 10959.52l-26.56 -247.21c-7.39,-45.44 -9.93,-66.67 -75.29,-44.67 -56.08,18.87 -40.17,17.22 -73.44,47.13 -4.21,3.78 -4.93,3.9 -8.71,8.87l2.74 14.95c15.47,0.76 36.8,-11.52 51.22,-5.71 16.34,6.58 20.36,73.9 23.82,99.28l12.87 110.2c0.47,7.98 1.78,18.76 2.74,27.4 0.9,8.04 1.99,21.84 3.28,29.36l11.98 113.61c7.22,-0.08 46.24,-10.56 51.73,-15.22 55.49,-46.95 44.1,-61.99 75.94,-132.53 13.87,-30.7 28.88,-64.79 41.68,-96.46 3.06,-7.57 36.83,-89.04 43.28,-96.51 2.8,36.08 22.2,217.35 31.58,254.75 13.37,53.3 39.08,54.62 86.57,35.84 36.7,-14.51 46.86,-27.04 70.64,-52.42 3.15,-3.36 7.19,-5.98 10.29,-10.18l-8 -14.8c-26.11,5.12 -59.72,37.13 -74.62,-23.23 -4.99,-20.21 -24.55,-159.43 -25.67,-190.34l-7.48 -87.96c-0.72,-9.47 0.74,-20.67 0.01,-30.15 -0.68,-9.04 -2.14,-19.55 -2.98,-29.67 -37.31,-3.89 -39.32,-4.32 -85.62,46.57 -10.07,11.06 -36.57,76.86 -45.32,95.33 -15.15,31.99 -29.79,64.72 -43.63,97.02l-31.97 73.53c-3.41,8.64 -5.74,16.98 -11.08,23.22zm833.65 -303.28c-6.38,3.86 -125.92,42.21 -140.43,44.58l-22.03 -85.97c-20.42,-81.74 -21.52,-109.1 -109.86,-60.13 -4.31,2.39 -13.73,7.51 -17.57,10.06 -4.03,2.67 -11.12,10.18 -14.22,13.41 -9.32,9.73 -18.04,19.11 -27.85,27.4l5.05 14.95c15.02,0.13 34.59,-16.7 52.08,-11.44 12.77,3.85 18.58,34.87 21.87,46.01l56.34 212.41c4.55,18.21 22.21,98.26 27.92,107.72 32.82,-3.97 64.57,-32.8 83.31,-57.77l-42.02 -165.24c13.41,-10.42 121.94,-36.34 141.63,-45.74 7.36,34.59 39.68,160.62 61.44,182.62 31.19,31.54 97.01,-21.17 118.55,-43.68l31.36 -30.5 -11.3 -15.5c-11.1,10.67 -49.7,34.18 -69.36,2.84 -17.93,-28.6 -49.84,-164.5 -60.73,-208.02l-28.16 -132.58c-3.75,-7.63 -9.08,-6.69 -17.04,-5.2 -26.65,4.99 -27.54,10.85 -49.86,33.17 -28.35,28.34 -20.81,19.85 -9.24,78.31 2.66,13.38 6.49,29.41 9.84,42.9 3.18,12.74 9.6,32.52 10.28,45.39zm-1706.06 92.73l4.25 16c34.29,8.13 61.65,-26.59 61.49,39.26l0 148.19c0,32.94 -2.52,62.02 -2.52,95.44 0,16.27 0.76,34.29 0.1,50.32 -0.69,16.57 -4.53,16.94 -2.18,47.2 16.79,1.31 45.32,-0.28 56.4,-13.07 4.93,-5.7 11.94,-12.56 17.56,-17.59 3.82,-3.42 15.36,-14.17 16.03,-19.14 0,-28.47 0,-56.93 0,-85.4 0,-28.59 2.51,-53.55 2.51,-82.88 0,-28.47 0,-56.93 0,-85.4 0,-29.07 2.52,-53.66 2.52,-82.88 25.11,0 50.23,0 75.35,0 94.17,0 65.3,-21.04 65.3,155.72l-0.09 115.63c0.6,14.46 2.51,7.33 2.53,37.65 0.01,16.22 5.79,51.72 13.93,63.93 20.87,31.32 103.55,-2.04 115.34,-12.66l28.54 -28.83c0.19,-0.23 0.61,-0.81 0.78,-1.03l1.28 -1.87c0.15,-0.17 0.55,-0.71 0.72,-0.86 0.04,-0.04 4.58,-2.92 5.36,-3.38l-6.96 -18.68c-11.38,6.69 -35.91,11.48 -49.37,6.78 -16.07,-5.6 -17.43,-23.18 -20.24,-37.52 -1.98,-10.05 -0.52,-16.2 -1.96,-25.67 -1.68,-11.07 -1.98,-15.62 -1.95,-28.19l0 -115.53c-0.03,-28.6 10.02,-154.26 6.03,-164.27 -8.64,-21.71 -51,-8.91 -71.3,-9.01l-143.2 2.48c-36.27,0 -72.45,4.27 -105.78,9.76 -18.73,3.09 -25.09,0.06 -33.76,8.94l-21.04 21.65c-4.7,4.39 -9.67,10.19 -15.67,14.91zm2195.63 -351.63c-2.74,-14.74 3.17,-49.02 8.24,-62.09 5.32,-13.68 2.3,-12.67 15.96,-19.2 28,-13.38 56.4,-13.95 84.87,-2.67 48.45,19.21 79.02,66.09 101.91,111.58 23.39,46.5 46.04,127.23 25.94,174.13 -7.55,17.6 -16.69,23.52 -41.92,28.41 -75.55,14.67 -134.64,-57.88 -162.37,-119.63 -18.58,-41.39 -24.6,-67.34 -32.63,-110.53zm324 67.65l0 4.24c-0.56,75.36 -8.91,101.54 -62.16,154.79 -21.23,21.22 -33.08,34.72 -58.86,51.65 -47.84,31.42 -120.09,35.78 -171.86,4.5 -66.16,-39.97 -111.92,-146.08 -111.51,-215.01 0.45,-74.54 11.6,-103.27 63.43,-155.1 33.57,-33.57 50.87,-53.12 97.6,-68.18 31,-10 37.06,-5.96 44.94,-7.8 14.16,-3.3 31.96,-0.76 46.72,3.51 41.08,11.9 68.42,34.05 94.64,68.62 29.65,39.1 56.41,109.29 57.06,158.78zm-3548.98 271.42c-1.46,7.88 -1.73,20.36 -3.49,29.16 -4.57,22.91 -15.51,58.81 -25.78,79.72 -20.38,41.5 -30.72,59.5 -81.26,59.45 -90.21,-0.08 -120.76,-88.9 -108.61,-166.44 6.43,-41.08 13.3,-69.08 29.98,-108.17 4.06,-9.51 20.08,-38.78 26.79,-43.53 11.32,-8.02 41.48,-16.27 54.16,-15.76 4.79,0.19 22.84,3.45 27.91,4.75 46.27,11.91 73.11,49.64 80.31,95.51 3.52,22.4 4.03,43.55 -0.01,65.31zm-100.47 -226.05c-5.82,1.32 -13.24,1.06 -21.62,3.49 -48.46,14.06 -76.28,47.95 -110.86,82.54 -40.62,40.62 -63.03,86.18 -76.55,141.97 -13.59,56.06 -10.77,129.05 31.27,173.3 41.86,44.07 100.54,63.35 159.9,55.54 91.59,-12.06 185.88,-130.97 208.2,-228.83 12.81,-56.2 12.74,-127.28 -30.16,-172.18 -18.36,-19.21 -40.11,-36.4 -65.65,-44.86 -32.96,-10.92 -61.06,-18.56 -94.53,-10.97zm-765.4 -201.48c15.41,10.92 30.05,5.25 48.98,23.75 8.04,16.59 -60.03,154.7 -70.53,179.45 -10.2,24.05 -76.36,162.21 -76.79,173.83 14.68,4.56 29.01,8.71 45.16,13.04l30.53 -29.74c18.02,-17.9 53.2,-101.41 62.83,-125.98 3.06,6.55 8.65,29.33 10.91,38.46 3.43,13.9 7.4,27.72 11.01,41.73 9.06,35.16 33.19,126.61 57.12,151.35 17.62,18.23 59.37,19.41 86.08,19.41 4.98,-0.67 44.57,-40.26 45.21,-45.21l-0.13 -12.13c-75,-5.86 -79.51,-79.48 -101.92,-154.57l-18.08 -68.97c51.44,-18.48 103.44,-29.86 153.64,-57.34 17.86,-9.77 40.17,-35.56 55.08,-50.41 9.95,-9.91 15.49,-24.43 8.32,-37.29 -8.68,-15.56 -20.24,-14.98 -33.26,-20.73 -5.86,7.29 -5.67,5.69 -11.51,11.52l-23.86 23.87c-16.3,14.78 5.71,24.76 -69.99,50.57l-125.08 40.69c-3.24,1.1 -5.44,1.9 -8.79,3.85 -7.95,4.62 2.24,1.79 -7.55,4.06l63.37 -139.22c10.72,-25.02 26.64,-50.05 -4.93,-66.99 -26.48,-14.22 -68.24,-15.41 -82.13,-21.28l-10.42 12.28c-0.18,0.18 -0.67,0.61 -0.85,0.76 -13.09,12.07 -30.17,22.52 -32.42,41.24zm1265.22 779.17c6.04,-1.66 40.79,-36.41 45.65,-42.7 -26.27,-43.28 19.58,-114.98 41.42,-159.08 9.91,-19.99 71.73,-126.91 83.73,-134.79l7.53 125.59c3.06,42.74 17.26,184.67 37.09,216.59 32.59,52.47 113.41,11.94 113.5,11.85l35.6 -37.32 -2.71 -17.19c-81.16,24.3 -80.32,-94.18 -88.6,-150.76l-19.43 -226.72c0.02,-15.97 -2.23,-18.96 -18.22,-21.98 -10.62,-2.01 -21.39,-3.43 -31.24,2.84 -3.8,2.41 -37.86,36.71 -41.54,41.37 -35.77,45.35 -164.51,247.09 -190.4,299.36 -8.64,17.43 -22.75,41 -22.82,60.3 -0.12,31.86 27.22,32.64 50.44,32.64z"/>
  <path id="СОВЕТСКИЙ_x0020_7" fill="white" fill-rule="nonzero" stroke="white" stroke-width="17.72" stroke-miterlimit="22.9256" d="M2738.61 7226.72c13.03,33.04 22.2,64.62 27.1,95.21 5.16,30.48 7.24,57.7 6.5,81.55 -0.74,23.86 -3.98,43.63 -9.46,59.22 -5.49,15.58 -12.44,25.18 -20.7,28.44 -17.3,6.82 -40.32,15 -68.46,24.61 -28.39,9.7 -62.56,21.38 -102.61,34.79l-11.9 -33.2c3.72,-1.16 7.18,-2.23 10.28,-3.45 3.45,-1.07 6.55,-2.29 10.17,-3.71 17.45,-7.18 33.16,-15.76 47.48,-25.58 14.32,-9.83 26.65,-22.44 37.34,-37.69 10.23,-15.67 18.35,-32.89 23.96,-51.21 5.6,-18.32 8.89,-37.21 9.76,-56.95 0.97,-19.47 -0.12,-39.63 -3.67,-60 -3.56,-20.37 -9.13,-40.55 -16.87,-60.16 -13.33,-33.82 -30.87,-62.41 -52.08,-85.96 -21.48,-23.45 -45.61,-42.27 -72.74,-56.63 -27.14,-14.36 -56.26,-24.65 -88.13,-30.58 -31.6,-6.03 -64.26,-8.66 -98.28,-7.18 -33.86,1.12 -68.15,5.69 -102.97,13.45 -34.83,7.77 -68.89,18.22 -102.45,31.45 -39.75,15.67 -75.61,33.69 -108.17,53.99 -32.57,20.29 -61.07,42.57 -85.82,66.05 -24.64,23.73 -45.43,48.93 -61.95,75.13 -16.67,26.56 -29.01,53.5 -36.83,81.34 -7.92,27.58 -11.15,55.7 -9.89,83.85 0.99,28.24 7.14,55.94 18.03,83.57 7.53,19.1 17.34,37.9 29.51,56.67 12.17,18.77 26.66,36.62 44.05,54.22 17.28,17.35 36.88,33.78 59.01,49.82 22.03,15.77 47,30.68 74.45,44.32 -0.22,2.47 -0.59,5.3 -1.12,8.49 -0.28,3.09 -1.07,6.39 -2.06,9.17 -1.15,3.14 -2.4,6.01 -4.11,8.48 -1.46,2.36 -3.37,4.31 -5.69,5.23 -1.55,0.61 -4.03,0.39 -7.68,-0.56 -36.88,-14.09 -69.73,-30.07 -97.93,-47.89 -28.31,-18.07 -53.25,-37.46 -74.69,-58.55 -21.33,-20.81 -39.52,-43.48 -54.6,-67.36 -15.08,-23.88 -27.84,-48.68 -37.92,-74.23 -13.44,-34.08 -21.62,-68.44 -24.18,-102.93 -2.66,-34.74 -0.53,-68.69 6.79,-102.31 7.18,-33.25 19.14,-65.7 35.73,-97 16.59,-31.31 37.5,-60.73 62.84,-88.02 25.23,-27.55 54.73,-52.6 88.13,-75.32 33.4,-22.71 70.49,-42.11 111.28,-58.19 39.5,-15.58 80.63,-27.02 123.54,-34.69 42.81,-7.93 85.44,-11.02 127.79,-9.52 42.61,1.39 84.27,7.94 125.12,19.27 41.22,11.49 79.48,28.32 115.24,50.91 35.75,22.59 68.23,51.25 97.07,85.82 29.2,34.72 52.96,76.06 71.79,123.82zm-544.39 527.68c23.82,-13.69 49.26,-25.12 76.7,-34.18 27.06,-9.16 55.17,-15.39 83.56,-18.91 28.38,-3.52 56.57,-4.04 84.94,-1.47 28.13,2.72 55.1,8.98 81.04,19.03 25.57,9.94 49.49,23.72 71.15,41.35 21.81,17.88 40.38,40.16 55.88,67.11 17.29,30.07 26.25,60.13 26.77,90.55 0.67,30.67 -4.86,59.46 -16.66,87.37 -11.7,27.53 -28.6,53.25 -50.5,76.41 -21.76,23.39 -46.59,43.12 -74.25,59.02 -23.82,13.69 -49.26,25.12 -76.7,34.18 -27.07,9.16 -55.17,15.4 -83.56,18.91 -28.52,3.28 -56.85,3.56 -85.22,0.99 -28.13,-2.71 -55.09,-8.98 -80.9,-18.78 -25.57,-9.95 -49.49,-23.72 -71.29,-41.6 -21.8,-17.87 -40.38,-40.16 -55.73,-66.86 -17.29,-30.07 -26.39,-60.38 -26.92,-90.8 -0.53,-30.43 4.86,-59.46 16.8,-87.13 11.84,-27.29 28.74,-53.01 50.64,-76.17 21.76,-23.39 46.59,-43.11 74.25,-59.02zm81.86 64.97c-15.88,9.13 -31.31,19.6 -46.39,31.79 -14.97,11.81 -28.64,24.79 -40.89,38.56 -12.35,14.14 -22.95,28.56 -31.75,43.87 -9.05,15.44 -15.48,30.98 -19.25,47.24 -3.92,16.01 -4.84,32.23 -2.9,48.4 1.69,16.31 7.11,32.4 16.24,48.28 9.82,17.08 22.38,30.02 37.31,38.73 14.68,8.84 31.05,14.47 48.71,16.8 17.8,2.57 36.32,2.48 55.55,-0.25 19.48,-2.88 38.36,-7.33 57.42,-13.17 19.05,-5.83 37.17,-12.73 54.36,-20.69 17.43,-8.1 33,-16.09 46.71,-23.98 16.36,-9.4 31.78,-19.87 46.76,-31.69 14.97,-11.81 28.64,-24.79 40.75,-38.79 12.25,-13.77 22.71,-28.43 31.65,-43.49 8.81,-15.31 15.1,-31.09 18.77,-46.97 3.78,-16.25 4.7,-32.47 2.77,-48.64 -1.7,-16.31 -7.35,-32.26 -16.34,-47.9 -9.83,-17.08 -22.15,-30.16 -36.84,-39 -14.82,-9.08 -31.05,-14.48 -48.85,-17.05 -17.56,-2.7 -35.94,-2.38 -55.41,0.5 -19.23,2.73 -38.5,7.09 -57.17,13.02 -18.81,5.7 -36.94,12.59 -54.36,20.7 -17.57,7.86 -33.14,15.85 -46.85,23.73zm434.85 177.97c15.79,13.36 32.78,28.24 51.14,44.87 18.53,16.85 36.97,34.47 55.71,52.93 18.73,18.45 36.99,37.63 55.19,57.21 18.21,19.57 34.86,38.96 49.77,57.94 8.92,11.35 18.08,23.91 27.28,37.86 9.42,13.77 17.96,28.24 25.41,43.56 7.5,14.93 13.78,30.11 18.63,45.71 4.85,15.6 6.97,30.87 7.14,45.91 -0.22,15 -3.33,29.45 -9.34,43.35 -6.19,13.69 -16.18,26.12 -30.15,37.1 -17.45,13.72 -36.25,22.13 -55.99,25.3 -19.75,3.16 -39.42,2.39 -58.67,-1.9 -19.64,-4.33 -38.34,-11.51 -56.67,-21.81 -18.38,-9.92 -34.79,-21.37 -49.07,-34.15l-1.74 1.37c12.84,18.14 23.77,37.44 32.95,58.1 8.79,20.62 14.42,41.26 16.49,61.86 2.08,20.61 -0.3,40.48 -7.36,59.79 -6.84,19.14 -20,36.54 -39.41,51.8 -17.02,13.37 -34.75,22.71 -52.78,28.06 -18.03,5.34 -36.08,7.53 -54.1,6.16 -18.23,-1.2 -36.14,-5.13 -54.11,-11.83 -17.8,-6.48 -35.1,-15.47 -51.78,-26.36 -16.68,-10.9 -32.73,-23.69 -47.65,-37.73 -14.87,-14.44 -28.69,-29.34 -41.38,-45.48 -11.49,-14.62 -21.72,-29.88 -30.51,-45.55 -8.96,-15.9 -16.41,-31.22 -22.7,-46.4l-54.15 -52.74 -3.72 -5.19c38.67,-25.8 76.55,-51.69 113.66,-77.68 36.89,-25.81 72.52,-50.98 106.49,-75.57 33.81,-24.8 65.86,-48.22 95.45,-70.76 29.97,-22.5 57.19,-43.54 81.63,-62.74 8.07,-6.35 13.93,-12.36 17.63,-18.44 3.64,-5.69 5.73,-11.57 5.82,-17.29 0.27,-5.5 -1.03,-11.19 -3.88,-17.06 -2.68,-5.66 -6.53,-11.46 -11.16,-17.35 -5.49,-6.98 -12.44,-14.93 -21.08,-23.67 -8.63,-8.75 -17.66,-17.54 -26.73,-25.94l23.74 -23.24zm-277.58 467.31c3.63,15.85 8.92,31.11 16.12,45.21 7.16,14.5 15.28,27.53 24.54,39.31 12.69,16.14 27.26,29.75 43.33,40.77 16.24,11.23 33.12,18.79 50.98,23.11 18.08,4.14 36.24,4.34 54.86,0.65 18.63,-3.7 36.69,-12.6 54.15,-26.32 18.76,-14.74 31,-31.06 36.87,-48.74 5.7,-17.89 6.73,-36.35 3.3,-55.53 -3.65,-19.02 -11.02,-38.28 -21.73,-57.74 -10.88,-19.69 -23.63,-38.61 -38.04,-56.94 -5.31,-6.76 -10.85,-13.35 -16.55,-20.16 -5.92,-6.64 -11.46,-13.24 -17.38,-19.87l-190.45 136.25zm405.02 -290.76c-8.63,6.08 -19.45,13.87 -32.01,23.04 -12.78,9.34 -27.08,19.87 -43.09,31.39 -16.23,11.69 -33.54,24.24 -52.33,37.6 -18.63,13.58 -38.3,27.62 -58.62,42.18 16.63,21.16 34.49,40.3 53.93,57.85 19.27,17.33 39,30.76 59.81,40.18 20.42,9.36 41.05,13.61 62.08,12.97 20.85,-0.85 41.21,-9.09 61.06,-24.69 16.37,-12.86 26.93,-26.81 31.7,-41.85 4.99,-15.21 5.86,-30.72 2.79,-46.31 -2.9,-15.36 -8.75,-30.89 -17.03,-45.91 -8.45,-15.24 -17.64,-29.19 -27.59,-41.85 -5.48,-6.98 -11.7,-14.44 -18.87,-22.22 -6.96,-7.95 -14.17,-15.34 -21.83,-22.38zm221.39 852.3c0.43,1.56 1.27,3.89 2.12,6.62 0.66,2.93 1.32,5.86 1.77,8.6 0.46,2.73 0.53,5.48 0.19,7.84 -0.33,2.76 -1.06,4.74 -2.4,6.15 -0.77,0.8 -1.55,1.21 -2.91,1.44 -25.79,4.93 -50.28,6.89 -73.66,6.07 -23.38,-0.81 -45.43,-3.82 -66.17,-9.41 -20.94,-5.39 -40.16,-12.98 -57.66,-22.77 -17.71,-9.98 -33.29,-21.38 -46.95,-34.4 -23.5,-22.41 -40.59,-47.91 -51.08,-76.31 -10.29,-28.22 -14.72,-57.36 -12.88,-87.43 1.63,-30.27 9.16,-60.28 22.77,-90.24 13.41,-30.16 32.37,-58.09 56.88,-83.8 19.92,-20.89 42.43,-39.68 66.97,-56.16 24.73,-16.68 50.31,-30.25 77.14,-41.1 27.03,-10.65 54.52,-18.18 82.68,-22.77 28.16,-4.21 56.02,-4.87 83.37,-1.8 27.56,3.27 54.03,10.49 79.82,22.05 25.79,11.16 49.53,27.28 71.62,48.34 14.46,13.79 26.4,29.01 35.63,45.47 9.62,16.45 15.7,32.99 18.46,49.81 2.96,17 2.17,33.51 -2.15,49.71 -4.52,16.4 -13.18,31.52 -26.4,45.38 -18.95,19.88 -42.04,31.23 -69.27,33.64 -27.22,2.42 -57.36,-2.16 -90.21,-13.55 -32.86,-11.38 -68.02,-28.8 -105.27,-52.05 -36.87,-23.27 -75.21,-50.61 -114.22,-81.68l-4.6 4.82c-23.93,25.11 -42.94,51.08 -56.24,77.89 -13.48,27.02 -21.5,53.12 -24.62,78.51 -2.93,25.59 -0.79,49.48 6.63,72.27 7.21,22.6 19.46,42.32 36.93,58.98 17.68,16.86 39.96,29.67 66.68,38.65 26.9,8.78 59.18,12.72 97.03,11.23zm169.75 -289.04c8.62,-9.04 15.26,-18.82 19.51,-29.71 4.46,-10.71 6.75,-21.56 6.88,-32.56 0.33,-10.8 -1.69,-21.54 -6.26,-32.04 -4.18,-10.49 -10.68,-19.76 -19.31,-27.99 -12.66,-12.07 -26.41,-20.96 -40.87,-26.31 -14.85,-5.34 -30.03,-8.31 -45.73,-8.33 -15.71,-0.02 -31.55,2.12 -47.54,6.43 -16,4.31 -31.95,10.18 -47.29,17.42 -15.52,7.44 -30.43,15.84 -44.53,25.4 -14.5,9.57 -27.8,19.51 -40.11,30.01 29.83,24.6 57.99,44.93 84.68,61.18 26.69,16.24 51.3,27.82 73.65,34.94 22.34,6.73 42.61,8.8 60.6,6.02 17.99,-2.79 33.49,-11.01 46.32,-24.46zm556.48 924.53c-12.81,0.77 -27.26,0.03 -43.68,-1.78 -16.65,-1.96 -33.05,-4.77 -49.64,-8.73 -16.52,-3.58 -32.01,-8.13 -46.48,-13.65 -14.62,-5.29 -26.15,-11.1 -34.97,-17.37 -6.11,-4.35 -11.21,-8.66 -15.55,-13.1 -4.17,-4.67 -7.08,-10.15 -8.42,-16.89 -1.5,-6.51 -1.09,-14.74 1.05,-24.45 1.98,-9.49 6.5,-21.6 13.41,-36.09 6.74,-14.28 16.58,-31.46 28.95,-51.26 12.38,-19.8 28.33,-43.19 47.63,-70.33 21.39,-30.08 40.75,-56.83 58.32,-80.09 17.72,-23.49 33.36,-44.04 47.06,-61.87 13.71,-17.84 25.64,-33.19 35.65,-45.82 9.78,-12.8 17.95,-23.33 24.06,-31.93 4.82,-6.78 8.88,-13.43 12.28,-19.18 3.18,-5.91 4.98,-11.79 5.22,-17.4 0.25,-5.61 -1.12,-11.35 -4.42,-16.77 -3.53,-5.57 -9.28,-11.36 -17.42,-17.15 -12.89,-9.17 -29.56,-20.68 -49.69,-34.99 -20.06,-13.93 -45.39,-31.94 -75.85,-53.27 -18.89,23.69 -38.9,48.96 -60.27,75.65 -21.29,27.08 -44.68,57.09 -70.1,90.44 -25.64,33.18 -53.63,70.14 -84.35,110.95 -30.72,40.81 -64.69,87.14 -102.51,138.9l-75.77 -40.94 -5.27 -4.09c24.17,-30.14 50.26,-63.01 78.28,-98.58 28.03,-35.58 56.3,-71.99 85.45,-109.15 28.76,-37.1 57.14,-74.12 84.97,-110.86 27.82,-36.74 53.43,-71.31 77.2,-103.78 -11.92,-8.14 -24.07,-16.43 -36.51,-25.28 -12.44,-8.84 -25.55,-18.17 -39.35,-27.98l-90.68 -64.49c-1.83,4.49 -4.05,9.04 -6.65,13.66 -2.44,4.39 -6.72,10.89 -12.51,19.03 -5.95,8.37 -17.34,23.42 -34.33,45.39 -16.76,22.14 -37.99,49.6 -63.63,82.78 -25.87,33.03 -55.43,71.25 -88.92,114.52 -33.49,43.26 -70.33,90.28 -109.51,141.07l-73.73 -39.49 -5.04 -3.93c17.02,-20.58 34.84,-42.3 53.31,-64.92 18.41,-23 36.81,-46.01 54.99,-69.18 18.4,-23.01 36.26,-45.72 53.56,-68.15 17.31,-22.42 33.49,-43.26 48.1,-62.84 14.83,-19.42 27.99,-36.96 39.31,-52.4 11.32,-15.45 20.39,-27.73 26.99,-37 8.2,-11.53 15.21,-21.87 20.32,-30.49 5.27,-8.85 8.67,-16.99 10.37,-24.64 1.92,-7.49 1.68,-14.81 -0.21,-21.26 -1.95,-6.83 -5.9,-13.73 -11.91,-21.07 -6.02,-7.34 -14.33,-15.29 -24.93,-23.85 -10.37,-8.4 -23,-18.4 -38.22,-29.57l18.88 -28.45c19.8,14.76 37.28,27.53 52.27,38.53 15.15,10.78 28.11,20.33 39.19,28.21 10.92,8.11 20.19,14.7 27.88,20.17 7.46,5.3 14.02,9.97 19.23,13.67l17.18 12.22c72.37,51.46 135.63,96.1 189.84,134.31 54.14,37.82 100.21,70.24 138.53,96.81 38.09,26.4 68.71,47.5 91.49,63.36 22.71,15.46 38.92,26.66 48.2,33.25 9.72,6.92 15.19,14.55 16.33,22.52 0.92,7.8 -1.64,16.19 -7.75,24.79 -2.41,3.39 -7.37,9.4 -14.32,17.74 -7.34,8.4 -15.96,18.61 -26.26,30.7 -9.91,12.02 -21.56,25.53 -34.17,40.39 -12.84,14.71 -25.87,30.64 -39.39,47.25 -13.51,16.61 -27.28,34.06 -41.21,51.73 -13.87,18.06 -27.19,35.83 -39.73,53.47 -15.6,21.94 -28.65,41.26 -39.39,57.8 -10.36,16.47 -18.71,30.62 -24.85,42.6 -5.91,12.14 -9.98,22.18 -12.16,30.51 -2.4,8.16 -3,15.23 -1.96,21.42 1.21,5.97 3.51,11.35 7.39,15.47 3.95,4.51 8.67,8.89 14.32,12.9 10.63,7.56 22.61,13.7 35.78,18.64 12.95,4.78 28.15,8.78 44.61,11.97l-5.89 21.69zm508.99 -183.09c13.74,-9.8 24.16,-21.61 31.12,-35.19 4.93,-9.64 7.63,-19.17 8.72,-29.21 1.09,-10.04 -0.06,-19.98 -3.56,-29.57 -3.14,-9.71 -8.63,-19.07 -16.36,-27.71 -7.99,-8.77 -18.34,-16.56 -31.43,-23.26 -18.77,-9.62 -37.33,-14.76 -55.82,-15.81 -18.35,-1.3 -36.12,1.14 -53.43,6.93 -17.55,5.66 -34.02,14.07 -50.01,25.2 -15.87,10.9 -30.89,23.78 -44.93,38.42 -14.17,14.87 -26.98,30.76 -38.81,47.77 -11.7,16.77 -21.8,34.05 -30.78,51.58 -15.94,31.12 -26.41,61.3 -31.29,90.92 -5.12,29.48 -5.14,56.91 -0.79,81.9 4.6,25.11 13.57,47.17 26.78,66.41 13.22,19.24 30.2,34.17 50.95,44.8 21.98,11.26 47.12,16.96 75.79,16.99 28.29,0.15 59.76,-7.12 94.03,-21.68 0.86,1.38 2.33,3.38 3.92,5.75 1.59,2.37 2.93,5.24 4.14,7.74 1.09,2.74 1.69,5.22 2.29,7.71 0.59,2.49 0.57,4.35 -0.18,5.83 -0.51,0.99 -0.76,1.48 -1.13,1.61l-1.51 1.1c-42.81,25.77 -85.52,39.75 -127.98,41.7 -42.34,2.32 -83.21,-6.76 -122.24,-26.75 -21.24,-10.88 -39.23,-23.84 -53.98,-38.87 -14.99,-15.16 -26.87,-31.54 -36,-49.62 -9.02,-17.71 -15.41,-36.89 -18.94,-56.78 -3.78,-20.02 -4.95,-40.26 -3.75,-60.85 1.43,-20.46 4.73,-40.91 10.52,-61.33 5.65,-20.17 13.29,-39.96 22.91,-58.73 12.9,-25.19 28.89,-49.11 47.35,-71.77 18.72,-22.53 39.14,-42.93 62.16,-61.08 22.63,-18.02 46.98,-33.3 72.67,-45.71 25.81,-12.66 52.21,-21.59 79.44,-26.66 27.23,-5.07 54.41,-5.8 82.3,-2.43 27.89,3.37 54.99,11.95 81.42,25.49 19.76,10.12 37.02,22.07 51.66,35.5 14.76,13.79 26.16,28.05 33.95,43.27 7.8,15.21 12.24,30.89 13.08,46.91 0.59,15.89 -2.79,31.62 -10.63,46.93 -5.06,9.88 -10.97,17.77 -18.1,23.78 -6.89,6.14 -14.38,10.41 -22.6,13.06 -8.21,2.65 -16.66,3.32 -25.34,2.61 -8.8,-1.08 -17.71,-3.77 -26.35,-8.19 -5.19,-2.66 -10.49,-6.31 -15.67,-10.21 -5.17,-3.9 -9.59,-8.66 -14.14,-13.79l0.55 -4.71zm17.64 465.67c10.11,-23.82 20.67,-49.83 32.29,-78.12 11.28,-28.12 22.72,-56.77 34.09,-86.02 11.63,-29.18 22.55,-58 33.74,-86.73 10.92,-28.82 21.22,-55.8 30.55,-80.77 9.33,-24.97 17.5,-47.4 24.79,-67.2 7.37,-20.06 12.97,-35.74 16.89,-47.31 2.75,-8.15 4.72,-15.68 6.24,-22.78 1.52,-7.11 1.64,-13.51 0.44,-19.48 -0.94,-5.89 -3.64,-10.9 -7.74,-15.22 -4.37,-4.41 -10.67,-8.3 -19.35,-11.23 -8.41,-2.85 -18.84,-4.91 -32,-6.73 -12.8,-1.99 -29.29,-3.47 -49.64,-4.79l3.64 -29.82c47.83,-0.22 86.79,0.66 116.7,3.16 29.74,2.16 50.09,5.23 60.86,8.88 6.84,2.31 13.05,5.59 18.48,9.47 5.42,3.89 9.52,9.08 12.48,15.06 2.95,5.98 4.59,13.28 4.64,21.79 0.13,8.25 -1.75,18.15 -5.58,29.46 -1.07,3.15 -3.64,9.9 -7.81,20.5 -4.35,10.24 -9.67,23.38 -15.98,39.42 -6.56,15.94 -13.93,34.24 -22.36,54.83 -8.34,20.32 -17.21,42.22 -26.53,65.43 -9.32,23.21 -19.17,47.12 -28.85,72.27 -9.85,24.79 -19.53,49.93 -29.12,74.81 -9.33,24.96 -18.48,49.41 -27.45,73.32 -8.7,24.01 -16.62,46.53 -23.73,67.55l-7.03 20.77 -86.7 -18.21 -5.96 -2.31zm198.34 -237.26l1.86 -4.64c38.85,-13.52 73.31,-26.18 102.58,-37.36 29.36,-11.46 54.95,-22.13 76.67,-31.78 21.45,-9.73 39.75,-18.77 54.71,-27.48 14.95,-8.71 27.19,-17.16 37.05,-25.54 9.52,-8.21 17.37,-16.69 22.85,-25.09 5.47,-8.4 9.9,-17.15 13.01,-26.35 3.83,-11.3 6.34,-23.05 7.53,-35.24l2.74 -3.77c9.57,0.31 18.95,2.02 28.15,5.13 7.09,2.4 13.84,5.86 19.43,10.1 5.86,4.32 10.67,9.17 14.33,14.8 3.66,5.63 6.09,12.32 6.93,19.34 0.85,7.02 -0.06,14.92 -2.82,23.07 -2.49,7.36 -6.3,14.27 -11.06,20.57 -5.03,6.21 -11.82,12.41 -20.62,18.51 -9.07,6.01 -20.42,12.72 -34.67,19.32 -14.07,6.96 -31.3,14.61 -52.4,23.29 -20.84,8.77 -45.8,18.48 -74.55,29.85 -28.66,11.1 -61.98,23.85 -100.3,38.42 13.92,45.43 26.21,84.45 36.59,116.96 10.12,32.43 19.3,59.85 27.18,82.44 7.97,22.33 14.74,40.43 21.17,54.33 6.17,13.8 12.08,24.89 17.58,32.9 5.66,8.36 11.6,14.18 17.55,18.24 6.04,3.8 12.87,6.99 20.49,9.57 11.57,3.91 23.32,6.42 35.34,7.27 12.01,0.84 25.35,1.25 40.18,0.71l0.43 22.99c-16.26,4.75 -32.42,8.36 -48.49,10.84 -16.34,2.38 -31.44,3.72 -45.48,4.53 -14.31,0.73 -27.12,0.49 -38.7,-0.79 -11.66,-1.01 -20.78,-2.64 -28.14,-5.13 -6.57,-2.22 -12.96,-5.85 -18.91,-10.79 -5.85,-5.2 -11.61,-12.42 -17.45,-22.01 -5.48,-9.77 -11.57,-22.08 -17.73,-37.64 -6.25,-15.3 -13.45,-34.73 -21.15,-57.84 -7.62,-23.38 -16.45,-50.97 -26.22,-82.7 -10.03,-31.81 -21.45,-69.07 -34.24,-111.77l-11.42 -37.26zm377.23 417.43l-6.5 -1.45c9.66,-38.3 19.61,-78.24 29.68,-120.42 10.29,-41.85 20.21,-83.21 29.81,-124.34 9.83,-40.81 18.59,-80.4 26.79,-118.4 8.19,-38.01 15.16,-72.28 20.67,-103.15 3.56,-19.94 3.14,-34.95 -0.93,-45.27 -4.08,-10.31 -13.91,-16.86 -29.2,-19.59 -9.29,-1.66 -20.19,-2.19 -33.2,-1.98 -12.95,-0.06 -29.48,0.94 -49.53,2.71l-0.84 -30.03c21.21,-3.54 41.23,-6.73 60.24,-8.97 18.78,-2.57 35.73,-4.33 51.11,-5.25 15.16,-1.24 28.54,-1.95 39.81,-1.91 11.27,0.04 19.66,0.41 25.67,1.48 7.37,1.32 14.28,3.68 20.17,6.99 5.9,3.3 10.77,7.56 14.54,13.3 3.77,5.75 6.24,12.39 7.29,20.76 1.09,8.08 0.75,17.89 -1.3,29.36 -1.95,10.93 -4.99,24.76 -8.83,41.55 -4.12,16.74 -8.67,35.95 -13.85,57.01 -5.49,21.29 -11.32,44.49 -17.72,69.28 -6.45,25.06 -13.1,51.22 -19.99,78.74 -6.83,27.25 -14.14,55.55 -21.28,84.44 -7.18,29.16 -14.36,58.32 -21.26,87.53l3.13 1.4c62.02,-72.64 124.57,-143.5 187.64,-212.57 63.08,-69.08 127.2,-137.69 192.14,-206.14l92.15 4.89 6.18 1.67c-4.1,15.06 -8.81,31.97 -14.23,51.3 -5.15,19.38 -10.45,39.57 -15.95,60.86 -5.44,21.02 -11.03,42.85 -16.49,65.56 -5.42,22.42 -10.78,44.58 -15.73,65.97 -5,21.65 -9.52,42.27 -13.63,62.11 -4.38,19.8 -7.83,37.51 -10.71,53.63 -6,33.6 -10.06,61.06 -12.17,82.39 -1.8,21.1 -1.72,38.03 0.23,50.78 2.27,12.53 6.55,21.75 12.64,27.06 6.05,5.6 14.4,9.34 24.79,11.19 12.83,2.3 26.88,2.55 42.04,1.31 15.21,-1.51 31.22,-4.29 47.73,-8.39l4.59 21.68c-10.98,6.22 -24.14,12.04 -39.49,17.48 -15.07,5.48 -31.14,10.22 -47.88,13.99 -17.06,4 -33.61,6.69 -50.19,7.95 -16.3,1.32 -31.12,0.65 -44.23,-1.69 -13.66,-2.44 -23.86,-8.49 -30.81,-18.47 -7.28,-9.76 -11.64,-23.22 -13.68,-40.22 -1.82,-16.67 -1.58,-36.93 0.7,-60.76 2.24,-23.56 6.2,-50.48 11.52,-80.26 1.75,-9.83 3.95,-22.12 7.08,-36.5 2.86,-14.43 6.28,-30.45 10.27,-48.06 3.67,-17.39 7.81,-35.82 12.42,-55.29 4.6,-19.48 9.48,-38.9 14.4,-58.6 4.88,-19.42 10.03,-38.8 15.36,-57.58 5.01,-18.56 10.14,-36.25 15.25,-52.25l-3.13 -1.4c-65.45,69.77 -130.19,140.24 -193.93,211.45 -63.47,71.26 -127.18,143.89 -191.18,218.16l-88.18 -5.04zm703.91 104.16l-6.65 -0.45c3.77,-39.32 7.58,-80.31 11.17,-123.52 3.87,-42.93 7.44,-85.31 10.72,-127.42 3.56,-41.83 6.25,-82.29 8.62,-121.09 2.36,-38.8 4.08,-73.73 4.87,-105.08 0.51,-20.25 -2.16,-35.03 -7.75,-44.61 -5.59,-9.58 -16.29,-14.57 -31.83,-14.96 -9.43,-0.24 -20.28,0.87 -33.1,3.05 -12.82,1.89 -29.01,5.37 -48.56,10.15l-5.36 -29.56c20.43,-6.7 39.74,-12.87 58.19,-17.96 18.18,-5.37 34.67,-9.67 49.74,-12.9 14.8,-3.51 27.91,-6.23 39.06,-7.89 11.15,-1.66 19.5,-2.56 25.6,-2.41 7.49,0.19 14.67,1.48 21,3.86 6.32,2.38 11.79,5.85 16.38,10.96 4.59,5.12 8.04,11.31 10.33,19.42 2.3,7.83 3.44,17.57 3.15,29.23 -0.28,11.09 -1.19,25.23 -2.46,42.4 -1.55,17.18 -3.15,36.84 -5.09,58.45 -2.22,21.87 -4.48,45.69 -7.07,71.16 -2.6,25.75 -5.22,52.61 -7.87,80.85 -2.66,27.97 -5.61,57.05 -8.3,86.68 -2.7,29.91 -5.4,59.82 -7.82,89.74l3.3 0.92c50.36,-81.17 101.5,-160.66 153.43,-238.46 51.94,-77.8 104.97,-155.29 158.84,-232.76l91.83 -9.06 6.37 0.71c-1.78,15.5 -3.89,32.94 -6.34,52.86 -2.16,19.93 -4.35,40.7 -6.57,62.57 -2.21,21.6 -4.45,44.02 -6.42,67.29 -1.97,22.99 -3.94,45.7 -5.6,67.59 -1.67,22.17 -3.03,43.23 -4.1,63.47 -1.35,20.23 -2.08,38.25 -2.49,54.62 -0.87,34.12 -0.74,61.88 0.39,83.28 1.41,21.14 4.04,37.86 7.89,50.17 4.14,12.04 9.75,20.51 16.58,24.85 6.83,4.61 15.65,7.05 26.19,7.32 13.04,0.33 26.96,-1.54 41.76,-5.05 14.81,-3.79 30.21,-8.95 45.92,-15.5l7.8 20.74c-9.91,7.8 -22.04,15.55 -36.39,23.23 -14.08,7.7 -29.25,14.81 -45.22,21.07 -16.27,6.53 -32.22,11.67 -48.42,15.43 -15.92,3.76 -30.67,5.33 -43.98,4.99 -13.87,-0.35 -24.87,-4.79 -33.25,-13.61 -8.67,-8.54 -15.01,-21.2 -19.59,-37.69 -4.31,-16.21 -7.13,-36.27 -8.47,-60.17 -1.34,-23.63 -1.49,-50.84 -0.72,-81.08 0.25,-9.98 0.56,-22.47 1.49,-37.15 0.65,-14.7 1.62,-31.05 2.91,-49.06 1,-17.74 2.31,-36.59 3.92,-56.53 1.62,-19.95 3.51,-39.89 5.41,-60.1 1.89,-19.94 4.06,-39.87 6.49,-59.24 2.15,-19.1 4.56,-37.36 7.2,-53.95l-3.31 -0.92c-54.18,78.86 -107.54,158.29 -159.81,238.3 -51.99,80.02 -104.01,161.42 -156.08,244.49l-87.93 8.33zm507.92 -897.65c-5.22,19.85 -11.82,39.4 -19.81,58.9 -7.99,19.51 -17.62,38.42 -28.9,56.18 -10.99,17.49 -23.9,34.09 -37.89,49.56 -14.27,15.19 -29.88,28.67 -47.09,39.62 -17.21,11.22 -35.75,19.63 -55.88,25.51 -20.42,6.15 -41.86,8.93 -64.89,8.35 -23.58,-0.59 -44.02,-4.44 -61.07,-10.98 -17.32,-6.55 -31.27,-14.95 -42.12,-24.94 -10.84,-10.26 -18.89,-21.29 -24.14,-33.36 -4.96,-12.34 -7.43,-24.34 -7.13,-36.27 0.22,-8.6 1.82,-16.89 5.06,-24.58 2.97,-7.42 7.03,-14.25 12.71,-19.66 5.42,-5.7 11.92,-9.97 19.77,-13.1 7.85,-3.14 16.5,-4.86 26.21,-4.62 2.49,0.07 4.7,0.4 6.93,0.46 2.21,0.33 4.7,0.67 7.46,1.3 1.24,16.68 5.05,30.94 10.58,42.46 5.82,11.52 12.52,20.85 20.95,28.01 8.14,7.14 17.45,12.38 27.64,15.69 10.18,3.31 20.68,5.24 31.5,5.51 24.41,0.62 46.46,-3.82 66.13,-13.59 19.95,-9.49 37.49,-22.37 53.17,-38.63 15.68,-16.26 28.91,-34.8 40.27,-55.61 11.63,-21.08 21.06,-42.77 28.57,-65.07l31.97 8.86zm877.49 432.87c4.83,27.05 6.98,54.85 6.22,83.74 -0.54,28.57 -4.18,57.13 -10.47,85.03 -6.29,27.9 -15.33,54.6 -27.35,80.43 -11.8,25.5 -26.54,48.71 -44.23,69.63 -17.74,20.65 -38.24,38.4 -61.89,52.77 -23.65,14.38 -50.09,24.17 -79.87,29.49 -25.68,4.59 -49.85,4.96 -72.25,1.07 -22.63,-3.58 -43.15,-11.19 -61.76,-22.24 -18.93,-11.28 -35.83,-25.45 -51.05,-42.75 -15.21,-17.3 -28.94,-37.4 -40.88,-60.07 -12.22,-22.62 -22.32,-47.6 -30.8,-74.56 -8.8,-27.18 -15.61,-55.84 -20.97,-85.89 -4.78,-26.77 -8.67,-54.83 -11.43,-84.5 -2.76,-29.67 -4.7,-59.49 -5.38,-90.09 -0.62,-30.34 -0.11,-60.59 1.55,-90.77 1.66,-30.17 4.66,-59.18 8.94,-87.29 4.33,-27.83 9.82,-53.9 17.07,-78.03 7.2,-24.4 15.8,-45.67 25.99,-64.4 9.79,-17.81 20.36,-34.36 31.83,-49.09 11.41,-15.01 24.93,-29.26 39.92,-43.22 15.3,-13.72 32.57,-27.52 51.85,-41.11 19.6,-13.37 42.38,-27.86 68.12,-43.17 22.43,-13.31 43,-26 61.83,-38.95 18.83,-12.95 34.31,-27.27 46.99,-43.07 12.64,-16.06 21.55,-34.01 26.93,-54.42 5.65,-20.46 6.15,-44.51 1.99,-72.52l30.21 -2.86c0.67,2.14 1.01,4.05 1.3,5.69 0.29,1.64 0.49,2.73 0.63,3.55l1.08 6.01c5.46,30.6 8.06,57.76 8.06,81.44 -0.27,23.73 -2.95,45.06 -8.02,64.01 -5.35,19 -12.77,35.83 -22.5,50.81 -9.5,14.67 -21.43,28.36 -35.02,40.65 -13.59,12.29 -28.97,24.06 -45.91,34.98 -16.88,11.19 -35.51,22.12 -55.18,33.53 -25.33,14.39 -48.71,28.71 -69.53,43.14 -21.09,14.48 -39.76,29.94 -55.94,46.64 -16.41,17.02 -30.29,35.57 -42.1,56.28 -11.81,20.72 -21.06,44.64 -28.05,71.82 -6.98,27.18 -11.6,58.17 -13.47,93.46 -1.92,35.01 -1.45,75.52 1.31,120.97l6.15 -0.25c8.36,-30.53 19.37,-57.3 32.7,-80.54 13.32,-23.24 28.42,-42.85 45.26,-59.1 16.82,-16.26 35.65,-29.2 55.89,-39.02 20.23,-9.81 41.55,-16.72 63.68,-20.67 33.05,-5.91 64.05,-4.39 92.66,4.31 28.89,8.65 54.56,22.95 76.96,42.63 22.68,19.63 41.39,43.91 56.96,72.71 15.25,28.56 25.93,59.92 31.97,93.79zm-394.58 131.36c3.32,18.57 8.32,37.13 14.69,55.44 6.7,18.54 14.29,35.79 23.69,52.15 9.14,16.41 19.71,31.44 31.41,44.85 11.7,13.42 24.69,24.63 39.03,33.9 14.07,9.33 29.29,15.63 45.44,19.23 16.2,3.88 33.45,4.18 51.75,0.91 19.67,-3.51 36.1,-10.96 49.61,-22.11 13.56,-10.88 24.4,-24.37 32.56,-40.21 8.44,-15.88 14.63,-33.33 18.56,-52.36 4.16,-19.34 6.63,-38.67 7.31,-58.53 0.95,-19.9 0.59,-39.29 -1.09,-58.16 -1.45,-19.19 -3.7,-36.54 -6.48,-52.11 -3.32,-18.58 -7.96,-36.64 -14.28,-54.68 -6.05,-18.09 -13.64,-35.33 -22.45,-51.52 -9.08,-16.14 -19.34,-30.94 -30.76,-44.4 -11.43,-13.47 -24.15,-24.72 -37.85,-33.55 -14.02,-9.06 -28.96,-15.41 -45.11,-19.01 -15.92,-3.92 -33.12,-3.95 -51.15,-0.73 -16.12,2.88 -30.34,8.52 -43.1,17.56 -12.53,8.73 -23.22,19.94 -32.37,33.41 -8.88,13.43 -16.27,28.84 -21.96,45.92 -5.91,17.41 -9.94,35.89 -12.31,55.76 -2.37,19.87 -3.18,40.6 -2.11,62.39 0.75,21.57 3.02,43.72 6.97,65.85zm712.57 110.38c-14.85,-22.22 -30.57,-45.32 -47.17,-69.29 -16.7,-24.23 -33.4,-48.46 -50.35,-72.6 -17.05,-24.41 -33.92,-48.29 -50.44,-72 -16.69,-23.35 -32.76,-45.74 -48.12,-66.91 -15.37,-21.17 -29.58,-40.67 -43,-58.69 -13.34,-17.75 -24.99,-33.15 -35.23,-46.09 -10.41,-13.46 -19.85,-24.04 -28.05,-31.81 -8.28,-8.04 -16.12,-13.88 -23.15,-17.36 -7.39,-3.65 -14.16,-5.47 -20.91,-5.52 -6.41,0.11 -13.34,1.29 -20.43,3.69 -8.42,2.84 -16.82,6.57 -25.66,11.61 -8.58,4.95 -19.08,11.14 -31.16,18.74l-15.21 -25.9c13.64,-10.77 26.85,-21.1 40.05,-30.55 13.12,-9.71 25.46,-18.28 36.92,-25.96 11.55,-7.43 21.7,-13.79 31.07,-19.01 9.1,-5.13 16.45,-8.5 22.24,-10.46 6.57,-2.22 13.23,-3.3 20.08,-2.98 6.85,0.32 13.96,2.3 21.7,6.13 7.74,3.83 16.19,9.75 24.92,18.23 8.9,8.12 18.51,19.22 29.28,32.86 6.71,8.57 15.36,19.41 25.51,32.97 10.24,13.82 21.28,29.12 33.91,46.53 12.36,17.49 25.79,36.39 40.36,56.94 14.31,20.65 29.24,42.26 44.43,64.65 14.93,22.49 30.4,45.68 45.95,69.12 15.37,23.8 30.31,47.17 45.24,70.53 1.5,-38.01 3.08,-77.5 4.56,-119.02 1.57,-41.25 3.31,-82.85 5.32,-124.54 2.17,-42.05 4.27,-83.48 6.19,-124.56 2.09,-41.42 4.28,-80.84 6.22,-118.4 0.5,-6.32 2.05,-12.12 4.84,-16.87 2.7,-5.02 6.19,-9.42 10.47,-13.21 3.93,-3.97 8.74,-7.06 13.65,-9.89 4.99,-2.57 10.06,-4.88 15.06,-6.56 8.41,-2.85 17.27,-4.38 25.95,-4.69 8.69,-0.3 17.38,0.28 25.63,1.29 -5.16,22.84 -9.96,47.61 -14.84,74.75 -4.53,27.31 -9.14,56.11 -13.21,86.5 -4.34,30.47 -8.23,62.25 -12.12,94.91 -3.63,32.58 -6.99,65.94 -10.17,99.82 -3.18,33.89 -6.1,67.69 -8.67,101.66 -2.56,33.98 -5.05,67.33 -7.18,99.99 -2.31,33 -3.92,65.48 -5.09,97.51 -1.17,32.04 -2.34,63.2 -3.61,93.22 -1.27,30.01 -2.9,58.98 -4.35,86.72 -1.63,28.08 -3.88,54.33 -6.93,79.09 -3.05,23.01 -7.34,44.97 -12.6,65.79 -5.26,20.82 -12.37,39.63 -21.6,56.52 -9.13,17.16 -20.56,31.86 -34.11,44.65 -13.63,12.52 -30.26,22.25 -49.71,28.83 -12.09,4.09 -23.49,5.9 -34.28,6.03 -10.8,0.14 -20.63,-1.22 -29.25,-4.17 -8.61,-2.94 -15.65,-7.3 -21.73,-13.15 -5.99,-5.59 -10.32,-12.32 -12.9,-19.95 -2.85,-8.41 -3.24,-18.23 -1.36,-29.12 1.97,-10.63 6.23,-19.69 12.77,-27.18 13.01,2.93 25.74,4.18 37.67,3.08 12.01,-0.85 22.45,-2.91 31.12,-5.85 21.03,-7.11 37.83,-18.95 50.21,-36.03 12.47,-16.81 21.94,-39.06 28.66,-66.82 6.72,-27.76 11.22,-61.21 14.29,-100.63 2.8,-39.33 5.23,-84.97 7.45,-137.28l0.68 -23.08 -19.81 3.77zm295.6 -670.67c0.67,30.53 1.34,61.67 2.02,93.44 1.06,31.88 1.98,63.52 3.65,94.78 1.67,31.26 3.58,61.77 5.73,91.53 2.27,29.4 5.27,57.16 8.62,82.58 3.47,25.65 7.79,48.69 12.83,69.5 5.16,20.42 11.04,37.37 17.87,50.71 6.57,12.84 14.01,24.31 22.04,33.91 8.41,9.72 18.16,15.96 30.09,18.58l1.41 4.57c-5.15,5.76 -10.44,11.27 -16.35,16.17 -5.9,4.9 -12.07,9.3 -18.74,12.72 -6.67,3.41 -13.84,5.84 -20.9,7.27 -7.43,1.32 -14.26,1.38 -21.22,-0.04 -6.85,-1.79 -13.45,-4.96 -19.46,-9.99 -6.38,-5.15 -11.91,-12.29 -16.72,-21.68 -6.32,-12.35 -11.51,-35.26 -15.81,-69.22 -4.3,-33.96 -7.56,-76.25 -10.04,-127.36 -2.6,-50.74 -4.16,-109.18 -4.8,-174.94 -0.64,-65.78 -0.58,-136.89 0.29,-213.1 0.44,-6.46 1.5,-12.3 3.44,-17.04 1.94,-4.73 4.26,-8.73 7.32,-12.48 2.95,-3.38 6.15,-6.26 9.85,-8.78 3.45,-2.39 7.27,-4.66 10.73,-6.44 7.16,-3.66 14.21,-6.34 21.51,-8.52 7.31,-2.18 14.86,-3.25 23.18,-3.45 48.13,62.33 89.61,115.92 125.17,160.99 35.44,45.46 66.09,83.39 91.95,114.41 26.12,30.9 48.07,55.51 65.87,73.83 18.05,18.19 33.57,31.44 46.93,39.88 13.11,8.56 24.7,12.91 34.26,13.32 9.81,0.27 19.59,-1.93 29.22,-6.86 4.2,-2.15 8.52,-4.68 13.09,-7.33 4.68,-3.02 9.74,-6.55 15.28,-10.94 5.54,-4.4 11.57,-9.67 17.96,-16.06 6.4,-6.39 13.89,-14.29 21.74,-23.92l16.78 15.1c-7.93,14.97 -16.84,29.83 -26.76,43.95 -10.16,14.24 -20.46,27.63 -31.38,39.77 -10.81,12.39 -21.63,22.92 -32.45,32.21 -10.59,9.16 -20.83,15.96 -30.21,20.77 -9.39,4.81 -18.92,6.88 -29.1,6.49 -10.06,-0.77 -22.02,-5.25 -35.63,-14.18 -13.74,-8.55 -29.76,-22.18 -47.81,-40.37 -18.42,-18.31 -40.62,-42.79 -66.61,-73.44 -25.74,-30.78 -56.26,-68.46 -90.95,-113.05 -34.56,-44.35 -75.03,-97.2 -121.42,-158.55l-2.47 1.26zm589.9 274.47c-12.6,-23.24 -26.39,-48.35 -41.76,-75.41 -15.37,-27.07 -30.89,-54.36 -46.72,-82.13 -16.05,-27.61 -31.81,-54.76 -47.65,-81.52 -15.6,-26.92 -30.33,-51.43 -44,-74.3 -13.68,-22.88 -25.56,-42.95 -36.18,-60.54 -10.46,-17.35 -18.47,-30.35 -24.31,-39.46 -4.64,-7.25 -9.3,-13.49 -14.13,-18.96 -4.59,-5.63 -9.52,-9.72 -14.7,-12.66 -5.19,-2.94 -10.79,-3.96 -16.96,-3.3 -5.93,0.5 -13.14,3.15 -20.85,8.09 -7.24,4.64 -15.6,11.65 -25,20.64 -9.78,8.91 -21.23,20.87 -34.74,35.79l-21.02 -21.47c30.16,-37.79 55.41,-67.82 75.81,-89.47 20.25,-21.89 35.36,-35.86 44.94,-42 6.07,-3.89 12.28,-6.55 18.47,-8.21 6.42,-1.81 12.8,-1.62 19.32,-0.19 6.52,1.42 13.23,4.7 19.91,9.98 6.3,5.19 12.86,12.85 19.3,22.9 2.54,3.97 7.1,11.59 13.51,23.64 6.49,11.66 14.09,25.58 22.95,41.98 8.72,16.17 18.34,33.74 28.62,52.86 10.51,18.97 20.72,37.47 31.32,56.06 42.51,-56.59 84.83,-98.55 127.58,-125.96 19.39,-12.43 38.41,-21.33 57.05,-26.69 18.42,-5.21 36.38,-6.51 53.5,-3.97 17.12,2.54 33.32,9.3 48.97,20.36 15.28,10.97 29.55,26.55 42.43,46.64 9.58,14.95 17.6,31.56 24.05,49.84 6.21,18.44 10.49,37.45 12.36,57.34 2.11,19.75 1.52,39.91 -1.39,60.56 -2.91,20.65 -8.89,40.64 -17.87,60.57 -9.13,19.69 -21.32,38.72 -36.97,56.99 -15.41,18.12 -34.87,34.55 -58,49.38 -27.8,17.82 -59.51,30.57 -95.28,38.01l-56.81 51.25 -5.75 3.36zm43.69 -101.52c18.88,-0.89 36.02,-3.97 51.43,-9.23 15.8,-5.19 29.7,-11.79 42.08,-19.73 19.85,-12.73 35.21,-27.85 46.22,-45.12 11.25,-17.43 18.27,-35.78 21.08,-55.05 2.81,-19.27 2.08,-38.91 -2.41,-58.77 -4.64,-20.1 -12.62,-38.72 -24.01,-56.47 -11.53,-17.99 -23.83,-31.53 -37.68,-40.79 -13.46,-9.17 -27.91,-14.73 -43.11,-16.86 -15.05,-1.88 -30.63,-0.47 -46.72,4.25 -16.1,4.71 -32.4,12.19 -48.28,22.38 -27.8,17.82 -53.8,42.07 -77.66,72.2 19.33,33.75 38.97,67.97 58.6,102.2 19.63,34.22 39.81,67.76 60.46,100.99zm-24.15 -577.33c12.58,-16.41 26.64,-34.09 42.37,-53.23 15.94,-19.32 32.67,-38.58 50.2,-58.17 17.54,-19.6 35.83,-38.75 54.51,-57.87 18.69,-19.12 37.25,-36.67 55.5,-52.48 10.91,-9.45 23.02,-19.2 36.51,-29.05 13.31,-10.07 27.35,-19.29 42.3,-27.46 14.56,-8.21 29.42,-15.21 44.77,-20.8 15.35,-5.58 30.51,-8.43 45.52,-9.32 14.99,-0.5 29.57,1.92 43.74,7.26 13.97,5.53 26.87,14.91 38.5,28.34 14.53,16.78 23.84,35.15 27.95,54.72 4.1,19.58 4.26,39.26 0.9,58.69 -3.38,19.83 -9.67,38.85 -19.08,57.65 -9.02,18.83 -19.68,35.77 -31.76,50.64l1.45 1.68c17.51,-13.69 36.26,-25.53 56.46,-35.69 20.18,-9.77 40.52,-16.37 61,-19.43 20.48,-3.06 40.45,-1.62 60.07,4.5 19.45,5.92 37.45,18.23 53.62,36.9 14.18,16.36 24.35,33.61 30.55,51.37 6.2,17.76 9.25,35.68 8.74,53.74 -0.33,18.27 -3.39,36.35 -9.23,54.62 -5.62,18.09 -13.78,35.8 -23.86,52.98 -10.09,17.18 -22.1,33.82 -35.41,49.39 -13.71,15.55 -27.93,30.07 -43.45,43.51 -14.05,12.18 -28.81,23.12 -44.05,32.65 -15.45,9.71 -30.39,17.89 -45.26,24.89l-50.09 56.6 -5 3.97c-27.62,-37.38 -55.29,-73.99 -83.02,-109.82 -27.54,-35.61 -54.39,-70 -80.57,-102.76 -26.38,-32.58 -51.32,-63.48 -75.24,-91.95 -23.9,-28.86 -46.22,-55.05 -66.57,-78.54 -6.73,-7.77 -13.01,-13.33 -19.26,-16.73 -5.86,-3.37 -11.83,-5.18 -17.55,-5 -5.51,0 -11.12,1.57 -16.86,4.7 -5.52,2.95 -11.13,7.07 -16.79,11.97 -6.71,5.82 -14.32,13.14 -22.64,22.18 -8.32,9.05 -16.67,18.48 -24.63,27.95l-24.34 -22.6zm480.03 254.94c15.65,-4.39 30.64,-10.4 44.39,-18.27 14.13,-7.83 26.76,-16.57 38.09,-26.38 15.52,-13.44 28.41,-28.65 38.65,-45.23 10.45,-16.76 17.19,-33.98 20.65,-52.03 3.27,-18.26 2.61,-36.4 -1.97,-54.83 -4.59,-18.43 -14.34,-36.04 -28.87,-52.82 -15.63,-18.04 -32.51,-29.48 -50.45,-34.51 -18.14,-4.84 -36.63,-4.98 -55.63,-0.64 -18.82,4.55 -37.7,12.84 -56.64,24.46 -19.14,11.81 -37.43,25.45 -55.05,40.71 -6.5,5.64 -12.82,11.48 -19.35,17.5 -6.35,6.24 -12.67,12.08 -19.02,18.31l145.2 183.73zm-309.78 -390.68c6.49,8.34 14.79,18.77 24.54,30.88 9.94,12.32 21.15,26.1 33.42,41.54 12.45,15.65 25.81,32.35 40.05,50.48 14.46,17.96 29.42,36.93 44.94,56.54 20.34,-17.63 38.61,-36.39 55.21,-56.64 16.38,-20.07 28.86,-40.42 37.27,-61.66 8.38,-20.84 11.64,-41.65 10,-62.62 -1.86,-20.79 -11.05,-40.73 -27.58,-59.82 -13.63,-15.73 -28.07,-25.62 -43.32,-29.66 -15.44,-4.26 -30.97,-4.39 -46.39,-0.57 -15.21,3.63 -30.44,10.21 -45.05,19.19 -14.82,9.17 -28.31,19.02 -40.48,29.56 -6.71,5.82 -13.87,12.38 -21.29,19.92 -7.61,7.32 -14.65,14.88 -21.32,22.86zm579.58 -391.34c-16.15,-13.99 -32.57,-23.44 -49.07,-28.55 -16.47,-4.72 -32.32,-6.34 -47.32,-4.28 -15,2.06 -29.02,6.8 -42.04,14.62 -13.22,7.64 -24.55,16.91 -33.82,27.6 -12.72,14.69 -21.58,28.31 -27.36,40.92 -5.58,12.79 -8.47,24.61 -8.67,35.44 0.18,10.81 2.47,20.87 7.24,29.77 4.98,9.09 11.47,17.28 20.07,24.73 9.65,8.36 21.35,15.19 34.3,20.17 12.95,4.97 27.14,8.08 42.57,9.34l2.27 4.16c-4.12,16.63 -11.57,30.74 -21.93,42.69 -5.99,6.92 -12.67,12.52 -20.04,16.78 -7.37,4.27 -15.05,6.79 -23.07,7.56 -7.8,0.95 -15.74,-0.06 -23.97,-2.41 -8.27,-2.76 -15.86,-7.13 -23.41,-13.67 -11.95,-10.36 -20.74,-23.11 -26.35,-38.25 -5.61,-15.13 -8.53,-31.25 -9.17,-48.32 -0.45,-17.28 1.39,-35.51 5.37,-54.09 4.16,-18.79 9.56,-36.89 16.54,-54.7 6.81,-17.6 14.84,-34.5 24.13,-50.32 9.29,-15.81 18.94,-29.49 29.11,-41.23 18.53,-21.4 37.25,-37.49 56.39,-47.72 18.74,-10.19 37.85,-15.3 57.12,-15.5 19.08,0.01 38.29,4.53 57.84,13.75 19.33,9.04 38.95,22 58.67,39.08 13.42,11.62 27.77,25.15 43.01,40.19 15.24,15.04 30.96,31.23 47.49,47.75 16.56,16.91 33.71,33.97 51.5,51.58 17.97,17.41 36.09,34.21 54.76,50.38 29.57,25.61 56.32,39.24 80.85,41.02 24.33,1.99 44.03,-5.91 59.47,-23.74 13.81,-15.94 23.2,-38.65 28.38,-67.93l21.03 2.42c1.64,25.65 -0.77,49.63 -7.63,71.96 -6.86,22.33 -18.01,42.41 -33.24,60.42 -11.84,13.24 -24.48,23.59 -38.9,30.92 -14.22,7.51 -29.29,11.34 -45.39,11.71 -15.9,0.55 -32.86,-2.76 -50.1,-9.98 -17.45,-7.41 -34.97,-18.55 -52.8,-33.99 -5.45,-4.72 -10.51,-9.48 -15.57,-14.23 -5.28,-4.93 -10.21,-10.68 -15.18,-16.81l-1.63 1.89c9.99,24.07 18.49,49.42 25.49,75.68 7.21,26.43 11.43,52.49 12.87,77.96 1.43,25.47 -0.59,49.42 -5.83,72.42 -5.26,22.61 -15.42,42.81 -30.32,60.01 -12.17,14.06 -25.96,24.88 -40.77,32.24 -15,7.56 -30.64,11.64 -46.33,12.37 -15.87,0.94 -31.38,-1.49 -47.13,-7.05 -15.74,-5.56 -30.75,-14.52 -44.59,-26.51 -18.04,-15.63 -31.49,-33.15 -40.75,-52.55 -8.87,-19.43 -14.09,-40.11 -15.66,-62.03 -1.36,-21.74 0.74,-44.51 6.5,-68.53 5.78,-23.63 14.09,-47.64 24.96,-71.63 11.05,-24.2 24.48,-48.18 40.47,-72.15 15.81,-23.76 33.41,-47.05 52.67,-69.29 -11.52,-12.55 -23.01,-24.71 -34.24,-35.9 -11.26,-11.59 -24.32,-23.63 -38.79,-36.17zm47.48 371.55c8.19,7.09 16.64,12.58 25.44,17.26 8.58,4.5 17.45,7.41 26.17,8.36 8.94,1.13 17.31,-0.07 25.54,-3.21 8.45,-2.97 16.09,-8.83 23.18,-17.01 7.99,-9.23 14.07,-20.48 18.21,-34.16 4.34,-13.49 6.62,-28.41 7.24,-44.39 0.81,-16.19 -0.4,-33.02 -3.26,-50.91 -3.24,-17.87 -7.85,-35.44 -14.26,-53.47 -6.58,-17.83 -14.68,-34.75 -24.53,-51.36 -9.85,-16.61 -21.38,-32.11 -34.59,-46.11 -12.84,15.67 -24.9,31.29 -36.3,47.85 -11.43,16.16 -21.27,32.6 -29.75,48.75 -8.28,16.34 -14.8,32.34 -19.34,48.6 -4.57,15.87 -6.4,31.55 -5.9,46.66 0.88,15.08 4.48,29.58 11.21,43.85 6.7,13.88 16.89,27.12 30.94,39.29zm-50.62 -526.78c8.76,-30.64 16.38,-56.41 23.01,-77.55 6.86,-20.98 12.86,-38.56 17.84,-52.51 4.99,-13.94 9.26,-24.72 12.82,-32.33 3.32,-7.75 6.15,-13.19 8.4,-16.7 3.59,-5.61 7.97,-10.38 12.9,-14.47 4.78,-3.86 10.66,-6.35 17.26,-7.39 6.37,-1.19 13.93,-0.63 22.13,1.99 8.12,2.24 17.52,6.61 27.8,13.2 3.5,2.25 10.13,6.83 19.87,13.73 9.9,6.68 23.23,16.22 40.39,28.53 16.92,12.17 37.9,27.26 62.69,45.14 24.8,17.88 53.74,39.07 86.82,63.57l3.01 -3.67c-32.85,-46.45 -59.59,-90.62 -80.51,-133.04 -20.78,-42.66 -36.19,-81.87 -45.77,-118.34 -9.5,-36.09 -13.62,-68.73 -11.91,-97.63 1.72,-28.89 8.52,-52.88 20.8,-72.03 10.04,-15.65 21.52,-27.41 35,-35.58 13.48,-8.17 27.78,-13.5 43.28,-16.09 15.12,-2.51 31.13,-2.79 47.72,-0.39 16.36,2.24 32.59,5.72 48.77,10.82 16.26,5.48 31.69,11.75 46.99,19.25 15.07,7.35 28.98,14.95 41.36,22.89 33.41,21.42 62.7,45.14 87.56,70.64 24.71,25.73 45.35,52.14 62.01,79.63 16.81,27.26 29.55,55.2 38.22,83.84 8.82,28.4 13.71,56.25 14.9,83.71 1.1,27.08 -1.59,53.38 -8,78.28 -6.17,25.05 -15.99,48.09 -29.32,68.88 -14.23,22.19 -31.98,41.14 -53.4,57.07 -21.42,15.94 -47.32,27.02 -77.61,33.65 55.59,39.26 113.05,79.72 172.53,121.15 59.56,41.81 122.2,83.94 188.63,126.86l-37.95 77.19 -4.96 6.71c-40.42,-30.53 -83.18,-62.55 -128.19,-95.69 -44.93,-32.76 -90.32,-65.81 -135.86,-98.64 -45.54,-32.82 -90.69,-64.73 -135.13,-96.18 -44.44,-31.46 -86.37,-60.65 -125.42,-87.66 -39.29,-27.16 -74.98,-51.7 -107.24,-73.37 -32.34,-22.05 -59.29,-39.65 -80.55,-53.28 -8.64,-5.54 -16.65,-10.02 -23.79,-13.28 -7.14,-3.26 -13.56,-5.06 -19.41,-5.19 -6.24,-0.04 -11.91,1.6 -17.15,5.15 -5.4,3.8 -10.76,9.59 -16,17.76 -5.55,8.65 -11.05,19.29 -16.97,32.64 -5.92,13.35 -12.17,29.78 -19.05,49.76l-28.52 -11.03zm499.6 70.1c29.02,-8.76 53.37,-20.51 73.59,-34.58 20.14,-14.44 36.31,-31.44 48.74,-50.83 16.32,-25.46 26.08,-52.5 29.11,-80.88 2.8,-28.53 -1.34,-57.56 -12.8,-86.99 -11.22,-29.28 -30.07,-58.5 -55.91,-87.6 -26,-28.86 -59.83,-56.81 -101.65,-83.62 -15.42,-9.88 -32.29,-19.05 -50.14,-27.2 -18,-7.91 -35.34,-13.76 -51.96,-17.16 -16.61,-3.39 -31.78,-3.89 -45.82,-1.02 -14.03,2.87 -24.68,10.22 -32.31,22.13 -8.84,13.78 -13.94,29.96 -15.77,48.24 -1.59,18.43 -0.17,37.8 3.59,58.67 3.91,20.64 10.23,42.15 19.18,64.7 8.86,22.17 18.96,44.46 30.68,66.81 11.71,22.34 24.49,44.05 38.34,65.12 14.09,21.23 28.07,41.07 42.33,59.44 14.41,18.14 28.49,34.75 42.29,49.2 14.04,14.61 26.88,26.46 38.51,35.57zm169 -1407.87c88.02,106.59 186.52,216.13 295.24,328.49 108.97,112.47 228.53,227.62 358.3,345.61l-26.53 86.18 -5.9 5.14c-99.25,-105.36 -197.42,-211.18 -294.52,-317.48 -97.09,-106.29 -193.67,-213.87 -289.29,-323.16 -8.4,20.55 -16.03,39.91 -23.31,57.62 -7.03,17.81 -13.9,34.49 -20.21,50.5 -6.57,15.9 -12.58,31.13 -18.43,45.23 -5.7,14.46 -11.3,28.65 -16.8,42.59l-21.17 53.7c-7.84,19.88 -14.14,37.38 -19.17,52.4 -4.77,15.12 -7.43,28.69 -8.51,40.49 -0.82,11.91 0.37,22.52 3.71,32.19 3.45,9.41 9.37,18.61 17.97,27.07 8.49,8.72 19.98,17.42 34.35,26.37 14.21,8.59 31.52,18.4 52.23,28.65l-16.3 38.32 -41.42 -19.02c-24.53,-11.16 -46.07,-20.85 -64.66,-29.67 -18.44,-8.46 -34.25,-16.79 -47.12,-24.25 -12.87,-7.46 -23.36,-14.88 -31.07,-21.8 -7.97,-7.02 -13.37,-14.51 -16.45,-22.59 -3.08,-8.07 -4.1,-16.83 -2.97,-26.52 1.04,-9.44 4.08,-20.17 8.96,-32.56 2.75,-6.97 6.93,-16.06 12.59,-28.15 5.56,-11.83 12.19,-25.62 19.38,-41.58 7.44,-15.85 15.35,-33.62 23.96,-53.19 8.97,-19.73 17.73,-40.44 26.38,-62.38 8.55,-21.69 16.44,-42.44 24.38,-62.58 7.68,-20.23 15.26,-40.21 22.68,-60.56 7.43,-20.33 14.69,-41.03 22.01,-62.61 6.95,-21.42 14.26,-44.49 21.56,-69.06l20.13 -3.39z"/>
  <path id="ИГЛЫ" fill="white" d="M8623.47 5768.48c-52.75,-9.24 -105.95,-18.59 -159.56,-28.04 -19.95,-3.52 -32.68,-25.91 -28.43,-50.02 4.25,-24.1 23.87,-40.79 43.82,-37.28 48.41,8.54 96.48,17.04 144.17,25.5 374.33,66.42 725.38,130.33 1033.95,187.99 726.38,-120.32 1217.44,-192.31 1220.29,-176.08 2.34,13.27 -322.26,82.76 -836.39,181.67 524.74,8.13 857.38,20.21 857.38,33.71 0,13.48 -332.06,25.55 -856.02,33.68 514.58,98.99 839.5,168.55 837.16,181.82 -2.86,16.24 -494.92,-55.92 -1222.55,-176.46 -308.46,57.65 -659.48,121.56 -1033.82,187.99 -48.39,8.58 -97.17,17.21 -146.29,25.87 -19.95,3.52 -39.57,-13.17 -43.82,-37.27 -4.26,-24.11 8.47,-46.5 28.42,-50.02 54.33,-9.58 108.24,-19.06 161.69,-28.41 189.58,-33.2 373.25,-64.94 548.46,-94.83 -175.25,0.98 -358.89,1.61 -548.46,1.84 -56.22,0.07 -112.96,0.11 -170.16,0.11 -20.26,0 -36.68,-19.85 -36.68,-44.32 0,-24.48 16.42,-44.33 36.68,-44.33 57.2,0 113.94,0.04 170.16,0.11 190.09,0.24 374.21,0.87 549.9,1.85 -175.66,-29.97 -359.81,-61.79 -549.9,-95.08zm0 304.55l-105.38 18.58c-8.04,1.42 -13.4,9.08 -11.98,17.11 1.41,8.04 9.08,13.41 17.11,11.99l100.25 -17.68 132.55 -23.37c8.03,-1.42 13.4,-9.08 11.98,-17.11 -1.41,-8.04 -9.08,-13.4 -17.12,-11.99l-127.41 22.47zm0 -181.88l-118.2 0c-8.16,0 -14.77,6.61 -14.77,14.78 0,8.16 6.61,14.77 14.77,14.77l118.2 0 118.19 0c8.16,0 14.78,-6.61 14.78,-14.77 0,-8.17 -6.62,-14.78 -14.78,-14.78l-118.19 0zm0 -182.58l-98.12 -17.31c-8.04,-1.41 -15.7,3.95 -17.12,11.99 -1.42,8.04 3.95,15.7 11.99,17.11l103.25 18.21 129.54 22.84c8.04,1.42 15.7,-3.94 17.12,-11.98 1.41,-8.04 -3.95,-15.7 -11.99,-17.12l-134.67 -23.74z"/>
  <path id="ЗАВИТУШКА_x0020_ПРАВАЯ" fill="white" fill-rule="nonzero" d="M7422.39 3993.5l2.84 0.55c4.08,0.78 8.19,1.58 12.11,2.63 4.71,1.28 9.5,3.22 14.23,5.13 2.54,1.03 5.08,2.05 7.57,2.97 11.27,4.11 24.3,11.13 36.85,19.21 13.76,8.86 26.92,19.01 36.52,28.06 10.34,9.75 20.32,21.65 28.75,34.49 7.93,12.08 14.49,25 18.69,37.77 5.08,15.45 9.27,36.12 10.05,56.21 0.62,16.19 -0.97,31.99 -6.11,44.35 -5.26,12.66 -13.58,24.58 -24.13,33.67 -9.59,8.26 -21.03,14.2 -33.68,16.22 -8.04,1.28 -16.09,1.95 -24.02,1.46 -7.89,-0.48 -15.67,-2.1 -23.19,-5.39 -1.57,-0.69 -4.1,-2.36 -6.63,-4.23 -3,-2.22 -5.99,-4.71 -7.47,-6.21 -2.25,-2.28 -4.03,-5.42 -5.84,-8.6 -2.06,-3.64 -4.17,-7.34 -7.13,-10.13l-5.61 -5.3 -7.63 1.14c-5.84,0.88 -11.82,5.05 -17.13,10.45 -6.8,6.91 -12.55,15.89 -15.43,22.45 -8.25,18.76 -7.71,39.91 -1.37,59.54 6.97,21.57 20.98,41.36 38.05,54.19 11.31,8.49 22.71,15.57 34.91,20.6 12.21,5.05 25.21,8.05 39.68,8.38 16.89,0.39 29.67,-0.34 41.96,-3.16 12.3,-2.83 24.1,-7.73 39.05,-15.65 17.17,-9.1 33.21,-23.13 46.7,-39.42 14.32,-17.3 25.8,-37.18 32.72,-56.46 0.87,-2.41 1.62,-4.89 2.37,-7.35 0.93,-3.07 1.86,-6.14 2.98,-9 9.42,-24.06 8.07,-52.98 6.86,-79.17l-0.48 -10.99c-0.44,-11.68 -2.79,-20.17 -5.42,-29.67 -0.97,-3.52 -1.99,-7.19 -2.94,-11.14 -2.39,-9.91 -6.54,-19.26 -10.66,-28.53l-2.7 -6.12c-19.68,-45.42 -52.86,-82.39 -92.72,-111.31 -46.37,-33.63 -101.81,-56.39 -155.6,-68.91 -17.15,-3.99 -35.83,-7.44 -54.56,-9.8 -16.93,-2.13 -33.91,-3.38 -49.84,-3.36 -32.8,0.04 -62.42,5.95 -93.86,12.22l-9 1.79c-8.11,1.6 -16.88,4.3 -25.32,6.89 -3.29,1.02 -6.54,2.02 -9.72,2.94l-8.55 2.53 1.56 -2.6c0.92,-1.59 1.68,-3 2.15,-4.09 9.7,-22.59 12.29,-44.4 7.9,-64.72 -4.38,-20.31 -15.73,-39.11 -33.89,-55.67 -12.61,-11.5 -26.72,-18.31 -41.51,-20.48 -14.98,-2.19 -30.67,0.37 -46.23,7.61 -6.99,3.25 -13.79,7.71 -19.66,13.13 -5.45,5.02 -10.1,10.88 -13.37,17.35 -4.5,8.93 -7.88,19.63 -7.75,29.92 0.12,8.39 2.56,16.52 8.61,23.23l3.87 4.29 5.72 0.8c6.32,0.87 10.97,-1.01 15.6,-2.88 2.58,-1.05 5.16,-2.09 7.95,-2.6 5.69,-0.94 10.64,-0.88 14.89,0.01 6.38,1.32 11.23,4.51 14.75,8.93 3.54,4.47 5.75,10.22 6.81,16.61 1.29,7.81 0.86,16.58 -0.92,25.16 -0.73,3.55 -2.55,7.23 -4.86,10.74 -3.09,4.72 -7.05,9.13 -10.45,12.53 -14.32,14.28 -37.3,24.4 -62.14,30.7 -30.03,7.62 -62.75,9.68 -86.23,6.87l-5.67 -0.65c-11.51,-1.3 -24.18,-2.73 -34.52,-6.59l-7.49 -2.69c-8.76,-3.1 -17.42,-6.16 -25.39,-11.12 -10.5,-6.53 -18.36,-12.57 -24.68,-19.86 -6.31,-7.27 -11.13,-15.84 -15.54,-27.47 -1.74,-4.56 -2.69,-10.46 -3.09,-16.54 -0.51,-7.64 -0.16,-15.58 0.58,-21.65 0.61,-5.09 1.72,-9.68 3.57,-13.89 1.84,-4.2 4.44,-8.06 8.05,-11.71 5.09,-5.15 10.6,-8.87 16.63,-11.31 6.04,-2.45 12.61,-3.64 19.79,-3.74 3.71,-0.05 8.56,0.52 13.52,1.1 7.74,0.9 15.79,1.85 20.79,0.57l5.28 -1.34 3.35 -4.31c6.41,-8.27 7.47,-19.06 5.54,-29.96 -2.49,-14.01 -9.96,-28.26 -17.28,-37.45 -5.83,-7.31 -12.79,-13.36 -20.43,-18.44 -7.61,-5.05 -15.9,-9.17 -24.4,-12.65 -10.47,-4.29 -21.47,-6.22 -32.56,-6.5 -11.05,-0.27 -22.21,1.09 -33.02,3.39 -26.95,5.73 -50.96,23.57 -68.13,46.79 -17.74,24 -28.2,53.78 -27.06,81.9 2.14,53.02 27.31,94.07 63.92,123.56 40.49,32.62 95.02,51.06 147.85,55.9 -2.93,0 -5.79,0.07 -8.64,0.15 -3.3,0.08 -6.61,0.18 -9.97,0.15 -25.56,-0.23 -51.74,-3.69 -77.41,-9.61 -27.47,-6.33 -54.36,-15.49 -79.31,-26.53 -12.09,-5.36 -24.6,-11.92 -36.75,-19.12 -12.7,-7.53 -25.03,-15.78 -36.09,-24.07 -30.34,-22.76 -57.92,-52.82 -78.77,-86.73 -19.5,-31.73 -33.11,-66.84 -37.56,-102.48 -3.65,-29.23 -5.04,-48.84 -3.67,-68.25 1.38,-19.43 5.53,-38.73 12.94,-67.31 3.84,-14.78 13.76,-32.57 21.74,-46.88l2.44 -4.38c3.6,-6.5 8.29,-13.1 13.45,-19.44 6.29,-7.75 13.27,-15.12 19.78,-21.46 13.29,-12.94 29.16,-24.77 46.32,-33.94 15.8,-8.45 32.71,-14.66 49.69,-17.43 20.97,-3.4 46.02,-4.84 69.3,-0.79 18.13,3.16 35.17,9.67 48.31,21.2 6.47,5.68 12.15,12.18 16.67,19.37 4.22,6.74 7.44,14.12 9.31,22.03 2.07,8.72 2.5,19.23 1.2,29.41 -1.22,9.54 -3.96,18.8 -8.27,26.06 -2.02,3.41 -4.22,6.39 -6.73,9.06 -2.51,2.66 -5.34,5.04 -8.61,7.24l-3.58 2.3c-6.2,3.9 -12.12,7.63 -14.18,15.89 -1.32,5.26 -0.37,9.95 1.79,14.16 2.11,4.11 5.39,7.74 8.82,11 6.1,5.79 12.85,10.61 20.16,14.32 7.19,3.65 14.92,6.24 23.09,7.64 26.1,4.48 51.24,-3.02 72.72,-17.21 24.65,-16.29 44.5,-41.42 55.46,-67.36 9.81,-23.22 12.83,-46.57 10.5,-69.46 -2.54,-25.05 -11.48,-49.55 -24.91,-72.78 -9.64,-16.66 -23.39,-31.97 -39.11,-45.1 -17.18,-14.35 -36.74,-26.13 -55.88,-34.27 -6.68,-2.84 -18.72,-7.31 -29.99,-10.73 -8.32,-2.53 -16.23,-4.5 -21.31,-4.84l-6.43 -0.44c-29.09,-2.01 -67.02,-4.64 -93.25,4.67 -2.37,0.84 -4.89,1.34 -7.46,1.84 -2.9,0.57 -5.86,1.15 -8.9,2.28l-7.59 2.81c-12.44,4.6 -24.28,8.99 -36.81,14.6 -9.39,4.21 -18.25,9.31 -26.8,14.9 -8.55,5.58 -16.78,11.62 -24.94,17.73 -26.24,19.66 -46.42,41.57 -63.32,65.87 -16.89,24.26 -30.53,50.92 -43.7,80.12 -7.27,16.13 -10.65,30.47 -14.25,45.81 -1.39,5.91 -2.82,11.98 -4.5,18.31 -6.85,25.72 -6.85,51.96 -6.85,78.34 0,6.81 0.07,13.56 0.37,20.34 0.29,6.76 0.82,13.52 1.74,20.27 1.36,10 3.47,20 5.56,29.92l1.06 5c7.79,37.28 24.96,75.11 47.6,109.62 24.07,36.72 54.36,69.71 86.11,94.3 15.78,12.21 34.98,25.32 54.79,36.77 17.15,9.91 34.78,18.6 51.04,24.38l9.76 3.5c17.47,6.31 34.7,12.53 53.02,16.68 39.63,9 75.65,13.37 111.67,13.34 36.03,-0.04 72.06,-4.48 111.72,-13.09 5.38,-1.17 10.77,-2.48 16.12,-3.84 5.37,-1.36 10.72,-2.8 16,-4.21l4.64 -1.23c9.56,-2.53 19.9,-5.26 28.89,-8.71 9.34,-3.59 19.03,-6.65 28.72,-9.7 10.61,-3.35 21.23,-6.7 31.62,-10.84 7.56,-3.02 27.26,-9.27 48.52,-15.3 16.13,-4.57 33.14,-9.02 46.42,-11.85l-1.71 2.71c-1.02,1.68 -2,3.43 -2.92,5.27 -4.86,9.69 -6.76,19.33 -5.99,28.76 0.8,9.76 4.46,19.31 10.66,28.5 14.26,21.13 32.64,27.23 48.8,25.03 6.31,-0.87 12.28,-3 17.54,-6 5.26,-3 9.81,-6.88 13.27,-11.22 7.16,-8.98 9.68,-19.98 4.28,-29.48 -1.26,-2.21 -0.77,-1.57 -2.56,-3.37 -5.18,-5.19 -10.02,-5.66 -15.03,-6.15 -2.48,-0.25 -5.03,-0.5 -7.64,-1.4 -2.55,-0.87 -2.59,-5.66 -2.61,-8.36l0 -0.4c-0.05,-5.62 0.17,-9.92 1.68,-13.37 1.48,-3.4 4.28,-6.1 9.39,-8.63 9.85,-4.88 23.19,-6.09 36.47,-4.62 14.43,1.59 28.75,6.33 38.4,12.92 11.41,7.79 20.01,21.21 23.57,35.59 3.32,13.41 2.24,27.65 -5.06,38.86 -1.44,2.22 -3.12,4.24 -5.01,6.03 -1.88,1.77 -3.98,3.33 -6.28,4.65 -7.51,4.29 -16.79,4.36 -25.47,4.42 -7.88,0.05 -15.31,0.11 -20.86,3.25l-3.82 2.16 -2.85 5.08c-6.46,12.65 -3.29,26.66 4.21,39.02 7.41,12.23 19.09,22.87 29.76,28.92l2.33 1.26c9.28,4.74 19.09,7.81 29.11,9.13 9.99,1.32 20.21,0.92 30.36,-1.26l1.1 -0.24c28.55,-6.48 51,-24.7 64.8,-48.29 13.79,-23.57 18.95,-52.52 12.93,-80.49l-0.27 -1.21c-4.9,-21.6 -16.44,-41.17 -31.82,-57.69 -14.35,-15.41 -32.05,-28.19 -50.84,-37.5z"/>
  <path id="КАТУШКА" fill="white" d="M6138.93 3845.1c1.82,0.83 3.64,1.54 5.45,2.13 0.46,0.72 0.93,1.44 1.39,2.14 1.35,1.99 2.72,3.97 4.11,5.94 9.97,14.04 22.38,28.3 34.77,40.24 8.99,8.62 26.38,23.53 38.04,27.26 4.45,1.42 20.65,0.76 26.29,0.75 6.44,0 11.7,-5.02 12.07,-11.33l0 -212.69 0 -212.69c-0.37,-6.32 -5.63,-11.33 -12.07,-11.33 -5.64,-0.02 -21.84,-0.67 -26.29,0.75 -11.66,3.73 -29.05,18.64 -38.04,27.26 -12.39,11.94 -24.8,26.2 -34.77,40.24 -1.39,1.97 -2.76,3.95 -4.11,5.94 -0.92,1.39 -1.86,2.84 -2.71,4.27l-51.33 291.12c23.6,10.8 47.2,0 47.2,0zm-106.19 0l51.33 -291.12c23.6,-10.8 47.19,0 47.19,0l-51.33 291.12c0,0 -23.6,10.8 -47.19,0zm-59 0l51.33 -291.12c23.6,-10.8 47.2,0 47.2,0l-51.33 291.12c0,0 -23.6,10.8 -47.2,0zm-59 0l51.34 -291.12c23.59,-10.8 47.19,0 47.19,0l-51.33 291.12c0,0 -23.6,10.8 -47.2,0zm-58.99 0l51.33 -291.12c23.6,-10.8 47.2,0 47.2,0l-51.33 291.12c0,0 -23.6,10.8 -47.2,0zm-59 0l51.33 -291.12c23.6,-10.8 47.2,0 47.2,0l-51.33 291.12c0,0 -23.6,10.8 -47.2,0zm-58.99 0l51.33 -291.12c23.6,-10.8 47.19,0 47.19,0l-51.33 291.12c0,0 -23.59,10.8 -47.19,0zm-59 0l51.33 -291.12c23.6,-10.8 47.2,0 47.2,0l-51.33 291.12c0,0 -23.6,10.8 -47.2,0zm-7.66 -291.12c23.59,-10.8 47.19,0 47.19,0l-51.33 291.12c-0.85,1.43 -1.79,2.88 -2.71,4.27 -1.35,1.99 -2.71,3.97 -4.1,5.94 -9.97,14.04 -22.39,28.3 -34.78,40.24 -8.99,8.62 -26.38,23.53 -38.03,27.26 -4.46,1.42 -20.65,0.76 -26.29,0.75 -6.44,0 -11.71,-5.02 -12.08,-11.33l0 -212.69 0 -212.69c0.37,-6.32 5.64,-11.33 12.08,-11.33 5.64,-0.02 21.83,-0.67 26.29,0.75 11.65,3.73 29.04,18.64 38.03,27.26 12.39,11.94 24.81,26.2 34.78,40.24 1.39,1.97 2.76,3.94 4.1,5.94 0.52,0.76 1.03,1.56 1.53,2.36 3.36,1.01 5.32,1.91 5.32,1.91z"/>
  <path id="ЗАВИТУШКА_x0020_ЛЕВАЯ" fill="white" fill-rule="nonzero" d="M4387.64 3993.5l-2.85 0.55c-4.08,0.78 -8.19,1.58 -12.1,2.63 -4.72,1.28 -9.51,3.22 -14.24,5.13 -2.54,1.03 -5.08,2.05 -7.57,2.97 -11.27,4.11 -24.3,11.13 -36.84,19.21 -13.76,8.86 -26.93,19.01 -36.52,28.06 -10.35,9.75 -20.33,21.65 -28.75,34.49 -7.94,12.08 -14.5,25 -18.69,37.77 -5.08,15.45 -9.28,36.12 -10.05,56.21 -0.63,16.19 0.97,31.99 6.1,44.35 5.26,12.66 13.59,24.58 24.14,33.67 9.59,8.26 21.03,14.2 33.68,16.22 8.03,1.28 16.09,1.95 24.02,1.46 7.89,-0.48 15.66,-2.1 23.18,-5.39 1.58,-0.69 4.1,-2.36 6.63,-4.23 3,-2.22 6,-4.71 7.48,-6.21 2.24,-2.28 4.03,-5.42 5.83,-8.6 2.07,-3.64 4.17,-7.34 7.13,-10.13l5.62 -5.3 7.63 1.14c5.84,0.88 11.82,5.05 17.13,10.45 6.79,6.91 12.54,15.89 15.43,22.45 8.24,18.76 7.71,39.91 1.36,59.54 -6.97,21.57 -20.97,41.36 -38.04,54.19 -11.31,8.49 -22.72,15.57 -34.91,20.6 -12.22,5.05 -25.22,8.05 -39.69,8.38 -16.89,0.39 -29.66,-0.34 -41.96,-3.16 -12.29,-2.83 -24.09,-7.73 -39.05,-15.65 -17.16,-9.1 -33.21,-23.13 -46.69,-39.42 -14.33,-17.3 -25.81,-37.18 -32.73,-56.46 -0.86,-2.41 -1.62,-4.89 -2.36,-7.35 -0.93,-3.07 -1.87,-6.14 -2.99,-9 -9.41,-24.06 -8.07,-52.98 -6.86,-79.17l0.48 -10.99c0.45,-11.68 2.8,-20.17 5.43,-29.67 0.97,-3.52 1.98,-7.19 2.93,-11.14 2.4,-9.91 6.55,-19.26 10.66,-28.53l2.7 -6.12c19.69,-45.42 52.86,-82.39 92.73,-111.31 46.36,-33.63 101.8,-56.39 155.6,-68.91 17.15,-3.99 35.83,-7.44 54.56,-9.8 16.92,-2.13 33.9,-3.38 49.83,-3.36 32.81,0.04 62.43,5.95 93.86,12.22l9 1.79c8.11,1.6 16.88,4.3 25.32,6.89 3.29,1.02 6.54,2.02 9.72,2.94l8.55 2.53 -1.56 -2.6c-0.91,-1.59 -1.68,-3 -2.15,-4.09 -9.7,-22.59 -12.28,-44.4 -7.9,-64.72 4.38,-20.31 15.74,-39.11 33.89,-55.67 12.61,-11.5 26.72,-18.31 41.52,-20.48 14.98,-2.19 30.66,0.37 46.23,7.61 6.98,3.25 13.79,7.71 19.65,13.13 5.45,5.02 10.11,10.88 13.37,17.35 4.5,8.93 7.89,19.63 7.75,29.92 -0.11,8.39 -2.55,16.52 -8.6,23.23l-3.88 4.29 -5.71 0.8c-6.33,0.87 -10.98,-1.01 -15.61,-2.88 -2.57,-1.05 -5.16,-2.09 -7.94,-2.6 -5.69,-0.94 -10.64,-0.88 -14.9,0.01 -6.37,1.32 -11.23,4.51 -14.74,8.93 -3.55,4.47 -5.76,10.22 -6.81,16.61 -1.29,7.81 -0.87,16.58 0.91,25.16 0.74,3.55 2.56,7.23 4.86,10.74 3.09,4.72 7.06,9.13 10.46,12.53 14.31,14.28 37.29,24.4 62.14,30.7 30.03,7.62 62.74,9.68 86.22,6.87l5.67 -0.65c11.51,-1.3 24.18,-2.73 34.53,-6.59l7.49 -2.69c8.75,-3.1 17.41,-6.16 25.38,-11.12 10.5,-6.53 18.36,-12.57 24.69,-19.86 6.31,-7.27 11.12,-15.84 15.54,-27.47 1.73,-4.56 2.69,-10.46 3.09,-16.54 0.5,-7.64 0.15,-15.58 -0.58,-21.65 -0.62,-5.09 -1.73,-9.68 -3.58,-13.89 -1.84,-4.2 -4.44,-8.06 -8.05,-11.71 -5.08,-5.15 -10.6,-8.87 -16.63,-11.31 -6.04,-2.45 -12.6,-3.64 -19.79,-3.74 -3.71,-0.05 -8.55,0.52 -13.51,1.1 -7.75,0.9 -15.8,1.85 -20.8,0.57l-5.28 -1.34 -3.34 -4.31c-6.41,-8.27 -7.48,-19.06 -5.54,-29.96 2.49,-14.01 9.96,-28.26 17.28,-37.45 5.82,-7.31 12.79,-13.36 20.43,-18.44 7.6,-5.05 15.89,-9.17 24.39,-12.65 10.47,-4.29 21.48,-6.22 32.56,-6.5 11.05,-0.27 22.21,1.09 33.02,3.39 26.96,5.73 50.97,23.57 68.13,46.79 17.75,24 28.2,53.78 27.06,81.9 -2.14,53.02 -27.3,94.07 -63.91,123.56 -40.5,32.62 -95.03,51.06 -147.85,55.9 2.92,0 5.78,0.07 8.63,0.15 3.3,0.08 6.61,0.18 9.97,0.15 25.57,-0.23 51.74,-3.69 77.41,-9.61 27.47,-6.33 54.36,-15.49 79.32,-26.53 12.09,-5.36 24.6,-11.92 36.74,-19.12 12.7,-7.53 25.03,-15.78 36.09,-24.07 30.34,-22.76 57.93,-52.82 78.77,-86.73 19.51,-31.73 33.11,-66.84 37.57,-102.48 3.65,-29.23 5.04,-48.84 3.66,-68.25 -1.37,-19.43 -5.52,-38.73 -12.94,-67.31 -3.83,-14.78 -13.75,-32.57 -21.73,-46.88l-2.44 -4.38c-3.6,-6.5 -8.3,-13.1 -13.45,-19.44 -6.3,-7.75 -13.28,-15.12 -19.79,-21.46 -13.28,-12.94 -29.16,-24.77 -46.32,-33.94 -15.8,-8.45 -32.71,-14.66 -49.69,-17.43 -20.96,-3.4 -46.02,-4.84 -69.29,-0.79 -18.14,3.16 -35.18,9.67 -48.31,21.2 -6.47,5.68 -12.16,12.18 -16.67,19.37 -4.23,6.74 -7.45,14.12 -9.32,22.03 -2.07,8.72 -2.49,19.23 -1.19,29.41 1.22,9.54 3.95,18.8 8.26,26.06 2.02,3.41 4.23,6.39 6.74,9.06 2.5,2.66 5.33,5.04 8.6,7.24l3.58 2.3c6.21,3.9 12.12,7.63 14.19,15.89 1.32,5.26 0.37,9.95 -1.79,14.16 -2.11,4.11 -5.39,7.74 -8.83,11 -6.09,5.79 -12.85,10.61 -20.16,14.32 -7.19,3.65 -14.92,6.24 -23.08,7.64 -26.1,4.48 -51.25,-3.02 -72.73,-17.21 -24.64,-16.29 -44.49,-41.42 -55.46,-67.36 -9.8,-23.22 -12.83,-46.57 -10.5,-69.46 2.54,-25.05 11.48,-49.55 24.92,-72.78 9.63,-16.66 23.39,-31.97 39.11,-45.1 17.18,-14.35 36.73,-26.13 55.88,-34.27 6.68,-2.84 18.71,-7.31 29.99,-10.73 8.31,-2.53 16.23,-4.5 21.3,-4.84l6.43 -0.44c29.1,-2.01 67.03,-4.64 93.26,4.67 2.36,0.84 4.88,1.34 7.45,1.84 2.9,0.57 5.86,1.15 8.9,2.28l7.59 2.81c12.44,4.6 24.28,8.99 36.81,14.6 9.4,4.21 18.26,9.31 26.81,14.9 8.55,5.58 16.77,11.62 24.93,17.73 26.24,19.66 46.42,41.57 63.33,65.87 16.88,24.26 30.52,50.92 43.69,80.12 7.28,16.13 10.65,30.47 14.26,45.81 1.38,5.91 2.81,11.98 4.5,18.31 6.84,25.72 6.85,51.96 6.85,78.34 0,6.81 -0.08,13.56 -0.37,20.34 -0.3,6.76 -0.83,13.52 -1.75,20.27 -1.35,10 -3.47,20 -5.56,29.92l-1.05 5c-7.79,37.28 -24.96,75.11 -47.6,109.62 -24.08,36.72 -54.37,69.71 -86.12,94.3 -15.77,12.21 -34.97,25.32 -54.78,36.77 -17.16,9.91 -34.79,18.6 -51.05,24.38l-9.75 3.5c-17.48,6.31 -34.71,12.53 -53.02,16.68 -39.63,9 -75.65,13.37 -111.68,13.34 -36.02,-0.04 -72.05,-4.48 -111.72,-13.09 -5.38,-1.17 -10.76,-2.48 -16.12,-3.84 -5.37,-1.36 -10.71,-2.8 -16,-4.21l-4.64 -1.23c-9.56,-2.53 -19.89,-5.26 -28.89,-8.71 -9.33,-3.59 -19.03,-6.65 -28.71,-9.7 -10.61,-3.35 -21.24,-6.7 -31.63,-10.84 -7.56,-3.02 -27.26,-9.27 -48.52,-15.3 -16.12,-4.57 -33.13,-9.02 -46.41,-11.85l1.7 2.71c1.02,1.68 2,3.43 2.92,5.27 4.86,9.69 6.76,19.33 5.99,28.76 -0.8,9.76 -4.46,19.31 -10.66,28.5 -14.26,21.13 -32.63,27.23 -48.79,25.03 -6.32,-0.87 -12.29,-3 -17.54,-6 -5.26,-3 -9.82,-6.88 -13.27,-11.22 -7.17,-8.98 -9.68,-19.98 -4.28,-29.48 1.25,-2.21 0.76,-1.57 2.56,-3.37 5.18,-5.19 10.02,-5.66 15.02,-6.15 2.49,-0.25 5.03,-0.5 7.64,-1.4 2.56,-0.87 2.59,-5.66 2.61,-8.36l0 -0.4c0.05,-5.62 -0.17,-9.92 -1.68,-13.37 -1.48,-3.4 -4.27,-6.1 -9.38,-8.63 -9.85,-4.88 -23.2,-6.09 -36.47,-4.62 -14.43,1.59 -28.75,6.33 -38.41,12.92 -11.4,7.79 -20.01,21.21 -23.57,35.59 -3.32,13.41 -2.24,27.65 5.06,38.86 1.45,2.22 3.13,4.24 5.01,6.03 1.88,1.77 3.98,3.33 6.28,4.65 7.52,4.29 16.79,4.36 25.47,4.42 7.89,0.05 15.32,0.11 20.87,3.25l3.82 2.16 2.85 5.08c6.46,12.65 3.28,26.66 -4.22,39.02 -7.41,12.23 -19.08,22.87 -29.75,28.92l-2.34 1.26c-9.27,4.74 -19.08,7.81 -29.11,9.13 -9.99,1.32 -20.21,0.92 -30.35,-1.26l-1.1 -0.24c-28.55,-6.48 -51.01,-24.7 -64.81,-48.29 -13.79,-23.57 -18.94,-52.52 -12.93,-80.49l0.27 -1.21c4.9,-21.6 16.44,-41.17 31.82,-57.69 14.35,-15.41 32.06,-28.19 50.85,-37.5z"/>
  <path id="АТЕЛЬЕ" fill="white" d="M6083.57 2693.28c17.14,20.08 133.88,38.04 165.39,43.28 69.37,11.52 125.51,4.24 189.89,-12.79 53.88,-14.24 92.08,-51.32 103.65,-104.98 36.24,-168.03 81.93,-343.29 120.54,-512.01l81.44 -339.14c25.38,-7.82 40.57,-3.43 65.67,4.29 31.86,9.81 184.06,40.7 192.62,49.71 11.72,12.31 -30.86,167.03 -36.81,190.92 -15.94,64.08 -29.9,128.95 -45.78,193.11 -15.88,64.17 -30.36,128.78 -45.81,193.07 -7.32,30.44 -35.6,174.18 -50.89,188.23 -27.55,7.99 -64.79,-20.54 -89.96,4.14 -7,6.86 -20.44,78.55 -24.09,93.59 -7.44,30.62 -15.44,61.52 -22.15,92.27 -8.47,38.85 -20.55,57.37 25.98,74.18l187.33 44.9c39.06,9.16 164.06,46.39 195.14,33.18 6.06,-4.71 63.56,-234.6 55.58,-250.03 -18.94,-23.7 -86.64,-11.68 -77.56,-56.82 7.52,-37.39 19.93,-76.27 28,-114.12 15.79,-74 34.58,-152.61 53.26,-226.01 4.87,-19.16 90.14,-389.76 96.15,-395.15 19.74,-17.73 88.61,31.8 101.16,-23.3l40.47 -171.54c13.15,-54.12 17.81,-67.59 -43.45,-79.07 -37.25,-6.99 -76.79,-18.66 -114.15,-27.21l-680.27 -161.14c-14.76,-3.52 -26.89,-7.01 -37.02,-9.12l-27.42 0c-10.69,4.46 -17.75,16.95 -24.08,43.69 -8.99,38.03 -17.61,76.52 -26.89,114.43 -6.17,25.2 -30.76,89.2 -7.38,104.88 33.33,22.33 82.36,0.59 64.06,63 -20.89,71.24 -35.8,154.99 -53.98,228.45 -37.25,150.51 -68.73,304.6 -107.53,454.36 -15.8,61.02 -123.69,18.83 -155.22,14.51 -16.34,-2.25 -40.55,8.76 -47.4,21.83 -4.49,8.55 -10.81,45.61 -13.69,56.97 -4.79,18.96 -9.95,37.33 -14.12,56.54 -7.28,33.55 -24.39,87.38 -20.68,118.9zm-1486.09 -825.93c14.43,18.95 10.71,19.84 15.02,42.19 17.11,88.75 63.48,255.18 76.38,334.09 6.89,42.14 88.26,377.18 83.85,385.99 -26.24,23.21 -89.23,12.47 -78.97,66.58 7.87,41.49 18.11,82.7 27.7,123.8 34.64,148.48 -11.89,107.46 289.46,47.69l244.41 -55.14c62.38,-15.79 260.2,-54.84 303.69,-69.9 24.15,-8.35 18.12,-30.61 12.8,-52.62 -9.58,-39.7 -19.58,-80.99 -27.42,-120.62 -8.16,-41.16 -19.94,-82.01 -28.01,-123.4 -7.83,-40.12 -18.61,-81.02 -27.49,-120.55 -5.37,-23.96 -5.78,-32.91 -32.84,-41.19 -36.85,-11.27 -87.67,0.53 -116.39,27.19 -28.51,26.47 -8.71,58.57 2.77,116.65 3.96,20.06 12.39,43.71 13.5,64.46 -20.53,26.23 -44.34,22.39 -74.38,29.95 -54.25,13.66 -218.59,53.87 -265.88,53.87 -8.02,-12.16 -14.53,-60.22 -18.8,-78.77 -8.9,-38.59 -57.98,-236.81 -49.67,-248.72 12.55,-10.03 70.16,-22.86 86.17,-16.53 14.83,7.41 30.33,102.33 35.4,122.74 12.08,48.71 82.33,35.37 117.27,21.49 60.77,-24.14 47.05,-52.29 33.62,-105.01 -20.45,-80.22 -38.91,-182.45 -59.22,-263.79 -13.03,-52.18 -5.27,-87.98 -74.13,-87.58 -34.37,0.21 -102.48,16.36 -101.23,60.65 0.75,26.93 31.4,115.24 24.73,132.11 -10.24,16.69 -69.02,29.88 -88.68,19.62 -13.11,-6.83 -23.27,-73.56 -27.35,-90.41 -15.22,-62.87 -27.09,-126.95 -42.32,-189.84 -13.06,-53.94 -13.75,-45.69 88.81,-67.91 58.01,-12.58 198.45,-49.12 243.71,-49.12 28.12,60.74 16.94,160.91 64.18,178.08 34.45,12.52 65.34,6.6 97.43,-9.81 59.36,-30.35 32.89,-73.54 8.66,-176.97l-44.34 -197.91c-4.36,-21.97 -14.26,-81.36 -29.05,-95.45 -13.86,-6.32 -129.41,20.84 -150.77,26.16 -110.2,27.5 -247.22,55.68 -362.11,82.16l-145.88 32.5c-23.99,4.74 -49.82,12.1 -74,16.88 -105.28,20.82 -99.92,22.92 -86.47,75.73l32.67 145.65c16.17,105.16 38.74,47.69 103.17,55.01zm4934.05 1834.99c-14.28,18.75 -141.07,73.68 -170.2,88.7 -50.18,25.88 -517.87,260.35 -528.42,258.57 -23.93,-13.1 -23.2,-42.48 -41.77,-55.67 -29.18,-20.72 -41.03,-5.32 -69.49,8.9 -44.8,22.39 -88.92,43.5 -132.9,65.67 -58.96,29.73 -52.33,21.62 -3.99,118.25 22.08,44.14 44.13,88.21 66.2,132.33l196.98 398.59c22.4,44.24 40.71,91.84 68.93,132.96 32.01,0 54.5,-17.13 92.01,-35.88l261.42 -128.97c40.51,-20.24 61.05,-18.93 57.26,-70.67 -2.46,-33.55 -22.36,-62.95 -46.35,-84.89 -30.93,-28.27 -61.5,-2.52 -92.82,13.14 -115.87,57.91 -85.49,70.17 -176.14,-111.03 -13.25,-26.46 -27.1,-53.75 -38.58,-79.19 -19.88,-44.07 -33.15,-51.78 -29,-87.03l294.18 -141.58c23.53,14.07 41.93,56.26 45.21,83.81 -18.82,24.78 -81.25,45.27 -110.07,61.57 -23.75,13.44 -30.3,22.94 -22.99,60.75 4.4,22.79 12.99,40.98 27.46,60.03 40.18,52.92 65.18,30.08 113.4,3.76 34.71,-18.95 79.36,-38.33 117.57,-57.43 38.25,-19.11 76.2,-38.07 114.45,-57.19 53.34,-26.66 87.55,-24.79 71.65,-94.05 -7.19,-31.34 -46.26,-99.04 -85.82,-81.62 -29.59,13.02 -90.62,53.4 -121.6,53.43 -10.06,-1.85 -54.34,-68.24 -31.36,-91.89 7.87,-8.11 275.56,-139.12 287.54,-140.61 22.14,17.5 100.77,182.63 120.39,226.19 41.02,91.11 63.44,83.17 -49.05,131.8 -65.88,28.48 -90.15,40.81 -65.46,110.5 8.46,23.87 37.36,64.23 64.7,66.82 18.79,1.78 198.39,-92.57 224.14,-105.44 55.4,-27.69 128.64,-58.29 176.16,-89.71 0.04,-37 -25.68,-69.61 -39.97,-101.35 -14.11,-31.35 -30.47,-63.02 -46.42,-94.91l-234.41 -472.21c-9.6,-22.02 -34.33,-79.17 -52.73,-92 -16.86,-5.12 -227.24,106.16 -229.88,110.36 -13.28,21.12 26.54,54.05 19.77,87.19zm-7326.45 226.49c65.08,15.67 383.82,132.18 410.65,134.57l-74.05 134.57c-9.62,-2.6 -330.1,-259.32 -336.6,-269.14zm-333.23 -43.3l0 -17.09c2.31,-7.32 7.21,-16.41 14.85,-29.06 29.03,-48.03 54.37,-100.78 82.52,-149.62 20.05,-34.77 52.21,-16.58 84.79,-6.93l268.81 74.49c120.56,31.35 241.05,70.17 361.6,99.49 36.12,8.79 354.33,100.34 361.07,97.81 19.94,-16.34 17.35,-51.92 51.35,-66.54 19.38,-8.34 62.32,20.15 80.35,31.32 49.55,30.69 101.24,51.45 148.77,86.81 -0.03,27.01 -29.24,75.93 -43.82,100.87l-125.56 227.76c-10.04,19.06 -19.44,26.66 -29.22,41.44 -31.14,0 -51.17,-14.5 -84.09,-33.7 -19.78,-11.55 -139.87,-72.28 -143.7,-85.14 -11.47,-38.47 25.62,-61.96 24.96,-85.52 -5.29,-3.84 -88.63,-31.25 -104.74,-36.6 -29.73,-9.87 -75.78,-22.28 -103.47,-35.12l-92.99 169.29 173.01 139.85c15.06,-18.75 31.1,-70.59 61.27,-69.37 11.97,0.48 145.05,77.77 168.77,90.14 32.09,16.74 61.17,30.1 38.25,71.87 -27.34,49.86 -163.67,304.4 -187.22,327.61 -35.09,4.09 -53.89,-16.55 -84.43,-31.63 -22.19,-10.95 -137.28,-72.74 -146,-86.5 -13.7,-21.61 21.98,-60.88 27.55,-78.52 4.72,-14.97 -41.99,-48.72 -54.49,-59.11 -36.88,-30.62 -148.75,-141.07 -179.34,-163.91l-241.53 -219.49c-79,-74.6 -161.06,-146.15 -240.56,-220.48 -19.78,-18.51 -43.07,-36.01 -62.3,-55.48 -12.86,-13.01 -21.19,-20.85 -24.46,-28.94zm6128.99 -717.03c19.61,-33.63 235.46,-294.01 242.63,-295.89 17.44,-4.56 144.2,105.21 163.19,132.99 47.91,70.08 -8.07,96.7 -74.11,184.45 -20.88,27.73 -46.02,53.79 -66.67,81.39 -56.06,74.94 -130.22,26.22 -189.68,-29.75 -29.58,-27.84 -54.09,-36.57 -75.36,-73.19zm-435.92 -15.45c-7.53,37.54 49.44,68.86 75.1,90.6 30.21,25.59 61.66,51.01 92.74,75.53 98.27,77.55 281.03,244.21 385.43,287.62 40.87,17 98.48,30.85 141.73,18.67 43.69,-12.31 67.37,-43.02 95.24,-76.4 33.83,-40.5 202.67,-251.69 227.57,-277.19 32.83,-33.62 50.06,-74.12 42.85,-121.84 -20.47,-135.53 -119.98,-208.14 -216.5,-288.16 -120.07,-99.55 -112.8,-52.5 -3.23,-190.67 14.17,-17.87 27.69,-34.51 42.21,-52.02 9.84,-11.87 34.33,-45.59 44.41,-53.18 59.22,16.12 59.22,80.94 116.08,5 124.25,-165.92 164.76,-141.86 76.97,-217.56l-212.6 -174.4c-60.87,-47.94 -59.5,-56.07 -111.76,10.12 -28.44,36.02 -59.84,70.83 -88.32,106.86 -15.32,19.39 -39.45,38.4 -14.98,61.08 10.51,9.73 44.72,38.9 41.85,53.13 -2.25,11.2 -371.12,451.71 -434.59,531.3 -14.4,18.07 -28.98,36.05 -43.44,54.04 -20.88,25.95 -43.89,1.78 -62.66,-12.19 -31.77,-23.63 -37.91,-14.44 -59.75,11.05l-109.31 132.98c-9.57,11.53 -17.22,16.45 -25.04,25.63zm-4414 -458.91c4.75,-19.57 18.95,-33.91 35.62,-45.14 24.7,-16.63 27.89,-21.47 58.89,-22.4 38.28,49.14 76.2,103.3 114.74,154.46l86.31 115.59c9.76,14.7 21.27,26.69 30.29,40.37 16.91,25.65 38.91,52.83 57.33,77.28l116.29 156.26c64.9,87.28 71.88,72.47 21.64,111.71 -44,34.36 -17.72,51.23 35.21,120.81 18.57,24.41 38.96,50.02 56.34,74.89 23.93,34.26 37.05,56.2 81.36,20.85l227.72 -172.74c12.96,-9.75 25.4,-19.19 38.2,-29.11 20.48,-15.86 18.86,-23.9 19.97,-48.13 -33.16,-41.1 -63.8,-84.53 -95.57,-126.51 -14.25,-18.82 -32.25,-53.59 -56.33,-55.02 -36.18,-2.14 -42.12,33.64 -79.99,29.77 -17.46,-18.34 -42.09,-55.09 -57.99,-76.6 -19.06,-25.81 -38.83,-51.16 -57.18,-77.43 -36.07,-51.62 -80.61,-101.69 -115.13,-154.06l-57.5 -77.1c-19.51,-25.66 -38.41,-50.97 -57.7,-76.91 -16.16,-21.75 -109.55,-142.66 -112.93,-156.3 -2.22,-25.95 68.14,-78.34 93.27,-66.27 29.38,28.96 60.94,79.99 87.68,114.22 18.52,23.73 52.4,10.43 74.76,-0.7 22.32,-11.11 39.92,-27.73 52.55,-48.41 28.46,-46.63 -9.1,-59.12 -53.21,-125.88l-173.79 -233.38c-36.68,-46.21 -45.78,-25.48 -119.79,29.48 -171.23,127.16 -351.93,266.89 -521.74,390.24 -9.99,7.26 -20.24,16.47 -22.18,28.51 -2.95,18.35 4.59,23.02 14.42,35.89 29.66,38.82 58.79,78.02 87.97,117.28l129.93 172.93c17.8,25.51 28.18,41.85 63.58,29.99 23.66,-7.93 47.53,-20.05 62.87,-38.09 16.1,-18.95 35.6,-44.35 19.07,-70.07 -15.14,-23.58 -80.59,-102.18 -84.98,-120.28z"/>
 </g>
</svg>
