<?xml version="1.0" encoding="UTF-8"?>
<!DOCTYPE svg PUBLIC "-//W3C//DTD SVG 1.1//EN" "http://www.w3.org/Graphics/SVG/1.1/DTD/svg11.dtd">
<!-- Creator: CorelDRAW -->
<svg xmlns="http://www.w3.org/2000/svg" xml:space="preserve" width="1949px" height="709px" version="1.1" shape-rendering="geometricPrecision" text-rendering="geometricPrecision" image-rendering="optimizeQuality" fill-rule="evenodd" clip-rule="evenodd"
viewBox="0 0 1949 708.73"
 xmlns:xlink="http://www.w3.org/1999/xlink"
 xmlns:xodm="http://www.corel.com/coreldraw/odm/2003">
 <g id="Слой_x0020_1">
  <metadata id="CorelCorpID_0Corel-Layer"/>
  <path fill="white" d="M1074.38 130.36c1.71,-3.28 3.28,-4.98 3.28,-10.1l0 -37.01 9.84 0 0 45.54c-5.77,1.31 -5.38,1.58 -13.12,1.57zm-39.24 -6.69c0,-11.94 -2.62,-37.01 3.28,-37.01 6.82,0 3.41,5.77 9.71,10.1 3.94,2.63 2.36,0 5.91,4.07 4.2,4.73 -0.66,3.68 7.22,4.33 0,18.77 -1.84,17.33 3.28,25.2 -6.96,0 -10.64,0.13 -16.93,-0.91 -6.3,-1.19 -12.48,1.31 -12.47,-5.78zm-77.17 69.04l-101.59 0c-5.77,0 -6.43,-1.18 -11.55,-1.71 0,-40.95 3.42,-24.81 6.57,-37.01 3.8,0.92 4.85,1.58 9.84,1.71 -0.26,-12.08 -2.76,-8.4 -9.84,-6.83 -1.32,-3.54 -0.79,-1.44 -2.63,-3.94 -1.83,-2.62 -1.31,-0.79 -2.23,-4.46 5.12,-1.32 10.76,-6.83 12.86,-11.95 8.66,-19.55 -6.43,-35.17 51.06,-35.17 13.65,0 59.85,0 66.54,14.17 0.65,1.58 2.36,9.19 2.23,10.9l-9.98 37.01c-2.62,8.4 -10.5,28.74 -11.28,37.28zm36.09 -185.19l-8.13 0 3.27 23.49c-4.06,1.7 -2.62,-3.41 -3.27,3.28 -0.66,5.64 -0.13,1.58 1.57,5.12 -9.18,0.26 -32.55,9.06 -49.34,11.68 -43.05,6.95 -49.22,13.25 -75.86,-2.62 -3.15,-1.84 -5.65,-3.81 -8.54,-6.31 -14.43,-12.47 -2.62,-7.87 -5.64,-21.13 -9.58,0 -7.35,-0.65 -13.13,3.28 1.45,5.38 8.4,10.77 -1.7,13.52l0 55.52c-7.88,5.51 -5.78,2.1 -6.43,8.4l-3.28 0c-1.97,-5.25 3.54,-2.37 -4.99,-3.42l0 15.23c8.54,-0.79 3.02,1.57 4.99,-3.42l3.28 0c1.57,6.43 3.15,4.99 6.43,10.11 2.62,8.53 -5.12,17.45 4.98,20.21l0 32.03c-3.94,-0.92 -4.86,-1.58 -9.84,-1.71l0 10.11c4.98,-0.13 5.91,-0.79 9.84,-1.71l0 11.81 -40.95 1.71c-2.62,9.97 -3.02,7.87 11.03,22.31 16.4,16.67 8.01,17.85 28.22,9.58 21.4,-8.53 35.04,1.83 36.23,1.83 9.06,0 1.7,-10.76 47.12,-1.44l28.35 4.73c3.54,0.13 6.82,-1.32 12.99,-1.71 17.32,-0.79 23.88,-6.69 49.22,-6.69 7.61,0 9.45,5.12 14.69,5.12 4.99,0 11.95,-10.5 36.36,-1.97 20.87,7.22 14.96,9.84 29,-8.53 5.65,-7.36 23.23,-23.37 1.97,-23.37 -5.38,0.13 -10.89,0.13 -16.4,0.13 -10.37,0 -20.74,0 -31.11,0 -1.31,-5.51 -2.36,-5.77 -4.33,-10.76 -1.71,-4.33 -2.89,-8.54 -3.94,-12.87l13.13 -8.39 0 -18.51c11.42,0 15.75,-1.71 26.25,-1.71 3.94,0 27.96,9.58 27.96,-1.7l0 -48.7c7.21,-0.65 3.93,-1.7 16.27,-1.7 5.91,0 11.68,4.85 18.11,4.85 14.05,0 22.84,-21.78 -3.28,-21.78 -0.13,0 -31.1,11.42 -31.1,-1.71l0 -10.1 -16.54 0 0 6.82 -9.84 0c0,-44.36 3.8,-42.13 -9.85,-48.83l-6.42 4.99 0 23.63c-10.11,0.26 -3.68,1.44 -12.6,7.22 -9.45,6.17 -1.06,4.85 -10.37,11.28l-3.28 -3.41c-5.51,-7.09 -5.91,-11.68 -18.64,-17.98 -6.43,-3.28 -5.64,-0.27 -9.32,-5.52l0 -23.62c4.33,-1.71 3.02,3.54 3.28,-6.69l-9.84 0c0.26,-0.27 0.79,-1.06 0.92,-0.79 0.13,0.39 1.05,-0.92 1.44,-1.84 1.31,-3.02 0.53,-0.92 0.92,-4.2l-11.42 0c0.26,3.94 0.39,4.33 1.56,6.85zm-752.3 563.45c1.98,-1.32 3.96,-2.5 5.8,-3.95l2.76 -1.84 7.65 8.43 -3.16 2.63c-13.57,11.19 -29.25,16.07 -46.5,16.07 -16.46,0 -31.22,-6.06 -44.13,-16.2 -28.18,14.88 -51.76,25.16 -84.3,25.16 -10.8,0 -21.6,-1.45 -32,-4.87 -9.09,-3.16 -17.78,-7.65 -25.29,-13.7 -7.11,-5.67 -12.77,-12.65 -16.99,-20.81 -4.08,-8.3 -6.19,-16.99 -6.19,-26.21 0,-6.33 1.05,-12.52 3.03,-18.31 1.98,-6.06 4.87,-11.73 8.43,-16.87 3.55,-5.26 8.03,-9.74 13.3,-13.43 5.26,-3.82 11.33,-6.32 17.78,-7.51l4.08 -0.79 1.32 11.32 -3.69 0.66c-4.48,0.79 -8.56,2.51 -12.25,5.14 -4.08,2.77 -7.51,6.32 -10.4,10.41 -3.03,4.21 -5.4,8.95 -7.12,13.96 -1.71,5.13 -2.63,10.4 -2.63,15.8 0,6.85 1.58,13.31 4.61,19.5 3.16,6.58 7.77,12.25 13.04,16.99 6.32,5.4 13.56,9.22 21.21,11.99 9.21,3.42 18.96,4.61 28.58,4.61 26.47,0 53.34,-8.04 76.39,-21.34 -11.06,-12.77 -15.28,-29.9 -16.33,-46.62l-4.08 0c-7.51,0 -15.02,-1.06 -22.13,-3.56 -6.32,-2.11 -12.25,-5.4 -17.26,-9.88 -5,-4.48 -8.82,-9.74 -11.32,-15.8 -2.77,-6.46 -3.96,-13.57 -3.96,-20.55 0,-14.23 3.82,-28.19 9.49,-41.23 3.42,-6.98 7.24,-13.83 11.59,-20.28 4.61,-6.98 9.88,-13.44 15.41,-19.5 5.67,-6.45 11.85,-12.51 18.44,-18.04 6.85,-5.8 14.23,-11.07 21.74,-15.81 21.86,-14.09 45.3,-24.9 70.33,-31.88 26.61,-7.37 54.27,-10.4 81.93,-10.4 13.04,0 26.21,1.58 39.12,3.03 22.39,2.5 44.65,5.67 66.78,8.96 6.71,1.18 13.3,2.5 20.02,3.68 6.06,1.06 12.12,2.11 18.17,3.17l17.13 2.63c8.95,-5.67 18.57,-10.54 28.58,-13.57 9.48,-3.03 19.36,-4.74 29.24,-4.74 5.14,0 10.28,0.13 15.28,0.92 3.43,0.53 6.98,1.32 10.27,2.63 2.51,1.06 5.01,2.64 6.59,4.88 1.45,2.1 2.24,4.34 2.24,6.85 0,3.16 -0.92,6.06 -2.37,8.83 -2.1,3.42 -5.27,5.92 -8.69,7.77 -4.61,2.37 -9.88,3.68 -14.89,4.74 -7.64,1.45 -15.54,1.71 -23.31,1.71 -4.74,0.13 -9.61,-0.13 -14.48,-0.66 -4.75,-0.52 -9.75,-0.92 -14.63,-1.58 -4.87,-0.53 -9.61,-1.18 -14.35,-2.1 -5.01,3.29 -9.75,6.85 -14.36,10.54 -18.7,14.62 -35.56,32 -51.37,49.65 -21.73,24.37 -41.23,50.98 -59.67,78.11 -2.9,4.22 -6.06,8.43 -9.09,12.52 -3.82,5.14 -7.64,10.4 -11.33,15.67l-16.59 23.32c-3.56,4.87 -18.71,26.21 -18.71,31.35 0,0.12 -0.13,0.39 0,0.52 0.13,0.13 0.27,0 0.53,0 1.45,0 5,-2.37 6.2,-3.29 4.48,-3.16 8.69,-6.85 12.64,-10.67 5.66,-5.26 10.93,-10.8 16.2,-16.46 1.05,-1.18 1.98,-2.24 2.9,-3.29 0.65,-1.32 1.31,-2.5 1.97,-3.69 5.4,-10.14 12.65,-19.23 20.29,-27.53 11.72,-12.64 25.02,-23.71 39.12,-33.45 7.9,-5.53 22.92,-15.81 32.53,-15.81 5.14,0 8.95,2.11 10.93,6.2l2.9 -4.22 18.97 0 -3.69 6.06c-0.53,0.92 -1.32,1.71 -2.11,2.5l-5.66 7.91 -6.85 9.48 -4.75 6.45 -34.11 48.21c-2.9,4.22 -11.07,16.07 -11.07,20.94 0,0.27 0,1.32 0.13,1.45 0.13,0.13 0.53,0.13 0.66,0.13 3.95,0 11.59,-6.85 14.48,-9.48 14.23,-13.3 25.95,-29.24 38.99,-43.6l1.32 -1.45c7.91,-9.75 15.81,-19.62 24.5,-28.84 5.27,-5.4 11.07,-10.81 17.39,-15.15 4.08,-2.9 8.96,-5.4 14.09,-5.4 8.57,0 13.04,5.53 13.04,14.09 0,2.77 -0.53,5.66 -1.18,8.43 5,-5.14 10.54,-10.01 16.33,-14.1 5.53,-3.95 13.56,-8.82 20.55,-8.82 3.55,0 6.98,1.05 9.35,3.82 2.51,2.63 3.29,6.19 3.29,9.87 0,2.51 -0.53,5.14 -1.44,7.91 2.89,-2.77 5.93,-5.27 9.09,-7.51 5,-3.82 10.27,-7.24 16.07,-10.01 4.34,-1.98 9.35,-3.69 14.09,-3.69 3.95,0 7.64,1.19 10.54,3.95 3.16,2.9 4.34,6.72 4.34,10.94 0,6.58 -3.42,13.17 -6.98,18.44 -6.45,10.14 -15.54,19.62 -23.84,28.32 -9.35,9.75 -18.96,19.62 -27,30.43 -2.11,2.76 -6.45,8.69 -6.45,12.25 0,0.26 0,1.05 0.13,1.18 0.26,0.13 0.66,0.13 0.92,0.13 8.83,0 25.03,-15.41 31.35,-21.6 11.59,-11.59 22.39,-23.71 33.45,-35.69 3.95,-4.35 8.04,-8.7 12.38,-12.78 5.93,-5.79 11.99,-11.46 18.31,-16.86 4.35,-3.82 8.83,-7.64 13.44,-11.07 2.1,-1.44 5.14,-3.16 6.85,-4.87l1.18 -1.19 23.05 0.4 -9.09 8.16c-2.9,3.03 -5.53,6.32 -8.16,9.49 -4.35,5.26 -8.69,10.66 -12.91,16.19 0.66,-0.39 1.32,-0.52 1.98,-0.79 2.63,-0.92 5.4,-1.58 8.3,-1.58 3.81,0.53 6.84,2.24 8.95,5.4 1.98,2.9 2.77,6.33 2.77,9.88 0,8.43 -2.11,16.33 -6.2,23.45 4.49,-1.19 8.96,-3.43 12.52,-5.67 1.58,-1.32 3.16,-2.89 4.88,-4.48 1.58,-3.29 3.42,-6.59 5.79,-9.22 3.03,-3.55 7.77,-8.43 12.38,-9.61 3.55,-0.92 7.51,-0.66 9.48,3.03 1.72,3.03 0.92,6.59 -0.26,9.75 -1.58,3.69 -4.35,6.58 -7.51,8.69 -2.63,2.37 -5,5.27 -7.11,8.3 -2.11,3.16 -3.95,6.58 -5.53,10.14 -1.19,3.29 -2.37,6.59 -2.9,10.14 -0.53,2.5 -0.79,5.27 -0.39,7.9 0.26,1.45 0.79,3.04 1.84,4.09 1.05,0.79 2.37,0.92 3.42,0.65 1.72,-0.26 6.72,-4.74 8.17,-6.06 5.66,-5.13 10.93,-10.8 16.07,-16.72 2.77,-3.16 5.67,-6.2 8.82,-9.09 3.3,-3.03 6.72,-5.93 10.54,-8.17 1.84,-1.32 3.82,-2.5 5.8,-3.55 -1.19,-1.58 -2.11,-3.29 -2.64,-5.27 -1.18,-4.08 -1.44,-8.43 -0.92,-12.64 0.53,-4.88 1.72,-9.49 3.56,-13.97 1.84,-4.74 4.48,-9.22 7.51,-13.43 3.29,-4.35 6.98,-8.3 11.19,-11.59 4.48,-3.43 9.35,-6.06 14.62,-7.77 5.67,-1.98 11.73,-2.64 17.79,-1.98 2.76,0.13 5.13,1.32 7.11,3.43 0.92,1.05 1.71,2.36 2.1,3.68 0.66,-0.79 1.19,-1.71 1.72,-2.5l1.32 -1.84 21.33 0.92 -5.66 6.32c-1.45,1.45 -2.51,3.29 -3.69,5 -2.24,3.3 -4.61,6.59 -6.85,9.88 -3.03,4.35 -5.93,8.69 -8.96,12.91 -3.55,5.14 -7.24,10.14 -10.93,15.15 -9.35,12.25 -18.7,24.76 -26.74,37.93 -1.84,3.17 -8.16,13.57 -8.16,16.99 0,0.13 0,0.27 0,0.4 0.13,0.13 0.66,0 0.79,0 2.37,0 4.74,-0.92 6.71,-1.98 3.56,-1.84 6.85,-4.74 9.88,-7.38 4.88,-4.48 9.49,-9.48 13.97,-14.48 8.03,-8.96 15.15,-18.84 23.05,-28.06 9.09,-11.46 18.96,-22.66 29.63,-32.8 8.96,-8.43 23.31,-20.41 35.96,-20.41 4.08,0 7.9,1.05 11.07,3.55 3.03,2.64 4.34,6.19 4.48,10.01 1.31,6.85 -13.83,26.21 -21.34,35.3l7.38 0 15.8 0.66c4.75,-6.71 9.88,-13.3 15.02,-19.76 6.85,-8.43 13.3,-16.99 19.23,-26.08l1.18 -1.71 21.74 0 -6.72 6.71c-0.26,0.4 -0.79,1.06 -1.05,1.32l-0.13 0.4 -12.91 17.91 -16.34 21.47c-9.61,12.64 -19.62,25.29 -27.92,38.86 -2.63,4.08 -6.32,11.06 -6.32,16.06 0,0.27 0,0.92 0,1.32 3.82,-0.52 13.04,-8.69 15.81,-11.19 5.66,-5.27 11.19,-10.93 16.33,-16.86 4.74,-5.27 9.35,-10.67 13.96,-16.2l7.77 -9.22c12.39,-14.1 26.74,-26.21 41.89,-36.75 8.04,-5.53 23.05,-15.81 32.67,-15.81 5.14,0 8.95,2.11 10.93,6.2l2.9 -4.22 18.97 0 -3.7 6.06c-0.52,0.92 -1.31,1.71 -2.1,2.5l-5.66 7.91 -6.85 9.48 -4.75 6.45 -34.11 48.21c-2.9,4.22 -11.07,15.94 -11.07,20.95 0,0.26 0,1.31 0.13,1.44 0.13,0.13 0.52,0.13 0.66,0.13 3.95,0 11.59,-6.71 14.48,-9.48 14.09,-13.3 26.74,-28.32 38.86,-43.6l5.13 -5.67 8.57 7.51 -2.51 3.03c-9.74,11.59 -19.49,22.92 -29.5,34.25 -6.33,6.71 -13.04,13.83 -20.42,19.36 -4.22,3.29 -9.48,6.32 -15.01,6.32 -3.69,0 -6.85,-1.32 -9.36,-3.95 -2.63,-2.64 -3.69,-6.06 -3.69,-9.75 0,-3.03 0.66,-6.45 1.71,-9.61 -4.34,4.21 -8.95,8.3 -13.56,12.38 -6.45,5 -16.86,12.51 -25.16,12.51 -4.21,0 -7.91,-1.58 -10.67,-5 -2.77,-3.16 -3.82,-7.24 -3.82,-11.46 0,-1.05 0,-1.98 0.13,-2.9 -2.89,2.77 -5.93,5.27 -8.95,7.91 -5.01,4.34 -13.04,10.67 -19.89,10.67 -8.17,0 -12.65,-5.14 -12.65,-13.3 0,-10.94 5.8,-22.53 11.33,-31.49 2.37,-3.95 4.87,-7.77 7.38,-11.59l-6.06 0 -18.97 -0.13c-14.62,17.92 -29.5,35.7 -44.91,53.22 -0.66,0.66 -1.19,1.32 -1.71,1.97l-1.19 1.06 -19.09 0 49.78 -61.12c7.77,-9.35 15.68,-18.84 23.45,-28.32 3.16,-3.69 6.45,-7.38 9.22,-11.33 0.66,-1.18 1.05,-2.37 1.05,-3.69 0,-1.05 -1.71,-0.79 -2.5,-0.79 -9.22,0 -23.84,13.83 -30.16,20.29 -8.83,8.83 -17.13,18.05 -24.76,27.92 -9.22,11.99 -18.71,23.58 -29.25,34.38 -3.68,3.82 -7.5,7.64 -11.59,11.07 -3.42,3.03 -7.11,5.93 -11.06,8.3 -3.29,1.84 -6.98,3.16 -10.8,3.16 -8.17,0 -12.91,-5 -12.91,-13.3 0,-3.16 0.92,-6.45 1.97,-9.36 1.45,-3.82 3.04,-7.38 4.88,-10.93 1.97,-3.82 4.08,-7.51 6.19,-11.32 0.79,-1.19 1.58,-2.51 2.37,-3.82 -1.71,0.65 -3.29,1.32 -4.87,1.84 -3.3,1.19 -6.46,2.77 -9.49,4.34 -3.16,1.72 -5.93,3.96 -8.3,6.59 -5.4,6.06 -10.8,12.12 -16.33,18.05 -3.42,3.82 -6.98,7.5 -10.67,10.93 -2.11,2.1 -4.61,4.48 -7.24,5.8 -1.98,1.31 -4.22,1.97 -6.59,1.97 -4.87,0 -9.74,-1.05 -13.3,-4.61 -3.16,-2.9 -5.14,-6.59 -6.06,-10.8 -1.05,-4.35 -1.18,-8.96 -0.66,-13.3 0.4,-2.77 0.79,-5.41 1.45,-8.04 -3.42,1.71 -6.98,3.03 -10.67,3.69 -2.76,0.39 -5.66,0.66 -8.56,0.53 -3.69,4.48 -7.64,8.82 -11.99,12.77 -3.95,3.82 -8.16,7.51 -12.77,10.67 -3.42,2.37 -7.11,4.61 -10.8,6.32 -3.03,1.59 -6.2,2.77 -9.49,3.56 -2.5,0.39 -5,0.79 -7.5,0.79 -3.56,0 -6.72,-1.32 -9.22,-3.95 -2.64,-2.9 -3.56,-6.85 -3.56,-10.81 0,-5.79 2.11,-11.98 4.48,-17.25 3.95,-8.69 9.62,-16.86 15.15,-24.63 2.77,-4.35 5.8,-8.7 8.83,-12.78 0.79,-1.05 1.58,-2.1 2.37,-3.16 -1.19,1.19 -2.24,2.24 -3.29,3.43 -4.48,4.74 -8.96,9.48 -13.17,14.48 -8.7,10.28 -17.92,20.29 -27.8,29.64 -8.95,8.56 -26.35,24.23 -39.12,24.23 -9.09,0 -14.23,-5.53 -14.23,-14.88 0,-4.48 0.92,-8.96 2.9,-12.91 2.24,-4.61 5.4,-8.96 8.56,-12.91 7.12,-8.43 14.62,-16.46 22.13,-24.63 8.83,-9.48 18.31,-18.97 25.95,-29.37 1.45,-2.37 4.35,-7.25 4.35,-10.02 0,-0.12 0,-0.39 0,-0.52 -0.27,-0.27 -1.45,-0.27 -1.72,-0.27 -4.61,0 -10.54,3.16 -14.48,5.54 -6.85,4.21 -13.04,9.61 -18.84,15.14 -2.37,2.37 -4.61,4.75 -6.85,7.25 -3.16,3.16 -6.06,6.32 -8.96,9.61 -8.82,10.4 -17.91,20.94 -26.34,32.01 -8.7,10.53 -16.99,21.33 -24.37,32.93l-1.19 1.84 -21.2 0 6.05 -6.72c1.06,-1.18 1.85,-2.77 3.04,-3.82l19.62 -27.13 19.36 -27.13 15.15 -22c2.24,-3.29 9.48,-14.22 9.48,-17.91 0,0 0,0 -0.13,0 -3.42,0 -7.77,2.37 -10.8,4.08 -6.19,3.82 -11.98,9.09 -17.25,14.23 -8.04,8.16 -15.41,16.86 -22.79,25.68 -7.9,9.36 -15.8,18.71 -22.92,28.58l-10.67 14.23c-1.97,2.77 -3.81,5.67 -5.79,8.3 -1.32,1.98 -2.63,3.82 -4.08,5.67l-2.9 3.95 -21.6 0 5.14 -6.45c7.24,-9.22 14.48,-18.58 21.47,-27.93 10.54,-13.96 20.55,-28.05 30.29,-42.54 3.42,-5 14.09,-20.95 14.09,-26.61 0,-0.26 0,-0.53 0,-0.66 -0.26,-0.13 -0.92,-0.13 -1.18,-0.13 -9.75,0 -32.8,27.66 -39.25,35.43l-6.59 8.17c-9.75,11.46 -19.5,23.05 -29.51,34.24 -6.19,6.85 -13.03,13.83 -20.41,19.36 -4.22,3.29 -9.49,6.33 -15.02,6.33 -3.68,0 -6.85,-1.32 -9.35,-3.96 -2.63,-2.63 -3.69,-6.06 -3.69,-9.74 0,-3.03 0.66,-6.46 1.71,-9.62 -4.34,4.22 -8.95,8.3 -13.56,12.38 -6.45,5.01 -16.86,12.52 -25.16,12.52 -4.22,0 -7.91,-1.58 -10.67,-5 -2.37,-2.77 -3.56,-6.2 -3.82,-9.88 -8.56,8.96 -22.79,22.13 -32.8,22.13 -7.77,0 -11.99,-4.75 -11.99,-12.65 0,-3.95 1.46,-8.3 2.9,-11.99 1.98,-5 4.35,-9.87 6.85,-14.48 2.77,-5.27 5.8,-10.41 8.96,-15.41 3.03,-4.75 6.06,-9.62 9.35,-14.23 5.27,-7.51 10.67,-15.02 16.07,-22.52 3.69,-5.14 7.51,-10.01 11.33,-15.02l47.42 -58.74c14.88,-17.26 30.29,-33.98 46.89,-49.39 7.9,-7.51 16.2,-14.63 24.89,-21.21l-42.28 -7.12 -28.45 -4.21 -6.19 10.8c-1.84,3.16 -4.22,6.06 -6.71,8.69 -2.64,2.9 -5.41,5.53 -8.31,8.3 -2.89,2.77 -5.92,5.53 -8.95,8.16 -2.9,2.77 -5.67,5.53 -8.3,8.43 -3.29,3.43 -6.59,6.98 -9.61,10.54 -3.69,4.22 -7.12,8.43 -10.67,12.65 -3.56,4.34 -7.11,8.69 -10.54,13.3 -3.29,4.34 -6.59,8.95 -9.88,13.44l-22.92 31.34c-19.49,26.61 -40.57,53.48 -64.54,75.87 -9.09,8.56 -18.44,16.6 -28.58,23.84 -3.29,2.51 -6.72,4.75 -10.14,6.98 10.01,6.59 21.07,10.67 33.32,10.67 3.56,0 7.12,-0.13 10.8,-0.53 2.9,-0.26 5.67,-0.79 8.44,-1.84 0.12,0 0.26,0 0.26,0l-0.92 -15.28 1.18 -1.32c7.25,-7.9 13.7,-16.72 20.02,-25.42 10.67,-14.62 20.95,-29.63 30.96,-44.78l58.35 -80.74c8.3,-10.54 16.33,-20.95 23.71,-32.01l3.95 -5.93 6.85 15.81 -1.84 1.84c-2.37,2.63 -4.61,5.27 -6.59,8.16 -2.23,3.17 -4.48,6.33 -6.58,9.62l-24.24 34.11c-1.44,1.85 -2.76,3.96 -4.21,5.93 -2.24,3.43 -4.48,6.85 -6.72,10.28 -2.63,3.82 -5.13,7.77 -7.77,11.59 -2.5,3.55 -5,7.11 -7.64,10.54l-18.7 25.02c-1.19,1.32 -2.11,2.77 -3.17,4.22 -1.84,2.63 -3.68,5.14 -5.52,7.64 -2.11,3.03 -4.22,6.2 -6.2,9.22 -2.1,3.03 -4.21,6.06 -6.45,9.09 -1.71,2.5 -3.42,5 -5.14,7.51 -1.05,1.58 -2.1,3.16 -3.16,4.48 -4.48,6.06 -8.95,12.25 -13.3,18.44 -1.06,1.58 -2.11,3.16 -3.05,4.73zm400.03 -54c-5.01,6.85 -9.88,13.83 -14.36,21.07 -3.82,5.93 -7.51,11.99 -10.54,18.31 -1.32,2.77 -3.56,7.51 -3.56,11.2 2.51,0 6.46,-2.11 8.7,-3.16l11.45 -7.65c6.46,-5.13 12.39,-11.06 17.26,-17.78 -1.06,-0.92 -2.11,-1.98 -3.03,-3.03 -2.77,-3.16 -4.75,-6.98 -5.53,-11.2 -0.53,-2.63 -0.66,-5.13 -0.39,-7.76zm-264.36 -179.8l-19.76 -2.89c-20.29,-3.82 -40.97,-6.06 -61.51,-6.06 -48.21,0 -93.39,11.99 -134.09,38.59 -10.27,6.72 -20.02,14.36 -28.84,22.92 -8.3,8.16 -15.81,17.25 -22.4,27 -11.06,16.2 -19.09,34.64 -19.09,54.66 0,5.53 0.92,11.2 3.16,16.2 2.1,4.61 5,8.69 8.83,11.86 4.08,3.42 8.69,5.79 13.7,7.37 5.79,1.85 11.98,2.64 18.04,2.64l3.82 0c1.45,-16.47 6.06,-32.27 13.04,-47.16 8.03,-17.39 19.36,-32.93 32.27,-46.76 13.3,-14.23 28.19,-26.74 44.91,-36.36 12.38,-7.11 27.66,-13.96 42.02,-13.96 15.01,0 24.76,7.24 24.76,23.45 0,15.93 -11.07,33.59 -20.15,46.1 -6.85,9.09 -14.36,17.78 -22.39,25.82 -8.83,8.82 -18.44,16.98 -28.33,24.63 -8.16,6.32 -16.86,11.98 -25.81,16.99 -8.57,4.87 -17.65,8.95 -26.88,11.99 -4.48,1.58 -8.95,2.89 -13.43,3.95 -2.9,0.79 -5.8,1.32 -8.69,1.84 0.13,3.82 0.65,7.51 1.32,11.2 0.92,4.48 2.23,8.95 3.82,13.3 1.58,4.08 3.42,8.03 5.66,11.72 1.19,1.84 2.37,3.56 3.69,5.27 0.79,-0.53 1.58,-1.19 2.37,-1.71 6.06,-4.48 11.85,-9.36 17.52,-14.36 6.32,-5.67 12.38,-11.46 18.3,-17.65 5.93,-5.93 11.59,-12.25 17,-18.57 1.58,-2.24 3.42,-4.48 5.26,-6.72 3.82,-5 7.77,-10.01 11.59,-15.01 5,-6.33 9.88,-12.78 14.75,-19.23 4.88,-6.46 9.75,-13.04 14.89,-19.5 3.82,-5.14 7.77,-10.14 11.59,-15.41 1.84,-2.37 3.82,-4.74 5.53,-7.24 4.74,-5.93 9.61,-11.73 14.62,-17.52 4.61,-5.14 9.22,-10.41 13.96,-15.55 6.72,-6.98 13.44,-13.83 20.56,-20.55 4.87,-4.48 9.61,-9.08 14.75,-13.3 3.42,-2.76 6.71,-5.53 10.13,-8.16 2.24,-1.59 4.35,-3.16 6.59,-5l12.92 -8.83zm1441.63 208.64c-3.42,1.18 -6.85,1.98 -10.54,1.98 -4.34,0 -8.16,-1.32 -11.32,-4.08 -0.66,0.52 -1.19,1.18 -1.72,1.71 -1.18,1.18 -2.23,2.37 -3.42,3.42 -2.37,2.77 -4.87,5.27 -7.51,7.91 -5.79,5.4 -11.72,10.54 -18.17,15.15 -4.22,2.5 -8.96,4.61 -13.83,4.61 -8.56,0 -13.04,-5.27 -13.04,-13.7 0,-5.14 2.37,-11.33 5,-16.73 -6.58,3.29 -13.43,5.27 -20.94,5.27 -2.24,0 -4.61,-0.13 -6.45,-0.4 -7.51,6.98 -15.81,14.89 -24.63,20.42 -5.01,3.16 -11.33,6.32 -17.39,6.32 -4.35,0 -8.43,-1.58 -11.33,-5 -3.29,-3.42 -4.48,-7.91 -4.48,-12.64 0,-1.59 0,-3.04 0.13,-4.49 -3.55,3.56 -7.38,6.98 -11.2,10.28 -5.13,4.34 -13.03,10.67 -20.02,10.67 -8.16,0 -12.51,-5.14 -12.51,-13.3 0,-10.94 5.66,-22.53 11.19,-31.49 2.51,-3.95 4.88,-7.77 7.38,-11.59l-6.06 0 -18.84 -0.13c-14.88,18.05 -29.89,35.96 -45.17,53.35 -0.13,0.27 -0.4,0.53 -0.66,0.79l-2.1 2.24 -18.97 0 49.65 -61.24c7.91,-9.36 15.81,-18.84 23.58,-28.32 3.03,-3.69 6.45,-7.38 9.09,-11.2 0.66,-1.19 1.19,-2.37 1.19,-3.82 0,-1.06 -1.84,-0.79 -2.64,-0.79 -9.22,0 -23.84,13.83 -30.16,20.29 -8.83,8.95 -17.25,18.57 -25.16,28.45 -8.56,10.27 -17.25,20.41 -26.21,30.29 -6.19,6.85 -12.91,13.83 -20.29,19.36 -4.34,3.29 -9.61,6.32 -15.14,6.32 -3.56,0 -6.72,-1.32 -9.36,-3.95 -2.5,-2.64 -3.69,-6.06 -3.69,-9.75 0,-3.03 0.8,-6.45 1.85,-9.61 -4.49,4.21 -8.96,8.3 -13.71,12.38 -6.45,5 -16.86,12.52 -25.02,12.52 -4.35,0 -8.04,-1.59 -10.67,-4.88 -2.9,-3.29 -3.95,-7.38 -3.95,-11.59 0,-2.37 0.26,-4.87 0.79,-7.24 -2.64,2.37 -5.4,4.61 -8.16,6.59 -9.88,7.64 -23.58,16.33 -36.23,16.33 -13.43,0 -19.36,-8.83 -19.36,-21.87 0,-11.59 5.01,-22.78 10.94,-32.53 8.03,-12.91 18.83,-24.37 30.03,-34.24 8.43,-7.91 17.52,-15.42 27.39,-21.34 5.8,-3.43 14.36,-8.04 21.08,-8.04 6.98,0 10.8,4.35 10.8,11.33 0,5 -2.24,9.48 -5.14,13.3 -2.63,3.56 -6.19,6.59 -10.67,6.59 -4.34,0 -7.5,-2.77 -7.5,-7.38 0,-3.82 2.37,-6.85 5.26,-8.83 0.53,-0.39 1.72,-1.32 2.77,-2.37 -3.95,1.85 -9.22,5.67 -11.32,7.25 -8.43,6.06 -16.07,13.17 -23.32,20.55 -6.45,6.58 -12.51,13.43 -18.31,20.68 -4.74,6.05 -9.61,12.51 -13.3,19.49 -2.77,5.27 -5.8,12.25 -5.8,18.31 0,1.98 0.53,3.56 1.85,5.14 1.32,1.32 2.77,1.97 4.61,1.97 10.14,0 22.65,-8.56 30.43,-14.62 13.17,-10.14 24.63,-22.25 35.3,-35.16 1.84,-2.24 3.81,-4.48 5.93,-6.59 11.58,-12.64 24.89,-23.71 38.98,-33.45 7.91,-5.53 22.92,-15.81 32.54,-15.81 5.13,0 9.09,2.11 10.93,6.2l3.03 -4.22 18.84 0 -3.69 6.06c-0.53,0.92 -1.32,1.71 -1.98,2.5l-5.79 7.91 -6.72 9.48 -4.87 6.45 -34.12 48.21c-2.89,4.22 -11.06,16.07 -11.06,20.94 0,0.27 0,1.32 0.26,1.45 0,0.13 0.39,0.13 0.53,0.13 4.08,0 11.72,-6.71 14.62,-9.48 13.83,-13.04 25.29,-28.32 38.06,-42.28 9.09,-11.59 18.84,-22.79 29.51,-32.93 8.96,-8.43 23.31,-20.42 36.09,-20.42 3.95,0 7.77,1.06 10.93,3.69 3.04,2.51 4.35,6.06 4.48,9.88 1.32,6.85 -13.83,26.21 -21.33,35.3l7.5 0 15.68 0.66c4.75,-6.72 10.01,-13.31 15.15,-19.76 6.72,-8.43 13.17,-17 19.1,-26.08l1.18 -1.72 21.74 0 -6.72 6.85c-0.13,0.27 -0.92,0.92 -1.06,1.19l-0.13 0.39 -12.9 17.91 -16.34 21.47c-9.61,12.65 -19.62,25.29 -27.92,38.86 -2.5,4.08 -6.32,11.07 -6.32,16.07 0,0.26 0,0.92 0,1.32 3.82,-0.4 13.04,-8.69 15.8,-11.2 5.67,-5.27 11.2,-10.93 16.34,-16.72 6.58,-7.51 13.04,-15.15 19.36,-22.79 6.45,-7.64 13.3,-14.75 20.68,-21.47 10.01,-9.09 20.81,-17.39 32.53,-23.97 7.11,-4.08 16.99,-9.09 25.29,-9.09 8.16,0 13.04,4.87 13.04,13.3 0,10.14 -9.36,24.37 -14.89,32.67 -8.03,11.85 -17.12,22.92 -26.87,33.45 13.7,-3.29 26.74,-16.2 35.3,-26.21l2.11 -3.16 6.71 -9.75 56.51 -78.9c8.43,-11.85 16.73,-23.45 25.42,-35.03 7.51,-10.15 15.28,-20.16 23.58,-29.64 7.9,-9.75 25.55,-30.82 38.59,-30.82 6.71,0 11.06,3.82 11.06,10.93 0,8.83 -8.29,21.6 -13.17,28.85 -10.14,15.15 -22.13,29.37 -34.38,42.93 -12.77,13.83 -25.82,27.4 -39.52,40.18 -10.27,9.61 -20.94,19.09 -32.27,27.26l-42.67 60.86c-3.95,5.4 -14.62,20.02 -14.62,26.6 0,0.27 0,1.06 0.13,1.32 0.26,0 0.52,0 0.79,0 4.48,0 16.07,-9.74 19.62,-12.9 6.32,-5.8 12.91,-11.86 18.44,-18.44 -0.26,-1.71 -0.39,-3.56 -0.39,-5.27 0,-14.49 8.03,-29.64 15.8,-41.36 6.06,-8.95 18.84,-27.27 30.56,-27.27 6.19,0 10.27,3.56 10.27,10.15 0,4.21 -1.71,8.42 -3.55,12.11 -3.42,6.72 -7.64,13.04 -11.85,19.23 -7.91,12.12 -16.73,23.58 -26.35,34.25 0.92,0.53 1.98,0.66 3.03,0.66 5.27,0 10.28,-2.77 14.49,-6.06 4.87,-3.56 9.36,-8.3 13.44,-12.78 2.37,-2.89 5,-5.79 7.5,-8.69 11.73,-12.64 25.03,-23.71 39.12,-33.45 7.91,-5.53 22.92,-15.81 32.54,-15.81 5.13,0 8.95,2.11 10.93,6.2l3.03 -4.22 18.84 0 -3.69 6.06c-0.53,0.92 -1.32,1.71 -1.98,2.5l-5.79 7.91 -6.72 9.48 -4.87 6.45 -34.12 48.21c-2.89,4.22 -11.06,16.07 -11.06,20.94 0,0.27 0,1.32 0.13,1.45 0.13,0.13 0.52,0.13 0.65,0.13 4.09,0 11.73,-6.71 14.62,-9.48 14.1,-13.3 26.61,-28.32 38.86,-43.47l5.14 -5.66 8.42 7.38 -2.5 3.03c-9.61,11.59 -19.49,22.92 -29.51,34.24 -6.32,6.72 -13.03,13.83 -20.28,19.36 -4.22,3.29 -9.61,6.32 -15.15,6.32 -3.56,0 -6.72,-1.31 -9.35,-3.95 -2.51,-2.63 -3.69,-6.06 -3.69,-9.74 0,-3.03 0.79,-6.33 1.71,-9.62 -4.35,4.22 -8.96,8.3 -13.57,12.38 -6.32,5.01 -16.86,12.52 -25.16,12.52 -4.08,0 -7.9,-1.59 -10.54,-4.88 -2.89,-3.29 -3.95,-7.37 -3.95,-11.58 0,-5.14 1.19,-10.28 3.05,-15.05zm-484.58 -2.9c-9.61,8.17 -19.76,15.81 -30.56,22.13 -8.69,5.14 -21.2,11.86 -31.48,11.86 -3.81,0 -7.37,-0.8 -10.01,-2.51 -14.49,9.36 -30.95,15.94 -48.21,15.94 -13.43,0 -25.94,-3.82 -35.04,-14.62 -9.08,-10.94 -12.11,-25.16 -12.11,-39.26l0 -4.08c-8.04,-1.45 -14.75,-5.4 -19.89,-12.12 -6.32,-8.3 -8.43,-18.7 -8.43,-29.1 0,-13.84 3.29,-27.27 8.56,-40.05 5.8,-14.35 13.97,-27.52 23.58,-39.64 10.54,-13.44 23.05,-25.29 36.49,-35.83 12.64,-10.01 26.21,-19.23 40.56,-26.61 13.7,-7.11 28.06,-13.17 42.81,-17.52 12.78,-3.82 26.08,-6.32 39.38,-6.32 12.78,0 26.61,2.37 36.88,10.8 9.62,7.91 13.17,19.5 13.17,31.88 0,14.23 -4.87,28.45 -11.19,40.83 -8.16,16.33 -19.36,30.95 -31.48,44.39l0.26 2.37c0,14.09 -3.82,28.05 -9.22,40.83 -6.32,15.15 -15.14,29.11 -25.42,41.75 -7.9,9.75 -16.72,18.57 -26.47,26.35 8.04,-1.72 18.17,-7.91 24.23,-11.73 14.89,-9.48 28.58,-20.81 41.76,-32.79l3.03 -2.37c0.13,-0.13 0.53,-0.4 0.79,-0.66 0.39,-0.4 0.79,-0.92 1.32,-1.32l0 -0.39c10.4,-21.08 21.86,-41.36 33.98,-61.38 7.11,-11.73 14.62,-23.19 22.39,-34.25 7.51,-10.93 15.41,-21.47 23.71,-31.61 5.93,-6.85 20.29,-23.71 29.51,-23.71 2.77,0 5.4,0.92 7.51,3.16 1.84,2.24 2.76,4.87 2.76,7.77 0,13.04 -15.54,35.69 -23.05,46.1 -8.16,12.38 -17.38,24.1 -26.6,35.69 -9.22,11.33 -18.71,22.39 -28.85,32.67l-13.83 14.23c-2.5,3.42 -6.06,6.45 -9.22,9.48 -2.76,2.9 -6.19,5.79 -8.56,8.82 -0.26,0.53 -0.53,1.19 -0.79,1.59 -0.53,0.92 -1.06,2.11 -1.58,3.29 -0.66,1.45 -1.45,2.77 -1.98,4.22 -0.92,2.63 -2.37,5.26 -3.82,7.64 -3.69,7.37 -7.38,15.15 -10.67,22.78 -4.74,10.28 -9.35,20.68 -14.23,30.82 -2.5,4.88 -5.26,9.61 -8.03,14.36 17.78,-0.26 42.54,-3.29 52.29,-20.42l1.71 -3.16 10.41 4.75 -1.71 3.81c-11.33,23.19 -41.76,27.01 -64.15,27.01l-5.93 0c-11.59,17.25 -26.21,32.4 -42.28,45.44 -17.12,13.7 -35.96,24.9 -56.24,33.06 -18.05,7.11 -37.28,12.12 -56.64,12.12 -10.4,0 -20.94,-1.45 -30.69,-5.01 -8.03,-2.89 -15.54,-7.37 -20.94,-14.35 -5.14,-6.59 -7.51,-14.23 -7.51,-22.52 0,-10.41 3.82,-19.63 10.01,-27.67 7.11,-9.35 16.73,-16.33 26.74,-21.86 12.25,-6.59 25.42,-11.07 38.85,-14.09 15.15,-3.43 30.7,-4.88 46.1,-4.88 2.64,0 5.27,0.13 7.77,0.27 3.56,0.13 6.98,0.39 10.54,0.66 5.27,0.39 10.41,0.79 15.54,1.05 1.59,0 3.17,0.27 4.75,0.39 1.32,0.27 2.77,0.27 4.21,0.4 0.8,0.26 1.46,0.39 2.25,0.39 0.79,0 1.71,0 2.63,0.13 1.05,0.13 2.11,0.26 3.16,0.39 3.69,0.4 7.51,1.06 11.32,1.06 2.11,0.26 3.96,0.39 5.93,0.66 1.06,0.13 2.11,0.26 3.04,0.39 0.65,0 1.44,0.13 2.24,0.13 0.92,0.13 1.97,0.13 2.63,0.39 0.92,0.13 1.98,0.13 3.16,0.13 0.39,0 0.92,0 1.45,0 7.51,-9.61 13.97,-20.15 20.15,-30.69 6.06,-10.4 11.73,-21.07 17.25,-31.86zm-1000.52 19.23c0,1.72 -0.12,3.17 1.85,3.17 6.85,0 21.6,-12.78 26.74,-17.39 14.35,-12.78 27.26,-27.27 38.98,-42.55 4.75,-6.06 19.76,-25.94 19.76,-33.19 0,-0.27 0,-1.45 -0.13,-1.72 -0.13,0 -0.52,0 -0.65,0 -5.14,0 -16.47,8.57 -20.68,11.86 -11.59,8.96 -22.39,19.23 -32.54,30.03 -8.56,9.22 -16.86,18.97 -23.71,29.64 -3.29,5 -8.95,14.36 -9.62,20.15zm425.97 -44.51c11.07,-5.01 12.38,-6.06 21.21,-15.28 7.11,-7.91 15.41,-21.74 18.18,-32.14 0.26,-0.92 0.79,-3.29 0.39,-4.35 -2.77,0 -5.4,1.06 -7.77,2.37 -9.88,5.53 -14.89,9.22 -21.47,18.84 -2.77,4.08 -5.41,8.3 -7.38,12.77 -1.58,3.43 -3.03,6.98 -3.82,10.67 -0.26,1.32 -0.79,4.22 -0.39,5.67 0.13,0.52 0.52,0.92 0.79,1.18 0.13,0.13 0.26,0.13 0.26,0.27zm167.81 44.51c0.13,1.72 0,3.17 1.98,3.17 6.85,0 21.6,-12.78 26.73,-17.39 14.36,-12.78 27.27,-27.27 38.99,-42.55 4.75,-6.06 19.76,-25.94 19.76,-33.19 0,-0.27 0,-1.45 -0.26,-1.72 0,0 -0.39,0 -0.53,0 -5.14,0 -16.46,8.57 -20.68,11.86 -11.59,8.96 -22.39,19.23 -32.53,30.03 -8.56,9.22 -16.86,18.97 -23.71,29.64 -3.29,5 -8.96,14.36 -9.75,20.15zm-270.54 -32.13c4.34,-6.06 11.32,-16.6 11.32,-23.19 0,-0.52 -0.65,-1.58 -1.05,-2.37 0,0 -0.13,0 -0.13,0 -3.29,0.27 -6.46,1.32 -8.96,3.82 -2.1,2.11 -3.69,4.74 -4.48,7.77 -0.66,3.03 -0.66,5.93 0.13,8.83 0.53,2.1 1.58,3.82 3.17,5.14zm-166.49 -190.86c6.19,0.66 12.64,1.32 18.97,1.84 5,0.4 10.14,0.53 15.28,0.53 6.58,0 14.88,-0.26 21.2,-2.5 2.11,-0.8 5.14,-2.24 5.14,-4.88 0,-1.32 -2.77,-2.9 -3.69,-3.29 -4.21,-2.1 -11.07,-2.5 -15.81,-2.5 -11.58,0 -23.31,3.42 -33.98,7.64 -2.37,0.92 -4.74,1.98 -7.11,3.16zm-339.3 168.47c24.89,-4.61 47.68,-16.99 67.7,-32.54 12.25,-9.35 23.71,-19.75 34.12,-31.21 8.69,-9.49 16.99,-20.03 23.18,-31.48 3.69,-7.12 7.51,-15.94 7.51,-24.11 0,-3.03 -0.66,-5.93 -2.9,-8.16 -2.37,-2.51 -6.32,-2.9 -9.48,-2.9 -12.12,0 -26.21,6.85 -36.62,12.91 -7.64,4.48 -14.88,9.48 -21.6,15.01 -7.11,5.93 -13.7,12.25 -20.02,18.97 -6.19,6.71 -11.99,13.7 -17.13,21.07 -4.87,7.11 -9.22,14.62 -12.9,22.39 -3.56,7.38 -6.59,15.02 -8.7,22.92 -1.44,5.67 -2.5,11.46 -3.16,17.13zm1677.26 54.52c0,1.72 -0.12,3.17 1.85,3.17 6.85,0 21.6,-12.78 26.74,-17.39 14.35,-12.78 27.26,-27.27 39.12,-42.55 4.6,-6.06 19.62,-25.94 19.62,-33.19 0,-0.27 0,-1.45 -0.13,-1.72 -0.13,0 -0.53,0 -0.66,0 -5.13,0 -16.46,8.57 -20.55,11.86 -11.72,8.96 -22.52,19.23 -32.66,30.03 -8.57,9.22 -16.87,18.97 -23.72,29.64 -3.29,5 -8.95,14.36 -9.61,20.15zm8.97 -126.04c5.66,-5.27 11.06,-10.81 16.59,-16.34 13.57,-13.96 26.61,-28.58 38.86,-43.86 6.19,-7.91 12.25,-16.07 17.39,-24.76 1.71,-2.9 5.93,-10.28 6.32,-13.7 -3.03,0.65 -6.19,3.03 -8.3,5.14 -6.98,6.32 -13.43,14.74 -19.23,22.39l-10.27 13.43 -7.12 9.62c-1.71,2.5 -3.42,5 -5.13,7.37l-29.11 40.71zm-33.86 82.32c6.72,-8.17 12.91,-16.6 18.71,-25.29 2.24,-3.43 11.32,-16.99 13.17,-21.47 -4.35,1.71 -13.56,13.56 -15.68,16.46 -6.19,8.3 -13.43,19.36 -16.2,30.3zm-89.56 18.44c6.85,-6.72 12.9,-14.1 18.7,-21.74 6.32,-8.43 12.25,-17.12 17.25,-26.47 2.11,-3.82 6.33,-12.12 6.33,-16.47 0,-0.13 0.13,-0.39 0.13,-0.52 -0.13,0 -0.4,0.13 -0.53,0.13 -4.35,0 -9.49,3.03 -13.04,5.52 -6.32,4.22 -11.72,9.62 -16.46,15.55 -4.61,5.79 -8.43,12.12 -11.33,18.97 -2.1,5.13 -4.08,11.19 -4.08,16.86 0,3.29 0.92,5.93 3.03,8.17zm-8.57 8.43c-1.58,-1.71 -3.03,-3.56 -4.08,-5.67 -1.71,-3.29 -2.24,-6.98 -2.24,-10.53 0,-5.93 1.58,-11.86 3.56,-17.39 -2.64,3.03 -5.14,6.19 -7.65,9.35 -6.85,8.69 -22.65,29.77 -22.65,40.97 0,1.18 0.39,2.1 1.05,3.03 0.4,0.53 0.8,0.65 1.45,0.65 5.14,0 17.26,-9.21 21.47,-12.51 2.64,-2.37 5.41,-4.74 8.04,-6.98 0.39,-0.39 0.79,-0.66 1.05,-0.92zm-251.18 16.85c0,1.72 -0.13,3.17 1.98,3.17 6.71,0 21.47,-12.78 26.61,-17.39 14.36,-12.78 27.26,-27.27 39.11,-42.55 4.62,-6.06 19.63,-25.94 19.63,-33.19 0,-0.27 0,-1.45 -0.13,-1.72 -0.13,0 -0.53,0 -0.66,0 -5.13,0 -16.46,8.57 -20.67,11.86 -11.59,8.96 -22.4,19.23 -32.41,30.03 -8.69,9.22 -16.99,18.97 -23.84,29.64 -3.29,5 -8.95,14.36 -9.62,20.15zm-201.52 3.96c-2.51,-4.48 -3.43,-9.61 -3.43,-14.62 0,-7.12 1.59,-14.1 3.96,-20.81 2.76,-7.51 6.58,-14.62 10.93,-21.21 2.5,-4.08 5.53,-8.04 8.42,-11.99 2.77,-3.69 6.06,-7.24 9.22,-10.8 7.12,-8.03 14.63,-15.81 22.26,-23.45l18.97 -19.49c0.13,-0.13 0.39,-0.4 0.53,-0.66 -1.71,-3.55 -4.08,-6.32 -7.38,-8.16l-0.53 0.79c-6.58,10.01 -14.23,19.1 -22.12,27.92 -8.04,9.22 -16.6,18.05 -25.95,25.82 -24.63,21.6 -55.85,42.15 -89.04,43.86l0 3.16c0,11.07 2.24,22.39 9.48,31.09 6.72,8.03 15.94,10.67 25.95,10.67 13.56,0 27,-5.27 38.73,-12.12zm79.15 -131.98c10.02,-10.93 21.08,-23.71 28.06,-36.61 5.01,-9.49 8.04,-19.63 8.04,-30.43 0,-8.57 -2.11,-16.73 -8.83,-22.26 -7.5,-6.19 -19.36,-7.51 -28.58,-7.51 -14.75,0 -29.24,2.9 -43.07,7.77 -15.93,5.53 -31.08,13.31 -45.31,22.66 -7.64,4.87 -15.02,10.4 -22.13,16.2 -6.85,5.67 -13.44,11.72 -19.62,18.04 -9.88,9.88 -18.84,20.56 -26.74,32.01 -6.59,9.88 -12.52,20.29 -16.99,31.35 -3.29,8.3 -5.93,17.52 -5.93,26.61 0,5 0.39,10.67 2.24,15.28 1.45,3.55 3.55,6.71 6.59,8.82 2.63,1.84 5.4,3.16 8.42,3.95 1.59,-10.01 4.75,-19.62 8.43,-28.97 4.61,-11.33 10.14,-22.26 16.86,-32.54 6.85,-10.93 14.75,-21.2 23.19,-30.82 9.61,-10.93 20.02,-21.07 31.48,-29.9 9.87,-7.64 20.68,-14.62 32.01,-19.62 9.21,-4.08 19.49,-7.38 29.5,-7.38 13.83,0 22.26,7.25 22.26,21.87 0,5.79 -1.32,11.85 -3.16,17.39 -1.72,5.13 -3.96,10.14 -6.46,14.88 3.96,2.24 7.25,5.4 9.74,9.21zm-6.57 32l-1.33 1.45 -9.08 9.75 -20.03 22c-6.58,7.12 -13.17,14.23 -18.97,22.13 -3.68,5 -6.97,10.27 -9.61,15.93 -2.1,4.22 -4.87,10.54 -4.87,15.28 0,2.51 0.39,4.75 1.32,6.98 11.33,-8.03 21.47,-17.78 30.42,-28.58 9.75,-11.72 18.05,-24.5 24.24,-38.46 3.69,-8.43 6.58,-17.39 7.91,-26.48zm-37.28 151.08c-3.69,-0.39 -7.38,-0.79 -11.07,-1.18 -10.67,-1.32 -21.34,-2.5 -31.88,-3.43 -9.87,-0.65 -19.75,-1.58 -29.63,-1.58 -18.84,0 -37.67,2.37 -55.84,7.91 -13.97,4.34 -28.59,10.93 -39.52,21.2 -7.91,7.38 -13.83,16.47 -13.83,27.8 0,5.66 1.71,10.54 5.4,14.88 4.35,5.14 10.01,8.43 16.33,10.54 8.17,2.9 17.13,3.96 25.69,3.96 32,0 60.59,-13.04 85.61,-32.54 10.54,-8.03 20.15,-16.99 29.51,-26.47 6.71,-6.72 13.3,-13.7 19.23,-21.21l0 0.12zm86.4 -128.42c2.51,-2.63 5,-5.26 7.38,-8.03 9.22,-10.15 18.04,-20.81 26.87,-31.35 6.72,-8.56 13.44,-17.13 20.02,-25.82 4.88,-6.98 9.62,-14.09 14.1,-21.34 3.69,-6.05 7.24,-11.98 10.4,-18.31 0.79,-1.71 2.77,-6.19 2.9,-8.16 -2.24,0.39 -6.98,5 -8.43,6.58 -15.93,16.73 -29.9,36.23 -42.81,55.72 -7.5,11.33 -14.75,22.92 -21.6,34.78 -2.9,5.26 -5.93,10.54 -8.83,15.93zm-63.75 -67.44c4.75,-8.3 9.22,-18.57 9.22,-28.32 0,-7.51 -3.03,-10.67 -10.4,-10.67 -8.83,0 -17.91,3.03 -25.95,6.72 -11.19,5.26 -21.47,12.25 -30.95,20.15 -11.07,9.22 -21.34,19.62 -30.69,30.69 -11.46,13.04 -21.34,27.39 -28.98,43.2 -5.67,11.85 -10.54,24.76 -12.65,37.93 13.31,-1.05 26.61,-6.32 38.33,-12.37 17.13,-8.96 32.93,-20.42 47.42,-33.59 13.97,-12.65 26.47,-26.88 37.4,-42.28 -9.87,0.79 -19.49,5.13 -27.92,10.4 -11.06,6.98 -20.15,16.07 -27.26,27.13l-2.24 3.56 -9.09 -6.72 1.71 -3.16c4.61,-8.16 10.93,-15.28 17.91,-21.34 7.51,-6.45 15.68,-11.72 24.63,-15.8 8.17,-3.43 16.73,-5.67 25.56,-5.67 1.32,0 2.63,0 3.95,0.14z"/>
 </g>
</svg>
