<?xml version="1.0" encoding="UTF-8"?>
<!DOCTYPE svg PUBLIC "-//W3C//DTD SVG 1.1//EN" "http://www.w3.org/Graphics/SVG/1.1/DTD/svg11.dtd">
<!-- Creator: CorelDRAW -->
<svg xmlns="http://www.w3.org/2000/svg" xml:space="preserve" width="512px" height="512px" version="1.1" shape-rendering="geometricPrecision" text-rendering="geometricPrecision" image-rendering="optimizeQuality" fill-rule="evenodd" clip-rule="evenodd"
viewBox="0 0 512 512"
 xmlns:xlink="http://www.w3.org/1999/xlink"
 xmlns:xodm="http://www.corel.com/coreldraw/odm/2003">
 <g id="Слой_x0020_1">
  <metadata id="CorelCorpID_0Corel-Layer"/>
  <path fill="white" d="M146.72 37.6l218.46 0c60.16,0 109.22,49.06 109.22,109.22l0 218.46c0,60.16 -49.06,109.22 -109.22,109.22l-218.46 0c-60.16,0 -109.22,-49.06 -109.22,-109.22l0 -218.46c0,-60.16 49.06,-109.22 109.22,-109.22zm38.35 359.82c-16.75,21.53 -69.77,38.36 -72.09,9.57 0,-21.61 -4.78,-39.87 -10.2,-59.8 -6.46,-24.56 -13.8,-51.91 -13.8,-91.53 0,-94.65 77.67,-165.85 169.68,-165.85 92.09,0 164.25,74.71 164.25,166.72 0.31,90.59 -72.78,164.33 -163.37,164.81 -32.77,0 -48,-4.78 -74.47,-23.92zm-11.65 -148.46c7.74,-48.64 42.66,-79.66 87.47,-77.35 46.44,2.66 82.19,42.11 80.37,88.59 -3.12,46.38 -42.79,81.73 -89.22,79.5 -14.53,-1.17 -28.52,-6.16 -40.5,-14.44 -7.26,7.26 -18.9,16.67 -23.52,15.55 -9.65,-2.55 -20.97,-51.59 -14.6,-91.85z"/>
 </g>
</svg>
