<?xml version="1.0" encoding="UTF-8"?>
<!DOCTYPE svg PUBLIC "-//W3C//DTD SVG 1.1//EN" "http://www.w3.org/Graphics/SVG/1.1/DTD/svg11.dtd">
<!-- Creator: CorelDRAW -->
<svg xmlns="http://www.w3.org/2000/svg" xml:space="preserve" width="221px" height="72px" version="1.1" shape-rendering="geometricPrecision" text-rendering="geometricPrecision" image-rendering="optimizeQuality" fill-rule="evenodd" clip-rule="evenodd"
viewBox="0 0 221 72.01"
 xmlns:xlink="http://www.w3.org/1999/xlink"
 xmlns:xodm="http://www.corel.com/coreldraw/odm/2003">
 <defs>
   <clipPath id="id0">
    <path d="M0 8.73c0,-3.05 0,-4.58 0.59,-5.75 0.52,-1.02 1.36,-1.85 2.38,-2.38 1.17,-0.59 2.7,-0.59 5.75,-0.59l4.91 0c3.05,0 4.57,0 5.74,0.59 1.03,0.53 1.86,1.36 2.38,2.38 0.6,1.17 0.6,2.7 0.6,5.75l0 4.91c0,3.05 0,4.57 -0.6,5.74 -0.52,1.03 -1.35,1.86 -2.38,2.38 -1.17,0.6 -2.69,0.6 -5.74,0.6l-4.91 0c-3.05,0 -4.58,0 -5.75,-0.6 -1.02,-0.52 -1.86,-1.35 -2.38,-2.38 -0.59,-1.17 -0.59,-2.69 -0.59,-5.74l0 -4.91zm4.4 -3.15l2.87 0c0.91,0 1.59,0.07 2.06,0.22 0.47,0.14 0.84,0.43 1.13,0.86 0.29,0.44 0.43,1.14 0.43,2.11 0,0.65 -0.1,1.11 -0.3,1.36 -0.21,0.26 -0.61,0.46 -1.21,0.6 0.67,0.15 1.13,0.41 1.36,0.76 0.24,0.35 0.36,0.89 0.36,1.62l0 1.04c0,0.76 -0.09,1.32 -0.26,1.69 -0.17,0.36 -0.44,0.61 -0.81,0.74 -0.38,0.14 -1.14,0.2 -2.3,0.2l-3.33 0 0 -11.2zm2.89 1.91l0 2.5c0.12,-0.01 0.21,-0.01 0.28,-0.01 0.28,0 0.45,-0.07 0.53,-0.21 0.08,-0.14 0.11,-0.55 0.11,-1.21 0,-0.35 -0.03,-0.6 -0.09,-0.74 -0.06,-0.14 -0.14,-0.23 -0.25,-0.27 -0.1,-0.03 -0.29,-0.05 -0.58,-0.06zm0 4.24l0 3.14c0.4,-0.01 0.65,-0.08 0.76,-0.19 0.11,-0.12 0.16,-0.4 0.16,-0.86l0 -1.04c0,-0.49 -0.05,-0.78 -0.14,-0.88 -0.1,-0.1 -0.36,-0.16 -0.78,-0.17zm10.65 -6.15l0 2.24 -1.69 0 0 8.96 -2.89 0 0 -8.96 -1.71 0 0 -2.24 6.29 0z"/>
   </clipPath>
     <linearGradient id="id1" gradientUnits="userSpaceOnUse" x1="11.17" y1="0.01" x2="11.17" y2="22.36">
      <stop offset="0" stop-opacity="0.25098" stop-color="#D9D9D9"/>
      <stop offset="1" stop-opacity="0.2" stop-color="#0A0A0A"/>
     </linearGradient>
   <clipPath id="id2">
    <path d="M24.83 8.73c0,-3.05 0,-4.58 0.59,-5.75 0.53,-1.02 1.36,-1.85 2.39,-2.38 1.16,-0.59 2.69,-0.59 5.74,-0.59l4.91 0c3.05,0 4.58,0 5.74,0.59 1.03,0.53 1.86,1.36 2.38,2.38 0.6,1.17 0.6,2.7 0.6,5.75l0 4.91c0,3.05 0,4.57 -0.6,5.74 -0.52,1.03 -1.35,1.86 -2.38,2.38 -1.16,0.6 -2.69,0.6 -5.74,0.6l-4.91 0c-3.05,0 -4.58,0 -5.74,-0.6 -1.03,-0.52 -1.86,-1.35 -2.39,-2.38 -0.59,-1.17 -0.59,-2.69 -0.59,-5.74l0 -4.91zm10.96 1.73l-2.89 0 0 -1.94c0,-0.57 -0.03,-0.92 -0.09,-1.06 -0.06,-0.14 -0.2,-0.21 -0.4,-0.21 -0.24,0 -0.39,0.08 -0.45,0.25 -0.06,0.17 -0.1,0.54 -0.1,1.11l0 5.2c0,0.54 0.04,0.89 0.1,1.06 0.06,0.17 0.21,0.25 0.43,0.25 0.21,0 0.35,-0.08 0.41,-0.25 0.07,-0.17 0.1,-0.56 0.1,-1.17l0 -1.41 2.89 0 0 0.43c0,1.17 -0.08,1.99 -0.24,2.47 -0.17,0.49 -0.53,0.91 -1.08,1.28 -0.55,0.37 -1.24,0.55 -2.05,0.55 -0.84,0 -1.54,-0.16 -2.09,-0.46 -0.54,-0.31 -0.91,-0.74 -1.09,-1.29 -0.17,-0.55 -0.26,-1.37 -0.26,-2.47l0 -3.27c0,-0.8 0.02,-1.41 0.08,-1.81 0.05,-0.41 0.22,-0.8 0.49,-1.17 0.27,-0.37 0.65,-0.67 1.13,-0.88 0.48,-0.22 1.03,-0.32 1.66,-0.32 0.85,0 1.55,0.16 2.1,0.5 0.55,0.33 0.91,0.74 1.09,1.23 0.17,0.5 0.26,1.27 0.26,2.32l0 1.06zm1.03 -4.89l2.9 0c0.79,0 1.39,0.07 1.82,0.19 0.42,0.13 0.73,0.3 0.95,0.54 0.21,0.23 0.35,0.52 0.43,0.85 0.07,0.34 0.11,0.86 0.11,1.56l0 0.97c0,0.71 -0.07,1.24 -0.22,1.56 -0.14,0.33 -0.41,0.58 -0.8,0.76 -0.39,0.17 -0.9,0.26 -1.53,0.26l-0.77 0 0 4.52 -2.89 0 0 -11.21zm2.89 1.92l0 2.85c0.08,0 0.15,0.01 0.21,0.01 0.26,0 0.44,-0.07 0.55,-0.2 0.1,-0.13 0.15,-0.41 0.15,-0.82l0 -0.92c0,-0.39 -0.06,-0.64 -0.18,-0.75 -0.11,-0.12 -0.36,-0.17 -0.73,-0.17z"/>
   </clipPath>
     <linearGradient id="id3" gradientUnits="userSpaceOnUse" x1="36" y1="0.01" x2="36" y2="22.36">
      <stop offset="0" stop-opacity="0.25098" stop-color="#D9D9D9"/>
      <stop offset="1" stop-opacity="0.2" stop-color="#0A0A0A"/>
     </linearGradient>
   <clipPath id="id4">
    <path d="M49.66 8.73c0,-3.05 0,-4.58 0.6,-5.75 0.52,-1.02 1.35,-1.85 2.38,-2.38 1.16,-0.59 2.69,-0.59 5.74,-0.59l4.91 0c3.05,0 4.58,0 5.74,0.59 1.03,0.53 1.86,1.36 2.39,2.38 0.59,1.17 0.59,2.7 0.59,5.75l0 4.91c0,3.05 0,4.57 -0.59,5.74 -0.53,1.03 -1.36,1.86 -2.39,2.38 -1.16,0.6 -2.69,0.6 -5.74,0.6l-4.91 0c-3.05,0 -4.58,0 -5.74,-0.6 -1.03,-0.52 -1.86,-1.35 -2.38,-2.38 -0.6,-1.17 -0.6,-2.69 -0.6,-5.74l0 -4.91zm8.25 3.76c-0.23,0.25 -0.53,0.45 -0.9,0.6 -0.38,0.15 -0.75,0.22 -1.14,0.22 -0.68,0 -1.18,-0.19 -1.5,-0.58 -0.31,-0.38 -0.46,-0.98 -0.46,-1.8l0 -5.35 2.88 0 0 5.04c0,0.44 0.04,0.74 0.11,0.9 0.08,0.17 0.2,0.25 0.38,0.25 0.42,0 0.63,-0.37 0.63,-1.12l0 -5.07 2.89 0 0 11.2 -2.89 0 0 -4.29zm9.85 -6.91l0 2.24 -1.69 0 0 8.96 -2.89 0 0 -8.96 -1.71 0 0 -2.24 6.29 0z"/>
   </clipPath>
     <linearGradient id="id5" gradientUnits="userSpaceOnUse" x1="60.84" y1="0.01" x2="60.84" y2="22.36">
      <stop offset="0" stop-opacity="0.25098" stop-color="#D9D9D9"/>
      <stop offset="1" stop-opacity="0.2" stop-color="#0A0A0A"/>
     </linearGradient>
   <clipPath id="id6">
    <path d="M74.49 8.73c0,-3.05 0,-4.58 0.6,-5.75 0.52,-1.02 1.35,-1.85 2.38,-2.38 1.16,-0.59 2.69,-0.59 5.74,-0.59l4.91 0c3.05,0 4.58,0 5.74,0.59 1.03,0.53 1.86,1.36 2.39,2.38 0.59,1.17 0.59,2.7 0.59,5.75l0 4.91c0,3.05 0,4.57 -0.59,5.74 -0.53,1.03 -1.36,1.86 -2.39,2.38 -1.16,0.6 -2.69,0.6 -5.74,0.6l-4.91 0c-3.05,0 -4.58,0 -5.74,-0.6 -1.03,-0.52 -1.86,-1.35 -2.38,-2.38 -0.6,-1.17 -0.6,-2.69 -0.6,-5.74l0 -4.91zm11 8.05l-2.89 0 0 -8.96 -0.84 0 0 8.96 -2.89 0 0 -11.2 6.62 0 0 11.2zm6.97 -11.2l0 2.24 -1.7 0 0 8.96 -2.88 0 0 -8.96 -1.71 0 0 -2.24 6.29 0z"/>
   </clipPath>
     <linearGradient id="id7" gradientUnits="userSpaceOnUse" x1="85.67" y1="0.01" x2="85.67" y2="22.36">
      <stop offset="0" stop-opacity="0.25098" stop-color="#D9D9D9"/>
      <stop offset="1" stop-opacity="0.2" stop-color="#0A0A0A"/>
     </linearGradient>
   <clipPath id="id8">
    <path d="M215.55 0.01c3.01,0 5.45,2.44 5.45,5.45l0 11.17 0 0.28c0,3.01 -2.44,5.45 -5.45,5.45l-110.78 0c-3.01,0 -5.45,-2.44 -5.45,-5.45l0 -11.45c0,-3.01 2.44,-5.45 5.45,-5.45l0.14 0 110.64 0zm-90.04 5.55l0 11.23 -2.94 0 0 -6.03c0,-0.87 -0.02,-1.39 -0.07,-1.57 -0.04,-0.17 -0.16,-0.31 -0.36,-0.4 -0.19,-0.09 -0.63,-0.13 -1.31,-0.13l-0.29 0 0 -1.31c1.42,-0.29 2.5,-0.89 3.24,-1.79l1.73 0zm8.08 3.8l0 3.75c0,0.85 -0.05,1.47 -0.14,1.85 -0.1,0.39 -0.3,0.76 -0.61,1.09 -0.3,0.34 -0.67,0.58 -1.11,0.73 -0.43,0.15 -0.91,0.22 -1.44,0.22 -0.71,0 -1.29,-0.07 -1.76,-0.23 -0.46,-0.15 -0.83,-0.4 -1.11,-0.72 -0.28,-0.33 -0.47,-0.68 -0.59,-1.04 -0.12,-0.36 -0.18,-0.94 -0.18,-1.73l0 -3.92c0,-1.03 0.1,-1.8 0.29,-2.31 0.18,-0.52 0.55,-0.93 1.11,-1.24 0.55,-0.31 1.23,-0.46 2.02,-0.46 0.65,0 1.22,0.1 1.73,0.32 0.51,0.21 0.89,0.48 1.14,0.79 0.26,0.31 0.43,0.65 0.52,1.04 0.09,0.39 0.13,1.01 0.13,1.86zm-2.94 -0.94c0,-0.59 -0.03,-0.96 -0.09,-1.12 -0.06,-0.14 -0.2,-0.22 -0.43,-0.22 -0.22,0 -0.36,0.08 -0.43,0.24 -0.07,0.16 -0.11,0.53 -0.11,1.1l0 5.47c0,0.66 0.04,1.05 0.1,1.18 0.07,0.14 0.21,0.2 0.43,0.2 0.22,0 0.36,-0.08 0.43,-0.23 0.07,-0.16 0.1,-0.51 0.1,-1.06l0 -5.56zm5.97 6.08l0 2.29 -2.22 0 0 -2.29 2.22 0zm7.73 -5.14l0 3.75c0,0.85 -0.05,1.47 -0.15,1.85 -0.1,0.39 -0.3,0.76 -0.6,1.09 -0.31,0.34 -0.68,0.58 -1.11,0.73 -0.43,0.15 -0.91,0.22 -1.45,0.22 -0.7,0 -1.29,-0.07 -1.75,-0.23 -0.47,-0.15 -0.84,-0.4 -1.12,-0.72 -0.27,-0.33 -0.47,-0.68 -0.59,-1.04 -0.12,-0.36 -0.17,-0.94 -0.17,-1.73l0 -3.92c0,-1.03 0.09,-1.8 0.28,-2.31 0.19,-0.52 0.56,-0.93 1.11,-1.24 0.56,-0.31 1.23,-0.46 2.02,-0.46 0.65,0 1.23,0.1 1.74,0.32 0.51,0.21 0.89,0.48 1.14,0.79 0.25,0.31 0.42,0.65 0.51,1.04 0.09,0.39 0.14,1.01 0.14,1.86zm-2.94 -0.94c0,-0.59 -0.03,-0.96 -0.1,-1.12 -0.05,-0.14 -0.2,-0.22 -0.42,-0.22 -0.22,0 -0.37,0.08 -0.44,0.24 -0.07,0.16 -0.1,0.53 -0.1,1.1l0 5.47c0,0.66 0.03,1.05 0.1,1.18 0.06,0.14 0.2,0.2 0.42,0.2 0.22,0 0.37,-0.08 0.43,-0.23 0.07,-0.16 0.11,-0.51 0.11,-1.06l0 -5.56zm10.94 0.94l0 3.75c0,0.85 -0.05,1.47 -0.15,1.85 -0.1,0.39 -0.3,0.76 -0.6,1.09 -0.31,0.34 -0.68,0.58 -1.11,0.73 -0.43,0.15 -0.91,0.22 -1.45,0.22 -0.7,0 -1.29,-0.07 -1.75,-0.23 -0.47,-0.15 -0.84,-0.4 -1.12,-0.72 -0.27,-0.33 -0.47,-0.68 -0.59,-1.04 -0.11,-0.36 -0.17,-0.94 -0.17,-1.73l0 -3.92c0,-1.03 0.09,-1.8 0.28,-2.31 0.19,-0.52 0.56,-0.93 1.11,-1.24 0.56,-0.31 1.23,-0.46 2.02,-0.46 0.65,0 1.23,0.1 1.74,0.32 0.51,0.21 0.89,0.48 1.14,0.79 0.25,0.31 0.42,0.65 0.51,1.04 0.09,0.39 0.14,1.01 0.14,1.86zm-2.94 -0.94c0,-0.59 -0.03,-0.96 -0.09,-1.12 -0.06,-0.14 -0.21,-0.22 -0.43,-0.22 -0.22,0 -0.37,0.08 -0.44,0.24 -0.07,0.16 -0.1,0.53 -0.1,1.1l0 5.47c0,0.66 0.03,1.05 0.1,1.18 0.06,0.14 0.2,0.2 0.43,0.2 0.21,0 0.36,-0.08 0.43,-0.23 0.06,-0.16 0.1,-0.51 0.1,-1.06l0 -5.56zm12.86 2.81l0 1.93 -3.85 0 0 -1.93 3.85 0zm10.59 -5.67l0 11.23 -2.94 0 0 -6.03c0,-0.87 -0.02,-1.39 -0.06,-1.57 -0.04,-0.17 -0.16,-0.31 -0.36,-0.4 -0.2,-0.09 -0.63,-0.13 -1.31,-0.13l-0.29 0 0 -1.31c1.42,-0.29 2.5,-0.89 3.23,-1.79l1.73 0zm1.15 8.25l2.94 0c0,0.52 0.01,0.86 0.02,0.99 0.02,0.14 0.08,0.25 0.18,0.35 0.11,0.09 0.25,0.14 0.43,0.14 0.16,0 0.28,-0.05 0.38,-0.14 0.1,-0.08 0.15,-0.2 0.17,-0.34 0.01,-0.13 0.01,-0.41 0.01,-0.83l0 -1.79c-0.14,0.3 -0.36,0.52 -0.65,0.67 -0.3,0.15 -0.66,0.23 -1.09,0.23 -0.54,0 -1.02,-0.14 -1.43,-0.42 -0.42,-0.28 -0.68,-0.61 -0.79,-1 -0.11,-0.39 -0.17,-0.91 -0.17,-1.58l0 -0.89c0,-0.79 0.03,-1.37 0.1,-1.76 0.06,-0.38 0.23,-0.74 0.51,-1.06 0.27,-0.33 0.64,-0.58 1.13,-0.76 0.48,-0.18 1.04,-0.27 1.67,-0.27 0.79,0 1.44,0.1 1.94,0.31 0.51,0.21 0.9,0.51 1.18,0.9 0.28,0.39 0.43,0.8 0.48,1.23 0.04,0.43 0.06,1.26 0.06,2.5l0 1.56c0,1.33 -0.02,2.23 -0.05,2.68 -0.04,0.45 -0.21,0.88 -0.51,1.28 -0.3,0.4 -0.7,0.7 -1.21,0.91 -0.52,0.2 -1.11,0.3 -1.78,0.3 -0.83,0 -1.51,-0.13 -2.03,-0.38 -0.53,-0.26 -0.91,-0.62 -1.14,-1.08 -0.23,-0.46 -0.35,-1.05 -0.35,-1.75zm2.94 -3.5c0,0.48 0.07,0.77 0.2,0.88 0.13,0.11 0.26,0.16 0.4,0.16 0.2,0 0.36,-0.07 0.45,-0.21 0.1,-0.14 0.14,-0.42 0.14,-0.83l0 -2.03c0,-0.5 -0.04,-0.82 -0.13,-0.97 -0.09,-0.15 -0.24,-0.23 -0.46,-0.23 -0.12,0 -0.26,0.06 -0.39,0.18 -0.14,0.12 -0.21,0.43 -0.21,0.95l0 2.1zm7.11 4.19l0 2.29 -2.22 0 0 -2.29 2.22 0zm7.72 -5.14l0 3.75c0,0.85 -0.05,1.47 -0.14,1.85 -0.1,0.39 -0.3,0.76 -0.61,1.09 -0.3,0.34 -0.67,0.58 -1.11,0.73 -0.43,0.15 -0.91,0.22 -1.44,0.22 -0.71,0 -1.29,-0.07 -1.76,-0.23 -0.46,-0.15 -0.83,-0.4 -1.11,-0.72 -0.28,-0.33 -0.48,-0.68 -0.59,-1.04 -0.12,-0.36 -0.18,-0.94 -0.18,-1.73l0 -3.92c0,-1.03 0.1,-1.8 0.29,-2.31 0.18,-0.52 0.55,-0.93 1.11,-1.24 0.55,-0.31 1.23,-0.46 2.02,-0.46 0.65,0 1.22,0.1 1.73,0.32 0.51,0.21 0.89,0.48 1.14,0.79 0.26,0.31 0.43,0.65 0.52,1.04 0.09,0.39 0.13,1.01 0.13,1.86zm-2.94 -0.94c0,-0.59 -0.03,-0.96 -0.09,-1.12 -0.06,-0.14 -0.2,-0.22 -0.43,-0.22 -0.22,0 -0.36,0.08 -0.43,0.24 -0.07,0.16 -0.11,0.53 -0.11,1.1l0 5.47c0,0.66 0.04,1.05 0.1,1.18 0.07,0.14 0.21,0.2 0.43,0.2 0.22,0 0.36,-0.08 0.43,-0.23 0.07,-0.16 0.1,-0.51 0.1,-1.06l0 -5.56zm10.94 0.94l0 3.75c0,0.85 -0.05,1.47 -0.14,1.85 -0.1,0.39 -0.3,0.76 -0.61,1.09 -0.3,0.34 -0.67,0.58 -1.1,0.73 -0.43,0.15 -0.92,0.22 -1.45,0.22 -0.71,0 -1.29,-0.07 -1.76,-0.23 -0.46,-0.15 -0.83,-0.4 -1.11,-0.72 -0.28,-0.33 -0.47,-0.68 -0.59,-1.04 -0.12,-0.36 -0.18,-0.94 -0.18,-1.73l0 -3.92c0,-1.03 0.1,-1.8 0.29,-2.31 0.18,-0.52 0.55,-0.93 1.11,-1.24 0.55,-0.31 1.23,-0.46 2.02,-0.46 0.65,0 1.22,0.1 1.73,0.32 0.51,0.21 0.89,0.48 1.14,0.79 0.26,0.31 0.43,0.65 0.52,1.04 0.09,0.39 0.13,1.01 0.13,1.86zm-2.94 -0.94c0,-0.59 -0.03,-0.96 -0.09,-1.12 -0.06,-0.14 -0.2,-0.22 -0.43,-0.22 -0.22,0 -0.36,0.08 -0.43,0.24 -0.07,0.16 -0.11,0.53 -0.11,1.1l0 5.47c0,0.66 0.04,1.05 0.1,1.18 0.07,0.14 0.21,0.2 0.43,0.2 0.22,0 0.36,-0.08 0.43,-0.23 0.07,-0.16 0.1,-0.51 0.1,-1.06l0 -5.56z"/>
   </clipPath>
     <linearGradient id="id9" gradientUnits="userSpaceOnUse" x1="160.16" y1="-0.49" x2="160.16" y2="22.85">
      <stop offset="0" stop-opacity="0.25098" stop-color="#D9D9D9"/>
      <stop offset="1" stop-opacity="0.2" stop-color="#0A0A0A"/>
     </linearGradient>
   <clipPath id="id10">
    <path d="M0 33.56c0,-3.05 0,-4.58 0.59,-5.74 0.52,-1.03 1.36,-1.86 2.38,-2.39 1.17,-0.59 2.7,-0.59 5.75,-0.59l4.91 0c3.05,0 4.57,0 5.74,0.59 1.03,0.53 1.86,1.36 2.38,2.39 0.6,1.16 0.6,2.69 0.6,5.74l0 4.91c0,3.05 0,4.58 -0.6,5.74 -0.52,1.03 -1.35,1.86 -2.38,2.38 -1.17,0.6 -2.69,0.6 -5.74,0.6l-4.91 0c-3.05,0 -4.58,0 -5.75,-0.6 -1.02,-0.52 -1.86,-1.35 -2.38,-2.38 -0.59,-1.16 -0.59,-2.69 -0.59,-5.74l0 -4.91zm10.7 1.73l-2.88 0 0 -1.94c0,-0.57 -0.03,-0.92 -0.09,-1.06 -0.06,-0.14 -0.2,-0.21 -0.41,-0.21 -0.23,0 -0.38,0.08 -0.44,0.25 -0.07,0.17 -0.1,0.54 -0.1,1.11l0 5.2c0,0.54 0.03,0.9 0.1,1.06 0.06,0.17 0.2,0.25 0.42,0.25 0.21,0 0.35,-0.08 0.42,-0.25 0.06,-0.16 0.1,-0.56 0.1,-1.17l0 -1.41 2.88 0 0 0.44c0,1.16 -0.08,1.98 -0.24,2.46 -0.16,0.49 -0.52,0.92 -1.07,1.28 -0.56,0.37 -1.24,0.55 -2.05,0.55 -0.85,0 -1.54,-0.15 -2.09,-0.46 -0.55,-0.31 -0.91,-0.74 -1.09,-1.29 -0.18,-0.55 -0.27,-1.37 -0.27,-2.46l0 -3.28c0,-0.8 0.03,-1.41 0.08,-1.81 0.06,-0.4 0.22,-0.79 0.5,-1.17 0.27,-0.37 0.64,-0.67 1.12,-0.88 0.49,-0.22 1.04,-0.32 1.66,-0.32 0.85,0 1.55,0.16 2.11,0.5 0.55,0.33 0.91,0.74 1.09,1.24 0.17,0.49 0.25,1.26 0.25,2.31l0 1.06zm7.75 3.7c0,0.83 -0.11,1.43 -0.32,1.79 -0.21,0.37 -0.54,0.6 -0.98,0.69 -0.43,0.09 -1.13,0.14 -2.08,0.14l-3.33 0 0 -11.2 5.65 0 0 1.94 -2.77 0 0 1.89 0.45 0c0.89,0 1.56,0.06 2.02,0.16 0.45,0.11 0.8,0.34 1.02,0.71 0.23,0.36 0.34,0.93 0.34,1.7l0 2.18zm-2.89 -0.34l0 -1.62c0,-0.47 -0.04,-0.76 -0.14,-0.86 -0.09,-0.1 -0.36,-0.16 -0.8,-0.17l0 3.68c0.37,0 0.62,-0.04 0.75,-0.14 0.13,-0.09 0.19,-0.39 0.19,-0.89z"/>
   </clipPath>
     <linearGradient id="id11" gradientUnits="userSpaceOnUse" x1="11.17" y1="24.84" x2="11.17" y2="47.19">
      <stop offset="0" stop-opacity="0.25098" stop-color="#D9D9D9"/>
      <stop offset="1" stop-opacity="0.2" stop-color="#0A0A0A"/>
     </linearGradient>
   <clipPath id="id12">
    <path d="M215.55 24.84c3.01,0 5.45,2.44 5.45,5.45l0 11.17 0 0.28c0,3.01 -2.44,5.45 -5.45,5.45l-185.27 0c-3.01,0 -5.45,-2.44 -5.45,-5.45l0 -11.45c0,-3.01 2.44,-5.45 5.45,-5.45l0.14 0 185.13 0zm-87.81 5.55l0 11.25 -2.94 0 0 -6.04c0,-0.87 -0.02,-1.4 -0.06,-1.57 -0.05,-0.18 -0.16,-0.31 -0.36,-0.4 -0.2,-0.09 -0.64,-0.14 -1.31,-0.14l-0.3 0 0 -1.3c1.43,-0.29 2.51,-0.89 3.24,-1.8l1.73 0zm8.09 3.81l0 3.75c0,0.85 -0.05,1.47 -0.15,1.86 -0.1,0.39 -0.3,0.75 -0.6,1.09 -0.31,0.34 -0.68,0.58 -1.11,0.73 -0.43,0.15 -0.91,0.22 -1.45,0.22 -0.7,0 -1.28,-0.08 -1.75,-0.23 -0.47,-0.16 -0.84,-0.4 -1.12,-0.73 -0.27,-0.33 -0.47,-0.67 -0.59,-1.04 -0.11,-0.36 -0.17,-0.94 -0.17,-1.73l0 -3.92c0,-1.03 0.09,-1.81 0.28,-2.32 0.19,-0.51 0.56,-0.93 1.12,-1.24 0.55,-0.31 1.22,-0.46 2.01,-0.46 0.65,0 1.23,0.11 1.74,0.32 0.51,0.22 0.89,0.48 1.14,0.79 0.25,0.31 0.42,0.66 0.51,1.05 0.09,0.39 0.14,1.01 0.14,1.86zm-2.94 -0.94c0,-0.6 -0.03,-0.97 -0.09,-1.12 -0.06,-0.15 -0.2,-0.23 -0.43,-0.23 -0.22,0 -0.36,0.08 -0.43,0.24 -0.08,0.16 -0.11,0.53 -0.11,1.11l0 5.48c0,0.65 0.03,1.04 0.1,1.17 0.06,0.14 0.21,0.21 0.43,0.21 0.22,0 0.36,-0.08 0.43,-0.24 0.06,-0.16 0.1,-0.51 0.1,-1.06l0 -5.56zm5.97 6.09l0 2.29 -2.22 0 0 -2.29 2.22 0zm7.72 -5.15l0 3.75c0,0.85 -0.05,1.47 -0.14,1.86 -0.1,0.39 -0.3,0.75 -0.61,1.09 -0.3,0.34 -0.67,0.58 -1.11,0.73 -0.43,0.15 -0.91,0.22 -1.44,0.22 -0.71,0 -1.29,-0.08 -1.76,-0.23 -0.46,-0.16 -0.83,-0.4 -1.11,-0.73 -0.28,-0.33 -0.48,-0.67 -0.59,-1.04 -0.12,-0.36 -0.18,-0.94 -0.18,-1.73l0 -3.92c0,-1.03 0.1,-1.81 0.28,-2.32 0.19,-0.51 0.56,-0.93 1.12,-1.24 0.55,-0.31 1.23,-0.46 2.02,-0.46 0.64,0 1.22,0.11 1.73,0.32 0.51,0.22 0.89,0.48 1.14,0.79 0.26,0.31 0.43,0.66 0.52,1.05 0.09,0.39 0.13,1.01 0.13,1.86zm-2.94 -0.94c0,-0.6 -0.03,-0.97 -0.09,-1.12 -0.06,-0.15 -0.2,-0.23 -0.43,-0.23 -0.22,0 -0.36,0.08 -0.43,0.24 -0.07,0.16 -0.11,0.53 -0.11,1.11l0 5.48c0,0.65 0.04,1.04 0.1,1.17 0.07,0.14 0.21,0.21 0.43,0.21 0.22,0 0.36,-0.08 0.43,-0.24 0.07,-0.16 0.1,-0.51 0.1,-1.06l0 -5.56zm10.94 0.94l0 3.75c0,0.85 -0.05,1.47 -0.14,1.86 -0.1,0.39 -0.3,0.75 -0.61,1.09 -0.3,0.34 -0.67,0.58 -1.1,0.73 -0.44,0.15 -0.92,0.22 -1.45,0.22 -0.71,0 -1.29,-0.08 -1.76,-0.23 -0.46,-0.16 -0.83,-0.4 -1.11,-0.73 -0.28,-0.33 -0.47,-0.67 -0.59,-1.04 -0.12,-0.36 -0.18,-0.94 -0.18,-1.73l0 -3.92c0,-1.03 0.1,-1.81 0.29,-2.32 0.18,-0.51 0.55,-0.93 1.11,-1.24 0.55,-0.31 1.23,-0.46 2.02,-0.46 0.65,0 1.22,0.11 1.73,0.32 0.51,0.22 0.89,0.48 1.14,0.79 0.26,0.31 0.43,0.66 0.52,1.05 0.09,0.39 0.13,1.01 0.13,1.86zm-2.94 -0.94c0,-0.6 -0.03,-0.97 -0.09,-1.12 -0.06,-0.15 -0.2,-0.23 -0.43,-0.23 -0.22,0 -0.36,0.08 -0.43,0.24 -0.07,0.16 -0.11,0.53 -0.11,1.11l0 5.48c0,0.65 0.04,1.04 0.1,1.17 0.07,0.14 0.21,0.21 0.43,0.21 0.22,0 0.36,-0.08 0.43,-0.24 0.07,-0.16 0.1,-0.51 0.1,-1.06l0 -5.56zm12.86 2.8l0 1.94 -3.85 0 0 -1.94 3.85 0zm10.6 -5.67l0 11.25 -2.94 0 0 -6.04c0,-0.87 -0.02,-1.4 -0.06,-1.57 -0.05,-0.18 -0.17,-0.31 -0.36,-0.4 -0.2,-0.09 -0.64,-0.14 -1.32,-0.14l-0.29 0 0 -1.3c1.42,-0.29 2.5,-0.89 3.24,-1.8l1.73 0zm6.34 0l0 2.44 -1.88 8.81 -2.93 0 2.1 -9.23 -2.92 0 0 -2.02 5.63 0zm2.62 8.96l0 2.29 -2.22 0 0 -2.29 2.22 0zm7.72 -5.15l0 3.75c0,0.85 -0.05,1.47 -0.14,1.86 -0.1,0.39 -0.3,0.75 -0.61,1.09 -0.3,0.34 -0.67,0.58 -1.11,0.73 -0.43,0.15 -0.91,0.22 -1.44,0.22 -0.71,0 -1.29,-0.08 -1.76,-0.23 -0.46,-0.16 -0.83,-0.4 -1.11,-0.73 -0.28,-0.33 -0.47,-0.67 -0.59,-1.04 -0.12,-0.36 -0.18,-0.94 -0.18,-1.73l0 -3.92c0,-1.03 0.1,-1.81 0.29,-2.32 0.18,-0.51 0.55,-0.93 1.11,-1.24 0.55,-0.31 1.23,-0.46 2.02,-0.46 0.65,0 1.22,0.11 1.73,0.32 0.51,0.22 0.89,0.48 1.14,0.79 0.26,0.31 0.43,0.66 0.52,1.05 0.09,0.39 0.13,1.01 0.13,1.86zm-2.94 -0.94c0,-0.6 -0.03,-0.97 -0.09,-1.12 -0.06,-0.15 -0.2,-0.23 -0.43,-0.23 -0.22,0 -0.36,0.08 -0.43,0.24 -0.07,0.16 -0.11,0.53 -0.11,1.11l0 5.48c0,0.65 0.04,1.04 0.1,1.17 0.07,0.14 0.21,0.21 0.43,0.21 0.22,0 0.36,-0.08 0.43,-0.24 0.07,-0.16 0.1,-0.51 0.1,-1.06l0 -5.56zm10.94 0.94l0 3.75c0,0.85 -0.05,1.47 -0.14,1.86 -0.1,0.39 -0.3,0.75 -0.61,1.09 -0.3,0.34 -0.67,0.58 -1.1,0.73 -0.43,0.15 -0.92,0.22 -1.45,0.22 -0.71,0 -1.29,-0.08 -1.76,-0.23 -0.46,-0.16 -0.83,-0.4 -1.11,-0.73 -0.28,-0.33 -0.47,-0.67 -0.59,-1.04 -0.12,-0.36 -0.18,-0.94 -0.18,-1.73l0 -3.92c0,-1.03 0.1,-1.81 0.29,-2.32 0.18,-0.51 0.55,-0.93 1.11,-1.24 0.55,-0.31 1.23,-0.46 2.02,-0.46 0.65,0 1.22,0.11 1.73,0.32 0.51,0.22 0.89,0.48 1.14,0.79 0.26,0.31 0.43,0.66 0.52,1.05 0.09,0.39 0.13,1.01 0.13,1.86zm-2.94 -0.94c0,-0.6 -0.03,-0.97 -0.09,-1.12 -0.06,-0.15 -0.2,-0.23 -0.43,-0.23 -0.21,0 -0.36,0.08 -0.43,0.24 -0.07,0.16 -0.11,0.53 -0.11,1.11l0 5.48c0,0.65 0.04,1.04 0.1,1.17 0.07,0.14 0.21,0.21 0.43,0.21 0.22,0 0.36,-0.08 0.43,-0.24 0.07,-0.16 0.1,-0.51 0.1,-1.06l0 -5.56z"/>
   </clipPath>
     <linearGradient id="id13" gradientUnits="userSpaceOnUse" x1="110.5" y1="24.34" x2="110.5" y2="47.68">
      <stop offset="0" stop-opacity="0.25098" stop-color="#D9D9D9"/>
      <stop offset="1" stop-opacity="0.2" stop-color="#0A0A0A"/>
     </linearGradient>
   <clipPath id="id14">
    <path d="M0 58.39c0,-3.05 0,-4.58 0.59,-5.74 0.52,-1.03 1.36,-1.86 2.38,-2.38 1.17,-0.6 2.7,-0.6 5.75,-0.6l4.91 0c3.05,0 4.57,0 5.74,0.6 1.03,0.52 1.86,1.35 2.38,2.38 0.6,1.16 0.6,2.69 0.6,5.74l0 4.91c0,3.05 0,4.58 -0.6,5.74 -0.52,1.03 -1.35,1.86 -2.38,2.39 -1.17,0.59 -2.69,0.59 -5.74,0.59l-4.91 0c-3.05,0 -4.58,0 -5.75,-0.59 -1.02,-0.53 -1.86,-1.36 -2.38,-2.39 -0.59,-1.16 -0.59,-2.69 -0.59,-5.74l0 -4.91zm3.94 -3.15l2.87 0c0.9,0 1.59,0.07 2.06,0.21 0.46,0.14 0.84,0.43 1.13,0.87 0.29,0.43 0.43,1.14 0.43,2.1 0,0.66 -0.1,1.11 -0.31,1.37 -0.2,0.26 -0.6,0.46 -1.2,0.6 0.67,0.15 1.12,0.4 1.36,0.75 0.24,0.36 0.36,0.9 0.36,1.63l0 1.04c0,0.76 -0.09,1.32 -0.26,1.68 -0.17,0.36 -0.44,0.61 -0.81,0.75 -0.38,0.13 -1.14,0.2 -2.3,0.2l-3.33 0 0 -11.2zm2.89 1.91l0 2.49c0.12,0 0.21,-0.01 0.28,-0.01 0.27,0 0.45,-0.07 0.53,-0.21 0.07,-0.14 0.11,-0.54 0.11,-1.2 0,-0.36 -0.03,-0.6 -0.09,-0.74 -0.07,-0.14 -0.15,-0.23 -0.25,-0.27 -0.1,-0.04 -0.29,-0.06 -0.58,-0.06zm0 4.23l0 3.15c0.39,-0.02 0.65,-0.08 0.76,-0.2 0.11,-0.11 0.16,-0.4 0.16,-0.85l0 -1.05c0,-0.48 -0.05,-0.77 -0.15,-0.87 -0.09,-0.11 -0.35,-0.16 -0.77,-0.18zm11.58 -1.26l-2.89 0 0 -1.94c0,-0.57 -0.03,-0.92 -0.09,-1.06 -0.06,-0.14 -0.2,-0.21 -0.41,-0.21 -0.23,0 -0.38,0.08 -0.44,0.25 -0.07,0.18 -0.1,0.54 -0.1,1.11l0 5.2c0,0.54 0.03,0.9 0.1,1.07 0.06,0.16 0.2,0.24 0.42,0.24 0.21,0 0.35,-0.08 0.42,-0.25 0.07,-0.16 0.1,-0.55 0.1,-1.17l0 -1.41 2.89 0 0 0.44c0,1.16 -0.09,1.98 -0.25,2.47 -0.16,0.48 -0.52,0.91 -1.07,1.27 -0.56,0.37 -1.24,0.55 -2.05,0.55 -0.85,0 -1.54,-0.15 -2.09,-0.46 -0.55,-0.31 -0.91,-0.74 -1.09,-1.29 -0.18,-0.54 -0.27,-1.37 -0.27,-2.46l0 -3.27c0,-0.81 0.03,-1.42 0.09,-1.82 0.05,-0.4 0.21,-0.79 0.49,-1.17 0.27,-0.37 0.64,-0.66 1.12,-0.88 0.49,-0.21 1.04,-0.32 1.67,-0.32 0.84,0 1.54,0.17 2.1,0.5 0.55,0.33 0.91,0.74 1.09,1.24 0.17,0.49 0.26,1.26 0.26,2.31l0 1.06z"/>
   </clipPath>
     <linearGradient id="id15" gradientUnits="userSpaceOnUse" x1="11.17" y1="49.67" x2="11.17" y2="72.02">
      <stop offset="0" stop-opacity="0.25098" stop-color="#D9D9D9"/>
      <stop offset="1" stop-opacity="0.2" stop-color="#0A0A0A"/>
     </linearGradient>
   <clipPath id="id16">
    <path d="M24.83 58.39c0,-3.05 0,-4.58 0.59,-5.74 0.53,-1.03 1.36,-1.86 2.39,-2.38 1.16,-0.6 2.69,-0.6 5.74,-0.6l4.91 0c3.05,0 4.58,0 5.74,0.6 1.03,0.52 1.86,1.35 2.38,2.38 0.6,1.16 0.6,2.69 0.6,5.74l0 4.91c0,3.05 0,4.58 -0.6,5.74 -0.52,1.03 -1.35,1.86 -2.38,2.39 -1.16,0.59 -2.69,0.59 -5.74,0.59l-4.91 0c-3.05,0 -4.58,0 -5.74,-0.59 -1.03,-0.53 -1.86,-1.36 -2.39,-2.39 -0.59,-1.16 -0.59,-2.69 -0.59,-5.74l0 -4.91zm10.59 8.06l-2.89 0 0 -8.97 -0.84 0 0 8.97 -2.88 0 0 -11.21 6.61 0 0 11.21zm7.78 -11.21l0 11.21 -2.89 0 0 -4.71 -0.84 0 0 4.71 -2.88 0 0 -11.21 2.88 0 0 4.01 0.84 0 0 -4.01 2.89 0z"/>
   </clipPath>
     <linearGradient id="id17" gradientUnits="userSpaceOnUse" x1="36" y1="49.67" x2="36" y2="72.02">
      <stop offset="0" stop-opacity="0.25098" stop-color="#D9D9D9"/>
      <stop offset="1" stop-opacity="0.2" stop-color="#0A0A0A"/>
     </linearGradient>
   <clipPath id="id18">
    <path d="M215.55 49.67c0.04,0 0.09,0 0.14,0 0.04,0 0.09,0.01 0.14,0.01 0.04,0 0.09,0 0.14,0.01 0.04,0 0.09,0 0.13,0.01 0.05,0 0.1,0.01 0.14,0.02 0.05,0 0.09,0.01 0.14,0.01 0.04,0.01 0.09,0.02 0.13,0.03 0.05,0 0.09,0.01 0.14,0.02 0.04,0.01 0.08,0.02 0.13,0.03 0.04,0.01 0.09,0.02 0.13,0.03 0.04,0.01 0.09,0.03 0.13,0.04 0.04,0.01 0.09,0.02 0.13,0.04 0.04,0.01 0.08,0.02 0.13,0.04 0.04,0.01 0.08,0.03 0.12,0.04 0.04,0.02 0.08,0.03 0.13,0.05 0.04,0.02 0.08,0.03 0.12,0.05 0.04,0.02 0.08,0.03 0.12,0.05 0.04,0.02 0.08,0.04 0.12,0.06 0.04,0.02 0.08,0.04 0.12,0.06 0.82,0.42 1.52,1.04 2.04,1.8 0.09,0.15 0.19,0.3 0.27,0.45 0.04,0.08 0.08,0.16 0.12,0.24 0.02,0.04 0.04,0.08 0.06,0.12 0.01,0.04 0.03,0.08 0.05,0.12 0.02,0.04 0.03,0.08 0.05,0.12 0.02,0.04 0.03,0.09 0.05,0.13 0.01,0.04 0.03,0.08 0.04,0.12 0.02,0.05 0.03,0.09 0.04,0.13 0.02,0.04 0.03,0.09 0.04,0.13 0.01,0.04 0.03,0.09 0.04,0.13 0.01,0.04 0.02,0.09 0.03,0.13 0.01,0.05 0.02,0.09 0.03,0.13 0.01,0.05 0.01,0.09 0.02,0.14 0.01,0.04 0.02,0.09 0.03,0.13 0,0.05 0.01,0.09 0.01,0.14 0.01,0.04 0.02,0.09 0.02,0.13 0,0.05 0.01,0.1 0.01,0.14 0.01,0.05 0.01,0.1 0.01,0.14 0,0.05 0.01,0.09 0.01,0.14 0,0.05 0,0.1 0,0.14l0 11.18 0 0 0 0.27c0,3.01 -2.44,5.45 -5.45,5.45l-160.44 0c-3.01,0 -5.45,-2.44 -5.45,-5.45l0 -11.45c0,-3.01 2.44,-5.45 5.45,-5.45l0.14 0 160.3 0zm-93.99 5.82l3.47 0c1.09,0 1.92,0.07 2.49,0.21 0.56,0.14 1.01,0.43 1.36,0.87 0.35,0.43 0.52,1.13 0.52,2.1 0,0.66 -0.12,1.11 -0.37,1.37 -0.24,0.26 -0.73,0.45 -1.45,0.59 0.81,0.16 1.35,0.41 1.64,0.76 0.29,0.36 0.43,0.9 0.43,1.63l0 1.04c0,0.75 -0.1,1.31 -0.31,1.68 -0.2,0.36 -0.53,0.61 -0.98,0.75 -0.45,0.13 -1.38,0.2 -2.78,0.2l-4.02 0 0 -11.2zm3.49 1.91l0 2.49c0.15,0 0.26,-0.01 0.34,-0.01 0.33,0 0.55,-0.07 0.64,-0.21 0.09,-0.14 0.14,-0.54 0.14,-1.21 0,-0.35 -0.04,-0.59 -0.12,-0.73 -0.07,-0.14 -0.17,-0.23 -0.29,-0.27 -0.12,-0.04 -0.36,-0.06 -0.71,-0.06zm0 4.23l0 3.15c0.48,-0.02 0.79,-0.08 0.92,-0.2 0.13,-0.11 0.2,-0.4 0.2,-0.85l0 -1.05c0,-0.48 -0.06,-0.77 -0.18,-0.88 -0.12,-0.1 -0.43,-0.15 -0.94,-0.17zm13.96 2.44c0,0.83 -0.13,1.43 -0.39,1.79 -0.25,0.37 -0.65,0.6 -1.17,0.69 -0.53,0.09 -1.37,0.14 -2.52,0.14l-4.02 0 0 -11.2 3.48 0 0 3.83 0.54 0c1.07,0 1.89,0.06 2.44,0.16 0.55,0.11 0.96,0.34 1.23,0.71 0.28,0.36 0.41,0.93 0.41,1.7l0 2.18zm-3.48 -0.34l0 -1.62c0,-0.47 -0.06,-0.76 -0.17,-0.86 -0.11,-0.1 -0.44,-0.16 -0.97,-0.17l0 3.68c0.45,0 0.75,-0.04 0.9,-0.14 0.16,-0.09 0.24,-0.39 0.24,-0.89zm8.15 2.96l-3.48 0 0 -11.2 3.48 0 0 11.2zm8.32 -11.2l-1.22 4.95 1.85 6.25 -3.22 0c-0.38,-1.12 -0.74,-2.48 -1.06,-4.09 -0.1,0.72 -0.23,1.47 -0.39,2.26l-0.31 1.83 -3.38 0 1.27 -6.25 -1.27 -4.95 3.37 0c0.07,0.3 0.18,0.82 0.35,1.54 0.14,0.55 0.26,1.06 0.36,1.52l0.74 -3.06 2.91 0zm9.05 6.56c0,1.13 -0.03,1.92 -0.09,2.39 -0.06,0.47 -0.26,0.9 -0.59,1.29 -0.34,0.38 -0.79,0.68 -1.35,0.89 -0.57,0.21 -1.23,0.31 -1.98,0.31 -0.72,0 -1.36,-0.1 -1.93,-0.3 -0.57,-0.19 -1.03,-0.48 -1.37,-0.88 -0.35,-0.39 -0.56,-0.82 -0.62,-1.28 -0.07,-0.46 -0.1,-1.27 -0.1,-2.42l0 -1.91c0,-1.13 0.03,-1.93 0.09,-2.39 0.06,-0.47 0.26,-0.9 0.59,-1.29 0.34,-0.38 0.79,-0.68 1.36,-0.89 0.56,-0.21 1.22,-0.31 1.98,-0.31 0.71,0 1.35,0.1 1.92,0.29 0.57,0.2 1.03,0.49 1.38,0.88 0.34,0.4 0.55,0.82 0.62,1.28 0.06,0.47 0.09,1.27 0.09,2.43l0 1.91zm-3.48 -3.68c0,-0.52 -0.04,-0.85 -0.1,-1 -0.07,-0.14 -0.21,-0.21 -0.42,-0.21 -0.18,0 -0.31,0.06 -0.41,0.17 -0.09,0.12 -0.14,0.47 -0.14,1.04l0 5.23c0,0.65 0.03,1.05 0.1,1.2 0.06,0.16 0.2,0.23 0.43,0.23 0.23,0 0.38,-0.09 0.44,-0.26 0.07,-0.18 0.1,-0.59 0.1,-1.25l0 -5.15zm12.34 10.3l2.4 0 0 -4.33 -0.71 0 0 -8.85 -7.71 0 0 0.33c0,1.78 -0.13,3.41 -0.36,4.91 -0.24,1.5 -0.55,2.7 -0.93,3.62l-0.71 0 0 4.32 2.4 0 0 -1.98 5.62 0 0 1.98zm-1.79 -4.33l0 -6.65 -1.04 0 0 0.09c0,2.14 -0.27,4.33 -0.82,6.56l1.86 0zm13.26 -8.85l0 11.2 -3.49 0 0 -4.7 -1.01 0 0 4.7 -3.49 0 0 -11.2 3.49 0 0 4 1.01 0 0 -4 3.49 0zm9.34 6.56c0,1.13 -0.03,1.92 -0.09,2.39 -0.06,0.47 -0.26,0.9 -0.59,1.29 -0.34,0.38 -0.79,0.68 -1.35,0.89 -0.57,0.21 -1.23,0.31 -1.98,0.31 -0.72,0 -1.36,-0.1 -1.93,-0.3 -0.57,-0.19 -1.03,-0.48 -1.37,-0.88 -0.35,-0.39 -0.56,-0.82 -0.62,-1.28 -0.07,-0.46 -0.1,-1.27 -0.1,-2.42l0 -1.91c0,-1.13 0.03,-1.93 0.09,-2.39 0.06,-0.47 0.26,-0.9 0.59,-1.29 0.34,-0.38 0.79,-0.68 1.36,-0.89 0.56,-0.21 1.22,-0.31 1.98,-0.31 0.71,0 1.35,0.1 1.92,0.29 0.57,0.2 1.03,0.49 1.38,0.88 0.34,0.4 0.55,0.82 0.62,1.28 0.06,0.47 0.09,1.27 0.09,2.43l0 1.91zm-3.48 -3.68c0,-0.52 -0.04,-0.85 -0.1,-1 -0.07,-0.14 -0.21,-0.21 -0.42,-0.21 -0.18,0 -0.31,0.06 -0.41,0.17 -0.09,0.12 -0.14,0.47 -0.14,1.04l0 5.23c0,0.65 0.03,1.05 0.1,1.2 0.06,0.16 0.2,0.23 0.43,0.23 0.23,0 0.38,-0.09 0.44,-0.26 0.07,-0.18 0.1,-0.59 0.1,-1.25l0 -5.15zm12.54 8.32l-2.91 0 0 -5.1 -1.81 5.1 -3.03 0 0 -11.2 2.91 0 0 5.05 1.95 -5.05 2.89 0 0 11.2zm-2.91 -13.67l1.4 0c-0.03,0.63 -0.25,1.13 -0.66,1.52 -0.4,0.38 -0.96,0.57 -1.69,0.57 -0.72,0 -1.29,-0.19 -1.69,-0.58 -0.4,-0.38 -0.61,-0.88 -0.65,-1.51l1.41 0c0.06,0.63 0.37,0.95 0.93,0.95 0.56,0 0.88,-0.32 0.95,-0.95z"/>
   </clipPath>
     <linearGradient id="id19" gradientUnits="userSpaceOnUse" x1="110.5" y1="49.17" x2="110.5" y2="72.52">
      <stop offset="0" stop-opacity="0.25098" stop-color="#D9D9D9"/>
      <stop offset="1" stop-opacity="0.2" stop-color="#0A0A0A"/>
     </linearGradient>
 </defs>
 <g id="Слой_x0020_1">
  <metadata id="CorelCorpID_0Corel-Layer"/>
  <path fill="white" fill-opacity="0.901961" d="M0 8.73c0,-3.05 0,-4.58 0.59,-5.75 0.52,-1.02 1.36,-1.85 2.38,-2.38 1.17,-0.59 2.7,-0.59 5.75,-0.59l4.91 0c3.05,0 4.57,0 5.74,0.59 1.03,0.53 1.86,1.36 2.38,2.38 0.6,1.17 0.6,2.7 0.6,5.75l0 4.91c0,3.05 0,4.57 -0.6,5.74 -0.52,1.03 -1.35,1.86 -2.38,2.38 -1.17,0.6 -2.69,0.6 -5.74,0.6l-4.91 0c-3.05,0 -4.58,0 -5.75,-0.6 -1.02,-0.52 -1.86,-1.35 -2.38,-2.38 -0.59,-1.17 -0.59,-2.69 -0.59,-5.74l0 -4.91zm4.4 -3.15l2.87 0c0.91,0 1.59,0.07 2.06,0.22 0.47,0.14 0.84,0.43 1.13,0.86 0.29,0.44 0.43,1.14 0.43,2.11 0,0.65 -0.1,1.11 -0.3,1.36 -0.21,0.26 -0.61,0.46 -1.21,0.6 0.67,0.15 1.13,0.41 1.36,0.76 0.24,0.35 0.36,0.89 0.36,1.62l0 1.04c0,0.76 -0.09,1.32 -0.26,1.69 -0.17,0.36 -0.44,0.61 -0.81,0.74 -0.38,0.14 -1.14,0.2 -2.3,0.2l-3.33 0 0 -11.2zm2.89 1.91l0 2.5c0.12,-0.01 0.21,-0.01 0.28,-0.01 0.28,0 0.45,-0.07 0.53,-0.21 0.08,-0.14 0.11,-0.55 0.11,-1.21 0,-0.35 -0.03,-0.6 -0.09,-0.74 -0.06,-0.14 -0.14,-0.23 -0.25,-0.27 -0.1,-0.03 -0.29,-0.05 -0.58,-0.06zm0 4.24l0 3.14c0.4,-0.01 0.65,-0.08 0.76,-0.19 0.11,-0.12 0.16,-0.4 0.16,-0.86l0 -1.04c0,-0.49 -0.05,-0.78 -0.14,-0.88 -0.1,-0.1 -0.36,-0.16 -0.78,-0.17zm10.65 -6.15l0 2.24 -1.69 0 0 8.96 -2.89 0 0 -8.96 -1.71 0 0 -2.24 6.29 0z"/>
  <g>
  </g>
  <g clip-path="url(#id0)">
   <g id="_2693464094928">
    <path fill="url(#id1)" fill-rule="nonzero" d="M5.45 0.01l11.45 0c3.01,0 5.45,2.44 5.45,5.45l0 11.45c0,3.01 -2.44,5.45 -5.45,5.45l-11.45 0c-3.01,0 -5.45,-2.44 -5.45,-5.45l0 -11.45c0,-3.01 2.44,-5.45 5.45,-5.45z" filter="url(#filter0_g_35_722)" data-figma-bg-blur-radius="20"/>
    <path fill="none" fill-rule="nonzero" fill-opacity="0.250980" stroke="black" stroke-width="0.2" stroke-miterlimit="22.9256" stroke-opacity="0.250980" d="M5.59 0.01l11.31 0c3.01,0 5.45,2.44 5.45,5.45l0 11.17c0,3.01 -2.44,5.45 -5.45,5.45l-11.31 0c-3.01,0 -5.46,-2.44 -5.46,-5.45l0 -11.17c0,-3.01 2.45,-5.45 5.46,-5.45z" filter="url(#filter4_f_35_722)"/>
   </g>
  </g>
  <path fill="none" d="M0 8.73c0,-3.05 0,-4.58 0.59,-5.75 0.52,-1.02 1.36,-1.85 2.38,-2.38 1.17,-0.59 2.7,-0.59 5.75,-0.59l4.91 0c3.05,0 4.57,0 5.74,0.59 1.03,0.53 1.86,1.36 2.38,2.38 0.6,1.17 0.6,2.7 0.6,5.75l0 4.91c0,3.05 0,4.57 -0.6,5.74 -0.52,1.03 -1.35,1.86 -2.38,2.38 -1.17,0.6 -2.69,0.6 -5.74,0.6l-4.91 0c-3.05,0 -4.58,0 -5.75,-0.6 -1.02,-0.52 -1.86,-1.35 -2.38,-2.38 -0.59,-1.17 -0.59,-2.69 -0.59,-5.74l0 -4.91zm4.4 -3.15l2.87 0c0.91,0 1.59,0.07 2.06,0.22 0.47,0.14 0.84,0.43 1.13,0.86 0.29,0.44 0.43,1.14 0.43,2.11 0,0.65 -0.1,1.11 -0.3,1.36 -0.21,0.26 -0.61,0.46 -1.21,0.6 0.67,0.15 1.13,0.41 1.36,0.76 0.24,0.35 0.36,0.89 0.36,1.62l0 1.04c0,0.76 -0.09,1.32 -0.26,1.69 -0.17,0.36 -0.44,0.61 -0.81,0.74 -0.38,0.14 -1.14,0.2 -2.3,0.2l-3.33 0 0 -11.2zm2.89 1.91l0 2.5c0.12,-0.01 0.21,-0.01 0.28,-0.01 0.28,0 0.45,-0.07 0.53,-0.21 0.08,-0.14 0.11,-0.55 0.11,-1.21 0,-0.35 -0.03,-0.6 -0.09,-0.74 -0.06,-0.14 -0.14,-0.23 -0.25,-0.27 -0.1,-0.03 -0.29,-0.05 -0.58,-0.06zm0 4.24l0 3.14c0.4,-0.01 0.65,-0.08 0.76,-0.19 0.11,-0.12 0.16,-0.4 0.16,-0.86l0 -1.04c0,-0.49 -0.05,-0.78 -0.14,-0.88 -0.1,-0.1 -0.36,-0.16 -0.78,-0.17zm10.65 -6.15l0 2.24 -1.69 0 0 8.96 -2.89 0 0 -8.96 -1.71 0 0 -2.24 6.29 0z"/>
  <path fill="white" fill-opacity="0.901961" d="M24.83 8.73c0,-3.05 0,-4.58 0.59,-5.75 0.53,-1.02 1.36,-1.85 2.39,-2.38 1.16,-0.59 2.69,-0.59 5.74,-0.59l4.91 0c3.05,0 4.58,0 5.74,0.59 1.03,0.53 1.86,1.36 2.38,2.38 0.6,1.17 0.6,2.7 0.6,5.75l0 4.91c0,3.05 0,4.57 -0.6,5.74 -0.52,1.03 -1.35,1.86 -2.38,2.38 -1.16,0.6 -2.69,0.6 -5.74,0.6l-4.91 0c-3.05,0 -4.58,0 -5.74,-0.6 -1.03,-0.52 -1.86,-1.35 -2.39,-2.38 -0.59,-1.17 -0.59,-2.69 -0.59,-5.74l0 -4.91zm10.96 1.73l-2.89 0 0 -1.94c0,-0.57 -0.03,-0.92 -0.09,-1.06 -0.06,-0.14 -0.2,-0.21 -0.4,-0.21 -0.24,0 -0.39,0.08 -0.45,0.25 -0.06,0.17 -0.1,0.54 -0.1,1.11l0 5.2c0,0.54 0.04,0.89 0.1,1.06 0.06,0.17 0.21,0.25 0.43,0.25 0.21,0 0.35,-0.08 0.41,-0.25 0.07,-0.17 0.1,-0.56 0.1,-1.17l0 -1.41 2.89 0 0 0.43c0,1.17 -0.08,1.99 -0.24,2.47 -0.17,0.49 -0.53,0.91 -1.08,1.28 -0.55,0.37 -1.24,0.55 -2.05,0.55 -0.84,0 -1.54,-0.16 -2.09,-0.46 -0.54,-0.31 -0.91,-0.74 -1.09,-1.29 -0.17,-0.55 -0.26,-1.37 -0.26,-2.47l0 -3.27c0,-0.8 0.02,-1.41 0.08,-1.81 0.05,-0.41 0.22,-0.8 0.49,-1.17 0.27,-0.37 0.65,-0.67 1.13,-0.88 0.48,-0.22 1.03,-0.32 1.66,-0.32 0.85,0 1.55,0.16 2.1,0.5 0.55,0.33 0.91,0.74 1.09,1.23 0.17,0.5 0.26,1.27 0.26,2.32l0 1.06zm1.03 -4.89l2.9 0c0.79,0 1.39,0.07 1.82,0.19 0.42,0.13 0.73,0.3 0.95,0.54 0.21,0.23 0.35,0.52 0.43,0.85 0.07,0.34 0.11,0.86 0.11,1.56l0 0.97c0,0.71 -0.07,1.24 -0.22,1.56 -0.14,0.33 -0.41,0.58 -0.8,0.76 -0.39,0.17 -0.9,0.26 -1.53,0.26l-0.77 0 0 4.52 -2.89 0 0 -11.21zm2.89 1.92l0 2.85c0.08,0 0.15,0.01 0.21,0.01 0.26,0 0.44,-0.07 0.55,-0.2 0.1,-0.13 0.15,-0.41 0.15,-0.82l0 -0.92c0,-0.39 -0.06,-0.64 -0.18,-0.75 -0.11,-0.12 -0.36,-0.17 -0.73,-0.17z"/>
  <g>
  </g>
  <g clip-path="url(#id2)">
   <g id="_2693464093392">
    <path fill="url(#id3)" fill-rule="nonzero" d="M30.28 0.01l11.45 0c3.01,0 5.45,2.44 5.45,5.45l0 11.45c0,3.01 -2.44,5.45 -5.45,5.45l-11.45 0c-3.01,0 -5.45,-2.44 -5.45,-5.45l0 -11.45c0,-3.01 2.44,-5.45 5.45,-5.45z" filter="url(#filter0_g_35_722)" data-figma-bg-blur-radius="20"/>
    <path fill="none" fill-rule="nonzero" fill-opacity="0.250980" stroke="black" stroke-width="0.2" stroke-miterlimit="22.9256" stroke-opacity="0.250980" d="M30.42 0.01l11.31 0c3.01,0 5.45,2.44 5.45,5.45l0 11.17c0,3.01 -2.44,5.45 -5.45,5.45l-11.31 0c-3.01,0 -5.45,-2.44 -5.45,-5.45l0 -11.17c0,-3.01 2.44,-5.45 5.45,-5.45z" filter="url(#filter4_f_35_722)"/>
   </g>
  </g>
  <path fill="none" d="M24.83 8.73c0,-3.05 0,-4.58 0.59,-5.75 0.53,-1.02 1.36,-1.85 2.39,-2.38 1.16,-0.59 2.69,-0.59 5.74,-0.59l4.91 0c3.05,0 4.58,0 5.74,0.59 1.03,0.53 1.86,1.36 2.38,2.38 0.6,1.17 0.6,2.7 0.6,5.75l0 4.91c0,3.05 0,4.57 -0.6,5.74 -0.52,1.03 -1.35,1.86 -2.38,2.38 -1.16,0.6 -2.69,0.6 -5.74,0.6l-4.91 0c-3.05,0 -4.58,0 -5.74,-0.6 -1.03,-0.52 -1.86,-1.35 -2.39,-2.38 -0.59,-1.17 -0.59,-2.69 -0.59,-5.74l0 -4.91zm10.96 1.73l-2.89 0 0 -1.94c0,-0.57 -0.03,-0.92 -0.09,-1.06 -0.06,-0.14 -0.2,-0.21 -0.4,-0.21 -0.24,0 -0.39,0.08 -0.45,0.25 -0.06,0.17 -0.1,0.54 -0.1,1.11l0 5.2c0,0.54 0.04,0.89 0.1,1.06 0.06,0.17 0.21,0.25 0.43,0.25 0.21,0 0.35,-0.08 0.41,-0.25 0.07,-0.17 0.1,-0.56 0.1,-1.17l0 -1.41 2.89 0 0 0.43c0,1.17 -0.08,1.99 -0.24,2.47 -0.17,0.49 -0.53,0.91 -1.08,1.28 -0.55,0.37 -1.24,0.55 -2.05,0.55 -0.84,0 -1.54,-0.16 -2.09,-0.46 -0.54,-0.31 -0.91,-0.74 -1.09,-1.29 -0.17,-0.55 -0.26,-1.37 -0.26,-2.47l0 -3.27c0,-0.8 0.02,-1.41 0.08,-1.81 0.05,-0.41 0.22,-0.8 0.49,-1.17 0.27,-0.37 0.65,-0.67 1.13,-0.88 0.48,-0.22 1.03,-0.32 1.66,-0.32 0.85,0 1.55,0.16 2.1,0.5 0.55,0.33 0.91,0.74 1.09,1.23 0.17,0.5 0.26,1.27 0.26,2.32l0 1.06zm1.03 -4.89l2.9 0c0.79,0 1.39,0.07 1.82,0.19 0.42,0.13 0.73,0.3 0.95,0.54 0.21,0.23 0.35,0.52 0.43,0.85 0.07,0.34 0.11,0.86 0.11,1.56l0 0.97c0,0.71 -0.07,1.24 -0.22,1.56 -0.14,0.33 -0.41,0.58 -0.8,0.76 -0.39,0.17 -0.9,0.26 -1.53,0.26l-0.77 0 0 4.52 -2.89 0 0 -11.21zm2.89 1.92l0 2.85c0.08,0 0.15,0.01 0.21,0.01 0.26,0 0.44,-0.07 0.55,-0.2 0.1,-0.13 0.15,-0.41 0.15,-0.82l0 -0.92c0,-0.39 -0.06,-0.64 -0.18,-0.75 -0.11,-0.12 -0.36,-0.17 -0.73,-0.17z"/>
  <path fill="white" fill-opacity="0.901961" d="M49.66 8.73c0,-3.05 0,-4.58 0.6,-5.75 0.52,-1.02 1.35,-1.85 2.38,-2.38 1.16,-0.59 2.69,-0.59 5.74,-0.59l4.91 0c3.05,0 4.58,0 5.74,0.59 1.03,0.53 1.86,1.36 2.39,2.38 0.59,1.17 0.59,2.7 0.59,5.75l0 4.91c0,3.05 0,4.57 -0.59,5.74 -0.53,1.03 -1.36,1.86 -2.39,2.38 -1.16,0.6 -2.69,0.6 -5.74,0.6l-4.91 0c-3.05,0 -4.58,0 -5.74,-0.6 -1.03,-0.52 -1.86,-1.35 -2.38,-2.38 -0.6,-1.17 -0.6,-2.69 -0.6,-5.74l0 -4.91zm8.25 3.76c-0.23,0.25 -0.53,0.45 -0.9,0.6 -0.38,0.15 -0.75,0.22 -1.14,0.22 -0.68,0 -1.18,-0.19 -1.5,-0.58 -0.31,-0.38 -0.46,-0.98 -0.46,-1.8l0 -5.35 2.88 0 0 5.04c0,0.44 0.04,0.74 0.11,0.9 0.08,0.17 0.2,0.25 0.38,0.25 0.42,0 0.63,-0.37 0.63,-1.12l0 -5.07 2.89 0 0 11.2 -2.89 0 0 -4.29zm9.85 -6.91l0 2.24 -1.69 0 0 8.96 -2.89 0 0 -8.96 -1.71 0 0 -2.24 6.29 0z"/>
  <g>
  </g>
  <g clip-path="url(#id4)">
   <g id="_2693464087920">
    <path fill="url(#id5)" fill-rule="nonzero" d="M55.11 0.01l11.45 0c3.01,0 5.45,2.44 5.45,5.45l0 11.45c0,3.01 -2.44,5.45 -5.45,5.45l-11.45 0c-3.01,0 -5.45,-2.44 -5.45,-5.45l0 -11.45c0,-3.01 2.44,-5.45 5.45,-5.45z" filter="url(#filter0_g_35_722)" data-figma-bg-blur-radius="20"/>
    <path fill="none" fill-rule="nonzero" fill-opacity="0.250980" stroke="black" stroke-width="0.2" stroke-miterlimit="22.9256" stroke-opacity="0.250980" d="M55.25 0.01l11.31 0c3.01,0 5.45,2.44 5.45,5.45l0 11.17c0,3.01 -2.44,5.45 -5.45,5.45l-11.31 0c-3.01,0 -5.45,-2.44 -5.45,-5.45l0 -11.17c0,-3.01 2.44,-5.45 5.45,-5.45z" filter="url(#filter4_f_35_722)"/>
   </g>
  </g>
  <path fill="none" d="M49.66 8.73c0,-3.05 0,-4.58 0.6,-5.75 0.52,-1.02 1.35,-1.85 2.38,-2.38 1.16,-0.59 2.69,-0.59 5.74,-0.59l4.91 0c3.05,0 4.58,0 5.74,0.59 1.03,0.53 1.86,1.36 2.39,2.38 0.59,1.17 0.59,2.7 0.59,5.75l0 4.91c0,3.05 0,4.57 -0.59,5.74 -0.53,1.03 -1.36,1.86 -2.39,2.38 -1.16,0.6 -2.69,0.6 -5.74,0.6l-4.91 0c-3.05,0 -4.58,0 -5.74,-0.6 -1.03,-0.52 -1.86,-1.35 -2.38,-2.38 -0.6,-1.17 -0.6,-2.69 -0.6,-5.74l0 -4.91zm8.25 3.76c-0.23,0.25 -0.53,0.45 -0.9,0.6 -0.38,0.15 -0.75,0.22 -1.14,0.22 -0.68,0 -1.18,-0.19 -1.5,-0.58 -0.31,-0.38 -0.46,-0.98 -0.46,-1.8l0 -5.35 2.88 0 0 5.04c0,0.44 0.04,0.74 0.11,0.9 0.08,0.17 0.2,0.25 0.38,0.25 0.42,0 0.63,-0.37 0.63,-1.12l0 -5.07 2.89 0 0 11.2 -2.89 0 0 -4.29zm9.85 -6.91l0 2.24 -1.69 0 0 8.96 -2.89 0 0 -8.96 -1.71 0 0 -2.24 6.29 0z"/>
  <path fill="white" fill-opacity="0.901961" d="M74.49 8.73c0,-3.05 0,-4.58 0.6,-5.75 0.52,-1.02 1.35,-1.85 2.38,-2.38 1.16,-0.59 2.69,-0.59 5.74,-0.59l4.91 0c3.05,0 4.58,0 5.74,0.59 1.03,0.53 1.86,1.36 2.39,2.38 0.59,1.17 0.59,2.7 0.59,5.75l0 4.91c0,3.05 0,4.57 -0.59,5.74 -0.53,1.03 -1.36,1.86 -2.39,2.38 -1.16,0.6 -2.69,0.6 -5.74,0.6l-4.91 0c-3.05,0 -4.58,0 -5.74,-0.6 -1.03,-0.52 -1.86,-1.35 -2.38,-2.38 -0.6,-1.17 -0.6,-2.69 -0.6,-5.74l0 -4.91zm11 8.05l-2.89 0 0 -8.96 -0.84 0 0 8.96 -2.89 0 0 -11.2 6.62 0 0 11.2zm6.97 -11.2l0 2.24 -1.7 0 0 8.96 -2.88 0 0 -8.96 -1.71 0 0 -2.24 6.29 0z"/>
  <g>
  </g>
  <g clip-path="url(#id6)">
   <g id="_2693464089024">
    <path fill="url(#id7)" fill-rule="nonzero" d="M79.94 0.01l11.45 0c3.01,0 5.45,2.44 5.45,5.45l0 11.45c0,3.01 -2.44,5.45 -5.45,5.45l-11.45 0c-3.01,0 -5.45,-2.44 -5.45,-5.45l0 -11.45c0,-3.01 2.44,-5.45 5.45,-5.45z" filter="url(#filter0_g_35_722)" data-figma-bg-blur-radius="20"/>
    <path fill="none" fill-rule="nonzero" fill-opacity="0.250980" stroke="black" stroke-width="0.2" stroke-miterlimit="22.9256" stroke-opacity="0.250980" d="M80.08 0.01l11.31 0c3.01,0 5.45,2.44 5.45,5.45l0 11.17c0,3.01 -2.44,5.45 -5.45,5.45l-11.31 0c-3.01,0 -5.45,-2.44 -5.45,-5.45l0 -11.17c0,-3.01 2.44,-5.45 5.45,-5.45z" filter="url(#filter4_f_35_722)"/>
   </g>
  </g>
  <path fill="none" d="M74.49 8.73c0,-3.05 0,-4.58 0.6,-5.75 0.52,-1.02 1.35,-1.85 2.38,-2.38 1.16,-0.59 2.69,-0.59 5.74,-0.59l4.91 0c3.05,0 4.58,0 5.74,0.59 1.03,0.53 1.86,1.36 2.39,2.38 0.59,1.17 0.59,2.7 0.59,5.75l0 4.91c0,3.05 0,4.57 -0.59,5.74 -0.53,1.03 -1.36,1.86 -2.39,2.38 -1.16,0.6 -2.69,0.6 -5.74,0.6l-4.91 0c-3.05,0 -4.58,0 -5.74,-0.6 -1.03,-0.52 -1.86,-1.35 -2.38,-2.38 -0.6,-1.17 -0.6,-2.69 -0.6,-5.74l0 -4.91zm11 8.05l-2.89 0 0 -8.96 -0.84 0 0 8.96 -2.89 0 0 -11.2 6.62 0 0 11.2zm6.97 -11.2l0 2.24 -1.7 0 0 8.96 -2.88 0 0 -8.96 -1.71 0 0 -2.24 6.29 0z"/>
  <path fill="#EDEDED" fill-rule="nonzero" fill-opacity="0.901961" d="M125.51 5.56l0 11.23 -2.94 0 0 -6.03c0,-0.87 -0.02,-1.39 -0.07,-1.57 -0.04,-0.17 -0.16,-0.31 -0.36,-0.4 -0.19,-0.09 -0.63,-0.13 -1.31,-0.13l-0.29 0 0 -1.31c1.42,-0.29 2.5,-0.89 3.24,-1.79l1.73 0zm8.08 3.8l0 3.75c0,0.85 -0.05,1.47 -0.14,1.85 -0.1,0.39 -0.3,0.76 -0.61,1.09 -0.3,0.34 -0.67,0.58 -1.11,0.73 -0.43,0.15 -0.91,0.22 -1.44,0.22 -0.71,0 -1.29,-0.07 -1.76,-0.23 -0.46,-0.15 -0.83,-0.4 -1.11,-0.72 -0.28,-0.33 -0.47,-0.68 -0.59,-1.04 -0.12,-0.36 -0.18,-0.94 -0.18,-1.73l0 -3.92c0,-1.03 0.1,-1.8 0.29,-2.31 0.18,-0.52 0.55,-0.93 1.11,-1.24 0.55,-0.31 1.23,-0.46 2.02,-0.46 0.65,0 1.22,0.1 1.73,0.32 0.51,0.21 0.89,0.48 1.14,0.79 0.26,0.31 0.43,0.65 0.52,1.04 0.09,0.39 0.13,1.01 0.13,1.86zm-2.94 -0.94c0,-0.59 -0.03,-0.96 -0.09,-1.12 -0.06,-0.14 -0.2,-0.22 -0.43,-0.22 -0.22,0 -0.36,0.08 -0.43,0.24 -0.07,0.16 -0.11,0.53 -0.11,1.1l0 5.47c0,0.66 0.04,1.05 0.1,1.18 0.07,0.14 0.21,0.2 0.43,0.2 0.22,0 0.36,-0.08 0.43,-0.24 0.07,-0.15 0.1,-0.5 0.1,-1.05l0 -5.56zm5.97 6.08l0 2.29 -2.22 0 0 -2.29 2.22 0zm7.73 -5.14l0 3.75c0,0.85 -0.05,1.47 -0.15,1.85 -0.1,0.39 -0.3,0.76 -0.6,1.09 -0.31,0.34 -0.68,0.58 -1.11,0.73 -0.43,0.15 -0.91,0.22 -1.45,0.22 -0.7,0 -1.29,-0.07 -1.75,-0.23 -0.47,-0.15 -0.84,-0.4 -1.12,-0.72 -0.27,-0.33 -0.47,-0.68 -0.59,-1.04 -0.12,-0.36 -0.17,-0.94 -0.17,-1.73l0 -3.92c0,-1.03 0.09,-1.8 0.28,-2.31 0.19,-0.52 0.56,-0.93 1.11,-1.24 0.56,-0.31 1.23,-0.46 2.02,-0.46 0.65,0 1.23,0.1 1.74,0.32 0.51,0.21 0.89,0.48 1.14,0.79 0.25,0.31 0.42,0.65 0.51,1.04 0.09,0.39 0.14,1.01 0.14,1.86zm-2.94 -0.94c0,-0.59 -0.03,-0.96 -0.1,-1.12 -0.05,-0.14 -0.2,-0.22 -0.42,-0.22 -0.22,0 -0.37,0.08 -0.44,0.24 -0.07,0.16 -0.1,0.53 -0.1,1.1l0 5.47c0,0.66 0.03,1.05 0.1,1.18 0.06,0.14 0.2,0.2 0.42,0.2 0.22,0 0.37,-0.08 0.43,-0.24 0.07,-0.15 0.11,-0.5 0.11,-1.05l0 -5.56zm10.94 0.94l0 3.75c0,0.85 -0.05,1.47 -0.15,1.85 -0.1,0.39 -0.3,0.76 -0.6,1.09 -0.31,0.34 -0.68,0.58 -1.11,0.73 -0.43,0.15 -0.91,0.22 -1.45,0.22 -0.7,0 -1.29,-0.07 -1.75,-0.23 -0.47,-0.15 -0.84,-0.4 -1.12,-0.72 -0.27,-0.33 -0.47,-0.68 -0.59,-1.04 -0.11,-0.36 -0.17,-0.94 -0.17,-1.73l0 -3.92c0,-1.03 0.09,-1.8 0.28,-2.31 0.19,-0.52 0.56,-0.93 1.11,-1.24 0.56,-0.31 1.23,-0.46 2.02,-0.46 0.65,0 1.23,0.1 1.74,0.32 0.51,0.21 0.89,0.48 1.14,0.79 0.25,0.31 0.42,0.65 0.51,1.04 0.09,0.39 0.14,1.01 0.14,1.86zm-2.94 -0.94c0,-0.59 -0.03,-0.96 -0.09,-1.12 -0.06,-0.14 -0.21,-0.22 -0.43,-0.22 -0.22,0 -0.37,0.08 -0.44,0.24 -0.07,0.16 -0.1,0.53 -0.1,1.1l0 5.47c0,0.66 0.03,1.05 0.1,1.18 0.06,0.14 0.2,0.2 0.43,0.2 0.21,0 0.36,-0.08 0.43,-0.24 0.06,-0.15 0.1,-0.5 0.1,-1.05l0 -5.56zm12.86 2.81l0 1.93 -3.85 0 0 -1.93 3.85 0zm10.59 -5.67l0 11.23 -2.94 0 0 -6.03c0,-0.87 -0.02,-1.39 -0.06,-1.57 -0.04,-0.17 -0.16,-0.31 -0.36,-0.4 -0.2,-0.09 -0.63,-0.13 -1.31,-0.13l-0.29 0 0 -1.31c1.42,-0.29 2.5,-0.89 3.23,-1.79l1.73 0zm1.15 8.25l2.94 0c0,0.52 0.01,0.86 0.02,0.99 0.02,0.14 0.08,0.25 0.18,0.35 0.11,0.09 0.25,0.14 0.43,0.14 0.16,0 0.28,-0.05 0.38,-0.14 0.1,-0.08 0.15,-0.2 0.17,-0.34 0.01,-0.13 0.01,-0.41 0.01,-0.83l0 -1.79c-0.14,0.3 -0.36,0.52 -0.65,0.67 -0.3,0.15 -0.66,0.23 -1.09,0.23 -0.54,0 -1.02,-0.14 -1.43,-0.42 -0.42,-0.28 -0.68,-0.61 -0.79,-1 -0.11,-0.39 -0.17,-0.91 -0.17,-1.58l0 -0.89c0,-0.79 0.03,-1.37 0.1,-1.76 0.06,-0.38 0.23,-0.74 0.51,-1.06 0.27,-0.33 0.64,-0.58 1.13,-0.76 0.48,-0.18 1.04,-0.27 1.67,-0.27 0.79,0 1.44,0.1 1.94,0.31 0.51,0.21 0.9,0.51 1.18,0.9 0.28,0.39 0.43,0.8 0.48,1.23 0.04,0.43 0.06,1.26 0.06,2.5l0 1.56c0,1.33 -0.02,2.23 -0.05,2.68 -0.04,0.45 -0.21,0.88 -0.51,1.28 -0.3,0.4 -0.7,0.7 -1.21,0.91 -0.52,0.2 -1.11,0.3 -1.78,0.3 -0.83,0 -1.51,-0.13 -2.03,-0.38 -0.53,-0.26 -0.91,-0.62 -1.14,-1.08 -0.23,-0.46 -0.35,-1.05 -0.35,-1.75zm2.94 -3.5c0,0.48 0.07,0.77 0.2,0.88 0.13,0.11 0.26,0.16 0.4,0.16 0.2,0 0.36,-0.07 0.45,-0.21 0.1,-0.14 0.14,-0.42 0.14,-0.83l0 -2.03c0,-0.5 -0.04,-0.82 -0.13,-0.97 -0.09,-0.15 -0.24,-0.23 -0.46,-0.23 -0.12,0 -0.26,0.06 -0.39,0.18 -0.14,0.12 -0.21,0.43 -0.21,0.95l0 2.1zm7.11 4.19l0 2.29 -2.22 0 0 -2.29 2.22 0zm7.72 -5.14l0 3.75c0,0.85 -0.05,1.47 -0.14,1.85 -0.1,0.39 -0.3,0.76 -0.61,1.09 -0.3,0.34 -0.67,0.58 -1.11,0.73 -0.43,0.15 -0.91,0.22 -1.44,0.22 -0.71,0 -1.29,-0.07 -1.76,-0.23 -0.46,-0.15 -0.83,-0.4 -1.11,-0.72 -0.28,-0.33 -0.48,-0.68 -0.59,-1.04 -0.12,-0.36 -0.18,-0.94 -0.18,-1.73l0 -3.92c0,-1.03 0.1,-1.8 0.29,-2.31 0.18,-0.52 0.55,-0.93 1.11,-1.24 0.55,-0.31 1.23,-0.46 2.02,-0.46 0.65,0 1.22,0.1 1.73,0.32 0.51,0.21 0.89,0.48 1.14,0.79 0.26,0.31 0.43,0.65 0.52,1.04 0.09,0.39 0.13,1.01 0.13,1.86zm-2.94 -0.94c0,-0.59 -0.03,-0.96 -0.09,-1.12 -0.06,-0.14 -0.2,-0.22 -0.43,-0.22 -0.22,0 -0.36,0.08 -0.43,0.24 -0.07,0.16 -0.11,0.53 -0.11,1.1l0 5.47c0,0.66 0.04,1.05 0.1,1.18 0.07,0.14 0.21,0.2 0.43,0.2 0.22,0 0.36,-0.08 0.43,-0.24 0.07,-0.15 0.1,-0.5 0.1,-1.05l0 -5.56zm10.94 0.94l0 3.75c0,0.85 -0.05,1.47 -0.14,1.85 -0.1,0.39 -0.3,0.76 -0.61,1.09 -0.3,0.34 -0.67,0.58 -1.1,0.73 -0.43,0.15 -0.92,0.22 -1.45,0.22 -0.71,0 -1.29,-0.07 -1.76,-0.23 -0.46,-0.15 -0.83,-0.4 -1.11,-0.72 -0.28,-0.33 -0.47,-0.68 -0.59,-1.04 -0.12,-0.36 -0.18,-0.94 -0.18,-1.73l0 -3.92c0,-1.03 0.1,-1.8 0.29,-2.31 0.18,-0.52 0.55,-0.93 1.11,-1.24 0.55,-0.31 1.23,-0.46 2.02,-0.46 0.65,0 1.22,0.1 1.73,0.32 0.51,0.21 0.89,0.48 1.14,0.79 0.26,0.31 0.43,0.65 0.52,1.04 0.09,0.39 0.13,1.01 0.13,1.86zm-2.94 -0.94c0,-0.59 -0.03,-0.96 -0.09,-1.12 -0.06,-0.14 -0.2,-0.22 -0.43,-0.22 -0.22,0 -0.36,0.08 -0.43,0.24 -0.07,0.16 -0.11,0.53 -0.11,1.1l0 5.47c0,0.66 0.04,1.05 0.1,1.18 0.07,0.14 0.21,0.2 0.43,0.2 0.22,0 0.36,-0.08 0.43,-0.24 0.07,-0.15 0.1,-0.5 0.1,-1.05l0 -5.56z"/>
  <g>
  </g>
  <g clip-path="url(#id8)">
   <g id="_2693464085472">
    <path fill="url(#id9)" fill-rule="nonzero" d="M96.57 -0.49l127.18 0c33.45,0 60.57,2.55 60.57,5.69l0 11.96c0,3.14 -27.12,5.69 -60.57,5.69l-127.18 0c-33.44,0 -60.57,-2.55 -60.57,-5.69l0 -11.96c0,-3.14 27.13,-5.69 60.57,-5.69z" filter="url(#filter0_g_35_722)" data-figma-bg-blur-radius="20"/>
    <path fill="none" fill-rule="nonzero" fill-opacity="0.250980" stroke="black" stroke-width="0.2" stroke-miterlimit="22.9256" stroke-opacity="0.250980" d="M98.08 -0.49l125.67 0c33.45,0 60.57,2.55 60.57,5.69l0 11.68c0,3.14 -27.12,5.69 -60.57,5.69l-125.67 0c-33.44,0 -60.56,-2.55 -60.56,-5.69l0 -11.68c0,-3.14 27.12,-5.69 60.56,-5.69z" filter="url(#filter4_f_35_722)"/>
   </g>
  </g>
  <path fill="none" d="M215.55 0.01c3.01,0 5.45,2.44 5.45,5.45l0 11.17 0 0.28c0,3.01 -2.44,5.45 -5.45,5.45l-110.78 0c-3.01,0 -5.45,-2.44 -5.45,-5.45l0 -11.45c0,-3.01 2.44,-5.45 5.45,-5.45l0.14 0 110.64 0zm-90.04 5.55l0 11.23 -2.94 0 0 -6.03c0,-0.87 -0.02,-1.39 -0.07,-1.57 -0.04,-0.17 -0.16,-0.31 -0.36,-0.4 -0.19,-0.09 -0.63,-0.13 -1.31,-0.13l-0.29 0 0 -1.31c1.42,-0.29 2.5,-0.89 3.24,-1.79l1.73 0zm8.08 3.8l0 3.75c0,0.85 -0.05,1.47 -0.14,1.85 -0.1,0.39 -0.3,0.76 -0.61,1.09 -0.3,0.34 -0.67,0.58 -1.11,0.73 -0.43,0.15 -0.91,0.22 -1.44,0.22 -0.71,0 -1.29,-0.07 -1.76,-0.23 -0.46,-0.15 -0.83,-0.4 -1.11,-0.72 -0.28,-0.33 -0.47,-0.68 -0.59,-1.04 -0.12,-0.36 -0.18,-0.94 -0.18,-1.73l0 -3.92c0,-1.03 0.1,-1.8 0.29,-2.31 0.18,-0.52 0.55,-0.93 1.11,-1.24 0.55,-0.31 1.23,-0.46 2.02,-0.46 0.65,0 1.22,0.1 1.73,0.32 0.51,0.21 0.89,0.48 1.14,0.79 0.26,0.31 0.43,0.65 0.52,1.04 0.09,0.39 0.13,1.01 0.13,1.86zm-2.94 -0.94c0,-0.59 -0.03,-0.96 -0.09,-1.12 -0.06,-0.14 -0.2,-0.22 -0.43,-0.22 -0.22,0 -0.36,0.08 -0.43,0.24 -0.07,0.16 -0.11,0.53 -0.11,1.1l0 5.47c0,0.66 0.04,1.05 0.1,1.18 0.07,0.14 0.21,0.2 0.43,0.2 0.22,0 0.36,-0.08 0.43,-0.23 0.07,-0.16 0.1,-0.51 0.1,-1.06l0 -5.56zm5.97 6.08l0 2.29 -2.22 0 0 -2.29 2.22 0zm7.73 -5.14l0 3.75c0,0.85 -0.05,1.47 -0.15,1.85 -0.1,0.39 -0.3,0.76 -0.6,1.09 -0.31,0.34 -0.68,0.58 -1.11,0.73 -0.43,0.15 -0.91,0.22 -1.45,0.22 -0.7,0 -1.29,-0.07 -1.75,-0.23 -0.47,-0.15 -0.84,-0.4 -1.12,-0.72 -0.27,-0.33 -0.47,-0.68 -0.59,-1.04 -0.12,-0.36 -0.17,-0.94 -0.17,-1.73l0 -3.92c0,-1.03 0.09,-1.8 0.28,-2.31 0.19,-0.52 0.56,-0.93 1.11,-1.24 0.56,-0.31 1.23,-0.46 2.02,-0.46 0.65,0 1.23,0.1 1.74,0.32 0.51,0.21 0.89,0.48 1.14,0.79 0.25,0.31 0.42,0.65 0.51,1.04 0.09,0.39 0.14,1.01 0.14,1.86zm-2.94 -0.94c0,-0.59 -0.03,-0.96 -0.1,-1.12 -0.05,-0.14 -0.2,-0.22 -0.42,-0.22 -0.22,0 -0.37,0.08 -0.44,0.24 -0.07,0.16 -0.1,0.53 -0.1,1.1l0 5.47c0,0.66 0.03,1.05 0.1,1.18 0.06,0.14 0.2,0.2 0.42,0.2 0.22,0 0.37,-0.08 0.43,-0.23 0.07,-0.16 0.11,-0.51 0.11,-1.06l0 -5.56zm10.94 0.94l0 3.75c0,0.85 -0.05,1.47 -0.15,1.85 -0.1,0.39 -0.3,0.76 -0.6,1.09 -0.31,0.34 -0.68,0.58 -1.11,0.73 -0.43,0.15 -0.91,0.22 -1.45,0.22 -0.7,0 -1.29,-0.07 -1.75,-0.23 -0.47,-0.15 -0.84,-0.4 -1.12,-0.72 -0.27,-0.33 -0.47,-0.68 -0.59,-1.04 -0.11,-0.36 -0.17,-0.94 -0.17,-1.73l0 -3.92c0,-1.03 0.09,-1.8 0.28,-2.31 0.19,-0.52 0.56,-0.93 1.11,-1.24 0.56,-0.31 1.23,-0.46 2.02,-0.46 0.65,0 1.23,0.1 1.74,0.32 0.51,0.21 0.89,0.48 1.14,0.79 0.25,0.31 0.42,0.65 0.51,1.04 0.09,0.39 0.14,1.01 0.14,1.86zm-2.94 -0.94c0,-0.59 -0.03,-0.96 -0.09,-1.12 -0.06,-0.14 -0.21,-0.22 -0.43,-0.22 -0.22,0 -0.37,0.08 -0.44,0.24 -0.07,0.16 -0.1,0.53 -0.1,1.1l0 5.47c0,0.66 0.03,1.05 0.1,1.18 0.06,0.14 0.2,0.2 0.43,0.2 0.21,0 0.36,-0.08 0.43,-0.23 0.06,-0.16 0.1,-0.51 0.1,-1.06l0 -5.56zm12.86 2.81l0 1.93 -3.85 0 0 -1.93 3.85 0zm10.59 -5.67l0 11.23 -2.94 0 0 -6.03c0,-0.87 -0.02,-1.39 -0.06,-1.57 -0.04,-0.17 -0.16,-0.31 -0.36,-0.4 -0.2,-0.09 -0.63,-0.13 -1.31,-0.13l-0.29 0 0 -1.31c1.42,-0.29 2.5,-0.89 3.23,-1.79l1.73 0zm1.15 8.25l2.94 0c0,0.52 0.01,0.86 0.02,0.99 0.02,0.14 0.08,0.25 0.18,0.35 0.11,0.09 0.25,0.14 0.43,0.14 0.16,0 0.28,-0.05 0.38,-0.14 0.1,-0.08 0.15,-0.2 0.17,-0.34 0.01,-0.13 0.01,-0.41 0.01,-0.83l0 -1.79c-0.14,0.3 -0.36,0.52 -0.65,0.67 -0.3,0.15 -0.66,0.23 -1.09,0.23 -0.54,0 -1.02,-0.14 -1.43,-0.42 -0.42,-0.28 -0.68,-0.61 -0.79,-1 -0.11,-0.39 -0.17,-0.91 -0.17,-1.58l0 -0.89c0,-0.79 0.03,-1.37 0.1,-1.76 0.06,-0.38 0.23,-0.74 0.51,-1.06 0.27,-0.33 0.64,-0.58 1.13,-0.76 0.48,-0.18 1.04,-0.27 1.67,-0.27 0.79,0 1.44,0.1 1.94,0.31 0.51,0.21 0.9,0.51 1.18,0.9 0.28,0.39 0.43,0.8 0.48,1.23 0.04,0.43 0.06,1.26 0.06,2.5l0 1.56c0,1.33 -0.02,2.23 -0.05,2.68 -0.04,0.45 -0.21,0.88 -0.51,1.28 -0.3,0.4 -0.7,0.7 -1.21,0.91 -0.52,0.2 -1.11,0.3 -1.78,0.3 -0.83,0 -1.51,-0.13 -2.03,-0.38 -0.53,-0.26 -0.91,-0.62 -1.14,-1.08 -0.23,-0.46 -0.35,-1.05 -0.35,-1.75zm2.94 -3.5c0,0.48 0.07,0.77 0.2,0.88 0.13,0.11 0.26,0.16 0.4,0.16 0.2,0 0.36,-0.07 0.45,-0.21 0.1,-0.14 0.14,-0.42 0.14,-0.83l0 -2.03c0,-0.5 -0.04,-0.82 -0.13,-0.97 -0.09,-0.15 -0.24,-0.23 -0.46,-0.23 -0.12,0 -0.26,0.06 -0.39,0.18 -0.14,0.12 -0.21,0.43 -0.21,0.95l0 2.1zm7.11 4.19l0 2.29 -2.22 0 0 -2.29 2.22 0zm7.72 -5.14l0 3.75c0,0.85 -0.05,1.47 -0.14,1.85 -0.1,0.39 -0.3,0.76 -0.61,1.09 -0.3,0.34 -0.67,0.58 -1.11,0.73 -0.43,0.15 -0.91,0.22 -1.44,0.22 -0.71,0 -1.29,-0.07 -1.76,-0.23 -0.46,-0.15 -0.83,-0.4 -1.11,-0.72 -0.28,-0.33 -0.48,-0.68 -0.59,-1.04 -0.12,-0.36 -0.18,-0.94 -0.18,-1.73l0 -3.92c0,-1.03 0.1,-1.8 0.29,-2.31 0.18,-0.52 0.55,-0.93 1.11,-1.24 0.55,-0.31 1.23,-0.46 2.02,-0.46 0.65,0 1.22,0.1 1.73,0.32 0.51,0.21 0.89,0.48 1.14,0.79 0.26,0.31 0.43,0.65 0.52,1.04 0.09,0.39 0.13,1.01 0.13,1.86zm-2.94 -0.94c0,-0.59 -0.03,-0.96 -0.09,-1.12 -0.06,-0.14 -0.2,-0.22 -0.43,-0.22 -0.22,0 -0.36,0.08 -0.43,0.24 -0.07,0.16 -0.11,0.53 -0.11,1.1l0 5.47c0,0.66 0.04,1.05 0.1,1.18 0.07,0.14 0.21,0.2 0.43,0.2 0.22,0 0.36,-0.08 0.43,-0.23 0.07,-0.16 0.1,-0.51 0.1,-1.06l0 -5.56zm10.94 0.94l0 3.75c0,0.85 -0.05,1.47 -0.14,1.85 -0.1,0.39 -0.3,0.76 -0.61,1.09 -0.3,0.34 -0.67,0.58 -1.1,0.73 -0.43,0.15 -0.92,0.22 -1.45,0.22 -0.71,0 -1.29,-0.07 -1.76,-0.23 -0.46,-0.15 -0.83,-0.4 -1.11,-0.72 -0.28,-0.33 -0.47,-0.68 -0.59,-1.04 -0.12,-0.36 -0.18,-0.94 -0.18,-1.73l0 -3.92c0,-1.03 0.1,-1.8 0.29,-2.31 0.18,-0.52 0.55,-0.93 1.11,-1.24 0.55,-0.31 1.23,-0.46 2.02,-0.46 0.65,0 1.22,0.1 1.73,0.32 0.51,0.21 0.89,0.48 1.14,0.79 0.26,0.31 0.43,0.65 0.52,1.04 0.09,0.39 0.13,1.01 0.13,1.86zm-2.94 -0.94c0,-0.59 -0.03,-0.96 -0.09,-1.12 -0.06,-0.14 -0.2,-0.22 -0.43,-0.22 -0.22,0 -0.36,0.08 -0.43,0.24 -0.07,0.16 -0.11,0.53 -0.11,1.1l0 5.47c0,0.66 0.04,1.05 0.1,1.18 0.07,0.14 0.21,0.2 0.43,0.2 0.22,0 0.36,-0.08 0.43,-0.23 0.07,-0.16 0.1,-0.51 0.1,-1.06l0 -5.56z"/>
  <path fill="white" fill-opacity="0.901961" d="M0 33.56c0,-3.05 0,-4.58 0.59,-5.74 0.52,-1.03 1.36,-1.86 2.38,-2.39 1.17,-0.59 2.7,-0.59 5.75,-0.59l4.91 0c3.05,0 4.57,0 5.74,0.59 1.03,0.53 1.86,1.36 2.38,2.39 0.6,1.16 0.6,2.69 0.6,5.74l0 4.91c0,3.05 0,4.58 -0.6,5.74 -0.52,1.03 -1.35,1.86 -2.38,2.38 -1.17,0.6 -2.69,0.6 -5.74,0.6l-4.91 0c-3.05,0 -4.58,0 -5.75,-0.6 -1.02,-0.52 -1.86,-1.35 -2.38,-2.38 -0.59,-1.16 -0.59,-2.69 -0.59,-5.74l0 -4.91zm10.7 1.73l-2.88 0 0 -1.94c0,-0.57 -0.03,-0.92 -0.09,-1.06 -0.06,-0.14 -0.2,-0.21 -0.41,-0.21 -0.23,0 -0.38,0.08 -0.44,0.25 -0.07,0.17 -0.1,0.54 -0.1,1.11l0 5.2c0,0.54 0.03,0.9 0.1,1.06 0.06,0.17 0.2,0.25 0.42,0.25 0.21,0 0.35,-0.08 0.42,-0.25 0.06,-0.16 0.1,-0.56 0.1,-1.17l0 -1.41 2.88 0 0 0.44c0,1.16 -0.08,1.98 -0.24,2.46 -0.16,0.49 -0.52,0.92 -1.07,1.28 -0.56,0.37 -1.24,0.55 -2.05,0.55 -0.85,0 -1.54,-0.15 -2.09,-0.46 -0.55,-0.31 -0.91,-0.74 -1.09,-1.29 -0.18,-0.55 -0.27,-1.37 -0.27,-2.46l0 -3.28c0,-0.8 0.03,-1.41 0.08,-1.81 0.06,-0.4 0.22,-0.79 0.5,-1.17 0.27,-0.37 0.64,-0.67 1.12,-0.88 0.49,-0.22 1.04,-0.32 1.66,-0.32 0.85,0 1.55,0.16 2.11,0.5 0.55,0.33 0.91,0.74 1.09,1.24 0.17,0.49 0.25,1.26 0.25,2.31l0 1.06zm7.75 3.7c0,0.83 -0.11,1.43 -0.32,1.79 -0.21,0.37 -0.54,0.6 -0.98,0.69 -0.43,0.09 -1.13,0.14 -2.08,0.14l-3.33 0 0 -11.2 5.65 0 0 1.94 -2.77 0 0 1.89 0.45 0c0.89,0 1.56,0.06 2.02,0.16 0.45,0.11 0.8,0.34 1.02,0.71 0.23,0.36 0.34,0.93 0.34,1.7l0 2.18zm-2.89 -0.34l0 -1.62c0,-0.47 -0.04,-0.76 -0.14,-0.86 -0.09,-0.1 -0.36,-0.16 -0.8,-0.17l0 3.68c0.37,0 0.62,-0.04 0.75,-0.14 0.13,-0.09 0.19,-0.39 0.19,-0.89z"/>
  <g>
  </g>
  <g clip-path="url(#id10)">
   <g id="_2693464084848">
    <path fill="url(#id11)" fill-rule="nonzero" d="M5.45 24.84l11.45 0c3.01,0 5.45,2.44 5.45,5.45l0 11.45c0,3.01 -2.44,5.45 -5.45,5.45l-11.45 0c-3.01,0 -5.45,-2.44 -5.45,-5.45l0 -11.45c0,-3.01 2.44,-5.45 5.45,-5.45z" filter="url(#filter0_g_35_722)" data-figma-bg-blur-radius="20"/>
    <path fill="none" fill-rule="nonzero" fill-opacity="0.250980" stroke="black" stroke-width="0.2" stroke-miterlimit="22.9256" stroke-opacity="0.250980" d="M5.59 24.84l11.31 0c3.01,0 5.45,2.44 5.45,5.45l0 11.17c0,3.01 -2.44,5.46 -5.45,5.46l-11.31 0c-3.01,0 -5.46,-2.45 -5.46,-5.46l0 -11.17c0,-3.01 2.45,-5.45 5.46,-5.45z" filter="url(#filter4_f_35_722)"/>
   </g>
  </g>
  <path fill="none" d="M0 33.56c0,-3.05 0,-4.58 0.59,-5.74 0.52,-1.03 1.36,-1.86 2.38,-2.39 1.17,-0.59 2.7,-0.59 5.75,-0.59l4.91 0c3.05,0 4.57,0 5.74,0.59 1.03,0.53 1.86,1.36 2.38,2.39 0.6,1.16 0.6,2.69 0.6,5.74l0 4.91c0,3.05 0,4.58 -0.6,5.74 -0.52,1.03 -1.35,1.86 -2.38,2.38 -1.17,0.6 -2.69,0.6 -5.74,0.6l-4.91 0c-3.05,0 -4.58,0 -5.75,-0.6 -1.02,-0.52 -1.86,-1.35 -2.38,-2.38 -0.59,-1.16 -0.59,-2.69 -0.59,-5.74l0 -4.91zm10.7 1.73l-2.88 0 0 -1.94c0,-0.57 -0.03,-0.92 -0.09,-1.06 -0.06,-0.14 -0.2,-0.21 -0.41,-0.21 -0.23,0 -0.38,0.08 -0.44,0.25 -0.07,0.17 -0.1,0.54 -0.1,1.11l0 5.2c0,0.54 0.03,0.9 0.1,1.06 0.06,0.17 0.2,0.25 0.42,0.25 0.21,0 0.35,-0.08 0.42,-0.25 0.06,-0.16 0.1,-0.56 0.1,-1.17l0 -1.41 2.88 0 0 0.44c0,1.16 -0.08,1.98 -0.24,2.46 -0.16,0.49 -0.52,0.92 -1.07,1.28 -0.56,0.37 -1.24,0.55 -2.05,0.55 -0.85,0 -1.54,-0.15 -2.09,-0.46 -0.55,-0.31 -0.91,-0.74 -1.09,-1.29 -0.18,-0.55 -0.27,-1.37 -0.27,-2.46l0 -3.28c0,-0.8 0.03,-1.41 0.08,-1.81 0.06,-0.4 0.22,-0.79 0.5,-1.17 0.27,-0.37 0.64,-0.67 1.12,-0.88 0.49,-0.22 1.04,-0.32 1.66,-0.32 0.85,0 1.55,0.16 2.11,0.5 0.55,0.33 0.91,0.74 1.09,1.24 0.17,0.49 0.25,1.26 0.25,2.31l0 1.06zm7.75 3.7c0,0.83 -0.11,1.43 -0.32,1.79 -0.21,0.37 -0.54,0.6 -0.98,0.69 -0.43,0.09 -1.13,0.14 -2.08,0.14l-3.33 0 0 -11.2 5.65 0 0 1.94 -2.77 0 0 1.89 0.45 0c0.89,0 1.56,0.06 2.02,0.16 0.45,0.11 0.8,0.34 1.02,0.71 0.23,0.36 0.34,0.93 0.34,1.7l0 2.18zm-2.89 -0.34l0 -1.62c0,-0.47 -0.04,-0.76 -0.14,-0.86 -0.09,-0.1 -0.36,-0.16 -0.8,-0.17l0 3.68c0.37,0 0.62,-0.04 0.75,-0.14 0.13,-0.09 0.19,-0.39 0.19,-0.89z"/>
  <path fill="#EDEDED" fill-rule="nonzero" fill-opacity="0.901961" d="M127.74 30.39l0 11.25 -2.94 0 0 -6.04c0,-0.87 -0.02,-1.4 -0.06,-1.57 -0.05,-0.18 -0.16,-0.31 -0.36,-0.4 -0.2,-0.09 -0.64,-0.14 -1.31,-0.14l-0.3 0 0 -1.3c1.43,-0.29 2.51,-0.89 3.24,-1.8l1.73 0zm8.09 3.81l0 3.75c0,0.85 -0.05,1.47 -0.15,1.86 -0.1,0.39 -0.3,0.75 -0.6,1.09 -0.31,0.34 -0.68,0.58 -1.11,0.73 -0.43,0.15 -0.91,0.22 -1.45,0.22 -0.7,0 -1.28,-0.08 -1.75,-0.23 -0.47,-0.16 -0.84,-0.4 -1.12,-0.73 -0.27,-0.33 -0.47,-0.67 -0.59,-1.04 -0.11,-0.36 -0.17,-0.94 -0.17,-1.73l0 -3.92c0,-1.03 0.09,-1.81 0.28,-2.32 0.19,-0.51 0.56,-0.93 1.12,-1.24 0.55,-0.31 1.22,-0.46 2.01,-0.46 0.65,0 1.23,0.11 1.74,0.32 0.51,0.22 0.89,0.48 1.14,0.79 0.25,0.31 0.42,0.66 0.51,1.05 0.09,0.39 0.14,1.01 0.14,1.86zm-2.94 -0.94c0,-0.6 -0.03,-0.97 -0.09,-1.12 -0.06,-0.15 -0.2,-0.23 -0.43,-0.23 -0.22,0 -0.36,0.08 -0.43,0.24 -0.08,0.16 -0.11,0.53 -0.11,1.11l0 5.48c0,0.65 0.03,1.04 0.1,1.17 0.06,0.14 0.21,0.21 0.43,0.21 0.22,0 0.36,-0.08 0.43,-0.24 0.06,-0.16 0.1,-0.51 0.1,-1.06l0 -5.56zm5.97 6.09l0 2.29 -2.22 0 0 -2.29 2.22 0zm7.72 -5.15l0 3.75c0,0.85 -0.05,1.47 -0.14,1.86 -0.1,0.39 -0.3,0.75 -0.61,1.09 -0.3,0.34 -0.67,0.58 -1.11,0.73 -0.43,0.15 -0.91,0.22 -1.44,0.22 -0.71,0 -1.29,-0.08 -1.76,-0.23 -0.46,-0.16 -0.83,-0.4 -1.11,-0.73 -0.28,-0.33 -0.48,-0.67 -0.59,-1.04 -0.12,-0.36 -0.18,-0.94 -0.18,-1.73l0 -3.92c0,-1.03 0.1,-1.81 0.28,-2.32 0.19,-0.51 0.56,-0.93 1.12,-1.24 0.55,-0.31 1.23,-0.46 2.02,-0.46 0.64,0 1.22,0.11 1.73,0.32 0.51,0.22 0.89,0.48 1.14,0.79 0.26,0.31 0.43,0.66 0.52,1.05 0.09,0.39 0.13,1.01 0.13,1.86zm-2.94 -0.94c0,-0.6 -0.03,-0.97 -0.09,-1.12 -0.06,-0.15 -0.2,-0.23 -0.43,-0.23 -0.22,0 -0.36,0.08 -0.43,0.24 -0.07,0.16 -0.11,0.53 -0.11,1.11l0 5.48c0,0.65 0.04,1.04 0.1,1.17 0.07,0.14 0.21,0.21 0.43,0.21 0.22,0 0.36,-0.08 0.43,-0.24 0.07,-0.16 0.1,-0.51 0.1,-1.06l0 -5.56zm10.94 0.94l0 3.75c0,0.85 -0.05,1.47 -0.14,1.86 -0.1,0.39 -0.3,0.75 -0.61,1.09 -0.3,0.34 -0.67,0.58 -1.1,0.73 -0.44,0.15 -0.92,0.22 -1.45,0.22 -0.71,0 -1.29,-0.08 -1.76,-0.23 -0.46,-0.16 -0.83,-0.4 -1.11,-0.73 -0.28,-0.33 -0.47,-0.67 -0.59,-1.04 -0.12,-0.36 -0.18,-0.94 -0.18,-1.73l0 -3.92c0,-1.03 0.1,-1.81 0.29,-2.32 0.18,-0.51 0.55,-0.93 1.11,-1.24 0.55,-0.31 1.23,-0.46 2.02,-0.46 0.65,0 1.22,0.11 1.73,0.32 0.51,0.22 0.89,0.48 1.14,0.79 0.26,0.31 0.43,0.66 0.52,1.05 0.09,0.39 0.13,1.01 0.13,1.86zm-2.94 -0.94c0,-0.6 -0.03,-0.97 -0.09,-1.12 -0.06,-0.15 -0.2,-0.23 -0.43,-0.23 -0.22,0 -0.36,0.08 -0.43,0.24 -0.07,0.16 -0.11,0.53 -0.11,1.11l0 5.48c0,0.65 0.04,1.04 0.1,1.17 0.07,0.14 0.21,0.21 0.43,0.21 0.22,0 0.36,-0.08 0.43,-0.24 0.07,-0.16 0.1,-0.51 0.1,-1.06l0 -5.56zm12.86 2.8l0 1.94 -3.85 0 0 -1.94 3.85 0zm10.6 -5.67l0 11.25 -2.94 0 0 -6.04c0,-0.87 -0.02,-1.4 -0.06,-1.57 -0.05,-0.18 -0.17,-0.31 -0.36,-0.4 -0.2,-0.09 -0.64,-0.14 -1.32,-0.14l-0.29 0 0 -1.3c1.42,-0.29 2.5,-0.89 3.24,-1.8l1.73 0zm6.34 0l0 2.44 -1.88 8.81 -2.93 0 2.1 -9.23 -2.92 0 0 -2.02 5.63 0zm2.62 8.96l0 2.29 -2.22 0 0 -2.29 2.22 0zm7.72 -5.15l0 3.75c0,0.85 -0.05,1.47 -0.14,1.86 -0.1,0.39 -0.3,0.75 -0.61,1.09 -0.3,0.34 -0.67,0.58 -1.11,0.73 -0.43,0.15 -0.91,0.22 -1.44,0.22 -0.71,0 -1.29,-0.08 -1.76,-0.23 -0.46,-0.16 -0.83,-0.4 -1.11,-0.73 -0.28,-0.33 -0.47,-0.67 -0.59,-1.04 -0.12,-0.36 -0.18,-0.94 -0.18,-1.73l0 -3.92c0,-1.03 0.1,-1.81 0.29,-2.32 0.18,-0.51 0.55,-0.93 1.11,-1.24 0.55,-0.31 1.23,-0.46 2.02,-0.46 0.65,0 1.22,0.11 1.73,0.32 0.51,0.22 0.89,0.48 1.14,0.79 0.26,0.31 0.43,0.66 0.52,1.05 0.09,0.39 0.13,1.01 0.13,1.86zm-2.94 -0.94c0,-0.6 -0.03,-0.97 -0.09,-1.12 -0.06,-0.15 -0.2,-0.23 -0.43,-0.23 -0.22,0 -0.36,0.08 -0.43,0.24 -0.07,0.16 -0.11,0.53 -0.11,1.11l0 5.48c0,0.65 0.04,1.04 0.1,1.17 0.07,0.14 0.21,0.21 0.43,0.21 0.22,0 0.36,-0.08 0.43,-0.24 0.07,-0.16 0.1,-0.51 0.1,-1.06l0 -5.56zm10.94 0.94l0 3.75c0,0.85 -0.05,1.47 -0.14,1.86 -0.1,0.39 -0.3,0.75 -0.61,1.09 -0.3,0.34 -0.67,0.58 -1.1,0.73 -0.43,0.15 -0.92,0.22 -1.45,0.22 -0.71,0 -1.29,-0.08 -1.76,-0.23 -0.46,-0.16 -0.83,-0.4 -1.11,-0.73 -0.28,-0.33 -0.47,-0.67 -0.59,-1.04 -0.12,-0.36 -0.18,-0.94 -0.18,-1.73l0 -3.92c0,-1.03 0.1,-1.81 0.29,-2.32 0.18,-0.51 0.55,-0.93 1.11,-1.24 0.55,-0.31 1.23,-0.46 2.02,-0.46 0.65,0 1.22,0.11 1.73,0.32 0.51,0.22 0.89,0.48 1.14,0.79 0.26,0.31 0.43,0.66 0.52,1.05 0.09,0.39 0.13,1.01 0.13,1.86zm-2.94 -0.94c0,-0.6 -0.03,-0.97 -0.09,-1.12 -0.06,-0.15 -0.2,-0.23 -0.43,-0.23 -0.21,0 -0.36,0.08 -0.43,0.24 -0.07,0.16 -0.11,0.53 -0.11,1.11l0 5.48c0,0.65 0.04,1.04 0.1,1.17 0.07,0.14 0.21,0.21 0.43,0.21 0.22,0 0.36,-0.08 0.43,-0.24 0.07,-0.16 0.1,-0.51 0.1,-1.06l0 -5.56z"/>
  <g>
  </g>
  <g clip-path="url(#id12)">
   <g id="_2693464085184">
    <path fill="url(#id13)" fill-rule="nonzero" d="M15.11 24.34l190.78 0c50.16,0 90.84,2.55 90.84,5.7l0 11.95c0,3.15 -40.68,5.69 -90.84,5.69l-190.78 0c-50.17,0 -90.85,-2.54 -90.85,-5.69l0 -11.95c0,-3.15 40.68,-5.7 90.85,-5.7z" filter="url(#filter0_g_35_722)" data-figma-bg-blur-radius="20"/>
    <path fill="none" fill-rule="nonzero" fill-opacity="0.250980" stroke="black" stroke-width="0.2" stroke-miterlimit="22.9256" stroke-opacity="0.250980" d="M17.38 24.34l188.51 0c50.16,0 90.84,2.55 90.84,5.7l0 11.67c0,3.14 -40.68,5.69 -90.84,5.69l-188.51 0c-50.16,0 -90.85,-2.55 -90.85,-5.69l0 -11.67c0,-3.15 40.69,-5.7 90.85,-5.7z" filter="url(#filter4_f_35_722)"/>
   </g>
  </g>
  <path fill="none" d="M215.55 24.84c3.01,0 5.45,2.44 5.45,5.45l0 11.17 0 0.28c0,3.01 -2.44,5.45 -5.45,5.45l-185.27 0c-3.01,0 -5.45,-2.44 -5.45,-5.45l0 -11.45c0,-3.01 2.44,-5.45 5.45,-5.45l0.14 0 185.13 0zm-87.81 5.55l0 11.25 -2.94 0 0 -6.04c0,-0.87 -0.02,-1.4 -0.06,-1.57 -0.05,-0.18 -0.16,-0.31 -0.36,-0.4 -0.2,-0.09 -0.64,-0.14 -1.31,-0.14l-0.3 0 0 -1.3c1.43,-0.29 2.51,-0.89 3.24,-1.8l1.73 0zm8.09 3.81l0 3.75c0,0.85 -0.05,1.47 -0.15,1.86 -0.1,0.39 -0.3,0.75 -0.6,1.09 -0.31,0.34 -0.68,0.58 -1.11,0.73 -0.43,0.15 -0.91,0.22 -1.45,0.22 -0.7,0 -1.28,-0.08 -1.75,-0.23 -0.47,-0.16 -0.84,-0.4 -1.12,-0.73 -0.27,-0.33 -0.47,-0.67 -0.59,-1.04 -0.11,-0.36 -0.17,-0.94 -0.17,-1.73l0 -3.92c0,-1.03 0.09,-1.81 0.28,-2.32 0.19,-0.51 0.56,-0.93 1.12,-1.24 0.55,-0.31 1.22,-0.46 2.01,-0.46 0.65,0 1.23,0.11 1.74,0.32 0.51,0.22 0.89,0.48 1.14,0.79 0.25,0.31 0.42,0.66 0.51,1.05 0.09,0.39 0.14,1.01 0.14,1.86zm-2.94 -0.94c0,-0.6 -0.03,-0.97 -0.09,-1.12 -0.06,-0.15 -0.2,-0.23 -0.43,-0.23 -0.22,0 -0.36,0.08 -0.43,0.24 -0.08,0.16 -0.11,0.53 -0.11,1.11l0 5.48c0,0.65 0.03,1.04 0.1,1.17 0.06,0.14 0.21,0.21 0.43,0.21 0.22,0 0.36,-0.08 0.43,-0.24 0.06,-0.16 0.1,-0.51 0.1,-1.06l0 -5.56zm5.97 6.09l0 2.29 -2.22 0 0 -2.29 2.22 0zm7.72 -5.15l0 3.75c0,0.85 -0.05,1.47 -0.14,1.86 -0.1,0.39 -0.3,0.75 -0.61,1.09 -0.3,0.34 -0.67,0.58 -1.11,0.73 -0.43,0.15 -0.91,0.22 -1.44,0.22 -0.71,0 -1.29,-0.08 -1.76,-0.23 -0.46,-0.16 -0.83,-0.4 -1.11,-0.73 -0.28,-0.33 -0.48,-0.67 -0.59,-1.04 -0.12,-0.36 -0.18,-0.94 -0.18,-1.73l0 -3.92c0,-1.03 0.1,-1.81 0.28,-2.32 0.19,-0.51 0.56,-0.93 1.12,-1.24 0.55,-0.31 1.23,-0.46 2.02,-0.46 0.64,0 1.22,0.11 1.73,0.32 0.51,0.22 0.89,0.48 1.14,0.79 0.26,0.31 0.43,0.66 0.52,1.05 0.09,0.39 0.13,1.01 0.13,1.86zm-2.94 -0.94c0,-0.6 -0.03,-0.97 -0.09,-1.12 -0.06,-0.15 -0.2,-0.23 -0.43,-0.23 -0.22,0 -0.36,0.08 -0.43,0.24 -0.07,0.16 -0.11,0.53 -0.11,1.11l0 5.48c0,0.65 0.04,1.04 0.1,1.17 0.07,0.14 0.21,0.21 0.43,0.21 0.22,0 0.36,-0.08 0.43,-0.24 0.07,-0.16 0.1,-0.51 0.1,-1.06l0 -5.56zm10.94 0.94l0 3.75c0,0.85 -0.05,1.47 -0.14,1.86 -0.1,0.39 -0.3,0.75 -0.61,1.09 -0.3,0.34 -0.67,0.58 -1.1,0.73 -0.44,0.15 -0.92,0.22 -1.45,0.22 -0.71,0 -1.29,-0.08 -1.76,-0.23 -0.46,-0.16 -0.83,-0.4 -1.11,-0.73 -0.28,-0.33 -0.47,-0.67 -0.59,-1.04 -0.12,-0.36 -0.18,-0.94 -0.18,-1.73l0 -3.92c0,-1.03 0.1,-1.81 0.29,-2.32 0.18,-0.51 0.55,-0.93 1.11,-1.24 0.55,-0.31 1.23,-0.46 2.02,-0.46 0.65,0 1.22,0.11 1.73,0.32 0.51,0.22 0.89,0.48 1.14,0.79 0.26,0.31 0.43,0.66 0.52,1.05 0.09,0.39 0.13,1.01 0.13,1.86zm-2.94 -0.94c0,-0.6 -0.03,-0.97 -0.09,-1.12 -0.06,-0.15 -0.2,-0.23 -0.43,-0.23 -0.22,0 -0.36,0.08 -0.43,0.24 -0.07,0.16 -0.11,0.53 -0.11,1.11l0 5.48c0,0.65 0.04,1.04 0.1,1.17 0.07,0.14 0.21,0.21 0.43,0.21 0.22,0 0.36,-0.08 0.43,-0.24 0.07,-0.16 0.1,-0.51 0.1,-1.06l0 -5.56zm12.86 2.8l0 1.94 -3.85 0 0 -1.94 3.85 0zm10.6 -5.67l0 11.25 -2.94 0 0 -6.04c0,-0.87 -0.02,-1.4 -0.06,-1.57 -0.05,-0.18 -0.17,-0.31 -0.36,-0.4 -0.2,-0.09 -0.64,-0.14 -1.32,-0.14l-0.29 0 0 -1.3c1.42,-0.29 2.5,-0.89 3.24,-1.8l1.73 0zm6.34 0l0 2.44 -1.88 8.81 -2.93 0 2.1 -9.23 -2.92 0 0 -2.02 5.63 0zm2.62 8.96l0 2.29 -2.22 0 0 -2.29 2.22 0zm7.72 -5.15l0 3.75c0,0.85 -0.05,1.47 -0.14,1.86 -0.1,0.39 -0.3,0.75 -0.61,1.09 -0.3,0.34 -0.67,0.58 -1.11,0.73 -0.43,0.15 -0.91,0.22 -1.44,0.22 -0.71,0 -1.29,-0.08 -1.76,-0.23 -0.46,-0.16 -0.83,-0.4 -1.11,-0.73 -0.28,-0.33 -0.47,-0.67 -0.59,-1.04 -0.12,-0.36 -0.18,-0.94 -0.18,-1.73l0 -3.92c0,-1.03 0.1,-1.81 0.29,-2.32 0.18,-0.51 0.55,-0.93 1.11,-1.24 0.55,-0.31 1.23,-0.46 2.02,-0.46 0.65,0 1.22,0.11 1.73,0.32 0.51,0.22 0.89,0.48 1.14,0.79 0.26,0.31 0.43,0.66 0.52,1.05 0.09,0.39 0.13,1.01 0.13,1.86zm-2.94 -0.94c0,-0.6 -0.03,-0.97 -0.09,-1.12 -0.06,-0.15 -0.2,-0.23 -0.43,-0.23 -0.22,0 -0.36,0.08 -0.43,0.24 -0.07,0.16 -0.11,0.53 -0.11,1.11l0 5.48c0,0.65 0.04,1.04 0.1,1.17 0.07,0.14 0.21,0.21 0.43,0.21 0.22,0 0.36,-0.08 0.43,-0.24 0.07,-0.16 0.1,-0.51 0.1,-1.06l0 -5.56zm10.94 0.94l0 3.75c0,0.85 -0.05,1.47 -0.14,1.86 -0.1,0.39 -0.3,0.75 -0.61,1.09 -0.3,0.34 -0.67,0.58 -1.1,0.73 -0.43,0.15 -0.92,0.22 -1.45,0.22 -0.71,0 -1.29,-0.08 -1.76,-0.23 -0.46,-0.16 -0.83,-0.4 -1.11,-0.73 -0.28,-0.33 -0.47,-0.67 -0.59,-1.04 -0.12,-0.36 -0.18,-0.94 -0.18,-1.73l0 -3.92c0,-1.03 0.1,-1.81 0.29,-2.32 0.18,-0.51 0.55,-0.93 1.11,-1.24 0.55,-0.31 1.23,-0.46 2.02,-0.46 0.65,0 1.22,0.11 1.73,0.32 0.51,0.22 0.89,0.48 1.14,0.79 0.26,0.31 0.43,0.66 0.52,1.05 0.09,0.39 0.13,1.01 0.13,1.86zm-2.94 -0.94c0,-0.6 -0.03,-0.97 -0.09,-1.12 -0.06,-0.15 -0.2,-0.23 -0.43,-0.23 -0.21,0 -0.36,0.08 -0.43,0.24 -0.07,0.16 -0.11,0.53 -0.11,1.11l0 5.48c0,0.65 0.04,1.04 0.1,1.17 0.07,0.14 0.21,0.21 0.43,0.21 0.22,0 0.36,-0.08 0.43,-0.24 0.07,-0.16 0.1,-0.51 0.1,-1.06l0 -5.56z"/>
  <path fill="#EDEDED" fill-rule="nonzero" fill-opacity="0.901961" d="M3.94 55.24l2.87 0c0.9,0 1.59,0.07 2.06,0.21 0.46,0.14 0.84,0.43 1.13,0.87 0.29,0.43 0.43,1.14 0.43,2.1 0,0.66 -0.1,1.11 -0.31,1.37 -0.2,0.26 -0.6,0.46 -1.2,0.6 0.67,0.15 1.12,0.4 1.36,0.75 0.24,0.36 0.36,0.9 0.36,1.63l0 1.04c0,0.76 -0.09,1.32 -0.26,1.68 -0.17,0.36 -0.44,0.61 -0.81,0.75 -0.38,0.13 -1.14,0.2 -2.3,0.2l-3.33 0 0 -11.2zm2.89 1.91l0 2.49c0.12,0 0.21,-0.01 0.28,-0.01 0.27,0 0.45,-0.07 0.53,-0.21 0.07,-0.14 0.11,-0.54 0.11,-1.2 0,-0.36 -0.03,-0.6 -0.09,-0.74 -0.07,-0.14 -0.15,-0.23 -0.25,-0.27 -0.1,-0.04 -0.29,-0.06 -0.58,-0.06zm0 4.23l0 3.15c0.39,-0.02 0.65,-0.08 0.76,-0.2 0.11,-0.11 0.16,-0.4 0.16,-0.85l0 -1.05c0,-0.48 -0.05,-0.77 -0.15,-0.87 -0.09,-0.11 -0.35,-0.16 -0.77,-0.18zm11.58 -1.26l-2.89 0 0 -1.94c0,-0.57 -0.03,-0.92 -0.09,-1.06 -0.06,-0.14 -0.2,-0.21 -0.41,-0.21 -0.23,0 -0.38,0.08 -0.44,0.25 -0.07,0.18 -0.1,0.54 -0.1,1.11l0 5.2c0,0.54 0.03,0.9 0.1,1.07 0.06,0.16 0.2,0.24 0.42,0.24 0.21,0 0.35,-0.08 0.42,-0.25 0.07,-0.16 0.1,-0.55 0.1,-1.17l0 -1.41 2.89 0 0 0.44c0,1.16 -0.09,1.98 -0.25,2.47 -0.16,0.48 -0.52,0.91 -1.07,1.27 -0.56,0.37 -1.24,0.55 -2.05,0.55 -0.85,0 -1.54,-0.15 -2.09,-0.46 -0.55,-0.31 -0.91,-0.74 -1.09,-1.29 -0.18,-0.54 -0.27,-1.37 -0.27,-2.46l0 -3.27c0,-0.81 0.03,-1.42 0.09,-1.82 0.05,-0.4 0.21,-0.79 0.49,-1.17 0.27,-0.37 0.64,-0.66 1.12,-0.88 0.49,-0.21 1.04,-0.32 1.67,-0.32 0.84,0 1.54,0.17 2.1,0.5 0.55,0.33 0.91,0.74 1.09,1.24 0.17,0.49 0.26,1.26 0.26,2.31l0 1.06z"/>
  <g>
  </g>
  <g clip-path="url(#id14)">
   <g id="_2693464083984">
    <path fill="url(#id15)" fill-rule="nonzero" d="M5.45 49.67l11.45 0c3.01,0 5.45,2.44 5.45,5.45l0 11.45c0,3.01 -2.44,5.45 -5.45,5.45l-11.45 0c-3.01,0 -5.45,-2.44 -5.45,-5.45l0 -11.45c0,-3.01 2.44,-5.45 5.45,-5.45z" filter="url(#filter0_g_35_722)" data-figma-bg-blur-radius="20"/>
    <path fill="none" fill-rule="nonzero" fill-opacity="0.250980" stroke="black" stroke-width="0.2" stroke-miterlimit="22.9256" stroke-opacity="0.250980" d="M5.59 49.67l11.31 0c3.01,0 5.45,2.44 5.45,5.45l0 11.18c0,3.01 -2.44,5.45 -5.45,5.45l-11.31 0c-3.01,0 -5.46,-2.44 -5.46,-5.45l0 -11.18c0,-3.01 2.45,-5.45 5.46,-5.45z" filter="url(#filter4_f_35_722)"/>
   </g>
  </g>
  <path fill="none" d="M0 58.39c0,-3.05 0,-4.58 0.59,-5.74 0.52,-1.03 1.36,-1.86 2.38,-2.38 1.17,-0.6 2.7,-0.6 5.75,-0.6l4.91 0c3.05,0 4.57,0 5.74,0.6 1.03,0.52 1.86,1.35 2.38,2.38 0.6,1.16 0.6,2.69 0.6,5.74l0 4.91c0,3.05 0,4.58 -0.6,5.74 -0.52,1.03 -1.35,1.86 -2.38,2.39 -1.17,0.59 -2.69,0.59 -5.74,0.59l-4.91 0c-3.05,0 -4.58,0 -5.75,-0.59 -1.02,-0.53 -1.86,-1.36 -2.38,-2.39 -0.59,-1.16 -0.59,-2.69 -0.59,-5.74l0 -4.91zm3.94 -3.15l2.87 0c0.9,0 1.59,0.07 2.06,0.21 0.46,0.14 0.84,0.43 1.13,0.87 0.29,0.43 0.43,1.14 0.43,2.1 0,0.66 -0.1,1.11 -0.31,1.37 -0.2,0.26 -0.6,0.46 -1.2,0.6 0.67,0.15 1.12,0.4 1.36,0.75 0.24,0.36 0.36,0.9 0.36,1.63l0 1.04c0,0.76 -0.09,1.32 -0.26,1.68 -0.17,0.36 -0.44,0.61 -0.81,0.75 -0.38,0.13 -1.14,0.2 -2.3,0.2l-3.33 0 0 -11.2zm2.89 1.91l0 2.49c0.12,0 0.21,-0.01 0.28,-0.01 0.27,0 0.45,-0.07 0.53,-0.21 0.07,-0.14 0.11,-0.54 0.11,-1.2 0,-0.36 -0.03,-0.6 -0.09,-0.74 -0.07,-0.14 -0.15,-0.23 -0.25,-0.27 -0.1,-0.04 -0.29,-0.06 -0.58,-0.06zm0 4.23l0 3.15c0.39,-0.02 0.65,-0.08 0.76,-0.2 0.11,-0.11 0.16,-0.4 0.16,-0.85l0 -1.05c0,-0.48 -0.05,-0.77 -0.15,-0.87 -0.09,-0.11 -0.35,-0.16 -0.77,-0.18zm11.58 -1.26l-2.89 0 0 -1.94c0,-0.57 -0.03,-0.92 -0.09,-1.06 -0.06,-0.14 -0.2,-0.21 -0.41,-0.21 -0.23,0 -0.38,0.08 -0.44,0.25 -0.07,0.18 -0.1,0.54 -0.1,1.11l0 5.2c0,0.54 0.03,0.9 0.1,1.07 0.06,0.16 0.2,0.24 0.42,0.24 0.21,0 0.35,-0.08 0.42,-0.25 0.07,-0.16 0.1,-0.55 0.1,-1.17l0 -1.41 2.89 0 0 0.44c0,1.16 -0.09,1.98 -0.25,2.47 -0.16,0.48 -0.52,0.91 -1.07,1.27 -0.56,0.37 -1.24,0.55 -2.05,0.55 -0.85,0 -1.54,-0.15 -2.09,-0.46 -0.55,-0.31 -0.91,-0.74 -1.09,-1.29 -0.18,-0.54 -0.27,-1.37 -0.27,-2.46l0 -3.27c0,-0.81 0.03,-1.42 0.09,-1.82 0.05,-0.4 0.21,-0.79 0.49,-1.17 0.27,-0.37 0.64,-0.66 1.12,-0.88 0.49,-0.21 1.04,-0.32 1.67,-0.32 0.84,0 1.54,0.17 2.1,0.5 0.55,0.33 0.91,0.74 1.09,1.24 0.17,0.49 0.26,1.26 0.26,2.31l0 1.06z"/>
  <path fill="#EDEDED" fill-rule="nonzero" fill-opacity="0.901961" d="M35.42 66.45l-2.89 0 0 -8.97 -0.84 0 0 8.97 -2.88 0 0 -11.21 6.61 0 0 11.21zm7.78 -11.21l0 11.21 -2.89 0 0 -4.71 -0.84 0 0 4.71 -2.88 0 0 -11.21 2.88 0 0 4.01 0.84 0 0 -4.01 2.89 0z"/>
  <g>
  </g>
  <g clip-path="url(#id16)">
   <g id="_2693464083072">
    <path fill="url(#id17)" fill-rule="nonzero" d="M30.28 49.67l11.45 0c3.01,0 5.45,2.44 5.45,5.45l0 11.45c0,3.01 -2.44,5.45 -5.45,5.45l-11.45 0c-3.01,0 -5.45,-2.44 -5.45,-5.45l0 -11.45c0,-3.01 2.44,-5.45 5.45,-5.45z" filter="url(#filter0_g_35_722)" data-figma-bg-blur-radius="20"/>
    <path fill="none" fill-rule="nonzero" fill-opacity="0.250980" stroke="black" stroke-width="0.2" stroke-miterlimit="22.9256" stroke-opacity="0.250980" d="M30.42 49.67l11.31 0c3.01,0 5.45,2.44 5.45,5.45l0 11.18c0,3.01 -2.44,5.45 -5.45,5.45l-11.31 0c-3.01,0 -5.45,-2.44 -5.45,-5.45l0 -11.18c0,-3.01 2.44,-5.45 5.45,-5.45z" filter="url(#filter4_f_35_722)"/>
   </g>
  </g>
  <path fill="none" d="M24.83 58.39c0,-3.05 0,-4.58 0.59,-5.74 0.53,-1.03 1.36,-1.86 2.39,-2.38 1.16,-0.6 2.69,-0.6 5.74,-0.6l4.91 0c3.05,0 4.58,0 5.74,0.6 1.03,0.52 1.86,1.35 2.38,2.38 0.6,1.16 0.6,2.69 0.6,5.74l0 4.91c0,3.05 0,4.58 -0.6,5.74 -0.52,1.03 -1.35,1.86 -2.38,2.39 -1.16,0.59 -2.69,0.59 -5.74,0.59l-4.91 0c-3.05,0 -4.58,0 -5.74,-0.59 -1.03,-0.53 -1.86,-1.36 -2.39,-2.39 -0.59,-1.16 -0.59,-2.69 -0.59,-5.74l0 -4.91zm10.59 8.06l-2.89 0 0 -8.97 -0.84 0 0 8.97 -2.88 0 0 -11.21 6.61 0 0 11.21zm7.78 -11.21l0 11.21 -2.89 0 0 -4.71 -0.84 0 0 4.71 -2.88 0 0 -11.21 2.88 0 0 4.01 0.84 0 0 -4.01 2.89 0z"/>
  <path fill="white" fill-opacity="0.901961" d="M215.55 49.67c0.04,0 0.09,0 0.14,0 0.04,0 0.09,0.01 0.14,0.01 0.04,0 0.09,0 0.14,0.01 0.04,0 0.09,0 0.13,0.01 0.05,0 0.1,0.01 0.14,0.02 0.05,0 0.09,0.01 0.14,0.01 0.04,0.01 0.09,0.02 0.13,0.03 0.05,0 0.09,0.01 0.14,0.02 0.04,0.01 0.08,0.02 0.13,0.03 0.04,0.01 0.09,0.02 0.13,0.03 0.04,0.01 0.09,0.03 0.13,0.04 0.04,0.01 0.09,0.02 0.13,0.04 0.04,0.01 0.08,0.02 0.13,0.04 0.04,0.01 0.08,0.03 0.12,0.04 0.04,0.02 0.08,0.03 0.13,0.05 0.04,0.02 0.08,0.03 0.12,0.05 0.04,0.02 0.08,0.03 0.12,0.05 0.04,0.02 0.08,0.04 0.12,0.06 0.04,0.02 0.08,0.04 0.12,0.06 0.82,0.42 1.52,1.04 2.04,1.8 0.09,0.15 0.19,0.3 0.27,0.45 0.04,0.08 0.08,0.16 0.12,0.24 0.02,0.04 0.04,0.08 0.06,0.12 0.01,0.04 0.03,0.08 0.05,0.12 0.02,0.04 0.03,0.08 0.05,0.12 0.02,0.04 0.03,0.09 0.05,0.13 0.01,0.04 0.03,0.08 0.04,0.12 0.02,0.05 0.03,0.09 0.04,0.13 0.02,0.04 0.03,0.09 0.04,0.13 0.01,0.04 0.03,0.09 0.04,0.13 0.01,0.04 0.02,0.09 0.03,0.13 0.01,0.05 0.02,0.09 0.03,0.13 0.01,0.05 0.01,0.09 0.02,0.14 0.01,0.04 0.02,0.09 0.03,0.13 0,0.05 0.01,0.09 0.01,0.14 0.01,0.04 0.02,0.09 0.02,0.13 0,0.05 0.01,0.1 0.01,0.14 0.01,0.05 0.01,0.1 0.01,0.14 0,0.05 0.01,0.09 0.01,0.14 0,0.05 0,0.1 0,0.14l0 11.18 0 0 0 0.27c0,3.01 -2.44,5.45 -5.45,5.45l-160.44 0c-3.01,0 -5.45,-2.44 -5.45,-5.45l0 -11.45c0,-3.01 2.44,-5.45 5.45,-5.45l0.14 0 160.3 0zm-93.99 5.82l3.47 0c1.09,0 1.92,0.07 2.49,0.21 0.56,0.14 1.01,0.43 1.36,0.87 0.35,0.43 0.52,1.13 0.52,2.1 0,0.66 -0.12,1.11 -0.37,1.37 -0.24,0.26 -0.73,0.45 -1.45,0.59 0.81,0.16 1.35,0.41 1.64,0.76 0.29,0.36 0.43,0.9 0.43,1.63l0 1.04c0,0.75 -0.1,1.31 -0.31,1.68 -0.2,0.36 -0.53,0.61 -0.98,0.75 -0.45,0.13 -1.38,0.2 -2.78,0.2l-4.02 0 0 -11.2zm3.49 1.91l0 2.49c0.15,0 0.26,-0.01 0.34,-0.01 0.33,0 0.55,-0.07 0.64,-0.21 0.09,-0.14 0.14,-0.54 0.14,-1.21 0,-0.35 -0.04,-0.59 -0.12,-0.73 -0.07,-0.14 -0.17,-0.23 -0.29,-0.27 -0.12,-0.04 -0.36,-0.06 -0.71,-0.06zm0 4.23l0 3.15c0.48,-0.02 0.79,-0.08 0.92,-0.2 0.13,-0.11 0.2,-0.4 0.2,-0.85l0 -1.05c0,-0.48 -0.06,-0.77 -0.18,-0.88 -0.12,-0.1 -0.43,-0.15 -0.94,-0.17zm13.96 2.44c0,0.83 -0.13,1.43 -0.39,1.79 -0.25,0.37 -0.65,0.6 -1.17,0.69 -0.53,0.09 -1.37,0.14 -2.52,0.14l-4.02 0 0 -11.2 3.48 0 0 3.83 0.54 0c1.07,0 1.89,0.06 2.44,0.16 0.55,0.11 0.96,0.34 1.23,0.71 0.28,0.36 0.41,0.93 0.41,1.7l0 2.18zm-3.48 -0.34l0 -1.62c0,-0.47 -0.06,-0.76 -0.17,-0.86 -0.11,-0.1 -0.44,-0.16 -0.97,-0.17l0 3.68c0.45,0 0.75,-0.04 0.9,-0.14 0.16,-0.09 0.24,-0.39 0.24,-0.89zm8.15 2.96l-3.48 0 0 -11.2 3.48 0 0 11.2zm8.32 -11.2l-1.22 4.95 1.85 6.25 -3.22 0c-0.38,-1.12 -0.74,-2.48 -1.06,-4.09 -0.1,0.72 -0.23,1.47 -0.39,2.26l-0.31 1.83 -3.38 0 1.27 -6.25 -1.27 -4.95 3.37 0c0.07,0.3 0.18,0.82 0.35,1.54 0.14,0.55 0.26,1.06 0.36,1.52l0.74 -3.06 2.91 0zm9.05 6.56c0,1.13 -0.03,1.92 -0.09,2.39 -0.06,0.47 -0.26,0.9 -0.59,1.29 -0.34,0.38 -0.79,0.68 -1.35,0.89 -0.57,0.21 -1.23,0.31 -1.98,0.31 -0.72,0 -1.36,-0.1 -1.93,-0.3 -0.57,-0.19 -1.03,-0.48 -1.37,-0.88 -0.35,-0.39 -0.56,-0.82 -0.62,-1.28 -0.07,-0.46 -0.1,-1.27 -0.1,-2.42l0 -1.91c0,-1.13 0.03,-1.93 0.09,-2.39 0.06,-0.47 0.26,-0.9 0.59,-1.29 0.34,-0.38 0.79,-0.68 1.36,-0.89 0.56,-0.21 1.22,-0.31 1.98,-0.31 0.71,0 1.35,0.1 1.92,0.29 0.57,0.2 1.03,0.49 1.38,0.88 0.34,0.4 0.55,0.82 0.62,1.28 0.06,0.47 0.09,1.27 0.09,2.43l0 1.91zm-3.48 -3.68c0,-0.52 -0.04,-0.85 -0.1,-1 -0.07,-0.14 -0.21,-0.21 -0.42,-0.21 -0.18,0 -0.31,0.06 -0.41,0.17 -0.09,0.12 -0.14,0.47 -0.14,1.04l0 5.23c0,0.65 0.03,1.05 0.1,1.2 0.06,0.16 0.2,0.23 0.43,0.23 0.23,0 0.38,-0.09 0.44,-0.26 0.07,-0.18 0.1,-0.59 0.1,-1.25l0 -5.15zm12.34 10.3l2.4 0 0 -4.33 -0.71 0 0 -8.85 -7.71 0 0 0.33c0,1.78 -0.13,3.41 -0.36,4.91 -0.24,1.5 -0.55,2.7 -0.93,3.62l-0.71 0 0 4.32 2.4 0 0 -1.98 5.62 0 0 1.98zm-1.79 -4.33l0 -6.65 -1.04 0 0 0.09c0,2.14 -0.27,4.33 -0.82,6.56l1.86 0zm13.26 -8.85l0 11.2 -3.49 0 0 -4.7 -1.01 0 0 4.7 -3.49 0 0 -11.2 3.49 0 0 4 1.01 0 0 -4 3.49 0zm9.34 6.56c0,1.13 -0.03,1.92 -0.09,2.39 -0.06,0.47 -0.26,0.9 -0.59,1.29 -0.34,0.38 -0.79,0.68 -1.35,0.89 -0.57,0.21 -1.23,0.31 -1.98,0.31 -0.72,0 -1.36,-0.1 -1.93,-0.3 -0.57,-0.19 -1.03,-0.48 -1.37,-0.88 -0.35,-0.39 -0.56,-0.82 -0.62,-1.28 -0.07,-0.46 -0.1,-1.27 -0.1,-2.42l0 -1.91c0,-1.13 0.03,-1.93 0.09,-2.39 0.06,-0.47 0.26,-0.9 0.59,-1.29 0.34,-0.38 0.79,-0.68 1.36,-0.89 0.56,-0.21 1.22,-0.31 1.98,-0.31 0.71,0 1.35,0.1 1.92,0.29 0.57,0.2 1.03,0.49 1.38,0.88 0.34,0.4 0.55,0.82 0.62,1.28 0.06,0.47 0.09,1.27 0.09,2.43l0 1.91zm-3.48 -3.68c0,-0.52 -0.04,-0.85 -0.1,-1 -0.07,-0.14 -0.21,-0.21 -0.42,-0.21 -0.18,0 -0.31,0.06 -0.41,0.17 -0.09,0.12 -0.14,0.47 -0.14,1.04l0 5.23c0,0.65 0.03,1.05 0.1,1.2 0.06,0.16 0.2,0.23 0.43,0.23 0.23,0 0.38,-0.09 0.44,-0.26 0.07,-0.18 0.1,-0.59 0.1,-1.25l0 -5.15zm12.54 8.32l-2.91 0 0 -5.1 -1.81 5.1 -3.03 0 0 -11.2 2.91 0 0 5.05 1.95 -5.05 2.89 0 0 11.2zm-2.91 -13.67l1.4 0c-0.03,0.63 -0.25,1.13 -0.66,1.52 -0.4,0.38 -0.96,0.57 -1.69,0.57 -0.72,0 -1.29,-0.19 -1.69,-0.58 -0.4,-0.38 -0.61,-0.88 -0.65,-1.51l1.41 0c0.06,0.63 0.37,0.95 0.93,0.95 0.56,0 0.88,-0.32 0.95,-0.95z"/>
  <g>
  </g>
  <g clip-path="url(#id18)">
   <g id="_2693464080000">
    <path fill="url(#id19)" fill-rule="nonzero" d="M15.11 49.17l190.78 0c50.16,0 90.84,2.55 90.84,5.7l0 11.95c0,3.15 -40.68,5.7 -90.84,5.7l-190.78 0c-50.17,0 -90.85,-2.55 -90.85,-5.7l0 -11.95c0,-3.15 40.68,-5.7 90.85,-5.7z" filter="url(#filter0_g_35_722)" data-figma-bg-blur-radius="20"/>
    <path fill="none" fill-rule="nonzero" fill-opacity="0.250980" stroke="black" stroke-width="0.2" stroke-miterlimit="22.9256" stroke-opacity="0.250980" d="M17.38 49.17l188.51 0c50.16,0 90.84,2.55 90.84,5.7l0 11.67c0,3.14 -40.68,5.69 -90.84,5.69l-188.51 0c-50.16,0 -90.85,-2.55 -90.85,-5.69l0 -11.67c0,-3.15 40.69,-5.7 90.85,-5.7z" filter="url(#filter4_f_35_722)"/>
   </g>
  </g>
  <path fill="none" d="M215.55 49.67c0.04,0 0.09,0 0.14,0 0.04,0 0.09,0.01 0.14,0.01 0.04,0 0.09,0 0.14,0.01 0.04,0 0.09,0 0.13,0.01 0.05,0 0.1,0.01 0.14,0.02 0.05,0 0.09,0.01 0.14,0.01 0.04,0.01 0.09,0.02 0.13,0.03 0.05,0 0.09,0.01 0.14,0.02 0.04,0.01 0.08,0.02 0.13,0.03 0.04,0.01 0.09,0.02 0.13,0.03 0.04,0.01 0.09,0.03 0.13,0.04 0.04,0.01 0.09,0.02 0.13,0.04 0.04,0.01 0.08,0.02 0.13,0.04 0.04,0.01 0.08,0.03 0.12,0.04 0.04,0.02 0.08,0.03 0.13,0.05 0.04,0.02 0.08,0.03 0.12,0.05 0.04,0.02 0.08,0.03 0.12,0.05 0.04,0.02 0.08,0.04 0.12,0.06 0.04,0.02 0.08,0.04 0.12,0.06 0.82,0.42 1.52,1.04 2.04,1.8 0.09,0.15 0.19,0.3 0.27,0.45 0.04,0.08 0.08,0.16 0.12,0.24 0.02,0.04 0.04,0.08 0.06,0.12 0.01,0.04 0.03,0.08 0.05,0.12 0.02,0.04 0.03,0.08 0.05,0.12 0.02,0.04 0.03,0.09 0.05,0.13 0.01,0.04 0.03,0.08 0.04,0.12 0.02,0.05 0.03,0.09 0.04,0.13 0.02,0.04 0.03,0.09 0.04,0.13 0.01,0.04 0.03,0.09 0.04,0.13 0.01,0.04 0.02,0.09 0.03,0.13 0.01,0.05 0.02,0.09 0.03,0.13 0.01,0.05 0.01,0.09 0.02,0.14 0.01,0.04 0.02,0.09 0.03,0.13 0,0.05 0.01,0.09 0.01,0.14 0.01,0.04 0.02,0.09 0.02,0.13 0,0.05 0.01,0.1 0.01,0.14 0.01,0.05 0.01,0.1 0.01,0.14 0,0.05 0.01,0.09 0.01,0.14 0,0.05 0,0.1 0,0.14l0 11.18 0 0 0 0.27c0,3.01 -2.44,5.45 -5.45,5.45l-160.44 0c-3.01,0 -5.45,-2.44 -5.45,-5.45l0 -11.45c0,-3.01 2.44,-5.45 5.45,-5.45l0.14 0 160.3 0zm-93.99 5.82l3.47 0c1.09,0 1.92,0.07 2.49,0.21 0.56,0.14 1.01,0.43 1.36,0.87 0.35,0.43 0.52,1.13 0.52,2.1 0,0.66 -0.12,1.11 -0.37,1.37 -0.24,0.26 -0.73,0.45 -1.45,0.59 0.81,0.16 1.35,0.41 1.64,0.76 0.29,0.36 0.43,0.9 0.43,1.63l0 1.04c0,0.75 -0.1,1.31 -0.31,1.68 -0.2,0.36 -0.53,0.61 -0.98,0.75 -0.45,0.13 -1.38,0.2 -2.78,0.2l-4.02 0 0 -11.2zm3.49 1.91l0 2.49c0.15,0 0.26,-0.01 0.34,-0.01 0.33,0 0.55,-0.07 0.64,-0.21 0.09,-0.14 0.14,-0.54 0.14,-1.21 0,-0.35 -0.04,-0.59 -0.12,-0.73 -0.07,-0.14 -0.17,-0.23 -0.29,-0.27 -0.12,-0.04 -0.36,-0.06 -0.71,-0.06zm0 4.23l0 3.15c0.48,-0.02 0.79,-0.08 0.92,-0.2 0.13,-0.11 0.2,-0.4 0.2,-0.85l0 -1.05c0,-0.48 -0.06,-0.77 -0.18,-0.88 -0.12,-0.1 -0.43,-0.15 -0.94,-0.17zm13.96 2.44c0,0.83 -0.13,1.43 -0.39,1.79 -0.25,0.37 -0.65,0.6 -1.17,0.69 -0.53,0.09 -1.37,0.14 -2.52,0.14l-4.02 0 0 -11.2 3.48 0 0 3.83 0.54 0c1.07,0 1.89,0.06 2.44,0.16 0.55,0.11 0.96,0.34 1.23,0.71 0.28,0.36 0.41,0.93 0.41,1.7l0 2.18zm-3.48 -0.34l0 -1.62c0,-0.47 -0.06,-0.76 -0.17,-0.86 -0.11,-0.1 -0.44,-0.16 -0.97,-0.17l0 3.68c0.45,0 0.75,-0.04 0.9,-0.14 0.16,-0.09 0.24,-0.39 0.24,-0.89zm8.15 2.96l-3.48 0 0 -11.2 3.48 0 0 11.2zm8.32 -11.2l-1.22 4.95 1.85 6.25 -3.22 0c-0.38,-1.12 -0.74,-2.48 -1.06,-4.09 -0.1,0.72 -0.23,1.47 -0.39,2.26l-0.31 1.83 -3.38 0 1.27 -6.25 -1.27 -4.95 3.37 0c0.07,0.3 0.18,0.82 0.35,1.54 0.14,0.55 0.26,1.06 0.36,1.52l0.74 -3.06 2.91 0zm9.05 6.56c0,1.13 -0.03,1.92 -0.09,2.39 -0.06,0.47 -0.26,0.9 -0.59,1.29 -0.34,0.38 -0.79,0.68 -1.35,0.89 -0.57,0.21 -1.23,0.31 -1.98,0.31 -0.72,0 -1.36,-0.1 -1.93,-0.3 -0.57,-0.19 -1.03,-0.48 -1.37,-0.88 -0.35,-0.39 -0.56,-0.82 -0.62,-1.28 -0.07,-0.46 -0.1,-1.27 -0.1,-2.42l0 -1.91c0,-1.13 0.03,-1.93 0.09,-2.39 0.06,-0.47 0.26,-0.9 0.59,-1.29 0.34,-0.38 0.79,-0.68 1.36,-0.89 0.56,-0.21 1.22,-0.31 1.98,-0.31 0.71,0 1.35,0.1 1.92,0.29 0.57,0.2 1.03,0.49 1.38,0.88 0.34,0.4 0.55,0.82 0.62,1.28 0.06,0.47 0.09,1.27 0.09,2.43l0 1.91zm-3.48 -3.68c0,-0.52 -0.04,-0.85 -0.1,-1 -0.07,-0.14 -0.21,-0.21 -0.42,-0.21 -0.18,0 -0.31,0.06 -0.41,0.17 -0.09,0.12 -0.14,0.47 -0.14,1.04l0 5.23c0,0.65 0.03,1.05 0.1,1.2 0.06,0.16 0.2,0.23 0.43,0.23 0.23,0 0.38,-0.09 0.44,-0.26 0.07,-0.18 0.1,-0.59 0.1,-1.25l0 -5.15zm12.34 10.3l2.4 0 0 -4.33 -0.71 0 0 -8.85 -7.71 0 0 0.33c0,1.78 -0.13,3.41 -0.36,4.91 -0.24,1.5 -0.55,2.7 -0.93,3.62l-0.71 0 0 4.32 2.4 0 0 -1.98 5.62 0 0 1.98zm-1.79 -4.33l0 -6.65 -1.04 0 0 0.09c0,2.14 -0.27,4.33 -0.82,6.56l1.86 0zm13.26 -8.85l0 11.2 -3.49 0 0 -4.7 -1.01 0 0 4.7 -3.49 0 0 -11.2 3.49 0 0 4 1.01 0 0 -4 3.49 0zm9.34 6.56c0,1.13 -0.03,1.92 -0.09,2.39 -0.06,0.47 -0.26,0.9 -0.59,1.29 -0.34,0.38 -0.79,0.68 -1.35,0.89 -0.57,0.21 -1.23,0.31 -1.98,0.31 -0.72,0 -1.36,-0.1 -1.93,-0.3 -0.57,-0.19 -1.03,-0.48 -1.37,-0.88 -0.35,-0.39 -0.56,-0.82 -0.62,-1.28 -0.07,-0.46 -0.1,-1.27 -0.1,-2.42l0 -1.91c0,-1.13 0.03,-1.93 0.09,-2.39 0.06,-0.47 0.26,-0.9 0.59,-1.29 0.34,-0.38 0.79,-0.68 1.36,-0.89 0.56,-0.21 1.22,-0.31 1.98,-0.31 0.71,0 1.35,0.1 1.92,0.29 0.57,0.2 1.03,0.49 1.38,0.88 0.34,0.4 0.55,0.82 0.62,1.28 0.06,0.47 0.09,1.27 0.09,2.43l0 1.91zm-3.48 -3.68c0,-0.52 -0.04,-0.85 -0.1,-1 -0.07,-0.14 -0.21,-0.21 -0.42,-0.21 -0.18,0 -0.31,0.06 -0.41,0.17 -0.09,0.12 -0.14,0.47 -0.14,1.04l0 5.23c0,0.65 0.03,1.05 0.1,1.2 0.06,0.16 0.2,0.23 0.43,0.23 0.23,0 0.38,-0.09 0.44,-0.26 0.07,-0.18 0.1,-0.59 0.1,-1.25l0 -5.15zm12.54 8.32l-2.91 0 0 -5.1 -1.81 5.1 -3.03 0 0 -11.2 2.91 0 0 5.05 1.95 -5.05 2.89 0 0 11.2zm-2.91 -13.67l1.4 0c-0.03,0.63 -0.25,1.13 -0.66,1.52 -0.4,0.38 -0.96,0.57 -1.69,0.57 -0.72,0 -1.29,-0.19 -1.69,-0.58 -0.4,-0.38 -0.61,-0.88 -0.65,-1.51l1.41 0c0.06,0.63 0.37,0.95 0.93,0.95 0.56,0 0.88,-0.32 0.95,-0.95z"/>
 </g>
</svg>
