<?xml version="1.0" encoding="UTF-8"?>
<!DOCTYPE svg PUBLIC "-//W3C//DTD SVG 1.1//EN" "http://www.w3.org/Graphics/SVG/1.1/DTD/svg11.dtd">
<!-- Creator: CorelDRAW -->
<svg xmlns="http://www.w3.org/2000/svg" xml:space="preserve" width="256px" height="260px" version="1.1" shape-rendering="geometricPrecision" text-rendering="geometricPrecision" image-rendering="optimizeQuality" fill-rule="evenodd" clip-rule="evenodd"
viewBox="0 0 256 260.1"
 xmlns:xlink="http://www.w3.org/1999/xlink"
 xmlns:xodm="http://www.corel.com/coreldraw/odm/2003">
 <g id="Слой_x0020_1">
  <metadata id="CorelCorpID_0Corel-Layer"/>
  <path id="spb" fill="white" fill-rule="nonzero" d="M148.25 0.04c2,0 3.61,1.23 3.61,2.76 0,1.1 -0.83,2.03 -2.05,2.48l0 6.16c2.82,4.37 31.93,49.52 32.73,50.66l15.71 0 -2.64 -3.49 0 -1.54 -1.15 0 -3 -3.95 23 0 0 -7.13c-1.51,-0.44 -2.59,-1.57 -2.59,-2.91 0,-1.72 1.79,-3.12 3.98,-3.12 2.2,0 3.96,1.4 3.96,3.12 0,1.34 -1.07,2.47 -2.59,2.91l0 23.28 18.4 15.47 10.83 0 0 3.12 -4.2 0 0 30.36c1.8,-0.62 3.59,-1.24 5.39,-1.84l0 3.38c-1.76,1.25 -3.57,2.44 -5.39,3.72l0 16.47 6.44 0 1.82 -5.3c-0.99,-0.48 -1.65,-1.32 -1.65,-2.29 0,-1.5 1.57,-2.72 3.51,-2.72 1.94,0 3.53,1.22 3.53,2.72 0,1.26 -1.13,2.3 -2.63,2.61l-12.21 42.94c-7.67,6.66 -23.66,23.76 -8.75,30.74l-3.62 12.73 -77.34 0 0 16.92c4.92,1.46 8.47,5.64 8.47,10.59 0,6.16 -5.5,11.17 -12.28,11.17 -6.77,0 -12.26,-5.01 -12.26,-11.17 0,-4.95 3.56,-9.13 8.48,-10.59l0 -16.92 -70.82 0c-0.12,-2.89 -7.01,-13.43 -11.04,-17.78 -8.18,-8.85 -18.07,-19.96 -19.27,-23.53 -1.41,-4.19 0.32,-10.27 0.32,-10.27l-22.34 -23.24 2.55 -2.52 0 -10.21 -23.26 0 2.87 -3.78 0.77 0 0 -1.01 2.25 -2.97 -2.25 -3.12 0 -1.37 -0.98 0 -2.49 -3.47 23.09 0 0 -5.9c-1.26,-0.45 -2.16,-1.6 -2.16,-2.96 0,-1.74 1.48,-3.16 3.29,-3.16 1.32,0 2.43,0.74 2.95,1.82l11.98 0c0.35,-6.28 2.94,-12.58 5.05,-18.85l-5.47 0 0 -2.76 10.01 0 -0.15 -0.17 20.58 -18.32 0 -3.21 -26.38 0 2.91 -3.8 0.99 0 0 -1.29 2.58 -3.38 -2.58 -3.4 0 -1.26 -0.97 0 -3.1 -4.07 26.64 0 0 -6.18c-1.41,-0.32 -2.42,-1.22 -2.42,-2.29 0,-1.34 1.57,-2.42 3.53,-2.42 1.95,0 3.55,1.09 3.55,2.42 0,1 -0.89,1.86 -2.16,2.23l0 20.94 39.66 0 23.62 -31.64 0.43 -0.69 -16.34 0 2.8 -3.63 1.86 0 0 -2.42 2.42 -3.12 -2.42 -3.13 0 -2.05 -1.58 0 -3.08 -3.98 27.57 0 0.26 -0.43 0 -5.62c-1.4,-0.39 -2.42,-1.39 -2.42,-2.59 0,-1.53 1.63,-2.76 3.64,-2.76zm-6.91 14.89l-4.13 4.1 -4.11 -4.1 -1.45 1.45 4.1 4.11 -4.1 4.11 1.45 1.45 4.11 -4.11 4.13 4.11 1.45 -1.45 -4.1 -4.11 4.1 -4.11 -1.45 -1.45zm8.64 0.83l-0.17 0.15 0 18.53c1.63,0.49 2.76,1.46 2.76,2.59 0,1.12 -1.13,2.09 -2.76,2.59l0 1.04 19.3 21.44 9.92 0 -29.05 -46.34zm-4.51 14.01l-6.89 0 -23.94 32.33 9.56 0 21.27 -21.24 0 -1.09c-1.92,-0.44 -3.28,-1.5 -3.28,-2.74 0,-1.24 1.36,-2.31 3.28,-2.74l0 -4.52zm4.34 14.3l0 18.03 15.49 0 -15.49 -18.03zm-4.34 0.1l-17.33 17.93 17.33 0 0 -17.93zm-80.81 6.29l-4.13 4.11 -4.1 -4.11 -1.46 1.46 4.11 4.1 -4.11 4.11 1.46 1.46 4.1 -4.11 4.13 4.11 1.46 -1.46 -4.11 -4.11 4.11 -4.1 -1.46 -1.46zm146.96 6.06l-4.13 4.1 -4.11 -4.1 -1.45 1.45 4.1 4.11 -4.1 4.11 1.45 1.45 4.11 -4.11 4.13 4.11 1.45 -1.45 -4.11 -4.11 4.11 -4.11 -1.45 -1.45zm-14.94 8l-15.25 0 0.02 17.37c0.01,7.53 4.16,14.58 6.59,17.44 1.58,-5.37 3.69,-9.99 4.39,-11.47l-5.46 0 0 -3.12 9.44 0 17.47 -14.7 -21.37 0 2.1 -2.76 1 0 0 -1.35 1.07 -1.41zm-17.54 0l-8.83 0c-7.4,11.2 -10.07,37.67 3.7,52.2l13.09 0c-0.61,-2.56 -1,-5.15 -0.9,-7.42 0.1,-2.16 0.47,-4.41 0.99,-6.64 -1.5,-2.05 -7.89,-9.53 -7.9,-20.68l-0.02 -17.21 -0.13 -0.25zm-13.84 0l-15.49 0 0 4.64c11.24,-0.38 14.53,-3.04 15.49,-4.64zm-19.83 0l-9.63 0c0.55,1.3 2.55,3.99 9.63,4.56l0 -4.56zm-12.07 0l-12.64 0c0.57,1.39 2.09,3.46 6.22,3.44 4.4,-0.01 5.81,-1.95 6.42,-3.44zm-15.68 0l-4.86 0 -16.13 21.78 1.03 0 0 2.76 -2.76 0c2.98,10.07 6.34,19.15 9.9,27.66l13.14 0c-3.45,-4.77 -10.06,-15.52 -9.73,-27.66 0.35,-13.17 7.34,-22.16 9.41,-24.54zm-8.04 0l-36.12 0 0 3.08 19.45 18.7 0.43 0 16.24 -21.78zm-36.12 6.91l0 14.87 16.03 0 -16.03 -14.87zm-4.32 0.45l-16.49 14.42 16.49 0 0 -14.42zm147.98 1l0 11.86 14.1 0 -14.1 -11.86zm-2.76 0.28l-13.75 11.58 13.75 0 0 -11.58zm25.85 14.7l-0.26 0c-0.89,0.91 -10.16,10.65 -9.95,21.52 0.1,5.23 3.33,9.35 5.16,11.3 1.67,-0.61 3.35,-1.19 5.05,-1.78l0 -31.04zm-5.8 0l-16.05 0c0.61,1.01 2.76,3.99 7.41,4.15 4.34,0.15 8.64,-4.15 8.64,-4.15zm-21.22 0l-15.34 0c0.28,0.74 1.42,2.93 5.11,3.19 4.18,0.29 9.43,-2.72 10.23,-3.19zm-122.44 1.2l-0.47 0 -7.9 0c0.47,4.32 6.04,1.82 7.98,0.32l0.39 -0.32zm-11.88 0l-5.41 0 0 4.49c2.1,-0.76 4.03,-2.17 5.41,-4.49zm-9.73 0l-8.81 0c-0.05,2.63 4.17,5.12 8.81,5.2l0 -5.2zm-10.89 0l-10.44 0c2.22,6.87 9.56,1.93 10.44,0zm34.83 3.06c-3.43,6.23 -6.63,14.87 -3.68,24.6l12.99 0c-3.22,-7.63 -6.34,-15.73 -9.31,-24.6zm58.17 17.86l0 6.74 14.46 0 -0.28 -0.17c-2.91,-3.27 -8.67,-5.85 -14.18,-6.57zm-7.42 0.39c-2.93,0.88 -5.16,2.77 -5.89,6.01l0.02 0.34 5.87 0 0 -6.35zm-104.71 0.23l-11.98 0c-0.28,0.57 -0.75,1.05 -1.32,1.37l0 31.6 4.36 4.43 0.22 -0.15 15.21 -15.19c-3.59,-0.44 -6.9,-1.85 -9.76,-4.86l-1.3 0 0 -2.61 34.59 0 0 -5.05c-3.22,0.26 -6.42,1.68 -8.13,4.88l-2.25 0.13c-0.47,-2.1 -7.05,-6.29 -11.42,-0.13l-1.54 0c-4.59,-4.81 -6.41,-9.61 -6.68,-14.42zm88.02 1.22c-2.8,-0.08 -5.43,1.33 -6.59,4.9l14.83 0c-1.81,-2.87 -5.13,-4.81 -8.24,-4.9zm-108.57 8.49l-4.13 4.11 -4.11 -4.11 -1.46 1.46 4.11 4.11 -4.11 4.1 1.46 1.46 4.11 -4.11 4.13 4.11 1.45 -1.46 -4.11 -4.1 4.11 -4.11 -1.45 -1.46zm54.89 0.17l0 4.71 8.47 0 9.33 0c1.12,-0.29 -7.3,-6.67 -9.33,0l-2.95 -0.08c0.15,-2.09 -2.31,-3.87 -5.52,-4.63zm115.12 1.63c-1.84,1.44 -3.7,2.85 -6.14,3.42l10.76 22.85c2.33,-3.53 5.07,-6.66 8.16,-9.45l-9.31 -8.97 0 -0.04c-0.51,-0.66 -2.07,-3.83 -3.47,-7.81zm24.22 0.15c-0.4,0 -0.78,0 -1.2,0 -11.44,-0.11 -16.73,6.04 -17.63,7.19l8.95 8.11c3.02,-2.55 6.34,-4.82 9.88,-6.87l0 -8.43zm5.88 0.13l0 5.15c2.45,-1.2 4.98,-2.32 7.56,-3.4 -1.94,-1.17 -4.41,-1.59 -7.56,-1.75zm-126.86 0.04c0.5,0.91 1.05,1.84 1.67,2.76l4.17 0 0.04 2.7 -2.8 0c-0.07,0.08 -0.14,0.17 -0.21,0.25l6.18 12.75 8.94 -7.53c-1.26,-2.71 -2.52,-5.46 -3.76,-8.25 -4.46,0.19 -8.86,0.19 -12.54,-2.34 -0.54,-0.16 -1.11,-0.25 -1.69,-0.34zm148.39 2.46c-4.7,3.49 -9.34,7.79 -13.27,15.06l13.27 0 0 -15.06zm-131.66 0.45c0.99,2.22 2,4.4 3.01,6.57l5.55 -4.69c-2.93,0.33 -5.8,-0.18 -8.56,-1.88zm70.02 0.39c-2.91,1.99 -5.7,2.65 -8.43,2.69l16.71 38.45 1.65 0c0.24,-6.2 4.31,-6.12 7.08,-6.12l1.05 0c-0.15,-0.3 -1.84,-3.92 -2.55,-5.41 -1.88,0.78 -3.79,1.68 -5.73,2.71 0.97,-2.66 2.14,-5.15 3.48,-7.46 -4.77,-10.12 -10.39,-22.02 -11.7,-24.78 -0.49,0 -1.01,-0.02 -1.56,-0.08zm-41.31 1.02c-2.53,1.53 -5.01,2.25 -7.49,2.44 2.4,10.3 7.2,23.98 14.06,28.46l0 -26.55c-2.9,-0.63 -5.33,-1.98 -6.57,-4.35zm26.44 0.97l1.48 3.38 3.91 0 -1.19 -2.76c-1.41,-0.13 -2.81,-0.36 -4.2,-0.62zm-43.75 0l-7.44 6.2c4.9,10.42 9.93,20.42 14.67,30.98l16.65 0 0 -4.39c-6.13,-5.2 -11.87,-11.49 -16.07,-31.28 -2.62,-0.08 -5.22,-0.7 -7.81,-1.51zm41.74 0.42c-0.63,0.53 -1.63,1.05 -2.84,1.52l0.59 1.44 3.53 0 -1.28 -2.96zm-68.4 1.52c-1.93,1.99 -4.14,3.62 -6.93,4.41l6.85 13.29 6.07 -5.14 -5.99 -12.56zm63.63 0.64c-0.86,0.25 -1.78,0.48 -2.74,0.67l0.04 0.13 3.02 0 -0.32 -0.8zm-97.98 0.78c-3.51,0.97 -6.94,1.65 -10.19,1.73 1.22,5.14 3,9.58 5.07,13.56l11.51 -12.86c-2.35,-0.37 -4.53,-1.08 -6.39,-2.43zm93.17 0.21c-0.29,0.03 -0.57,0.08 -0.86,0.11l0 33.5 13.69 0 -12.83 -33.61zm17.6 1.22l-3.91 0 1.88 4.32 3.92 0 -1.89 -4.32zm-6.12 0l-3.57 0 1.78 4.32 3.68 0 -1.89 -4.32zm-5.77 0l-3.06 0 1.65 4.32 3.18 0 -1.77 -4.32zm-80.46 1.32c-0.81,0 -1.63,0.01 -2.44,0.03l1.32 3.1 3.88 0 -1.18 -2.74c-0.52,-0.1 -1.04,-0.24 -1.58,-0.39zm-29.83 0c-2.14,1.99 -13.81,13.72 -15.81,15.73l10.06 10.23 10.76 -12.01c-3.34,-6.4 -5.46,-12.19 -5.01,-13.95zm25.83 0.05c-0.15,0 -0.29,0.02 -0.43,0.02l0 30.51 9.47 -7.98 -9.11 -22.4 0.07 -0.15zm11.25 0.58c-1.14,0.15 -2.38,0.17 -3.72,0.04l1.07 2.46 3.87 0 -1.22 -2.5zm-16.95 0.06l-12.68 13.99c3.58,6.27 7.86,11.41 11.74,16.39l0.94 0 0 -30.38zm43.09 0.88l-8.94 7.46 10.7 22.04 12.08 0c-4.55,-10.12 -9.23,-19.65 -13.84,-29.5zm-24.56 2.33l-3.91 0 2.16 4.94 4.15 0 -2.4 -4.94zm-5.75 0l-3.88 0 2.1 4.94 3.87 0 -2.09 -4.94zm91.76 0.51l-3.92 0 1.88 4.32 3.92 0 -1.88 -4.32zm-6.12 0l-3.7 0 1.77 4.32 3.81 0 -1.88 -4.32zm-5.91 0l-3.23 0 1.65 4.32 3.36 0 -1.78 -4.32zm81.77 3.51l-4.13 4.11 -4.11 -4.11 -1.45 1.46 4.11 4.1 -4.11 4.11 1.45 1.46 4.11 -4.11 4.13 4.11 1.45 -1.46 -4.1 -4.11 4.1 -4.1 -1.45 -1.46zm-152.97 1.69l-4.19 0 2.16 4.92 4.41 0 -2.38 -4.92zm-6.09 0l-3.88 0 2.1 4.92 3.87 0 -2.09 -4.92zm91.8 0.54l-3.92 0 1.88 4.32 3.92 0 -1.88 -4.32zm-6.12 0l-3.83 0 1.77 4.32 3.94 0 -1.88 -4.32zm-6.03 0l-3.38 0 1.64 4.32 3.51 0 -1.77 -4.32zm-62.33 0.21l-6.03 5.05 8.07 15.66 7.85 0 -9.89 -20.71zm-9.15 4.96l-3.77 0 1.03 2.31 2.74 -2.31zm-5.74 0l-3.87 0 2.1 4.92 1.67 0 1.62 -1.37 -1.52 -3.55zm91.87 0.56l-3.92 0 1.89 4.32 3.91 0 -1.88 -4.32zm-6.12 0l-3.98 0 1.78 4.32 4.08 0 -1.88 -4.32zm-6.18 0l-3.55 0 1.64 4.32 3.68 0 -1.77 -4.32zm-111.19 0.21l-10.37 11.43 10.7 10.89 6.11 0 0 -7.34 4.3 0c-3.82,-3.75 -7.67,-9.45 -10.74,-14.98zm38.77 0.73l-3.29 2.76 0.27 0.66 4.69 0 -1.67 -3.42zm120.34 0.13c-5.36,0.44 -10.9,1.54 -16.71,3.74l2.93 6.23 13.78 0 0 -9.97zm-118.31 4.06l-4.7 0 2.16 4.95 4.94 0 -2.4 -4.95zm-6.76 0l-0.28 0 -2.65 2.21 1.2 2.8 0 -0.06 3.83 0 -2.1 -4.95zm-3.44 0l-0.43 0 0.11 0.28 0.32 -0.28zm159.21 0.28l-24.82 0 0 5.63 23.11 0 1.71 -5.63zm-63.84 0.32l-3.91 0 1.88 4.32 3.91 0 -1.88 -4.32zm-6.12 0l-4.1 0 1.77 4.32 4.22 0 -1.89 -4.32zm-6.31 0l-3.7 0 1.65 4.32 3.83 0 -1.78 -4.32zm-84.03 2.95l-7.79 6.51 10.44 0 -2.65 -6.51zm14.07 2.17l-4.98 0 1.9 4.34 5.18 0 -2.1 -4.34zm-7.1 0l-3.87 0 1.86 4.34 3.85 0 -1.84 -4.34zm91.99 0.62l-3.91 0 1.63 3.72 3.91 0 -1.63 -3.72zm-6.11 0l-4.26 0 1.52 3.72 4.36 0 -1.62 -3.72zm-6.46 0l-3.88 0 1.44 3.72 3.95 0 -1.51 -3.72zm36.04 12.85l-7.27 0 0 7.28 7.27 0 0 -7.28zm-13.92 0l-7.26 0 0 7.28 7.26 0 0 -7.28zm-13.91 0l-7.27 0 0 7.28 7.27 0 0 -7.28zm-13.93 0l-7.25 0 0 7.28 7.25 0 0 -7.28zm-24.28 0l-7.27 0 0 7.28 7.27 0 0 -7.28zm-13.93 0l-7.25 0 0 7.28 7.25 0 0 -7.28zm-13.9 0l-7.28 0 0 7.28 7.28 0 0 -7.28zm-13.93 0l-7.25 0 0 7.28 7.25 0 0 -7.28zm-44.44 6.06c-1.38,4.6 0.46,5.51 4.24,6.14 0.34,6.15 3.17,5.91 7.62,5.71 -0.52,-0.43 -11.86,-11.85 -11.86,-11.85zm143.69 8.21l-7.28 0 0 7.28 7.28 0 0 -7.28zm-13.93 0l-7.25 0 0 7.28 7.25 0 0 -7.28zm-13.91 0l-7.27 0 0 7.28 7.27 0 0 -7.28zm-35.28 0l-7.27 0 0 7.28 7.27 0 0 -7.28zm-13.92 0l-7.26 0 0 7.28 7.26 0 0 -7.28zm-13.91 0l-7.27 0 0 7.28 7.27 0 0 -7.28zm-13.93 0l-7.25 0 0 7.28 7.25 0 0 -7.28z"/>
 </g>
</svg>
