<?xml version="1.0" encoding="UTF-8"?>
<!DOCTYPE svg PUBLIC "-//W3C//DTD SVG 1.1//EN" "http://www.w3.org/Graphics/SVG/1.1/DTD/svg11.dtd">
<!-- Creator: CorelDRAW -->
<svg xmlns="http://www.w3.org/2000/svg" xml:space="preserve" width="221px" height="72px" version="1.1" shape-rendering="geometricPrecision" text-rendering="geometricPrecision" image-rendering="optimizeQuality" fill-rule="evenodd" clip-rule="evenodd"
viewBox="0 0 221 72.01"
 xmlns:xlink="http://www.w3.org/1999/xlink"
 xmlns:xodm="http://www.corel.com/coreldraw/odm/2003">
 <defs>
    <linearGradient id="id0" gradientUnits="userSpaceOnUse" x1="11.17" y1="0.01" x2="11.17" y2="22.36">
     <stop offset="0" stop-opacity="0.25098" stop-color="#D9D9D9"/>
     <stop offset="1" stop-opacity="0.2" stop-color="#0A0A0A"/>
    </linearGradient>
    <linearGradient id="id1" gradientUnits="userSpaceOnUse" x1="36" y1="0.01" x2="36" y2="22.36">
     <stop offset="0" stop-opacity="0.25098" stop-color="#D9D9D9"/>
     <stop offset="1" stop-opacity="0.2" stop-color="#0A0A0A"/>
    </linearGradient>
    <linearGradient id="id2" gradientUnits="userSpaceOnUse" x1="60.84" y1="0.01" x2="60.84" y2="22.36">
     <stop offset="0" stop-opacity="0.25098" stop-color="#D9D9D9"/>
     <stop offset="1" stop-opacity="0.2" stop-color="#0A0A0A"/>
    </linearGradient>
    <linearGradient id="id3" gradientUnits="userSpaceOnUse" x1="85.67" y1="0.01" x2="85.67" y2="22.36">
     <stop offset="0" stop-opacity="0.25098" stop-color="#D9D9D9"/>
     <stop offset="1" stop-opacity="0.2" stop-color="#0A0A0A"/>
    </linearGradient>
    <linearGradient id="id4" gradientUnits="userSpaceOnUse" x1="160.16" y1="0.01" x2="160.16" y2="22.36">
     <stop offset="0" stop-opacity="0.25098" stop-color="#D9D9D9"/>
     <stop offset="1" stop-opacity="0.2" stop-color="#0A0A0A"/>
    </linearGradient>
    <linearGradient id="id5" gradientUnits="userSpaceOnUse" x1="11.17" y1="24.84" x2="11.17" y2="47.19">
     <stop offset="0" stop-opacity="0.25098" stop-color="#D9D9D9"/>
     <stop offset="1" stop-opacity="0.2" stop-color="#0A0A0A"/>
    </linearGradient>
    <linearGradient id="id6" gradientUnits="userSpaceOnUse" x1="122.91" y1="24.84" x2="122.91" y2="47.19">
     <stop offset="0" stop-opacity="0.25098" stop-color="#D9D9D9"/>
     <stop offset="1" stop-opacity="0.2" stop-color="#0A0A0A"/>
    </linearGradient>
    <linearGradient id="id7" gradientUnits="userSpaceOnUse" x1="11.17" y1="49.67" x2="11.17" y2="72.02">
     <stop offset="0" stop-opacity="0.25098" stop-color="#D9D9D9"/>
     <stop offset="1" stop-opacity="0.2" stop-color="#0A0A0A"/>
    </linearGradient>
    <linearGradient id="id8" gradientUnits="userSpaceOnUse" x1="36" y1="49.67" x2="36" y2="72.02">
     <stop offset="0" stop-opacity="0.25098" stop-color="#D9D9D9"/>
     <stop offset="1" stop-opacity="0.2" stop-color="#0A0A0A"/>
    </linearGradient>
    <linearGradient id="id9" gradientUnits="userSpaceOnUse" x1="135.33" y1="49.67" x2="135.33" y2="72.02">
     <stop offset="0" stop-opacity="0.25098" stop-color="#D9D9D9"/>
     <stop offset="1" stop-opacity="0.2" stop-color="#0A0A0A"/>
    </linearGradient>
 </defs>
 <g id="Слой_x0020_1">
  <metadata id="CorelCorpID_0Corel-Layer"/>
  <g id="_2691712054800">
   <path fill="url(#id0)" fill-rule="nonzero" d="M5.45 0.01l11.45 0c3.01,0 5.45,2.44 5.45,5.45l0 11.45c0,3.01 -2.44,5.45 -5.45,5.45l-11.45 0c-3.01,0 -5.45,-2.44 -5.45,-5.45l0 -11.45c0,-3.01 2.44,-5.45 5.45,-5.45z" filter="url(#filter0_g_35_722)" data-figma-bg-blur-radius="20"/>
   <path fill="none" fill-rule="nonzero" fill-opacity="0.250980" stroke="black" stroke-width="0.2" stroke-miterlimit="22.9256" stroke-opacity="0.250980" d="M5.59 0.01l11.31 0c3.01,0 5.45,2.44 5.45,5.45l0 11.17c0,3.01 -2.44,5.45 -5.45,5.45l-11.31 0c-3.01,0 -5.46,-2.44 -5.46,-5.45l0 -11.17c0,-3.01 2.45,-5.45 5.46,-5.45z" filter="url(#filter4_f_35_722)"/>
  </g>
  <g id="_2691712055904">
   <path fill="url(#id1)" fill-rule="nonzero" d="M30.28 0.01l11.45 0c3.01,0 5.45,2.44 5.45,5.45l0 11.45c0,3.01 -2.44,5.45 -5.45,5.45l-11.45 0c-3.01,0 -5.45,-2.44 -5.45,-5.45l0 -11.45c0,-3.01 2.44,-5.45 5.45,-5.45z" filter="url(#filter0_g_35_722)" data-figma-bg-blur-radius="20"/>
   <path fill="none" fill-rule="nonzero" fill-opacity="0.250980" stroke="black" stroke-width="0.2" stroke-miterlimit="22.9256" stroke-opacity="0.250980" d="M30.42 0.01l11.31 0c3.01,0 5.45,2.44 5.45,5.45l0 11.17c0,3.01 -2.44,5.45 -5.45,5.45l-11.31 0c-3.01,0 -5.45,-2.44 -5.45,-5.45l0 -11.17c0,-3.01 2.44,-5.45 5.45,-5.45z" filter="url(#filter4_f_35_722)"/>
  </g>
  <g id="_2691716819520">
   <path fill="url(#id2)" fill-rule="nonzero" d="M55.11 0.01l11.45 0c3.01,0 5.45,2.44 5.45,5.45l0 11.45c0,3.01 -2.44,5.45 -5.45,5.45l-11.45 0c-3.01,0 -5.45,-2.44 -5.45,-5.45l0 -11.45c0,-3.01 2.44,-5.45 5.45,-5.45z" filter="url(#filter0_g_35_722)" data-figma-bg-blur-radius="20"/>
   <path fill="none" fill-rule="nonzero" fill-opacity="0.250980" stroke="black" stroke-width="0.2" stroke-miterlimit="22.9256" stroke-opacity="0.250980" d="M55.25 0.01l11.31 0c3.01,0 5.45,2.44 5.45,5.45l0 11.17c0,3.01 -2.44,5.45 -5.45,5.45l-11.31 0c-3.01,0 -5.45,-2.44 -5.45,-5.45l0 -11.17c0,-3.01 2.44,-5.45 5.45,-5.45z" filter="url(#filter4_f_35_722)"/>
  </g>
  <g id="_2691716818608">
   <path fill="url(#id3)" fill-rule="nonzero" d="M79.94 0.01l11.45 0c3.01,0 5.45,2.44 5.45,5.45l0 11.45c0,3.01 -2.44,5.45 -5.45,5.45l-11.45 0c-3.01,0 -5.45,-2.44 -5.45,-5.45l0 -11.45c0,-3.01 2.44,-5.45 5.45,-5.45z" filter="url(#filter0_g_35_722)" data-figma-bg-blur-radius="20"/>
   <path fill="none" fill-rule="nonzero" fill-opacity="0.250980" stroke="black" stroke-width="0.2" stroke-miterlimit="22.9256" stroke-opacity="0.250980" d="M80.08 0.01l11.31 0c3.01,0 5.45,2.44 5.45,5.45l0 11.17c0,3.01 -2.44,5.45 -5.45,5.45l-11.31 0c-3.01,0 -5.45,-2.44 -5.45,-5.45l0 -11.17c0,-3.01 2.44,-5.45 5.45,-5.45z" filter="url(#filter4_f_35_722)"/>
  </g>
  <g id="_2691716813664">
   <path fill="url(#id4)" fill-rule="nonzero" d="M215.55 0.01c3.01,0 5.45,2.44 5.45,5.45l0 11.45c0,3.01 -2.44,5.45 -5.45,5.45l-110.78 0c-3.01,0 -5.45,-2.44 -5.45,-5.45l0 -11.45c0,-3.01 2.44,-5.45 5.45,-5.45l110.78 0z" filter="url(#filter0_g_35_722)" data-figma-bg-blur-radius="20"/>
   <path fill="none" fill-rule="nonzero" fill-opacity="0.250980" stroke="black" stroke-width="0.2" stroke-miterlimit="22.9256" stroke-opacity="0.250980" d="M215.55 0.01c3.01,0 5.45,2.44 5.45,5.45l0 11.17c0,3.01 -2.44,5.45 -5.45,5.45l-110.64 0c-3.01,0 -5.45,-2.44 -5.45,-5.45l0 -11.17c0,-3.01 2.44,-5.45 5.45,-5.45l110.64 0z" filter="url(#filter4_f_35_722)"/>
  </g>
  <g id="_2691716812224">
   <path fill="url(#id5)" fill-rule="nonzero" d="M5.45 24.84l11.45 0c3.01,0 5.45,2.44 5.45,5.45l0 11.45c0,3.01 -2.44,5.45 -5.45,5.45l-11.45 0c-3.01,0 -5.45,-2.44 -5.45,-5.45l0 -11.45c0,-3.01 2.44,-5.45 5.45,-5.45z" filter="url(#filter0_g_35_722)" data-figma-bg-blur-radius="20"/>
   <path fill="none" fill-rule="nonzero" fill-opacity="0.250980" stroke="black" stroke-width="0.2" stroke-miterlimit="22.9256" stroke-opacity="0.250980" d="M5.59 24.84l11.31 0c3.01,0 5.45,2.44 5.45,5.45l0 11.17c0,3.01 -2.44,5.46 -5.45,5.46l-11.31 0c-3.01,0 -5.46,-2.45 -5.46,-5.46l0 -11.17c0,-3.01 2.45,-5.45 5.46,-5.45z" filter="url(#filter4_f_35_722)"/>
  </g>
  <g id="_2691716808336">
   <path fill="url(#id6)" fill-rule="nonzero" d="M215.55 24.84c3.01,0 5.45,2.44 5.45,5.45l0 11.45c0,3.01 -2.44,5.45 -5.45,5.45l-185.27 0c-3.01,0 -5.45,-2.44 -5.45,-5.45l0 -11.45c0,-3.01 2.44,-5.45 5.45,-5.45l185.27 0z" filter="url(#filter0_g_35_722)" data-figma-bg-blur-radius="20"/>
   <path fill="none" fill-rule="nonzero" fill-opacity="0.250980" stroke="black" stroke-width="0.2" stroke-miterlimit="22.9256" stroke-opacity="0.250980" d="M215.55 24.84c3.01,0 5.45,2.44 5.45,5.45l0 11.17c0,3.01 -2.44,5.46 -5.45,5.46l-185.13 0c-3.01,0 -5.45,-2.45 -5.45,-5.46l0 -11.17c0,-3.01 2.44,-5.45 5.45,-5.45l185.13 0z" filter="url(#filter4_f_35_722)"/>
  </g>
  <g id="_2691716807040">
   <path fill="url(#id7)" fill-rule="nonzero" d="M5.45 49.67l11.45 0c3.01,0 5.45,2.44 5.45,5.45l0 11.45c0,3.01 -2.44,5.45 -5.45,5.45l-11.45 0c-3.01,0 -5.45,-2.44 -5.45,-5.45l0 -11.45c0,-3.01 2.44,-5.45 5.45,-5.45z" filter="url(#filter0_g_35_722)" data-figma-bg-blur-radius="20"/>
   <path fill="none" fill-rule="nonzero" fill-opacity="0.250980" stroke="black" stroke-width="0.2" stroke-miterlimit="22.9256" stroke-opacity="0.250980" d="M5.59 49.67l11.31 0c3.01,0 5.45,2.44 5.45,5.45l0 11.18c0,3.01 -2.44,5.45 -5.45,5.45l-11.31 0c-3.01,0 -5.46,-2.44 -5.46,-5.45l0 -11.18c0,-3.01 2.45,-5.45 5.46,-5.45z" filter="url(#filter4_f_35_722)"/>
  </g>
  <g id="_2691716799792">
   <path fill="url(#id8)" fill-rule="nonzero" d="M30.28 49.67l11.45 0c3.01,0 5.45,2.44 5.45,5.45l0 11.45c0,3.01 -2.44,5.45 -5.45,5.45l-11.45 0c-3.01,0 -5.45,-2.44 -5.45,-5.45l0 -11.45c0,-3.01 2.44,-5.45 5.45,-5.45z" filter="url(#filter0_g_35_722)" data-figma-bg-blur-radius="20"/>
   <path fill="none" fill-rule="nonzero" fill-opacity="0.250980" stroke="black" stroke-width="0.2" stroke-miterlimit="22.9256" stroke-opacity="0.250980" d="M30.42 49.67l11.31 0c3.01,0 5.45,2.44 5.45,5.45l0 11.18c0,3.01 -2.44,5.45 -5.45,5.45l-11.31 0c-3.01,0 -5.45,-2.44 -5.45,-5.45l0 -11.18c0,-3.01 2.44,-5.45 5.45,-5.45z" filter="url(#filter4_f_35_722)"/>
  </g>
  <g id="_2691716796960">
   <path fill="url(#id9)" fill-rule="nonzero" d="M55.11 49.67c-3.01,0 -5.45,2.44 -5.45,5.45l0 11.45c0,3.01 2.44,5.45 5.45,5.45l160.44 0c3.01,0 5.45,-2.44 5.45,-5.45l0 -11.45c0,-3.01 -2.44,-5.45 -5.45,-5.45l-160.44 0z" filter="url(#filter0_g_35_722)" data-figma-bg-blur-radius="20"/>
   <path fill="none" fill-rule="nonzero" fill-opacity="0.250980" stroke="black" stroke-width="0.2" stroke-miterlimit="22.9256" stroke-opacity="0.250980" d="M215.55 49.67c3.01,0 5.45,2.44 5.45,5.45l0 11.18c0,3.01 -2.44,5.45 -5.45,5.45l-160.3 0c-3.01,0 -5.45,-2.44 -5.45,-5.45l0 -11.18c0,-3.01 2.44,-5.45 5.45,-5.45l160.3 0z" filter="url(#filter4_f_35_722)"/>
  </g>
 </g>
</svg>
